<svg xmlns="http://www.w3.org/2000/svg" width="286.667" height="298.667" version="1.0" viewBox="0 0 215 224"><path d="M136.2 33.1c.6 1.8.8 6 .5 9.8l-.5 6.7 4.8 1.7c5.5 2 12.5 7 14.9 10.7 1.4 2.2 1.2 2.2-2.4-.7-6.4-5.1-12.4-7.2-23.9-8.4-11.9-1.3-30.8 0-41.1 2.7-12.4 3.3-23.3 10.2-28.1 17.8l-2.8 4.4-2.6-6.7C50.5 59.6 43 50.6 34.1 46c-5.1-2.5-5.5-2.5-3.9.2.9 1.6 1.3 7.4 1.3 19.8.1 20 1.2 24.6 8.3 33.2 3.4 4 4 5.6 4.6 11.1 1.6 16 8.3 33.1 17.3 44.1 7.6 9.4 16.1 16.1 22.9 18.1 8.6 2.5 27.3 6 48.4 9.1 17.2 2.5 18.8 3 23.3 6 2.7 1.9 6.6 3.8 8.8 4.4 3.3.9 4.5.7 8.7-1.4 2.7-1.4 6.1-3.8 7.5-5.5 4.7-5.7 5.9-18.1 2.2-23.7-.8-1.2-2.5-7-3.9-13s-3.5-14.3-4.7-18.4c-1.5-5.6-2-10-1.9-17.5.3-21.1.3-20.9-2.5-27.5-1.5-3.7-3.1-10-3.7-14.4-2.3-19.2-11-32-26.2-38.6-2.6-1.1-4.9-2-5.1-2-.2 0 .1 1.4.7 3.1zM42.8 65.4c5.4 5.8 8.9 13.1 11.8 24.1 2.9 10.8 4.5 12.5 14 14.9 16 4 29.2 14.4 40.3 31.8 10.6 16.5 10.9 16.8 16.4 19.4 6.8 3.1 17.4 3.2 29.9.3 9.4-2.2 19.8-2.3 21.9-.2.8.8-.2.9-3.5.6-8.9-1-21.2 3.6-24.7 9.3-1.7 2.8-2 4.6-1.7 8.9.4 5.3.4 5.4-2.1 5-1.4-.3-7.5-1.2-13.6-2.1-26.6-3.9-45.6-11.4-58.4-23C61.5 144 51.9 120.8 48 94.3c-1.1-7.7-1.3-8.1-3.1-7-2.8 1.8-5.1-.1-7.1-5.9-2.4-6.8-2.3-20.4.2-20.4.4 0 2.6 2 4.8 4.4zm88.4-.5c18.8 4.8 29.4 14.6 31.8 29.5.5 3.1.6 7 .3 8.9-.3 1.9.7 9.4 2.2 16.9 2.4 12.4 2.5 13.9 1.2 17.1-2 4.6-6.6 6.2-15.9 5.4-7.5-.6-15.3-3.7-20.4-8-1.7-1.4-6.4-7.4-10.4-13.2-8.3-12-10.7-14.2-24.6-22-13.1-7.5-16.3-10-18.5-14.9-2.8-6.1-2.5-9.9 1.1-13.5 8.4-8.3 33.4-11.3 53.2-6.2z"/><path d="M68.9 119.1c2.3 5.1 3.4 6.5 5.3 6.7 2.1.3 2.5.9 2.6 4.2.3 7.6 4.2 13.9 10.5 17.1 3.4 1.8 5.2 2 10.3 1.6 5.6-.6 6.2-.4 7.3 1.6 2.4 4.5.2-4.1-2.4-9.6-6.1-13-20.5-24.9-32.7-27.2l-3.8-.7 2.9 6.3z"/></svg>