<svg xmlns="http://www.w3.org/2000/svg" width="1258.667" height="1262.667" version="1.0" viewBox="0 0 944 947"><path d="M470.8.7c1.2.2 3 .2 4 0 .9-.3-.1-.5-2.3-.4-2.2 0-3 .2-1.7.4zM510.8.7c1.2.2 3 .2 4 0 .9-.3-.1-.5-2.3-.4-2.2 0-3 .2-1.7.4zM471.5 29.6c-8.7.8-29.7 4.5-39.2 7-41 10.8-76.6 30.7-103.6 57.9-15.1 15.2-26.2 31.3-40 58.2-4.5 8.9-7 12.6-9.2 13.9-9.5 5.5-28.5 18.7-38.5 26.8-50.4 40.6-86.9 85.8-114 141.1-20.1 40.9-32.8 84.7-38.6 132-2 16.5-2.9 57.5-1.6 72.5l1 11.5-3.4 10c-1.8 5.5-3.8 13.4-4.5 17.5-2.4 15.6.9 38.2 8 54.9 1.7 4.1 3 7.5 2.9 7.6-.2.1-2.5 1.7-5.3 3.5-57 37.9-74.2 115.9-36.2 163.9 12.1 15.2 30.6 26 53.7 31.2 12.7 2.9 33.4 3.6 44.3 1.5 20.2-3.8 40.8-13.5 59.9-28.3l5.8-4.4 12.2 10.5c65.8 56.3 140.9 88.8 225.8 97.8 18.5 1.9 67.9 1.7 85-.5 29.4-3.6 52.2-8.5 77-16.3 14-4.4 39.9-14.3 47.7-18.2 2.7-1.4 7.9-2.2 18.3-3 17.2-1.4 27-3.2 40.4-7.3 45.4-14 75-46.6 72.3-79.5-.2-3.5-.4-6.4-.3-6.4 0 0 3.9.7 8.6 1.5 13.5 2.5 34.7 3 46.7 1.1 20.4-3.1 34.4-9.5 46-21.2 8.2-8.1 12.4-15.8 14.8-27 2.3-10.9 1.5-24.4-2.1-34.9-1.5-4.6-1.5-4.8 1.5-12.3 4.5-11.4 6.2-18.6 6.8-29.7 1-19.8-4.5-34.1-18.7-48.8l-8.5-8.8 2.6-13.7c19.4-98.8 1.5-201.9-49.9-287.2-31-51.5-73.2-95.9-122.8-129l-13.2-8.9-7.7-14.8c-14.4-27.5-24.7-42.2-40.2-57.5-33.6-33.3-76.8-54.4-127.3-62.3-10.2-1.6-45.5-2.8-56.5-1.9zm48 28.9c55.8 7.9 105.1 37.5 133.7 80.1 11.6 17.3 28.1 51.4 35.5 72.9 7.3 21.5 12 61.6 11 93.4-.3 9.5-.4 17.1-.1 16.8.3-.2 1.8-4.2 3.3-8.8 3.6-10.6 7.1-27.2 7.1-33.8 0-2.8.4-5.1.9-5.1 1.4 0 10 11.3 17.5 22.8 23.9 36.8 39.7 82.3 43.7 125.6 1.6 17.5.6 49.3-2.1 66.1-2.5 16.1-7.9 38.5-9.1 38.5-.5 0-3.1-1.1-5.7-2.4-8.1-4.1-21.7-8.5-32.9-10.5-12.3-2.3-35.5-5.1-42.5-5.1-2.7 0-4.8-.3-4.8-.8 0-.4 1.6-4.8 3.6-9.7 3.6-9.3 8.4-24.6 8.4-27.1 0-1.2-.7-1.1-3.7.4-9.3 4.7-29.2 9.1-36.2 8.1-2.4-.4-2.4-.5 2.1-5.5 21.4-24.1 34.8-59.2 34.8-91.4v-9.5l-4.9 8.3c-19.3 32.4-44.4 51-74.1 54.8l-5.5.7 6.2-6.7c8.7-9.2 14.9-22.8 17.7-38.4l.6-3.3-4.5 3.1c-9 6.2-20.7 10-35.6 11.5l-6.5.7-1.1-3.9c-4.1-13.8-4.2-32.3-.4-46.4 3.9-14.4 14-33.5 17.1-32.3 9.5 3.7 27.5 5.6 32.5 3.4 1.9-.8 1.9-.9.1-.9-7.4-.3-17.8-7.7-19.5-13.7l-.9-3.1 5.8-.6c7.5-.8 15-3.7 20.5-7.9 16.8-12.9 21-37.1 9.3-54.4-17.6-26.3-56.7-23.3-70 5.3-3.6 7.6-4.8 18.9-2.9 25.8 1.1 3.9 1.1 4-2.9 7.7-5 4.4-11.8 6.3-20.2 5.4-6.6-.7-9-1.7-13.1-5.5-6.1-5.6-8.7-13.9-9.4-30.4l-.6-12.8-2.1 5.3c-5.6 13.6-15 25.4-23.3 29.2-3.9 1.7-4.2 1.7-7.9 0-6.8-3.1-15-12.7-20.3-23.5l-4.8-9.8-.6 11.7c-.6 13.7-3.1 22.8-7.8 28.5-3.9 4.7-7.3 6.5-14.1 7.3-8.3 1-15.9-1-20.7-5.4-4.1-3.7-4.1-3.7-3-8.2.6-2.5.9-7.8.6-11.8-1.8-24.4-26-42.1-49.2-35.8-20.9 5.5-34.4 25.7-30.7 45.6 3.2 17.6 16.6 30.6 34.2 33.3 6.3 1 7 1.4 7 3.4 0 5.1-12.1 14.2-19 14.3-2.3.1-2.4.1-.6 1.2 2.8 1.6 19.9.3 27.6-2.1 3.5-1.1 6.5-1.9 6.5-1.8.1.1 1.6 2.3 3.4 4.9 4.2 6.3 8.7 16.4 11.8 26.8 3.4 11.2 3.8 31.1 1 43.4l-1.9 7.8-7.1-.6c-14-1.3-26.1-5.3-35.3-11.7l-4.6-3.1.7 3.3c3.5 17.4 9.6 30.6 18.3 39.4l5.7 5.7-5.9-.7c-20.6-2.4-40.5-13.5-57-31.7-7-7.7-14.3-18.1-18.7-26.2-4.2-8-4.6-6.4-2.9 11.8 3 30.9 13.4 57.9 30.7 79.4 3.9 4.8 4.3 4.5-7.9 6.1-9.3 1.2-13.1.5-22.2-4.1l-3.9-2 .6 3.4c.3 1.8.9 4.2 1.2 5.3.6 1.9-.4 2.4-9.1 5.4-11.9 4-30.5 12.4-38.5 17.4-1.2.7-3.5.3-8.5-1.7-3.8-1.6-11.6-4-17.4-5.5l-10.5-2.8-1.3-6.4c-2.2-11.1-2.7-51.3-.8-67.1 4.6-40 16.2-75 36.4-110.1 8.8-15.2 22.1-33.7 24.3-33.7.5 0 .9 2.4.9 5.2 0 6.7 2.3 19 5.5 29.3 5.1 16 5.2 15.9 4.7-4.1-.7-27 2.7-62.2 7.8-82.5 4.4-17.2 21.6-55.6 34-75.9 22.3-36.6 58.3-64.5 101.5-78.9 10.7-3.6 32-8.4 41.5-9.4 9.6-1 40.4-.5 49.5.8zM358 242.5c0 .4-.6 1.8-1.4 3.3-2.2 4.3-2.9 12.5-1.6 18.9 1.7 8 3.7 11.7 5.8 10.7 4.5-1.9 8.1-1.6 10.6 1 2.7 2.6 3.6 7.9 1.6 9.1-3.6 2.2 2.1 5.9 11.5 7.4l5 .8-3 1.3c-4.7 2.1-16.2 1.7-21.6-.7-18.7-8.4-24.5-30.8-12.3-47.6 3-4.1 5.4-6 5.4-4.2zm274 4c9.5 12.2 9.1 28.3-1.1 39.8-5.8 6.7-13.5 10.1-22.3 10.1-3.9 0-8.4-.6-10.1-1.4l-3-1.3 5.4-.9c9-1.4 14.6-5.1 11.1-7.3-2-1.2-1.1-6.5 1.6-9.1 2.5-2.6 2.6-2.6 10.8-1.2 4.9.8 7.9-19.8 4.2-28.6-1.8-4.4-1.9-4.6-.8-4.6.4.1 2.3 2.1 4.2 4.5zm-378.9 4.2c-30.4 35-55.4 86-65.2 133.3-5.6 27.2-7.8 55.8-6 80.7.6 9.2 1.4 18.6 1.7 20.9l.6 4.1-7.3.6c-9.1.8-22 4-31.3 7.8-3.9 1.6-7.2 2.9-7.3 2.9-1.5 0 .9-29.2 3.8-47 12.1-74.3 46.4-140.6 100.6-194.8 13.5-13.4 17.8-17 10.4-8.5zm135.7.3c3.9 2.4 6.6 8.1 5.8 12.3-2 10.1-14.2 13.9-21.3 6.5-2.4-2.5-2.8-3.8-2.8-8.3 0-4.3.5-5.9 2.5-8 4.5-4.9 10.3-5.8 15.8-2.5zm219.3-.5c1.6.9 3.9 3 4.9 4.8 7.4 12.1-9.1 24.8-19.1 14.8-9.7-9.8 2-25.9 14.2-19.6zm140 16.9c25.7 27.2 43.5 52.9 60.8 87.3 17.6 35.2 29.1 74.4 34.3 116.8 1.7 14.2 1.7 65.4 0 78.5-2 15.1-4.4 29.7-5.2 31-.5.8-3.6.7-12.1-.6-8.4-1.2-14.9-1.5-25-1.1l-13.6.6.9-5.1c.9-5-.1-14.6-2.1-20-.5-1.5-.3-3.7.6-6.3 4.9-13.8 11.4-40.8 13.7-57.5 7.4-51.6 1.7-103.4-16.9-152.4-9.9-26.2-27.7-58.4-42.4-76.5-5.4-6.7-1.6-3.8 7 5.3zm-383.5-2.8c.7 2.8-1 5.4-3.5 5.4-2.4 0-4.1-2-4.1-4.7 0-4.5 6.5-5.1 7.6-.7zm261.8-2.3c3.8 2.7-.2 9.5-4.1 7.1-2.5-1.6-2.9-5.5-.7-7.1 1-.7 2.1-1.3 2.4-1.3.3 0 1.4.6 2.4 1.3zm-149.5 57.5c4.2 4.3 8.7 9.7 10.1 12.1 5.5 9.3 4.9 9.3 10.8.4 5.5-8.4 17-20.3 19.5-20.3 3.2 0 11.5 15.5 14.8 27.6 2.8 10.1 2.4 25.9-.9 34.9-1.2 3.2-2.2 6-2.2 6.1 0 .1 3.5 2.2 7.8 4.6 10.5 6.2 16.7 11.9 18.7 17.2 1.6 4.1 1.6 5 .1 12.3-2.1 10.4-6.6 19.2-13.6 26.6l-5.8 6.1-.6-6.4c-.4-3.6-1-7.8-1.3-9.4l-.5-2.9-1.5 3.4c-4.1 9.6-12 39.9-16.3 62.3-1.1 6.1-2.2 11.1-2.3 11.2-.1.1-9.7.5-21.4.9l-21.2.7-.6-3.8c-4.3-26.3-18.2-77.9-19.8-73.4-.3.8-.8 4.6-1.2 8.5-.3 3.8-.8 7.1-1 7.3-1.5 1.5-10.8-9.6-15-17.8-3.2-6.4-5.8-18.5-4.9-23.4.9-5.3 8.4-12.8 19.2-19.1 4.5-2.6 8.2-4.8 8.2-4.9 0 0-1.1-3.3-2.5-7.1-2-5.7-2.5-8.9-2.5-17.5 0-5.8.5-12.3 1.1-14.5 3.4-13 12.1-29.5 15.5-29.5.9 0 5.1 3.5 9.3 7.8zM369.8 506.1c8.4 4.3 12.3 9.5 13 17.2.5 6-.9 9.6-5.3 13.7-2.3 2.1-3.6 2.5-8.8 2.4-3.4 0-8.9-.4-12.2-.9l-6.1-.7-2.7 4.1c-1.5 2.2-4.1 7.6-5.8 11.8-4.1 10.4-16.1 33.4-21.4 40.8-4.9 6.9-8.4 10.1-17.4 15.8l-6.4 4.1 6.1 1.3c7.1 1.4 14.8 5.1 17.8 8.5 3.6 3.8 7 11.8 8.9 20.3 3.1 14.1 3.5 15.2 5.5 17 1.8 1.7 2.5 1.7 5.6.6 3-1.1 3.9-1 5.9.3 5 3.3 4.2 14.2-2.1 29.5-4.5 10.8-8.8 17.4-15.5 23.7-7.1 6.6-13.1 10-21.2 12-16.4 4.1-27.4-3.8-31.3-22.7-1.1-5.4-1.4-12.8-1.2-31.2.3-23.5.2-24.3-2-28.9-2.7-5.4-6.8-7.8-13.6-7.8-4.3 0-4.5.1-5 3.2-.7 4.2-2.2 15.8-4.1 33.2-1.6 13.7-5.7 32.1-9.5 42.3-17.9 48.1-59.8 80.8-106.6 83-39.4 1.9-66.3-20.5-68.1-56.7-.7-13.4 1.3-23.4 7-35.5 8.4-17.9 23.5-34.8 40.2-44.8 11.3-6.8 29-12.7 38.4-12.7 6 0 11.2 2.7 12.4 6.4 1 3 .4 4.5-4.8 13.1-4.4 7.2-2.6 16.5 3.9 20 4.5 2.4 15.3 1.7 21.6-1.5 16.5-8.3 25.4-24.7 35.5-65 6.1-24.7 10.1-37.7 14.6-48.3 1.6-3.8 2.9-7.1 2.9-7.3 0-.7-19.5-.3-26.3.5-8.2 1.1-13.5 3.7-16.4 8.1-3 4.4-2.9 8.5.2 11.6 2.3 2.3 3 2.4 8.5 1.8 7.3-.8 9 .3 9 5.8 0 5.1-2.9 10.5-9.2 17.6-8.6 9.5-15.8 15.1-25.3 19.7-11.7 5.6-17.5 6.9-29.1 6.3-7.9-.4-10.3-1-16.6-4-31.5-15-34.6-57.1-6.3-85.3 14.7-14.7 32.9-21.7 56-21.8 8.8 0 14 .6 26 3.2 28.6 6.3 42 9 43.8 9.1 1.1 0 3.9-1.8 6.4-4 16.7-14.7 40.2-12.7 42.8 3.6.7 4.3-1.1 10.2-4.3 13.7-3.2 3.6-10 6.8-18.3 8.6l-8.3 1.7-3.2 10c-3.1 9.6-5.5 20-6.9 29.6-.9 5.9 0 6.1 9 1.8 8.8-4.2 15.2-9.6 21.2-17.6 6.6-9 8.8-13.6 16.3-33.4 8.7-23 13.8-32.7 20.7-39.8 8.6-8.7 16.1-11.4 29.2-10.7 4.8.2 8 1.1 12.9 3.6zM497 530.8c0 .6-3.7 5.2-8.5 10.4-2.5 2.7-4.5 5.4-4.5 5.9 0 .6 2.9 5.2 6.3 10.2 3.5 5.1 6.7 9.8 7.1 10.4.5 1-.8 1.3-5.3 1.3-6.6 0-5.9.6-14.4-11.5-1.8-2.5-2-2.6-3.8-.9-1.4 1.3-1.9 3.1-1.9 7.1v5.4l-5.2-.3-5.3-.3-.3-18.8-.2-18.7h11v7.2l.1 7.3 3.1-3.5c11.1-12.6 9.8-11.6 16-11.5 3.2 0 5.8.2 5.8.3zm29.7.4c1.4 1.9 15.3 35.1 15.3 36.5 0 .9-1.7 1.3-5 1.3-4.8 0-5.1-.2-6.7-3.5l-1.7-3.6-7.5.3-7.5.3-1 3.2c-.9 3.2-1.1 3.3-6.2 3.3-3.3 0-5.4-.4-5.4-1.1 0-1.1 12.1-30.2 14.6-35.2 1.3-2.3 2.1-2.7 5.8-2.7 2.4 0 4.8.6 5.3 1.2zm28.6 10.6 3.3 10.7 3.6-11 3.5-11 4-.3c2.4-.2 4.4.2 5 1 .6.7 2.5 5.8 4.3 11.3l3.3 9.9 2.4-7.9c1.4-4.4 2.8-9.1 3.2-10.5.7-2.2 1.3-2.5 6.4-2.8l5.6-.3-6.3 18.8-6.3 18.8h-9.7l-3.5-10.3c-1.9-5.6-3.8-9.9-4.1-9.5-.4.4-2.2 5.2-4 10.5l-3.2 9.8h-9.3l-6.2-18.7c-3.4-10.2-6.1-18.9-5.9-19.2.2-.3 2.7-.4 5.5-.3l5.1.4 3.3 10.6zm76.8 7.2c4.3 10.2 7.9 18.8 7.9 19.2 0 .5-2.5.8-5.5.8-5.3 0-5.5-.1-6.9-3.5l-1.5-3.5h-14.7l-1.3 3.5c-1.2 3.4-1.4 3.5-6.7 3.5-3 0-5.4-.3-5.4-.6s3-7.6 6.7-16.2c3.6-8.6 7.2-17.2 8-19 1.3-3.2 1.5-3.3 6.4-3l5.1.3 7.9 18.5zm22.7.7-.3 18.8h-10l-.3-18.8-.2-18.7h11l-.2 18.7zm18 0-.3 18.8-5.2.3-5.3.3V531h11l-.2 18.7zm-246.9-13.9c6.8 3.4 10.3 9.2 10.3 17.2-.1 8.7-7.9 18.8-17.7 23-19.7 8.5-37.5 1-37.5-15.7 0-9.5 6.6-19 16.5-23.9 10.3-5 19.2-5.2 28.4-.6zm304.3 11.3c14.5 3.1 23.7 12.9 23.8 25.2 0 9-5 15.9-15 20.6-4.8 2.2-6.8 2.6-15.5 2.6-8.5 0-10.7-.4-14.5-2.4-13.9-7.2-18.8-21.3-11.6-33.5 2.9-4.9 4.8-6.7 10.2-9.5 7.2-3.7 14.5-4.7 22.6-3zm-221.9 40c5.2 1.4 11.1 6.9 12.6 11.9 1.1 3.6.6 6.9-4.9 34.5-3.3 16.8-6 31.9-6 33.5 0 1.6 1.1 4.1 2.4 5.7 2.2 2.5 3.1 2.8 8.4 2.8 7.1 0 10.2-2.2 13.4-9.3 2.2-5 9.6-37.9 10.5-47l.6-6.2-4.2-3.9-4.2-3.9 5.6-3.7c20.4-13.5 43-15.6 52.4-4.9 1.7 1.8 3.6 5.2 4.3 7.5 1.3 4.5 1.6 2.4-7.2 44.4-3.5 16.5-3.8 22.7-1.1 27.1 4.8 7.9 18.7 6.3 27-3.1 4.4-5.1 9.6-15.9 11.9-24.7l1.9-7.6-6.3-.4c-11-.7-18.1-7.7-19.2-19-1-10 3.6-18.3 12.4-22.8 6.8-3.5 19.7-3.6 26.5-.3 9.1 4.5 14.7 12.5 17 24.2 3 15.7-4.6 42.2-17.6 60.7-5.1 7.3-6 6.3 8.5 8.5 4.7.6 11.2 1.9 14.6 2.9l6.1 1.6 5.3-23.5c6.8-29.9 8.5-39.9 7.7-43.3-.4-1.5-2.1-4.3-3.8-6.2l-3-3.5 6.6-3.6c12.5-7 15.7-7.9 29-8 10.4 0 12.5.3 16 2.2 10.1 5.4 12.4 12.9 8.6 28.1-4.3 17.1-10.5 45-10.9 49.4-.5 6.2 1.9 11.1 6.5 13.3 4.7 2.2 8.5 1.4 12.7-2.9 4.3-4.2 10.6-5.8 18.9-4.6 7.4 1.1 12 3.9 23.7 14.4 11.3 10.3 17 14.3 22.3 15.7 3.4.9 4.4.8 6.6-.9 3.1-2.3 3.8-6.4 1.8-9.6-.9-1.3-4.8-4.4-8.9-7-43.7-28.3-47.8-31.8-52.3-45.6-7-20.9 5.8-40.3 30.6-46.4 7.5-1.8 23.1-2.1 32.9-.6 21.5 3.4 42.8 15.2 49.2 27.1 6.4 11.9.4 22.9-12.3 22.9-7.2-.1-11.4-2.2-23.4-11.9-14.1-11.4-19.1-13.4-23-9.1-1.5 1.7-1.6 2.4-.6 4.8 1.9 4.7 6.7 8.5 20.1 16.2 22.6 13.1 31.7 21.1 37.2 32.7 9.4 19.9 2.7 39.8-16.9 49.6-11.6 5.9-18.5 7.1-37.8 7.1-14.8 0-18.5-.4-28.3-2.7-17.8-4.1-31.1-11.5-38.6-21.3-1.9-2.5-3.6-4.9-3.8-5.4-.2-.7-15.4 4.2-17.6 5.6-.2.2 1.6 3.1 4.1 6.6 15.2 21.4 18.9 46 9.8 65.3-10 21.4-32.9 35-67.3 40.1-14.7 2.1-34.8 1.5-46.2-1.5-10.7-2.8-21.6-8.4-27.6-14-4.6-4.3-5-5.1-5-9.4 0-3.7.6-5.3 2.8-7.8 2.4-2.6 4-3.3 10.6-4.5 13.1-2.2 20.5-7 22.7-14.5 3.7-12.1-9.4-25.3-30.7-31-10.2-2.7-37.7-3.7-53.3-1.9-13.2 1.5-41.1 7-55.6 10.9-26.7 7.2-35.8 10.3-67.6 22.9-34.5 13.8-46.6 17.9-60.6 20.8-11.7 2.4-14.2 2.6-29.3 2.1-14.1-.4-18.2-.9-28.4-3.6-33.9-8.7-51.5-25.6-54.6-52.4-1.2-9.8-.2-12.7 4-12.7 2.3 0 4.4 1.2 8.3 4.9 20.4 19.1 45.7 24.1 96.2 19 22-2.2 42.4-8.7 107.5-34.1 30.8-12 52.4-20.1 68.7-25.8l12.3-4.3-2.1-2.8c-1.1-1.6-2.5-2.9-3.1-2.9-.6 0-3.2 1.3-5.7 2.9-2.5 1.7-8.9 4.4-14.1 6.2-27.7 9.2-55.6 1.2-64.7-18.7-3.5-7.7-3.2-14.7 2.2-42.7 2.5-13.1 4.5-26.4 4.5-29.4 0-5-.3-5.8-3.5-9-3.3-3.3-3.4-3.6-1.8-4.9 9-7.1 20.8-13.3 30.3-15.8 5.4-1.5 9.9-1.4 17.3.5zm-84.7 5.5c1.9.9 4.5 2.9 5.9 4.5 4.4 5.3 4.2 9.1-1.9 42.6-5.8 31.7-6.4 37.4-4.5 41.7 1.8 3.9 7.3 6.1 11.8 4.7 14.3-4.4 13-4.2 15.1-2.1 9 9-15.2 31-40.6 37.1-25.2 6-44.4-4.4-44.4-24.2 0-3.5 2.3-19.3 5.1-35.3 2.9-16 5.2-32.2 5.3-35.9.1-6.7 0-6.9-3.6-10.3L368 612l5.3-4.1c15.2-12.1 25.8-16.6 39.5-16.8 4.9-.1 8.6.4 10.8 1.5zm124.6 211.1c-.8 16.4 5.2 30.8 17.9 43.5 4.3 4.3 7.5 7.9 7.1 8.2-1.7 1-22.5 4.8-37.4 6.8-21.5 2.9-64.9 3.1-85.8.5-16.5-2.1-40-6.8-54-10.8-15.4-4.3-34.2-11.2-32.8-12 .7-.3 5.4-1.4 10.3-2.3 12.9-2.5 33.8-8 75.9-20.1 20.4-5.8 42.4-11.9 49-13.6 15.2-3.8 37.4-7.7 44.6-7.8l5.5-.1-.3 7.7z"/><path d="M332.7 179.5c-11.1 4.1-15.7 12.9-12.2 23.4 2.5 7.6 3.6 8 9.2 3.3 14.6-12.1 36.2-15.1 55.8-7.6 2.8 1.1 1.5-1.7-3.2-6.7-8.5-9.1-21.7-13.9-37.8-13.8-4.4 0-9.7.7-11.8 1.4zM626.5 179c-12 2.5-21.4 8.3-27.3 16.7-2.7 3.9-2.6 3.9 5.5 1.3 17.7-5.5 37.9-1.7 51.1 9.5 5.1 4.4 6.2 3.9 8.7-3.6 3.1-9.1-.6-17.8-9.2-22-3.9-1.9-6.6-2.4-14.8-2.6-5.5-.1-11.8.2-14 .7zM467.4 348.7c-3.2 7.6-3 9.7 1.6 16.8 5.1 7.8 8.8 17.4 9.6 25.3 1 9 2.1 9.4 2.9.9.8-8.7.1-19.1-2.2-32.2-1.3-7.6-2.1-9.4-4.6-11.7-3.9-3.7-5.5-3.5-7.3.9zM510.2 347.9c-1.8 1.6-3.2 3.1-3.2 3.4 0 .3-.6 3.8-1.4 7.9-2.2 11.5-2.9 22.9-2 32.5.8 9.8.5 10.3 3.6-6 1-5.3 4.6-13.3 10.9-24.4l2.4-4.2-2-5.8c-1.2-3.4-2.7-5.9-3.6-6.1-.9-.2-3 1-4.7 2.7zM519.7 547.5c-2.6 5.4-2.2 6.5 1.8 6.5 4.1 0 4.5-1.6 1.7-6.8l-1.8-3.3-1.7 3.6zM617.1 547.7c-.8 2.1-1.6 4.4-1.8 5-.4.9.6 1.3 2.9 1.3 1.9 0 3.7-.2 4-.5.6-.6-2.4-9.5-3.2-9.5-.3 0-1.2 1.7-1.9 3.7zM354.5 36.1c-1.1 1.7 0 2 2.1.4 1.7-1.3 1.7-1.4.2-1.5-.9 0-2 .5-2.3 1.1zM314 67.1c0 .5.5.7 1 .4.6-.3 1-.8 1-1.1 0-.2-.4-.4-1-.4-.5 0-1 .5-1 1.1zM674.5 72c1 1.1 2 2 2.3 2 .3 0-.3-.9-1.3-2s-2-2-2.3-2c-.3 0 .3.9 1.3 2zM716 127.7c0 .5.5 1.5 1 2.3.8 1.2 1 1.1 1-.8 0-1.2-.4-2.2-1-2.2-.5 0-1 .3-1 .7zM219.5 171.1c-1.2 1.9.5 2.3 2.2.6 1.6-1.6 1.6-1.7.1-1.7-.9 0-2 .5-2.3 1.1zM115.6 291.2c-.9 1.2-1.6 2.9-1.6 3.8 0 .8 1 0 2.1-1.8 2.4-3.7 2-5.5-.5-2zM892.7 346.5c.3.8.9 1.2 1.4.9 1.2-.7 1.1-1.1-.5-1.7-1-.4-1.3-.1-.9.8zM899.3 362.5c.6 2 1.4 3.2 1.9 2.7 1-1-1-6.2-2.3-6.2-.4 0-.2 1.6.4 3.5zM924.1 545.6c0 1.1.3 1.4.6.6.3-.7.2-1.6-.1-1.9-.3-.4-.6.2-.5 1.3zM41.6 642.6c-.5 1.4-.4 1.5.9.4 1.7-1.4 1.9-2 .6-2-.5 0-1.2.7-1.5 1.6zM1.3 714.5c-.9.9-1.3 4.6-1.2 10.7l.1 9.3 1.3-8.1c.7-4.5 1.5-9.3 1.9-10.8.7-2.8-.2-3.3-2.1-1.1zM.2 761c0 1.4.2 1.9.5 1.2.2-.6.2-1.8 0-2.5-.3-.6-.5-.1-.5 1.3zM239 867.9c0 .9 2.4 2.1 4.3 2.1.6 0 .2-.7-.9-1.5-2.2-1.7-3.4-1.9-3.4-.6zM675.8 907.7c.7.3 1.6.2 1.9-.1.4-.3-.2-.6-1.3-.5-1.1 0-1.4.3-.6.6zM520 946l-8.5.6 8.8.2c5.2.1 8.7-.2 8.7-.8 0-.6-.1-.9-.2-.8-.2.1-4.1.5-8.8.8zM463.3 946.7c1.5.2 3.7.2 5 0 1.2-.2 0-.4-2.8-.4-2.7 0-3.8.2-2.2.4z"/></svg>