<svg xmlns="http://www.w3.org/2000/svg" width="2986.667" height="2986.667" version="1.0" viewBox="0 0 2240 2240"><path d="M1096.4 275.8c-13.2 22.9-59.9 103.5-103.7 179-43.9 75.5-79.7 137.7-79.7 138.3 0 .5.9 2.7 2 4.8 1.6 3.2 2.8 4.1 7.1 5.5 10.7 3.5 23 10.3 42.8 23.4 7.9 5.2 17.5 10.8 21.5 12.5 3.9 1.6 7.5 3.3 8 3.7 1.6 1.5 6.2-.8 10.7-5.2 2.4-2.4 8.1-8.3 12.7-13l8.3-8.5-6.1-12.6c-3.3-6.9-6-12.8-6-13.1 0-.3 18.8-33.3 41.8-73.4 23-40 47.2-82 53.7-93.4 9-15.8 12.1-20.4 12.8-19.2.5.9 25.7 42.8 55.9 93.2 30.3 50.4 55.1 92.1 55.1 92.7 0 .7-74 120.3-83.1 134.2l-1.4 2.3h94.9l42.7-67.9c23.4-37.3 42.6-68.2 42.6-68.5 0-.4-23.5-41.1-52.2-90.4-28.7-49.3-75.2-129.3-103.4-177.7-28.1-48.3-51.5-88-52-88.2-.5-.1-11.7 18.6-25 41.5z"/><path d="M1100.6 543.3c-16.5 30.6-36.4 67.7-38.3 70.9-1 1.8 1.8.6 6.3-2.6 7.2-5.2 19.8-12.3 24.1-13.6 2.1-.7 5.7-2.1 8.1-3.2 3.8-1.7 18.1-4.2 19-3.3.7.7-6.3 3.8-18.3 8.2-13.5 5-21.5 9.5-29.6 16.8-3.1 2.7-8.8 7.7-12.6 11-5.2 4.4-8.3 8.1-11.4 13.5-5 8.8-5.1 8.8-5.6 7.4-.2-.6-1-1.9-1.7-3-1.3-1.7-1.7-1.5-7.5 3.2-3.3 2.7-6.1 5.2-6.1 5.7 0 .4 1.2 1.2 2.8 1.8 1.5.7 3.6 1.5 4.7 2 5.7 2.3 35.4 6.9 44.3 6.9 7.9 0 8.8-.6 18.3-12.4 9.2-11.6 8.8-8.1-1.1 7.9-.8 1.3-1.2 2.6-.9 3 1 1 14-2.5 20.8-5.6 17.5-7.9 14.6-4.9 29.4-29.9 7.4-12.4 15.4-25.8 17.7-29.8l4.3-7.3-1.7-3.5-1.6-3.5-2.8 2c-1.5 1-4.8 4.5-7.2 7.5-5.1 6.4-9 9.6-9 7.3 0-.8 1.8-3.2 4-5.3 4.1-4 12-14.7 12-16.4 0-2.2-2.4-1.8-8.9 1.5-3.9 1.9-7.6 3.5-8.3 3.5-.7 0-2.6.7-4.1 1.5-3.1 1.6-15.2 5.5-17 5.5-3.2 0 4.8-4.6 18.8-11 3.9-1.7 8.9-4.2 11.3-5.6l4.3-2.5-8-15.2c-15.9-30.4-26.8-50.1-27.7-50.4-.5-.1-9.9 16.5-20.8 37zM824.7 592.7c-.6 1.6-1.7 3.2-2.4 3.8-.7.5-96 237.7-211.9 527l-210.7 526-.5 8.6c-.6 11.2.7 15.5 5.7 17.7 3.3 1.6 16.9 1.7 163.6 1.7 88 0 162.1-.4 164.7-.8 2.8-.5 5.6-1.7 6.9-3.1 1.3-1.3 22.9-49.3 48-106.6 25.2-57.4 46.3-104.8 46.8-105.3.7-.7 1.8.9 3.4 4.4 1.3 3 63.7 149.6 138.7 325.8 109.4 256.8 136.9 320.6 138.9 322 3.6 2.3 20.6 2.3 24.2 0 3.4-2.3 157.8-381 159.2-390.8 2.1-13.9 16.4 22.5-222.3-566.1-121.6-300-222.5-548.8-224.2-552.9-3.7-8.7-5.9-10.1-16.7-10.1-6.1 0-7-.3-7.6-2-.9-2.8-2.3-2.5-3.8.7zM1411 590.9c0 .4-1.2 2.5-2.6 4.7-3.4 5-156.3 379.5-157.5 385.8-1.2 6.2-1.1 13.9.1 19.4 1 4 265.5 663.3 268.5 669.1 2.4 4.7 4.8 6.1 13.1 7.1 5.3.7 59.1 1 162.9.8 141.6-.3 155.3-.4 158.6-2 5-2.2 6.3-6.5 5.7-17.7l-.5-8.6-211.9-525.9c-168-416.9-212.4-526.2-214.3-527.4-1.4-1-5.5-1.7-10.7-2-7.1-.4-8.4-.7-8.9-2.3-.6-1.9-2.5-2.7-2.5-1zM922 613.9c0 .8 15.7 39.6 24.7 61l1.8 4.3 8-.5c9.4-.7 20-3.4 27.3-7.1 2.8-1.4 5.8-2.6 6.6-2.6.7 0 4.9-2.5 9.2-5.6 4.3-3.1 8.4-5.9 9.1-6.1 2.2-.9 1.4-2.3-1.2-2.3-1.4 0-3.4.8-4.4 1.7-4 3.6-5.1 4.3-7 4.3-1.1 0-2.3-.5-2.6-1-1.2-1.9-4-1-9 2.8-11.5 8.7-35.5 17-35.5 12.2 0-.8 6.6-3.6 13-5.5 9.2-2.8 28.4-17.5 26.6-20.4-.9-1.4-5.7-1.4-5.4 0 .4 1.6-3.1 3.7-4 2.3-.4-.6-1.5-1.3-2.4-1.7-1-.3-1.8-1.1-1.8-1.6 0-1.6 2.1-2.4 3.3-1.2.6.6 1.5 1.1 2 1.1.4 0-.9-1.5-2.9-3.4-2.1-1.9-4.3-3.2-5-2.9-.6.2-1.8-.4-2.5-1.4-2.8-3.6-22.4-17.3-25-17.3-.4 0-1.2-.6-1.6-1.3-.9-1.4-5.1-3.5-13.2-6.6-5.8-2.3-8.1-2.6-8.1-1.2zM1026 624.3c-3.4 3-14 16.2-14 17.4 0 .6-.7 1.6-1.5 2.3-.8.7-1.5 1.9-1.5 2.6 0 1.3 6 4.4 8.6 4.4.7 0 4.9-3.7 9.2-8.2l7.9-8.2-2.5-5.5c-3.2-7.3-3.3-7.3-6.2-4.8zM1115 665.7c-5.8 3-13.4 7-17 9-6.6 3.6-30.7 13.3-50.5 20.3-17 6-43.1 9.9-54 8.1-9-1.5-35.7-4.3-36.2-3.7-.7.6 1.7 5 3.3 5.9.7.4 1.1 1.4.8 2.1-.3.8-.1 2.3.5 3.4.8 1.4 3.3 2.3 11.1 3.6 6.5 1.2 10.3 2.3 10.9 3.4.5.8 2.4 1.6 4.2 1.8 1.9.1 7.5.7 12.4 1.3 13 1.4 25.6 1.3 46-.4 9.9-.8 18.8-1.7 19.8-1.9 2.6-.6 2.1.1-2.2 2.9-2.1 1.4-6.9 3.2-10.7 3.9-6.8 1.4-6.5 1.4 13.6 1.5l20.5.1 4.1-7.3c2.2-3.9 10.9-18.8 19.3-33s15.2-26 15-26.1c-.2-.2-5.1 2.1-10.9 5.1z"/><path d="M1010.5 665.9c-21.2 12-40.8 19.2-52.3 19.2-3.1 0-6 .3-6.4.5-.9.6 1.8 6.4 3 6.4.4 0 4.8.5 9.7 1.1 10.2 1.3 12.4 1.5 32.5 2.4 12.2.6 16.7.4 28.2-1.4 7.5-1.2 14.9-2.1 16.5-2.1 3.4 0 18.1-6.9 20.3-9.4.8-1 2.4-2.2 3.7-2.7 3-1.1 2.9-2.7-.2-3.9-1.4-.5-2.5-1.4-2.5-2 0-.7-.8-.9-1.9-.5-1.1.3-2.1 0-2.4-.7-.2-.8-3.3-1.9-6.8-2.6-3.5-.7-9.5-2.2-13.4-3.4-7.3-2.1-12.9-3.5-18-4.3-2.3-.4-4.7.4-10 3.4z"/></svg>