<svg xmlns="http://www.w3.org/2000/svg" width="400" height="400"><g fill-rule="evenodd"><path fill="#e8175e" d="M90.412 55.586C61.78 57.501 35.326 72.47 18.352 96.362c-2.006 2.823-4.926 7.476-4.926 7.85 0 .434.996.445 44.806.501 41.029.052 44.029.08 46.009.42 21.687 3.716 38.649 21.86 40.774 43.614.38 3.89-.046 11.98-.81 15.377-.113.504-.443 2.337-.732 4.073-6.063 36.385-19.996 64.748-39.151 79.7-1.031.803-1.878 1.507-1.884 1.563-.006.056 1.204.043 2.688-.03 1.485-.072 11.742-.14 22.794-.152 11.053-.012 20.24-.077 20.418-.145.293-.113.322-8.825.322-96.723V55.812l-.967-.114c-1.71-.2-54.42-.304-57.281-.112M2.966 130.388c-.84.664-2.353 10.285-2.795 17.767-2.272 38.533 18.126 73.785 52.767 91.195 7.61 3.825 21.896 8.684 25.528 8.684.769 0 9.81-8.962 13.555-13.435 7.77-9.283 14.376-20.2 18.889-31.219 1.084-2.647 1.152-2.493-.83-1.88-1.502.462-3.946.982-7.081 1.506-3.857.644-10.997.455-15.29-.406-31.371-6.294-48.288-40.496-34.54-69.827.707-1.506.934-2.188.78-2.342-.321-.32-50.578-.363-50.983-.043M77.683 263.4a3377.248 3377.248 0 0 1-10.73 6.062c-3.437 1.933-6.22 3.544-6.184 3.58.035.035 1.656-.044 3.6-.176 26.635-1.813 56.944 5.861 80.523 20.388.784.483 1.953 1.178 2.597 1.545l1.17.667V261.93l-1.985-.235c-4.936-.585-9.47-.68-36.507-.759l-28.004-.082-4.48 2.547"/><path fill="#c73e83" d="m148.1 55.716.56.085v96.61c0 77.088-.051 96.631-.254 96.724-.342.156 2.087-.057 3.615-.316 2.949-.5 8.872-2.912 11.36-4.624 3.493-2.402 13.575-18.807 18.679-30.39a227.62 227.62 0 0 1 1.13-2.532c.529-1.138 1.519-3.53 1.519-3.67 0-.076.133-.427.296-.78.586-1.275 1.112-2.847 1.008-3.016-.058-.094-.01-.172.11-.172.15 0 .215-14.949.215-50.016v-50.016l-.596-1.664c-2.732-7.619-9.244-20.599-14.373-28.65-4.053-6.36-9.151-13.538-11.756-16.548l-1.013-1.17-5.53.03c-3.042.016-5.278.068-4.97.115m-3.043 98.123c0 .672.039.922.085.556a5.474 5.474 0 0 0-.002-1.222c-.047-.306-.084-.006-.083.666m-1.323 11.201c-.046.393-.01.713.079.713.09 0 .163-.32.163-.713 0-.392-.036-.712-.08-.712-.043 0-.117.32-.162.712m-36.825 46.945c-.23.45-.37.815-.314.815.056 0 .289-.366.517-.815.229-.448.37-.814.314-.814-.056 0-.29.366-.517.814m21.325 4.996c-.301.613-.504 1.114-.451 1.114.137 0 1.165-2.06 1.073-2.153-.042-.04-.322.426-.622 1.04m-38.752 20.513-.598.662.662-.599c.617-.557.756-.725.598-.725-.035 0-.333.298-.662.662m-4.264 4.43c-1.677 1.68-3.004 3.054-2.948 3.054.056 0 1.474-1.374 3.152-3.055 1.677-1.68 3.004-3.055 2.948-3.055-.056 0-1.474 1.375-3.152 3.055m27.89-2.393-.6.662.663-.598c.364-.329.662-.627.662-.662 0-.157-.168-.019-.725.598m-5.5 5.5-.598.661.662-.598c.364-.329.662-.627.662-.662 0-.157-.168-.019-.725.598m-27.088 1.426-.598.662.662-.598c.617-.558.755-.726.598-.726-.035 0-.333.298-.662.662m68.139 32.235v16.807l-.56-.348c-1.27-.787-.015.172 1.782 1.363 11.76 7.797 24.454 20.021 33.722 32.478 1 1.344 1.89 2.536 1.978 2.648.087.112.29.387.45.611.256.355.294-2.947.3-25.509.004-14.866-.07-25.916-.174-25.916-.098 0-.224-.16-.28-.357-.377-1.354-8.431-9.97-11.352-12.147-3.824-2.847-10.416-4.698-21.487-6.032-1.792-.216-3.511-.396-3.82-.399l-.56-.006v16.807"/><path fill="#4fbff8" d="M301.41 55.175c-1.961.077-11.03.247-20.155.378-9.125.131-16.618.265-16.65.298-.033.033-.037 15.262-.01 33.843l.053 33.784 1.42-1.826c7.06-9.078 17.815-15.493 29.945-17.862 2.237-.437 2.292-.438 41.802-.506 28.598-.048 39.562-.129 39.562-.29 0-.124-4.101-4.404-9.114-9.51a35139.535 35139.535 0 0 0-34.58-35.198l-3.047-3.088-12.831-.08c-7.057-.046-14.435-.02-16.395.057m.88 89.04c-28.362 28.843-31.635 32.21-31.473 32.371.088.088 16.993.185 37.566.214 26.783.038 37.469.116 37.629.276.286.287-2.337 4.298-4.543 6.948-12.626 15.166-32.095 21.217-50.928 15.83-.993-.284-1.842-.48-1.885-.437-.126.126 2.246 5.831 3.93 9.453.844 1.815 1.517 3.362 1.496 3.44-.022.076.044.195.147.264.102.068.949 1.5 1.882 3.18 6.073 10.935 13.674 20.704 22.436 28.833 1.305 1.21 2.313 2.266 2.24 2.347-.072.081-.03.09.093.02.122-.07.483.145.8.477.742.773.786.77 4.998-.292 41.01-10.34 70.795-46.527 73.104-88.82.13-2.384.197-9.35.16-16.802l-.06-12.729-41.16-.05-41.16-.053-15.271 15.53m-37.734 79.43-.011 25.611 16.853-.006 16.854-.007-.595-.443c-1.691-1.26-3.142-2.563-3.013-2.706.08-.089.032-.097-.106-.017-.408.235-7.39-6.899-10.143-10.364-1.336-1.68-2.536-3.168-2.668-3.305-3.421-3.57-11.251-18.493-15.01-28.604-.722-1.94-1.501-4.033-1.732-4.649l-.42-1.12-.01 25.61m3.3 37.378-3.31.056v13.131c0 7.223.054 13.132.12 13.132s1.05-.45 2.189-1.002a116.706 116.706 0 0 1 3.8-1.749c.953-.41 2.007-.868 2.343-1.017a84.965 84.965 0 0 1 2.546-1.008c1.064-.407 2.118-.827 2.342-.935.224-.108.82-.326 1.324-.485.504-.159 1.833-.607 2.953-.995 5.528-1.916 12.608-3.789 19.043-5.038 10.875-2.11 27.593-3.189 35.11-2.267 1.11.136 2.04.223 2.07.193.063-.063-6.723-3.945-15.49-8.862l-5.906-3.312-22.912.051c-12.602.028-24.402.076-26.222.107"/><path fill="#8c7ebf" d="M233.137 65.5c-.617.86-3.953 5.912-5.143 7.79-1.344 2.118-3.142 5.19-4.647 7.942-1.11 2.03-3.607 6.762-3.607 6.837 0 .041-.418.924-.93 1.964a160.723 160.723 0 0 0-2.147 4.641l-1.401 3.157c-.353.785-1.255 3.063-1.573 3.971-.176.504-.388 1.008-.471 1.12-.083.112-.307.754-.5 1.426-.192.672-.422 1.314-.512 1.426-.09.112-.358.937-.597 1.833l-.434 1.63.056 44.602c.06 47.906.006 45.223.95 46.947.094.17.319.822.5 1.45.184.626.47 1.404.639 1.728.169.323.308.7.308.836 0 .137.23.75.51 1.362.28.612.51 1.166.51 1.231 0 .142 1.867 4.637 2.584 6.222 4.119 9.102 8.505 16.935 13.514 24.134 2.26 3.25 3.25 4.532 3.25 4.215a.46.46 0 0 0-.203-.345c-.32-.197-.28-176.524.04-176.843.135-.135.189-.245.12-.245s-.434.436-.816.968m-.77 199.426c-3.15.851-5.598 1.95-7.453 3.344-3.927 2.953-11.25 11.172-13.261 14.884l-.45.828-.008 25.535c-.008 22.674.025 25.505.296 25.28.168-.139.306-.334.306-.432 0-.099.147-.339.326-.535.18-.196.89-1.15 1.579-2.122 4.455-6.283 9.37-12.048 15.81-18.54l4.596-4.634c-.106.107-.267.194-.358.194-.091 0-.141-9.944-.112-22.098l.053-22.079c0 .01-.596.18-1.324.375"/><path fill="#9965a2" d="M186.364 153.432c.004 33.353.074 49.695.209 49.287.11-.336.286-.795.389-1.019.239-.523 2.029-5.995 2.697-8.248 2.063-6.954 3.7-14.445 4.629-21.18.224-1.626.448-3.092.498-3.26.129-.432.65-7.438.945-12.693.197-3.5.197-5.295.002-8.452-.287-4.622-.84-11.48-.94-11.642-.038-.06-.217-1.208-.4-2.55-.444-3.293-1.314-7.778-2.267-11.71l-.618-2.546c-.882-3.634-3.43-11.627-4.74-14.867l-.411-1.019.007 49.9m25.874-48.179c-.12.342-.173.621-.12.621.137 0 .522-1.057.42-1.158-.045-.046-.181.195-.3.537m-1.835 5.441c-8.982 28.187-9.153 53.775-.556 83.368 1.128 3.88 2.049 6.381 1.536 4.17-.353-1.525-.246-89.026.11-90.202.168-.55.266-1.039.218-1.087-.047-.047-.636 1.641-1.308 3.751m1.835 90.71c.119.342.255.584.3.538.102-.1-.283-1.159-.42-1.159-.053 0 0 .28.12.621m1.018 2.852c.12.341.255.583.3.537.102-.1-.282-1.159-.42-1.159-.053 0 0 .28.12.622m-26.92 102.552v25.85l1.7 2.544c2.216 3.32 3.288 4.992 4.634 7.231l1.102 1.833.052-24.108c.058-26.886.173-24.394-1.303-28.133-1.254-3.177-4.506-9.019-6.113-10.98-.038-.047-.07 11.546-.071 25.763m24.38-22.47c-1.985 3.195-3.951 7.395-4.807 10.27-.423 1.42-.427 1.652-.425 25.647l.002 24.214.532-.916c.699-1.203 2.268-3.682 3.93-6.21 1.8-2.74 1.734-2.627 1.466-2.462-.4.247-.32-50.644.08-51.42.562-1.084.158-.63-.777.876"/><path fill="#7399d8" d="M240.763 55.707c-.143.057-1.197 1.31-2.342 2.783-2.263 2.911-2.503 3.236-3.898 5.258l-.934 1.356v88.081c0 76.032.04 88.16.29 88.644.417.801 1.684 2.09 2.432 2.473.35.18.684.396.74.48.157.236 4.636 2.327 6.008 2.805 4.064 1.416 6.323 1.67 14.858 1.67h6.626l.052-25.949c.032-15.498-.021-25.902-.132-25.833-.102.062-.133-.084-.07-.325.063-.242.026-.439-.083-.439-.11 0-.137-.194-.061-.433.098-.31.067-.39-.11-.28-.18.111-.208.027-.102-.306.108-.34.08-.418-.112-.299-.188.116-.226.04-.143-.28.074-.282.037-.392-.102-.306-.14.086-.175-.024-.101-.305.072-.279.036-.39-.1-.307-.142.087-.167-.056-.075-.424.102-.406.074-.516-.104-.406-.171.106-.21.02-.13-.289.075-.28.038-.39-.101-.305-.14.085-.175-.024-.101-.306.072-.279.036-.39-.1-.307-.142.088-.167-.056-.075-.424.102-.406.074-.516-.104-.406-.171.106-.21.02-.13-.289.074-.278.038-.39-.098-.307-.142.088-.167-.055-.075-.424.102-.406.074-.515-.104-.406-.171.106-.21.02-.13-.288.074-.279.037-.39-.1-.307-.14.087-.166-.056-.073-.424.1-.404.073-.516-.102-.408-.175.11-.203-.004-.102-.407.102-.406.074-.516-.104-.406-.171.106-.21.02-.13-.289.074-.278.037-.39-.098-.307-.138.085-.178-.058-.113-.4.063-.327.023-.485-.101-.408-.125.077-.165-.08-.102-.407.062-.326.023-.485-.102-.408-.125.078-.164-.08-.102-.407.062-.326.023-.484-.102-.407-.125.077-.164-.08-.102-.407.063-.327.023-.485-.101-.408-.125.077-.165-.08-.102-.407.063-.33.023-.485-.104-.406-.133.082-.16-.107-.076-.526.092-.459.063-.61-.1-.51-.161.1-.188-.024-.09-.414.1-.403.073-.516-.102-.408-.171.106-.211-.007-.14-.384.064-.33.024-.485-.103-.406-.133.082-.16-.107-.076-.525.093-.463.063-.61-.102-.509-.165.102-.194-.046-.102-.51.092-.459.063-.61-.1-.51-.161.1-.188-.024-.09-.414.102-.406.074-.516-.104-.406-.18.11-.21-.023-.113-.503.093-.463.063-.61-.102-.509-.165.102-.194-.046-.102-.509.093-.463.063-.61-.101-.509-.165.102-.195-.046-.102-.509.09-.458.062-.61-.098-.512-.163.101-.188-.078-.086-.62.108-.575.082-.725-.106-.609-.184.114-.215-.014-.118-.5.092-.457.063-.61-.098-.51-.162.1-.187-.08-.086-.622.108-.575.082-.724-.105-.609-.185.115-.215-.013-.118-.499.092-.462.063-.61-.101-.509-.167.103-.193-.098-.094-.718.1-.63.074-.822-.1-.715-.171.107-.197-.06-.093-.616.108-.575.082-.724-.105-.609-.186.115-.218-.035-.127-.595.079-.488.049-.704-.087-.62-.14.087-.161-.258-.063-1.042.116-.932.093-1.139-.117-1.01-.192.12-.233.05-.15-.267.062-.236.04-.456-.05-.49-.087-.033-.305-.93-.482-1.995-2.167-13.003.418-25.458 7.539-36.328.74-1.13 1.197-1.93 1.015-1.779-.305.253-.331-2.34-.331-33.555v-33.83l4.837-.058c2.66-.033-2.632-.073-11.762-.09s-16.715.016-16.858.074m27.538 63.254-.598.662.662-.598c.617-.558.755-.726.598-.726-.035 0-.333.298-.662.662m5.295 54.38-.598.661.662-.598c.617-.558.756-.726.598-.726-.035 0-.333.298-.662.662m41.968 68.584c1.678 1.681 3.096 3.055 3.152 3.055.056 0-1.27-1.374-2.948-3.055-1.677-1.68-3.096-3.055-3.152-3.055-.056 0 1.27 1.375 2.948 3.055m-22.912 2.508c0 .035.298.333.662.662l.662.598-.598-.662c-.558-.617-.726-.755-.726-.598m-23.472 16.581a6.5 6.5 0 0 0 1.323 0c.364-.046.067-.082-.662-.082-.728 0-1.026.036-.661.082m-9.216.195c-1.628.068-5.197.341-10.112.774-3.547.312-10.224 1.213-11.273 1.521-.336.098-1.253.29-2.037.427-.784.136-1.517.318-1.63.405-.111.086-.432.19-.712.228l-.51.07-.051 22.047c-.03 12.706.025 22.047.128 22.047.1 0 .444-.257.765-.572 5.766-5.64 19.193-15.049 27.785-19.466l2.33-1.199-.053-13.21-.054-13.21-1.575.04c-.867.021-2.217.065-3.001.098"/><path fill="#7f497d" d="M221.267 84.694c-.174.336-.27.611-.214.611.056 0 .244-.275.418-.61.174-.337.27-.612.214-.612-.056 0-.244.275-.418.611m-4.753 9.683c-.341.75-.276.91.093.228.172-.318.275-.616.228-.663-.046-.046-.191.15-.321.435m-7.86 21.391c-.075.298-.097.582-.05.63.049.048.15-.157.225-.456.075-.298.097-.582.049-.63-.048-.048-.15.157-.224.456m-3.938 18.621c0 .392.04.552.093.356a1.68 1.68 0 0 0 0-.713c-.052-.196-.093-.035-.093.357m-10.184.203c0 .392.042.553.093.357a1.649 1.649 0 0 0 0-.713c-.051-.196-.093-.036-.093.356m9.377 7.13c0 .503.04.71.088.457a2.879 2.879 0 0 0 0-.917c-.048-.252-.088-.045-.088.46m-8.554.202c0 .504.04.711.088.46a2.879 2.879 0 0 0 0-.918c-.048-.252-.088-.046-.088.458m8.362 2.546c0 .784.038 1.08.082.658a7.617 7.617 0 0 0-.002-1.426c-.045-.362-.081-.016-.08.768m-8.145.306c0 .84.036 1.184.08.763a8.849 8.849 0 0 0 0-1.527c-.044-.42-.08-.076-.08.764m7.94 2.851c0 .728.036 1.026.082.662a6.51 6.51 0 0 0 0-1.324c-.046-.364-.082-.066-.082.662m-7.74.204c0 .728.037 1.026.082.662.046-.364.046-.96 0-1.324-.045-.364-.082-.066-.082.662m.002 8.452c0 .784.038 1.08.082.657a7.607 7.607 0 0 0-.002-1.425c-.045-.362-.081-.016-.08.768m7.74.305c0 .84.037 1.184.08.764a8.849 8.849 0 0 0 0-1.527c-.043-.42-.08-.077-.08.763m-7.941 3.157c0 .896.037 1.238.08.76.043-.48.042-1.214-.002-1.63-.043-.418-.08-.026-.078.87m8.145.306c0 .84.036 1.183.08.763a8.849 8.849 0 0 0 0-1.527c-.044-.42-.08-.076-.08.764m-8.36 2.75c0 .56.04.764.088.455.047-.31.045-.768-.003-1.019-.048-.25-.087.003-.085.563m8.554.204c0 .56.04.765.088.455a3.64 3.64 0 0 0-.003-1.018c-.048-.25-.087.003-.085.563m-9.38 7.637c0 .392.042.553.093.357a1.649 1.649 0 0 0 0-.713c-.051-.196-.093-.036-.093.356m10.184.204c0 .392.04.552.093.356a1.676 1.676 0 0 0 0-.712c-.052-.196-.093-.036-.093.356m3.85 19.145c0 .168.079.488.176.712.11.257.175.295.175.102 0-.168-.08-.489-.175-.713-.111-.256-.175-.294-.175-.1m-20.78 9.186c-.126.36-.193.69-.15.734.044.043.183-.216.308-.575.126-.36.193-.69.149-.734-.044-.044-.182.215-.307.575m30.338 16.78c0 .112.13.433.29.713.16.28.292.417.292.305 0-.112-.131-.432-.291-.713-.16-.28-.291-.417-.291-.305m3.142 6.415c.174.336.362.611.418.611.056 0-.04-.275-.214-.61-.174-.337-.362-.612-.418-.612-.056 0 .04.275.214.611m-1.43 50.357-2.236 2.291 2.29-2.237c2.13-2.077 2.385-2.345 2.238-2.345-.03 0-1.061 1.031-2.291 2.291m-3.064 3.26-.6.66.663-.598c.617-.557.756-.725.599-.725-.036 0-.333.297-.662.662m-22.851 44.105c-.04 19.212-.101 24.065-.304 23.943-.146-.088-.124.007.05.223.345.422.466-11.829.358-36.092-.03-6.693-.077-1.326-.104 11.926m11.455.243c0 13.386.024 18.862.054 12.17.03-6.694.03-17.646 0-24.339-.03-6.693-.054-1.217-.054 12.17m28.81-11.66-.701.763.764-.702c.42-.386.764-.73.764-.764 0-.155-.173-.009-.826.702m-4.88 4.684-3.154 3.208 3.208-3.154c2.98-2.93 3.3-3.262 3.154-3.262-.03 0-1.473 1.444-3.208 3.208m-4.478 4.634c-.494.504-.853.916-.797.916.056 0 .506-.412 1-.916.496-.504.855-.917.799-.917-.056 0-.507.413-1.002.917m-1.844 2.087-.702.764.764-.702c.42-.386.764-.73.764-.764 0-.155-.172-.009-.826.702m-1.325 1.528-.6.662.663-.599c.617-.557.756-.725.599-.725-.036 0-.333.298-.662.662"/><path fill="#70345d" d="M90.564 55.515c.477.043 1.256.043 1.732 0 .476-.042.086-.078-.866-.078s-1.342.036-.866.078m48.257.004 19.795.053 1.14 1.343c9.797 11.55 20.972 31.114 27.003 47.276.594 1.594 1.12 2.86 1.167 2.812.105-.105-.593-2.409-.773-2.553-.07-.056-.288-.622-.485-1.258-.197-.635-.535-1.503-.751-1.927-.216-.424-.393-.935-.393-1.135 0-.2-.07-.364-.153-.364-.084 0-.33-.55-.543-1.222-.215-.673-.452-1.222-.527-1.222-.075 0-.312-.527-.526-1.172-.215-.644-.504-1.292-.644-1.44-.14-.148-.255-.348-.255-.445 0-.096-.106-.434-.236-.749-.131-.315-.222-.642-.204-.726.018-.084-.044-.153-.138-.153-.094 0-.292-.366-.44-.814-.148-.449-.337-.815-.42-.815-.083 0-.315-.458-.517-1.018-.201-.56-.427-1.019-.501-1.019-.075 0-.301-.435-.502-.967s-.428-1.013-.504-1.069c-.077-.056-.304-.538-.505-1.07s-.43-.967-.51-.967c-.078 0-.263-.367-.411-.815-.148-.448-.332-.814-.41-.814-.076 0-.312-.39-.523-.866-.211-.476-.5-.987-.642-1.135-.142-.148-.258-.345-.258-.438 0-.092-.364-.75-.808-1.462-.445-.71-.993-1.66-1.217-2.108-.416-.829-.503-.973-1.488-2.477-.308-.47-.56-.9-.56-.958 0-.057-.413-.705-.917-1.442-.504-.736-.916-1.377-.916-1.425 0-.048-.413-.69-.917-1.426s-.916-1.383-.916-1.437c0-.054-.323-.534-.718-1.067a90.665 90.665 0 0 1-.968-1.325l-.713-1.018c-1.16-1.658-4.75-6.407-5.126-6.78-.23-.228-.418-.466-.418-.529s-.383-.54-.852-1.062l-.851-.948-19.872.05-19.871.05 19.794.053m-51.006.197c.308.047.812.047 1.12 0 .308-.047.056-.085-.56-.085-.616 0-.868.038-.56.085m-2.14.201c.254.05.666.05.918 0 .252-.048.046-.088-.458-.088s-.711.04-.46.088m-1.625.204c.253.05.619.047.814-.004.195-.05-.012-.09-.46-.088-.45.002-.608.044-.354.092m153.38 3.064c-.586.707-.834 1.07-.733 1.07.056 0 .347-.32.646-.714.555-.727.622-1.002.087-.356m-168.912.255c-.257.11-.295.175-.102.175.168 0 .489-.079.713-.175.256-.11.294-.175.1-.175-.167 0-.487.078-.711.175m266.7.063c0 .035.298.333.662.662l.662.598-.598-.66c-.558-.618-.726-.757-.726-.6M64.992 60.597c-.483.171-.843.347-.8.391.094.093 1.983-.528 1.983-.65 0-.129-.231-.078-1.183.26m170.272 1.438c-1.174 1.553-1.744 2.404-1.33 1.986.39-.393 2.727-3.564 2.626-3.564-.056 0-.64.71-1.296 1.578m-172.245-.654c-.51.245-.527.273-.102.17.577-.142 1.226-.472.916-.468-.112.002-.478.136-.814.298m-2.546 1.011c-.28.16-.418.291-.306.291.112 0 .433-.13.713-.29.28-.16.418-.292.306-.292-.112 0-.433.131-.713.291m-1.426.611c-.28.16-.417.291-.305.291.112 0 .432-.13.712-.29.28-.16.418-.292.306-.292-.112 0-.433.131-.713.291m-4.364 2.052c-16.175 8.116-29.647 20.21-39.233 35.218-1.795 2.811-2.516 4.16-2.327 4.348.073.073 19.99.184 44.26.246 47.819.122 45.462.066 50.266 1.206 20.266 4.81 36.81 24.655 37.162 44.576.029 1.665.34 2.531.367 1.021.346-19.627-16.377-40.487-36.558-45.603-5.491-1.392-1.822-1.294-50.388-1.355-24.14-.03-44.096-.104-44.348-.163-.668-.157-.61-.323 1.08-3.077C24.347 86.18 37.56 74.087 54.26 65.515c2.352-1.208 4.185-2.194 4.073-2.193-.112.002-1.755.782-3.651 1.734m178.663-.372c-.36.418-.628.866-.52.866.04 0 .279-.275.527-.61.49-.665.486-.83-.007-.256m108.49 1.68c1.005 1.008 1.872 1.833 1.928 1.833.056 0-.72-.825-1.723-1.833-1.003-1.008-1.87-1.833-1.926-1.833-.056 0 .719.825 1.722 1.833m-109.715.002c-.447.784-.314.783.245-.002.239-.336.36-.61.268-.609-.091 0-.322.275-.513.611m-.844 1.185c-.371.411-.453.742-.134.545.212-.13.683-.917.549-.917-.043 0-.23.168-.415.372m-1.343 2.102c-.46.688-.801 1.286-.76 1.328.07.07.327-.29 1.45-2.02.2-.308.314-.56.255-.56-.06 0-.485.563-.945 1.252m-1.828 2.844c-.458.685-.832 1.287-.832 1.34 0 .05-.275.491-.611.98-.573.832-.832 1.44-.431 1.008.272-.293 2.88-4.573 2.787-4.573-.045 0-.456.561-.913 1.245m120.146.283c.608.616 1.152 1.12 1.208 1.12.056 0-.396-.504-1.004-1.12-.61-.616-1.153-1.12-1.21-1.12-.055 0 .397.504 1.006 1.12M225.44 76.802c-.41.672-.573 1.325-.191.764.399-.585.814-1.426.705-1.426-.061 0-.292.298-.514.662m-.941 1.731c-.188.308-.557.902-.82 1.32-.262.417-.477.846-.477.953 0 .106-.116.314-.258.462-.142.148-.431.66-.642 1.135-.211.476-.442.866-.512.866-.144 0-.654 1.26-.552 1.362.036.036.674-1.057 1.416-2.43.743-1.373 1.588-2.886 1.878-3.362.289-.476.477-.866.417-.866s-.262.252-.45.56m132.308 3.004c.38.392.737.713.793.713.056 0-.21-.32-.59-.713-.38-.392-.736-.712-.792-.712-.056 0 .209.32.589.712M220.486 85.75c-.452 1.15-.315 1.185.23.061.245-.502.367-.912.274-.912-.094 0-.321.383-.504.851m-.902 1.834c-.336.89-.196.93.218.062.186-.39.268-.71.183-.71-.086 0-.266.291-.401.648m-1.018 2.037c-.336.89-.196.93.217.061.187-.39.269-.71.183-.71-.085 0-.266.292-.4.65m-1.067 2.202c-.148.448-.346.814-.44.814-.094 0-.156.07-.138.153.018.084-.076.417-.21.741-.504 1.226-.068.67.583-.742.373-.812.716-1.544.76-1.628.044-.084-.002-.153-.103-.153-.1 0-.304.366-.452.815m150.094.661c.844.9 1.026 1.061 1.026.908 0-.032-.435-.468-.967-.967l-.967-.908.908.967m-151.894 3.26-.347 1.17c-.051.168.13-.153.404-.713.545-1.118.6-1.323.36-1.323-.09 0-.276.39-.417.865m-1.105 2.573c-.436 1.226-.448 1.598-.022.635.566-1.278.679-1.629.526-1.629-.083 0-.31.447-.504.994m-.761 1.793c0 .188-.178.715-.395 1.171-.45.94-1.026 2.56-1.021 2.864.004.165 1.82-4.152 1.823-4.328 0-.028-.091-.05-.203-.05-.112 0-.204.154-.204.343m-2.093 5.522c-.462 1.558-.43 1.82.067.55.583-1.488.647-1.73.456-1.73-.095 0-.33.53-.523 1.18m-23.71 1.948c.059.153.45 1.346.868 2.651.418 1.305.799 2.335.845 2.288.117-.116-.311-1.719-.665-2.494-.16-.35-.4-1.106-.532-1.68-.133-.574-.327-1.043-.431-1.043-.105 0-.143.125-.084.278m22.86.45c-.075.4-.178.881-.23 1.07-.126.464.439-.765.615-1.34.078-.253.054-.458-.054-.458-.107 0-.256.327-.331.727m-.811 2.35c-.246.725-.542 2.064-.472 2.135.044.043.24-.432.437-1.057.299-.949.332-1.95.035-1.078m-20.28 2.542c0 .318.89 3.131.967 3.055.13-.13-.397-2.362-.585-2.478-.088-.054-.108-.233-.045-.398.063-.164.013-.299-.111-.299s-.225.054-.225.12m19.26.717c-.246.724-.542 2.064-.471 2.134.043.044.24-.432.437-1.056.299-.949.332-1.95.035-1.078m-18.233 2.778c.023.35 1.998 7.67 2.012 7.456.027-.416-.606-3.424-.791-3.76-.1-.182-.338-1.12-.53-2.089-.272-1.369-.747-2.475-.691-1.607m17.11 1.09c-.293 1.49-.163 1.823.175.446.13-.537.287-1.136.345-1.332.059-.196.02-.357-.084-.357-.105 0-.301.56-.436 1.242m-.708 2.65c-.211.633-.555 2.665-.466 2.753.052.053.244-.565.427-1.372.287-1.27.313-2.204.039-1.38m-14.375 4.151c0 .093.274 1.598.61 3.344.335 1.746.737 3.908.894 4.804.156.896.29 1.4.296 1.12.024-1.03-1.396-9.037-1.648-9.285-.084-.084-.152-.075-.152.017m13.358.125c-.184.557-.567 3.265-.475 3.357.05.051.25-.697.442-1.662.3-1.509.32-2.568.033-1.695m-.806 3.985c-.186.618-.774 5.191-.68 5.286.048.048.285-1.167.526-2.699.394-2.505.459-3.599.154-2.587m150.853.015c3.453.032 9.044.032 12.424 0 3.38-.03.556-.057-6.277-.057s-9.6.026-6.147.057m33.692 0c1.709.034 4.504.034 6.212 0 1.709-.034.31-.062-3.106-.062s-4.814.028-3.106.062M2.886 130.047c-.14.054-.254.186-.254.293 0 .121.133.122.356.004.526-.28 50.679-.194 50.96.087.155.154-.072.836-.778 2.342-7.343 15.666-6.246 33.805 2.912 48.12 1.192 1.864 1.022 1.321-.23-.73-8.734-14.328-9.604-33.113-2.212-47.79.863-1.715.888-2.005.192-2.269-.535-.204-50.424-.259-50.946-.057m-.56 1.287c-.077.352-.098.682-.046.734.052.052.153-.198.224-.556.17-.849.006-1.014-.178-.178m192.479 4.223c.08.642.314 2.681.52 4.531.246 2.22.34 2.74.278 1.531-.177-3.417-.58-7.23-.762-7.23-.102 0-.118.51-.036 1.168m9.289 1.428c-.36 3.862-.252 4.466.174.968.448-3.687.44-3.564.234-3.564-.091 0-.275 1.168-.408 2.596m104.533.306-.598.662.662-.598c.617-.558.755-.726.598-.726-.035 0-.333.298-.662.662M.846 139.481c0 .391.042.552.093.356a1.68 1.68 0 0 0 0-.713c-.051-.196-.093-.036-.093.356m-.2 1.528c.003.448.044.607.093.354s.047-.62-.004-.815c-.051-.194-.091.013-.09.461m203.066 1.12c0 .616.038.868.085.56a4.466 4.466 0 0 0 0-1.12c-.047-.308-.085-.056-.085.56m-203.268.713c.002.448.044.607.092.354.049-.253.047-.62-.004-.815-.051-.194-.091.013-.088.461m-.194 2.138c0 .616.038.868.085.56a4.562 4.562 0 0 0 0-1.12c-.047-.308-.085-.056-.085.56m195.525.306c0 .784.038 1.08.082.657a7.607 7.607 0 0 0-.002-1.425c-.045-.362-.081-.016-.08.768m7.738-.102c0 .728.036 1.026.082.662a6.51 6.51 0 0 0 0-1.324c-.046-.364-.082-.066-.082.662M.057 148.034c0 1.065.035 1.5.077.968.042-.532.042-1.403 0-1.935s-.077-.097-.077.967m144.984 7.536c0 .392.042.552.094.356a1.676 1.676 0 0 0 0-.712c-.052-.196-.094-.036-.094.356m-.192 2.342c0 .56.04.765.088.456.046-.31.045-.768-.003-1.019-.048-.25-.087.003-.085.563m50.926 1.12c0 .84.036 1.184.08.764a8.849 8.849 0 0 0 0-1.527c-.044-.42-.08-.077-.08.763m-195.72.408c0 .952.035 1.341.078.865a11.63 11.63 0 0 0 0-1.73c-.043-.477-.078-.087-.078.865m203.457-.204c0 .728.036 1.026.082.662a6.51 6.51 0 0 0 0-1.324c-.046-.364-.082-.066-.082.662m83.323.255-.598.661.66-.598c.618-.557.757-.725.6-.725-.035 0-.333.298-.662.662m-142.323.865a55.947 55.947 0 0 1-.222 1.731c-.173.961-.337 2.734-.246 2.645.18-.176.78-4.623.706-5.23-.041-.328-.142.036-.238.854m51.054 2.037c.002.672.04.922.085.556a5.474 5.474 0 0 0-.002-1.222c-.047-.306-.084-.006-.083.666m-195.32 0c0 .56.04.765.088.455a3.64 3.64 0 0 0-.003-1.018c-.048-.25-.087.003-.085.563m203.465.102c0 .616.038.868.085.56a4.466 4.466 0 0 0 0-1.12c-.047-.308-.085-.056-.085.56M.447 164.531c0 .504.04.711.088.46a2.879 2.879 0 0 0 0-.918c-.048-.252-.088-.046-.088.458m194.683 1.833a138.802 138.802 0 0 1-.378 3.615c-.072.522-.038.866.086.866.212 0 .777-6.105.632-6.829-.044-.22-.197.836-.34 2.348m8.748-1.843c-.045 1.31.446 6.324.619 6.324.21 0 .22.19-.227-3.768-.203-1.792-.38-2.943-.392-2.556M.642 166.364c0 .392.042.553.093.357a1.649 1.649 0 0 0 0-.713c-.051-.196-.093-.036-.093.356m.204 1.63c0 .392.042.552.093.356a1.68 1.68 0 0 0 0-.713c-.051-.196-.093-.035-.093.357m273.972 3.717-.598.661.662-.598c.617-.557.756-.725.598-.725-.035 0-.333.297-.662.662m-80.614 1.992c-.197 1.39-.41 2.805-.473 3.144-.08.425-.048.554.098.413.224-.215.949-5.433.812-5.844-.044-.133-.241.897-.437 2.287m10.487-2.052c-.05.658.639 5.42.81 5.6.115.12.18.08.17-.103-.031-.586-.958-5.787-.98-5.497M1.658 172.882c-.002.28.069.738.159 1.018.219.684.219-.055 0-.917-.14-.548-.156-.559-.16-.1m.608 2.952c0 .224.073.636.163.916.129.403.163.425.163.102 0-.224-.073-.636-.163-.916-.13-.404-.163-.425-.163-.102m269.667 1.266c.309.047.768.046 1.018-.003.25-.048-.003-.086-.563-.085-.56.002-.765.041-.455.088m-78.655 1.94a56.17 56.17 0 0 1-.36 1.936c-.058.252-.017.46.09.46.198 0 .783-3.616.614-3.784-.05-.049-.203.576-.344 1.388m12.505-.559c.236 2.17.379 2.954.542 2.954.228 0 .229.002-.236-2.037-.216-.952-.354-1.365-.306-.917m-202.82.306c.072.392.21.896.308 1.12.122.28.138.184.049-.305-.071-.392-.21-.897-.307-1.12-.123-.28-.138-.184-.05.305m.513 1.833c0 .168.079.49.175.713.11.256.175.294.175.102 0-.168-.08-.489-.175-.713-.11-.257-.175-.295-.175-.102m188.404 4.848a451.04 451.04 0 0 1-.986 4.062c-.067.252-.037.46.066.46.104 0 .35-.848.549-1.884.199-1.035.434-1.974.523-2.087.179-.226.895-3.97.782-4.084-.04-.039-.46 1.551-.934 3.533M57.637 183.19c9.69 14.083 29.222 22.633 45.293 19.826l2.96-.52c2.138-.377 6.11-1.5 6.11-1.73 0-.092-.39-.03-.865.138-18.224 6.434-40.49-.7-52.648-16.872-1.44-1.914-1.904-2.375-.85-.842m-53.564-.635c-.023.298 1.438 4.623 1.53 4.531.043-.043-.28-1.126-.718-2.406-.438-1.28-.804-2.236-.812-2.125m202.65.527c-.031.56.438 2.723.638 2.936.119.127.136-.09.046-.583-.22-1.19-.663-2.719-.684-2.353m1.082 4.718c.073.364.188 1.006.255 1.426.068.42.212.764.322.764.11 0 .155-.117.1-.26-.055-.143-.21-.785-.342-1.426-.133-.64-.293-1.166-.355-1.166s-.053.298.02.662M5.79 187.75c1.225 4.06 6.5 14.128 10.244 19.551 13.44 19.473 31.825 32.726 54.099 39.002 2.937.828 8.016 1.983 8.3 1.888.11-.036-1.483-.453-3.54-.925-30.637-7.027-56.638-29.023-68.187-57.684-.841-2.087-1.225-2.856-.916-1.833m184.72 3.065c-.242 1.108-2.654 8.726-3.537 11.175-.941 2.61-.901 2.461-.66 2.461.098 0 .233-.275.3-.61.068-.337.298-1.002.512-1.478.214-.476.454-1.186.534-1.578.08-.392.259-.896.399-1.12.139-.224.415-1.073.613-1.886s.435-1.525.527-1.582c.093-.057.276-.629.407-1.27.132-.643.316-1.263.409-1.378.223-.276.873-3.15.742-3.282-.056-.056-.166.191-.245.548m18.047-.379c-.048.334.638 2.934.823 3.12.136.135.156 0 .059-.409-.213-.889-.858-2.875-.882-2.71m1.134 4.136c.152.991.494 1.911.604 1.622.044-.116-.102-.712-.325-1.324-.372-1.025-.394-1.049-.28-.298m.899 2.608c-.036.396.48 2.113.748 2.484.28.39.286.384.142-.102-.286-.969-.876-2.545-.89-2.382m1.126 3.604c.173.933.516 1.785.614 1.527.042-.112-.108-.662-.334-1.222-.343-.848-.39-.899-.28-.305m.803 2.138c.066.224.172.66.234.968.062.308.193.56.29.56.249 0 .208-.184-.248-1.12-.218-.448-.342-.632-.276-.408m-27.606 4.43c-4.921 12.288-12.11 25.231-18.981 34.173-2.133 2.775-4.788 4.421-9.986 6.192-4.43 1.51-2.568 1.403-26.94 1.533l-21.996.118 21.302.046c20.495.044 24.246-.04 24.93-.563.113-.086.915-.322 1.783-.524s1.578-.432 1.578-.51c0-.08.596-.306 1.324-.503.728-.197 1.324-.424 1.324-.504 0-.08.435-.312.967-.515.532-.204 1.088-.49 1.236-.639.148-.148.492-.325.764-.393s.495-.185.495-.259c0-.075.342-.317.759-.538.905-.48 1.308-.905 2.899-3.05.664-.897 1.35-1.79 1.524-1.987.175-.196.317-.433.317-.528 0-.095.177-.332.393-.528.216-.195.54-.668.722-1.05.182-.38.417-.694.524-.694.107 0 .194-.12.194-.267 0-.147.165-.445.367-.662.2-.217.545-.716.763-1.108.219-.392.454-.758.522-.814.068-.056.286-.418.485-.805.198-.387.486-.828.639-.982.153-.153.279-.393.279-.532 0-.138.163-.43.363-.647.2-.217.523-.716.719-1.108.195-.392.719-1.294 1.164-2.006.445-.71.809-1.369.809-1.462 0-.093.116-.29.258-.438.142-.148.43-.658.642-1.134.21-.476.443-.866.516-.866.072 0 .253-.344.4-.764.15-.42.382-.9.518-1.069.136-.168.37-.626.523-1.018.152-.392.336-.759.409-.815.072-.056.296-.537.497-1.069.2-.532.427-.968.502-.968.074 0 .3-.458.5-1.018.203-.56.438-1.018.524-1.018.087 0 .273-.413.414-.917.14-.504.336-.916.434-.916.097 0 .177-.096.177-.212 0-.117.265-.782.589-1.477.324-.695.705-1.654.847-2.13.142-.476.32-.866.397-.866.076 0 .254-.389.394-.865s.378-1.14.529-1.477c.15-.336.435-.977.632-1.425.197-.448.393-.884.437-.968.043-.084-.007-.152-.111-.152s-.675 1.214-1.27 2.698m28.15-2.546c.17.333.718 1.6.847 1.964.075.212.178.344.23.293.139-.14-.79-2.409-.986-2.409-.093 0-.134.068-.091.152m1.232 2.73c.066.183.233.71.37 1.17.138.46.327.835.42.835.163 0-.556-2.035-.792-2.24-.065-.056-.063.05.002.234m.964 2.252c0 .237.652 1.94 1.128 2.947.276.582.5 1.157.5 1.276 0 .118.094.216.208.216.123 0 .09-.267-.08-.662l-.942-2.19c-.63-1.466-.814-1.825-.814-1.587m2.127 4.916c.063.206.17.596.238.866.068.27.205.49.305.49.266 0 .212-.222-.247-1.019-.226-.392-.36-.543-.296-.337m1.02 2.272c.087.224.204.568.26.764.057.196.186.356.288.356.102 0 .034-.297-.152-.66-.396-.78-.62-1.04-.396-.46m1.019 2.037c.086.224.203.568.26.764.056.196.185.356.287.356.102 0 .034-.298-.151-.662-.397-.779-.62-1.038-.396-.458m.722 1.367c0 .283.629 1.573.827 1.695.12.076.02-.262-.226-.75-.464-.918-.601-1.135-.601-.945m1.124 2.3c.079.223.19.567.247.763.056.196.169.356.25.356.083 0 .323.39.534.866.21.476.5.986.642 1.134.142.148.258.344.258.434 0 .225 1.374 2.491 1.669 2.752.13.116.099-.018-.072-.298-.171-.28-.89-1.563-1.598-2.85-1.431-2.602-2.148-3.776-1.93-3.158m3.85 6.823c.065.168.174.466.243.662s.21.356.313.356c.185 0 .007-.404-.447-1.018-.201-.272-.213-.272-.11 0m1.147 1.935c-.005.302.358.82.486.692.06-.06-.023-.288-.186-.504-.164-.215-.3-.3-.3-.188m.94 1.578c.19.42.425.764.52.764.194 0-.05-.502-.543-1.12-.276-.347-.273-.293.023.356m.679 1.076c0 .165.662 1.163 1.068 1.61.197.217.358.505.358.64s.136.298.302.361c.166.064-.122-.522-.641-1.302-.885-1.33-1.087-1.574-1.087-1.309m2.037 3.066c0 .111.27.52.603.906.33.388.606.81.61.938.005.128.154.29.332.357.188.072.002-.324-.443-.945-.976-1.364-1.102-1.508-1.102-1.256m1.833 2.564c0 .452 3.168 4.217 3.886 4.618.27.152.069-.123-.45-.61-.518-.488-1.428-1.529-2.022-2.313-1.276-1.684-1.414-1.85-1.414-1.695m6.314 6.033c0 .16 1.247.695 1.358.583.034-.034-.258-.214-.648-.4-.391-.187-.71-.269-.71-.183m2.036 1.048c0 .186 1.012.493 1.155.35.048-.048-.192-.185-.533-.304-.342-.12-.622-.14-.622-.046m2.648 1.017c0 .161 1.053.45 1.18.324.035-.033-.217-.158-.56-.277-.341-.119-.62-.14-.62-.047m3.367 1.003c.108.101.655.237 1.215.302.633.074.826.057.51-.044-.937-.3-1.93-.448-1.725-.258m-144.016.871c-.142.23 2.546.2 3.072-.035.276-.122-.14-.174-1.278-.16-.928.011-1.735.1-1.794.195m-20.741 11.301c-.327.181-.694.415-.815.52-.282.244-1.436.871-2.408 1.31-.42.19-.764.415-.764.5 0 .086-.412.314-.916.506-.504.193-.917.422-.917.51 0 .087-.412.316-.916.51-.504.191-.917.422-.917.511 0 .09-.321.28-.713.421-.392.142-.713.322-.713.4 0 .08-.412.312-.915.52-.504.207-.916.431-.917.498 0 .067-.39.294-.866.503-.476.21-.912.437-.968.504-.056.067-.835.522-1.731 1.01-.896.488-1.675.94-1.731 1.003-.056.064-.422.283-.815.485-.392.203-1.171.635-1.731.961a23.93 23.93 0 0 1-1.782.936c-.42.188-.764.457-.764.598 0 .311 4.052.162 4.379-.16.134-.133-.494-.157-1.833-.07-1.304.083-1.927.061-1.731-.062.168-.106 3.055-1.742 6.416-3.636 3.36-1.893 8.095-4.565 10.52-5.938l4.412-2.495 27.87.086c29.113.09 30.665.13 40.06 1.066 5.814.58 5.57.565 5.315.32-.107-.1-1.706-.302-3.554-.445-1.848-.143-3.406-.322-3.462-.397-.532-.717-65.823-1.179-67.093-.475m177.227.016c.254.05.62.047.815-.004.195-.05-.013-.09-.461-.088-.448.002-.607.044-.354.092m-6.01.212c-.924.037-1.681.146-1.681.24 0 .17 1.313.114 4.277-.184 1.749-.176.822-.196-2.596-.056m-7.485.813c-.56.043-1.095.154-1.19.246-.184.183 1.366.062 2.514-.195.768-.173.447-.185-1.324-.05m-89.291.543c.047.045 1.139.235 2.427.422 6.05.875 11.847 2.564 14.98 4.364 4.314 2.48 13.108 12.458 16.583 18.817.478.873.907 1.55.954 1.503.113-.114-.37-1.19-.68-1.515-.133-.142-.36-.577-.5-.968-.142-.39-.328-.71-.415-.71-.087 0-.31-.298-.497-.662-.186-.364-.395-.708-.463-.764-.07-.056-.262-.377-.43-.713-.168-.336-.466-.73-.662-.877-.196-.146-.356-.358-.356-.47 0-.166-1.031-1.62-1.427-2.013-.056-.056-.651-.79-1.321-1.63-.67-.84-1.632-1.956-2.138-2.48a1149.92 1149.92 0 0 1-1.958-2.038c-.572-.595-1.798-1.77-2.725-2.61-.927-.84-1.835-1.665-2.018-1.833-.875-.807-4.044-2.515-5.092-2.745-.348-.076-.633-.208-.633-.293 0-.085-.733-.322-1.63-.526-.895-.205-1.63-.435-1.63-.512 0-.076-.938-.304-2.086-.505-1.148-.202-2.225-.442-2.393-.533-.51-.277-6.14-.955-5.89-.709m82.672.473c-.392.046-.797.165-.9.265-.193.19 1.005.05 1.918-.226.57-.17.22-.185-1.018-.039m-4.735 1.015c-.308.047-.56.163-.56.26 0 .144.965-.023 1.73-.3.26-.094-.442-.07-1.17.04m-3.361 1.016c-.252.05-.458.17-.458.268s.298.078.662-.045c1.06-.358.976-.45-.204-.223m-2.201.988c-.39.312-.39.314.012.13.224-.104.545-.239.713-.3.263-.099.262-.117-.012-.13-.175-.009-.496.126-.713.3m-1.77.818c-.79.43-.701.576.1.168.769-.39.905-.49.646-.48-.102.005-.438.145-.746.312m-1.273.808c-1.315.97-2.953 2.426-2.953 2.624 0 .103 2.043-1.582 3.35-2.763.31-.28.046-.188-.397.14m-4.685 4.13c-.672.647-1.448 1.447-1.725 1.777-.277.331.296-.176 1.273-1.125 1.622-1.577 1.877-1.848 1.725-1.833-.028.003-.6.535-1.273 1.181M68.785 272.83a183 183 0 0 0 6.11 0c1.645-.034.242-.062-3.12-.062-3.36 0-4.705.028-2.99.062m10.323.255c.069.112.785.204 1.59.205.806.001 3.058.141 5.005.313 3.376.297 5.013.305 2.525.012-4.951-.582-9.31-.835-9.12-.53m10.795.966c.206.201 4.764.753 4.922.595.076-.076-1.35-.304-4.21-.675-.596-.077-.845-.049-.712.08m127.38 1.041c-.4.425-1.27 1.453-1.934 2.285a77.54 77.54 0 0 1-1.311 1.615c-.423.42-1.45 1.878-1.374 1.953.052.052.629-.618 1.283-1.487a72.628 72.628 0 0 1 2.422-3.01c1.442-1.674 1.819-2.143 1.715-2.134-.041.004-.402.354-.801.778m-122.075-.207c.206.181 4.795.897 4.923.768.083-.082-4.333-.943-4.821-.94-.177.001-.218.07-.102.172m5.183.993c0 .155.976.345 3.972.774.809.116-2.12-.642-3.162-.818-.445-.075-.81-.056-.81.044m4.685 1.037c0 .163 3.475.91 3.609.775.062-.06-3.21-.939-3.5-.939-.06 0-.11.074-.11.164m3.955 1.031c.06.097.684.288 1.387.425s1.553.374 1.889.528c.336.153 1.069.39 1.629.524s1.064.307 1.12.383c.119.16 2.705.826 2.808.723.13-.13-8.211-2.759-8.753-2.759-.104 0-.14.08-.08.176m9.08 2.81c0 .17 2.476.913 2.61.783.035-.034-.423-.222-1.018-.418a71.64 71.64 0 0 1-1.337-.45c-.14-.05-.255-.013-.255.085m94.094.741c-.37.305-.877 1.167-.757 1.286.048.048.33-.282.628-.732.584-.882.598-.94.129-.554m-91.242.29c0 .096.389.28.865.407.476.128 1.049.286 1.273.351.224.065.04-.057-.407-.27-1.096-.52-1.731-.7-1.731-.488m2.647 1.022c0 .098.459.296 1.019.44.56.143 1.018.332 1.018.42 0 .086.42.275.933.42.513.143 1.04.367 1.17.498.258.257 2.196.967 2.316.848.074-.075-5.181-2.408-5.997-2.662-.253-.079-.46-.062-.46.036m87.207.765c-.127.28-.198.51-.158.51.04 0 .225-.23.408-.51.184-.28.255-.509.158-.509s-.28.23-.408.51m-.551.868c-.116.082-.382.54-.592 1.015-.21.476-.448.866-.53.866-.082 0-.195.16-.252.356-.056.196-.17.54-.252.764l-.15.407.295-.407c.357-.494 1.836-3.158 1.75-3.154-.033.002-.154.07-.27.153m-79.933 1.234c0 .087.458.324 1.019.525.56.201 1.018.45 1.018.55 0 .1.108.183.239.183.25 0 3.25 1.423 3.427 1.625.056.064.514.296 1.018.515.504.22 1.03.507 1.169.64s.575.348.968.478.715.314.715.41c0 .095.19.234.424.31.446.14 2.455 1.324 2.63 1.548.057.072.446.274.866.448.42.175.764.415.764.532 0 .118.118.215.26.215.292 0 2.285 1.202 2.854 1.72.2.183.59.435.865.561.276.125.502.29.502.366 0 .076.252.253.56.393.308.141.697.387.865.55.168.16.899.68 1.623 1.151.725.473 1.476.997 1.668 1.165.192.168.593.49.89.713.299.224.777.613 1.062.865.286.252.575.46.642.46.068 0 .368.205.668.457.3.252.839.687 1.2.967a47.228 47.228 0 0 1 2.287 1.905c.313.276.909.778 1.324 1.116a80.29 80.29 0 0 1 1.87 1.598c1.632 1.435 10.1 9.945 11.41 11.463a145.69 145.69 0 0 0 1.985 2.253c.477.525.866 1.06.866 1.187 0 .13.085.234.189.234s.769.743 1.477 1.651c.708.908 1.723 2.181 2.255 2.83.532.65.967 1.28.967 1.404 0 .124.089.225.198.225.11 0 .337.266.505.591.168.326.423.718.565.871.622.67 1.583 1.994 1.583 2.182 0 .113.115.278.255.368.298.191.725.827.895 1.334.066.196.196.356.289.356.093 0 .288.218.434.485.146.266.632 1.022 1.08 1.68.447.658.86 1.288.916 1.4.057.112.355.591.663 1.065.308.474.56.955.56 1.07 0 .113.09.207.2.207.11 0 .34.298.51.662.17.364.58 1.074.91 1.578.33.504.752 1.214.939 1.578.925 1.808.91 2.235.848-24.032-.033-13.582-.111-24.832-.175-25a38.453 38.453 0 0 0-.238-.61 14.78 14.78 0 0 1-.353-1.205c-.127-.494-.352-1.089-.501-1.324-.15-.234-.386-.815-.525-1.29-.14-.477-.313-.866-.385-.866-.072 0-.296-.459-.497-1.019-.202-.56-.45-1.018-.552-1.018-.196 0-.054.37 1.1 2.87.394.85 1 2.432 1.347 3.515l.63 1.97v24.176c0 20.225-.044 24.127-.272 23.877-.151-.164-.855-1.26-1.566-2.437-11.527-19.069-26.64-35.04-43.986-46.49-6.123-4.043-17.923-10.465-17.923-9.757m77.528 3.127c-.451 1.15-.315 1.185.232.061.243-.502.366-.912.273-.912-.094 0-.321.383-.505.851m-.84 1.746c-.074.308-.35 1.018-.61 1.578-.44.948-.9 2.572-.664 2.342.057-.056.42-.926.808-1.935.387-1.008.773-1.993.857-2.189.089-.204.067-.356-.05-.356-.111 0-.264.252-.34.56m-1.552 4.141a7.38 7.38 0 0 1-.146.492c-.072.224-.157 11.52-.19 25.102-.061 25.918-.066 25.777.773 24.134.29-.569.494-.898 1.512-2.447.314-.478.522-.92.46-.98-.06-.06-.583.671-1.16 1.627s-1.137 1.792-1.243 1.858c-.284.175-.258-47.832.026-48.855.12-.43.165-.835.1-.899-.064-.065-.123-.079-.132-.032m44.212 1.826-.51.408.56-.242c.308-.133.56-.318.56-.412 0-.233-.028-.22-.61.246m-1.426 1.018-.51.41.56-.243c.309-.133.56-.319.56-.413 0-.232-.027-.22-.61.246m-1.324.925-.611.525.662-.439c.364-.24.662-.477.662-.526 0-.152-.086-.099-.713.44m-3.971 2.945-.713.61.658-.36c.363-.2.704-.477.758-.617.133-.342.114-.333-.703.367m-4.904 3.996-.494.544.554-.39c.305-.216.557-.46.56-.545.01-.25-.101-.18-.62.391m-1.222 1.018-.494.544.554-.39c.305-.216.557-.46.56-.545.01-.25-.101-.18-.62.391m-1.58 1.442-.765.764.722-.61c.397-.336.809-.68.916-.764.106-.085.125-.154.043-.154-.083 0-.495.344-.916.764m-5.407 5.13c-2.25 2.233-4.045 4.091-3.991 4.128.054.036 1.947-1.79 4.207-4.06s4.056-4.129 3.99-4.129c-.064 0-1.957 1.828-4.206 4.061m-5.32 5.512c-.437.448-.7.814-.584.814.116 0 .506-.366.866-.814.36-.448.623-.815.584-.815-.038 0-.428.367-.865.815m-2.273 2.597c-1.157 1.312-4.638 5.61-5.86 7.234-.388.516-.47.726-.245.64.183-.07.333-.219.333-.33 0-.112.435-.734.967-1.383s1.547-1.922 2.255-2.83c.708-.908 1.373-1.65 1.477-1.65.104 0 .189-.123.189-.27 0-.15.238-.493.529-.765.59-.55 1.795-2.02 1.656-2.02-.05 0-.634.617-1.301 1.374m-7.728 9.775a147.98 147.98 0 0 1-1.356 1.833c-.135.173-.124.255.035.255.129 0 .294-.16.367-.356.126-.338 1.085-1.655 1.638-2.252.323-.347.709-1.058.574-1.058-.055 0-.621.71-1.258 1.578m-4.003 5.792c-2.8 4.23-2.702 4.064-2.3 3.91.174-.067.316-.206.316-.308 0-.102.252-.573.56-1.047.308-.474.606-.953.663-1.065.056-.112.469-.742.916-1.4.448-.658.934-1.414 1.08-1.68.146-.267.352-.485.458-.485.106 0 .193-.107.193-.238s.152-.407.338-.612c.186-.206.287-.425.224-.488-.062-.062-1.164 1.473-2.448 3.413"/><path fill="#4e82b6" d="M300.146 55.111c.93.038 2.396.037 3.259 0s.102-.07-1.69-.07c-1.792.001-2.498.032-1.57.07m22.364.001 8.167.055 3.027 3.104c1.665 1.707 8.072 8.24 14.237 14.515 26.409 26.887 29.437 29.994 29.437 30.207 0 .162-10.964.243-39.562.291-39.51.068-39.565.07-41.802.506-13.624 2.661-24.947 10.113-32.164 21.168-1.292 1.98-4.196 7.333-4.187 7.72.003.101.684-1.123 1.514-2.72 6.693-12.88 16.88-21.09 31.134-25.09 5.035-1.413 1.749-1.31 45.76-1.43 37.159-.102 39.613-.13 39.613-.456 0-.19-2.475-2.85-5.5-5.91-3.024-3.06-7.881-7.995-10.794-10.965a9506.037 9506.037 0 0 0-18.014-18.274L330.657 54.96l-8.157.05-8.158.047 8.167.056m-26.853.2a11.63 11.63 0 0 0 1.73 0c.477-.043.088-.078-.864-.078s-1.342.035-.866.078m-55.264.513c-.387.457-.387.457.035.102.397-.334 2.056-.359 27.087-.408l26.666-.052-26.7-.05-26.7-.05-.388.458m105.706 72.596-28.734.063-4.056 4.132-14.842 15.122a9973.309 9973.309 0 0 1-15.411 15.673c-8.282 8.387-12.5 12.77-12.567 13.058-.145.624 1.584.655 38.034.673 20.434.01 37.198.063 37.252.118.055.054-.525 1.04-1.29 2.188-11.96 18-33.491 26.12-53.563 20.201a464.939 464.939 0 0 0-2.19-.643c-.196-.057-.356-.02-.356.08 0 .21 3.994 1.316 6.416 1.778 17.743 3.386 35.03-2.85 46.678-16.84 2.206-2.65 4.829-6.66 4.543-6.948-.16-.16-10.89-.238-37.79-.276-22.25-.03-37.566-.128-37.566-.237 0-.102 3.597-3.84 7.994-8.306a72599.43 72599.43 0 0 0 23.454-23.847l15.46-15.726 41.21.052c22.666.03 41.21-.017 41.21-.1s-.16-.15-.356-.145c-.196.005-5.856-.023-12.577-.062-6.721-.038-25.15-.042-40.953-.008m-86.814 5.06c-.341.75-.276.91.093.228.172-.318.275-.616.228-.663-.046-.047-.191.15-.321.435m-.622 1.541c-.296.85-.154.992.18.181.144-.343.212-.67.154-.729-.058-.058-.208.188-.334.548m-.61 1.627c-.125.36-.22.753-.213.876.008.123.146-.134.307-.573.16-.438.256-.832.213-.876-.044-.043-.182.215-.307.573m-.904 3.083c-.188.748-.333 1.478-.323 1.623.01.145.19-.378.403-1.162.21-.784.356-1.514.323-1.623-.034-.109-.215.414-.403 1.162m-1.104 5.96c.002.448.043.608.092.354.049-.253.047-.62-.004-.814-.051-.195-.091.012-.088.46m-.197 1.833c0 .56.04.765.088.456.046-.31.045-.768-.003-1.019-.048-.25-.087.003-.085.563m-.18 4.888c0 1.904.032 2.711.069 1.792.038-.918.038-2.476 0-3.462-.037-.986-.068-.234-.068 1.67m.179 4.888c0 .56.04.765.088.456.046-.31.045-.768-.003-1.019-.048-.25-.087.003-.085.563m143.869 2.088c-1.645 36.07-26.676 70.381-61.24 83.945-5.212 2.045-14.098 4.7-15.731 4.7-.21 0-.33.083-.268.185.133.215-.098.258 4.085-.778 38.462-9.526 67.58-42.285 72.922-82.037.319-2.37.655-8.816.46-8.816-.055 0-.158 1.261-.228 2.801m-143.677-.153c0 .392.042.552.094.356a1.676 1.676 0 0 0 0-.712c-.052-.196-.094-.036-.094.356m.166 1.24c.005.27.14 1.041.302 1.713.257 1.073.28 1.11.195.306-.202-1.898-.518-3.18-.497-2.02m3.494 19.433c0 .224.073.637.163.917.129.403.163.424.163.101a3.71 3.71 0 0 0-.163-.916c-.13-.403-.163-.424-.163-.102m.589 2.5c-.028.391 1.266 5.46 1.336 5.233.032-.109-.25-1.389-.63-2.845-.378-1.456-.696-2.53-.706-2.388m1.639 6.563c0 .168.079.49.175.713.11.257.175.294.175.102 0-.168-.08-.489-.175-.713-.11-.257-.175-.294-.175-.102m.407 1.426c0 .168.079.49.175.713.11.256.175.294.175.102 0-.168-.078-.489-.175-.713-.11-.257-.175-.295-.175-.102m.41 1.426c0 .168.124.626.275 1.018.15.392.274.575.274.407 0-.168-.123-.626-.274-1.018-.151-.392-.275-.575-.275-.407m.61 2.036c0 .168.125.626.276 1.02.15.391.274.574.274.406 0-.168-.123-.626-.274-1.018-.151-.393-.275-.576-.275-.408m1.003 3.168c-.022.305.828 2.778.922 2.683.043-.042-.144-.712-.415-1.488-.271-.775-.5-1.313-.507-1.195m1.053 3.197c.052.14.254.741.45 1.337.196.595.392 1.046.436 1.003.103-.104-.737-2.595-.875-2.595-.058 0-.063.115-.011.255m1.579 4.292c0 .256 1.069 2.802 1.145 2.726.042-.042-.162-.664-.453-1.383-.515-1.273-.692-1.616-.692-1.343m19.145 33.4c0 .034.298.332.662.661l.662.598-.6-.662c-.556-.617-.724-.756-.724-.598m25.662 0c0 .035.297.333.662.662l.66.598-.597-.662c-.557-.617-.725-.756-.725-.598m-21.59 4.315c1.398 1.4 2.587 2.546 2.643 2.546.056 0-1.041-1.146-2.438-2.546-1.397-1.4-2.586-2.546-2.642-2.546-.056 0 1.04 1.146 2.438 2.546m28.31 2.406c0 .035.297.333.662.662l.66.598-.597-.662c-.557-.617-.725-.756-.725-.598m-76.375 2.753c.168.104.534.25.815.325.353.095.416.08.203-.053a3.78 3.78 0 0 0-.814-.325c-.354-.094-.416-.078-.204.053m2.754.931c.45.15 1.138.327 1.527.394.676.116.67.11-.11-.15a12.736 12.736 0 0 0-1.528-.395c-.675-.116-.67-.109.11.151m4.579.972c.504.076 11.685.125 24.847.108 13.162-.016 22.739-.054 21.283-.085-6.104-.129-46.97-.149-46.13-.023m11.838 11.596c-2.058.09-3.8.225-3.87.3-.07.075 1.019.076 2.419.002 1.4-.074 14.809-.185 29.797-.246l27.252-.11 6.15 3.442c8.574 4.801 15.39 8.697 15.326 8.763-.03.03-.961-.057-2.07-.193-7.518-.922-24.236.157-35.111 2.267-10.484 2.035-21.07 5.33-30.621 9.533-3.853 1.696-14.593 7.377-14.593 7.72 0 .05.069.051.153.002 3.178-1.86 9.728-5.266 12.984-6.748l2.036-.927a15.102 15.102 0 0 1 1.68-.624c.477-.14.866-.317.866-.393 0-.077.39-.255.866-.396.476-.142.957-.327 1.069-.413.112-.085.708-.317 1.324-.515.616-.198 1.212-.427 1.324-.509.112-.083.57-.26 1.018-.396.448-.135.952-.3 1.12-.366a21.115 21.115 0 0 0 1.018-.4c.28-.117.83-.28 1.222-.363.392-.083.828-.244.968-.357.14-.112.254-.136.254-.053 0 .084.115.061.255-.05s.759-.318 1.375-.459c.616-.14 1.213-.33 1.327-.42.115-.09.848-.313 1.63-.496.782-.184 1.564-.409 1.739-.5.175-.093 1.045-.322 1.935-.51.889-.189 1.8-.425 2.025-.526.379-.17 1.505-.412 6.72-1.442 1.12-.22 2.22-.444 2.444-.494 1.873-.424 9.466-1.37 13.952-1.739 3.825-.315 17.03-.467 17.715-.204.719.276 3.956.371 4.054.12.044-.113-.277-.376-.713-.585-.435-.209-.837-.45-.893-.537-.056-.086-.423-.309-.815-.494a29.625 29.625 0 0 1-1.731-.928 52.896 52.896 0 0 0-1.731-.958c-.393-.203-.76-.42-.815-.482-.056-.063-1.565-.925-3.352-1.916-1.788-.99-3.346-1.879-3.462-1.974-.117-.094-.946-.55-1.842-1.014-.896-.464-1.675-.899-1.731-.968-.056-.068-.423-.29-.815-.495-1.53-.795-2.147-1.143-2.372-1.338-.987-.857-.35-.839-27.744-.806-14.297.017-27.678.104-29.736.195m-8.684.613c-2.242.188-4.304.391-4.583.45-.716.154 3.224-.056 5.298-.283.953-.103 2.162-.189 2.687-.19.526 0 1.003-.078 1.06-.17.127-.206.494-.222-4.462.193m-6.158.727c.196.051.517.051.713 0 .196-.052.035-.093-.357-.093s-.552.041-.356.093m-4.735.525c-.73.114-1.23.241-1.114.282.116.041 1.032-.053 2.037-.21 1.004-.156 1.505-.283 1.113-.28-.392 0-1.308.095-2.036.208m-5.092.964c-.685.22.055.22.916 0 .549-.14.56-.156.102-.16-.28-.002-.738.07-1.018.16m17.199 29.854c-3.715 2.32-9.663 6.474-9.663 6.748 0 .058.297-.117.66-.39 2.695-2.019 6.403-4.523 9.176-6.194 1.068-.644 1.939-1.284 1.762-1.295-.062-.003-.933.506-1.935 1.131m-10.801 7.537-.797.731.865-.646c.773-.578 1.006-.816.798-.816-.037 0-.427.33-.866.731m-7.531 6.244-.598.662.662-.598c.617-.558.755-.726.598-.726-.035 0-.333.298-.662.662"/></g></svg>