<svg id="svg" version="1.1" xmlns="http://www.w3.org/2000/svg" xmlns:xlink="http://www.w3.org/1999/xlink" width="400" height="290.020366598778" viewBox="0, 0, 400,290.020366598778"><g id="svgg"><path id="path0" d="M87.251 0.711 C 60.021 3.496,35.111 17.970,18.728 40.529 C 15.701 44.697,12.843 49.367,13.139 49.663 C 13.212 49.736,33.130 49.847,57.400 49.909 C 96.812 50.010,101.759 50.058,103.694 50.354 C 110.794 51.443,116.554 53.672,122.575 57.662 C 124.077 58.657,125.385 59.470,125.483 59.470 C 125.582 59.470,125.662 59.554,125.662 59.657 C 125.662 59.759,126.134 60.190,126.711 60.613 C 127.287 61.036,127.958 61.571,128.201 61.801 C 130.184 63.679,132.213 65.720,132.892 66.518 C 133.340 67.045,134.050 67.851,134.470 68.309 C 134.891 68.767,135.234 69.248,135.234 69.376 C 135.234 69.505,135.373 69.663,135.542 69.728 C 135.711 69.793,135.825 69.919,135.796 70.008 C 135.767 70.098,135.950 70.393,136.202 70.664 C 136.454 70.935,136.660 71.276,136.660 71.423 C 136.660 71.570,136.752 71.690,136.864 71.690 C 136.976 71.690,137.067 71.818,137.067 71.974 C 137.067 72.130,137.210 72.313,137.386 72.380 C 137.561 72.447,137.647 72.595,137.577 72.707 C 137.508 72.820,137.553 72.912,137.678 72.912 C 137.803 72.912,137.855 72.994,137.793 73.095 C 137.731 73.195,137.831 73.335,138.014 73.405 C 138.197 73.475,138.293 73.588,138.226 73.654 C 138.160 73.721,138.239 73.910,138.403 74.073 C 138.566 74.237,138.639 74.469,138.565 74.590 C 138.485 74.719,138.526 74.749,138.665 74.663 C 138.875 74.533,138.992 74.777,138.924 75.204 C 138.911 75.288,138.982 75.356,139.083 75.356 C 139.345 75.356,140.128 77.014,139.980 77.255 C 139.905 77.377,139.962 77.390,140.125 77.289 C 140.319 77.170,140.360 77.214,140.270 77.448 C 140.201 77.628,140.225 77.803,140.322 77.838 C 140.419 77.873,140.529 78.038,140.565 78.203 C 140.602 78.368,140.751 78.632,140.898 78.789 C 141.044 78.946,141.114 79.205,141.053 79.365 C 140.992 79.524,141.022 79.605,141.120 79.544 C 141.367 79.391,142.233 81.590,142.045 81.894 C 141.953 82.042,141.978 82.088,142.106 82.008 C 142.359 81.852,142.642 82.809,142.439 83.137 C 142.349 83.283,142.394 83.304,142.567 83.197 C 142.766 83.074,142.805 83.144,142.719 83.471 C 142.656 83.713,142.678 83.866,142.767 83.810 C 142.990 83.672,143.205 84.606,143.056 85.065 C 142.970 85.330,142.990 85.362,143.125 85.174 C 143.465 84.701,144.658 89.883,144.958 93.140 C 145.313 96.987,144.856 107.853,144.302 108.750 C 144.254 108.829,143.932 110.581,143.589 112.644 C 137.394 149.820,123.859 177.455,104.207 193.053 L 101.998 194.807 103.087 194.874 C 103.685 194.911,104.633 194.842,105.193 194.721 C 105.872 194.575,113.173 194.480,127.088 194.437 C 138.569 194.401,148.124 194.299,148.320 194.211 C 148.658 194.058,148.676 189.253,148.676 97.456 L 148.676 0.861 148.014 0.716 C 146.662 0.420,90.138 0.415,87.251 0.711 M2.931 75.110 C 2.293 75.522,0.942 82.726,0.296 89.165 C -0.408 96.179,0.021 108.224,1.237 115.580 C 7.509 153.515,37.306 184.319,75.916 192.782 L 78.411 193.329 79.582 192.352 C 92.161 181.863,105.521 162.869,111.507 146.966 L 112.004 145.643 111.145 145.947 C 96.193 151.226,77.257 147.160,64.784 135.992 C 48.692 121.583,43.959 96.669,53.656 77.413 C 54.519 75.699,54.544 75.409,53.848 75.145 C 53.235 74.911,3.291 74.877,2.931 75.110 M81.380 206.035 C 81.053 206.216,80.686 206.449,80.565 206.553 C 80.283 206.798,79.129 207.425,78.157 207.864 C 77.737 208.053,77.393 208.279,77.393 208.364 C 77.393 208.450,76.981 208.678,76.477 208.870 C 75.973 209.063,75.560 209.292,75.560 209.379 C 75.560 209.467,75.148 209.696,74.644 209.889 C 74.140 210.081,73.727 210.312,73.727 210.401 C 73.727 210.491,73.406 210.680,73.014 210.822 C 72.622 210.964,72.301 211.144,72.301 211.222 C 72.301 211.301,71.889 211.534,71.386 211.742 C 70.882 211.949,70.470 212.173,70.469 212.240 C 70.469 212.307,70.079 212.534,69.603 212.743 C 69.127 212.953,68.691 213.180,68.635 213.247 C 68.579 213.314,67.800 213.769,66.904 214.257 C 66.008 214.745,65.229 215.196,65.173 215.260 C 65.117 215.324,64.751 215.543,64.358 215.745 C 63.966 215.948,63.187 216.380,62.627 216.706 C 62.067 217.032,61.265 217.453,60.845 217.642 C 60.425 217.830,60.081 218.099,60.081 218.240 C 60.081 218.537,64.116 218.410,64.450 218.101 C 64.727 217.846,78.966 217.870,79.124 218.126 C 79.193 218.238,79.893 218.330,80.678 218.330 C 82.698 218.330,89.431 218.917,89.919 219.136 C 90.143 219.237,91.374 219.427,92.654 219.559 C 93.935 219.691,95.126 219.874,95.302 219.967 C 95.477 220.060,96.675 220.288,97.962 220.473 C 99.250 220.658,100.350 220.873,100.406 220.950 C 100.463 221.026,101.517 221.257,102.749 221.461 C 103.982 221.665,105.036 221.900,105.092 221.982 C 105.148 222.064,106.018 222.293,107.026 222.491 C 108.035 222.688,108.951 222.920,109.063 223.007 C 109.175 223.094,109.975 223.321,110.841 223.510 C 111.707 223.700,112.461 223.928,112.516 224.016 C 112.570 224.105,113.168 224.295,113.843 224.439 C 114.519 224.582,115.071 224.762,115.071 224.838 C 115.071 224.914,115.759 225.138,116.599 225.337 C 117.439 225.535,118.126 225.760,118.126 225.838 C 118.126 225.915,118.768 226.144,119.552 226.346 C 120.336 226.548,120.978 226.776,120.978 226.852 C 120.978 226.928,121.573 227.161,122.301 227.370 C 123.030 227.578,123.625 227.812,123.625 227.889 C 123.625 227.966,124.084 228.146,124.644 228.290 C 125.204 228.433,125.662 228.617,125.662 228.699 C 125.662 228.780,126.166 229.005,126.782 229.199 C 127.398 229.393,127.902 229.645,127.902 229.758 C 127.902 229.871,127.988 229.910,128.092 229.846 C 128.196 229.781,128.339 229.822,128.409 229.936 C 128.480 230.049,128.678 230.143,128.850 230.143 C 129.022 230.143,130.195 230.647,131.458 231.263 C 132.720 231.879,133.857 232.383,133.984 232.383 C 134.112 232.383,134.216 232.453,134.216 232.539 C 134.216 232.705,135.706 233.401,136.062 233.401 C 136.180 233.401,136.211 233.516,136.130 233.656 C 136.050 233.796,136.056 233.845,136.145 233.765 C 136.234 233.685,136.500 233.727,136.738 233.859 C 136.975 233.992,137.215 234.111,137.271 234.124 C 137.788 234.247,138.493 234.657,138.493 234.834 C 138.493 234.955,138.585 234.998,138.697 234.929 C 138.809 234.859,138.900 234.900,138.900 235.019 C 138.900 235.137,138.969 235.216,139.053 235.194 C 139.366 235.111,140.124 235.474,140.013 235.654 C 139.949 235.757,140.054 235.780,140.247 235.706 C 140.482 235.616,140.549 235.649,140.451 235.808 C 140.355 235.962,140.414 236.002,140.619 235.924 C 140.804 235.853,140.985 235.937,141.058 236.128 C 141.127 236.307,141.265 236.403,141.366 236.341 C 141.466 236.279,141.548 236.310,141.548 236.410 C 141.548 236.510,141.673 236.592,141.825 236.592 C 142.098 236.592,143.585 237.432,143.585 237.587 C 143.585 237.630,143.424 237.614,143.228 237.551 C 142.938 237.457,142.926 237.475,143.167 237.646 C 143.330 237.761,143.534 237.811,143.620 237.758 C 143.890 237.591,145.033 238.291,144.884 238.533 C 144.797 238.673,144.837 238.702,144.988 238.609 C 145.122 238.526,145.480 238.621,145.783 238.820 C 146.086 239.019,146.861 239.480,147.505 239.845 L 148.676 240.507 148.676 223.728 L 148.676 206.949 147.251 206.809 C 146.466 206.732,145.825 206.583,145.825 206.479 C 145.825 206.375,145.731 206.347,145.617 206.418 C 145.503 206.489,144.350 206.481,143.055 206.401 C 141.760 206.321,140.791 206.200,140.902 206.132 C 141.575 205.717,82.133 205.621,81.380 206.035 M146.690 206.460 C 146.998 206.506,147.503 206.506,147.811 206.460 C 148.119 206.413,147.867 206.375,147.251 206.375 C 146.634 206.375,146.382 206.413,146.690 206.460 " stroke="none" fill="#e8175e" fill-rule="evenodd"></path><path id="path1" d="M145.214 0.620 C 146.950 0.698,148.439 0.773,148.523 0.788 C 148.607 0.803,148.676 44.301,148.676 97.450 L 148.676 194.086 148.218 194.192 C 147.966 194.251,146.706 194.325,145.418 194.356 C 143.326 194.408,143.414 194.419,146.232 194.457 C 149.305 194.499,152.848 194.215,153.259 193.895 C 153.371 193.807,154.173 193.570,155.041 193.368 C 155.909 193.166,156.619 192.938,156.619 192.861 C 156.619 192.784,157.054 192.601,157.587 192.454 C 159.279 191.988,163.866 189.455,164.868 188.433 C 165.092 188.204,165.779 187.319,166.395 186.466 C 167.011 185.613,167.848 184.476,168.255 183.940 C 168.662 183.404,169.145 182.674,169.329 182.318 C 169.514 181.961,169.754 181.670,169.863 181.670 C 169.972 181.670,170.061 181.550,170.061 181.403 C 170.061 181.256,170.226 180.958,170.428 180.741 C 170.629 180.524,170.973 180.025,171.191 179.633 C 171.410 179.241,171.645 178.875,171.713 178.819 C 171.781 178.763,171.999 178.401,172.198 178.014 C 172.396 177.627,172.684 177.186,172.837 177.032 C 172.990 176.879,173.116 176.639,173.116 176.500 C 173.116 176.362,173.279 176.070,173.479 175.853 C 173.679 175.636,174.002 175.137,174.198 174.745 C 174.393 174.353,174.917 173.451,175.362 172.739 C 175.807 172.028,176.171 171.370,176.171 171.277 C 176.171 171.184,176.287 170.987,176.429 170.839 C 176.571 170.691,176.860 170.181,177.071 169.705 C 177.282 169.229,177.514 168.839,177.587 168.839 C 177.659 168.839,177.840 168.495,177.988 168.075 C 178.137 167.655,178.369 167.174,178.505 167.006 C 178.641 166.838,178.876 166.380,179.028 165.988 C 179.180 165.596,179.364 165.229,179.437 165.173 C 179.509 165.117,179.733 164.636,179.934 164.104 C 180.135 163.572,180.361 163.136,180.436 163.136 C 180.510 163.136,180.736 162.678,180.937 162.118 C 181.139 161.558,181.374 161.100,181.460 161.100 C 181.547 161.100,181.733 160.687,181.874 160.183 C 182.015 159.679,182.210 159.267,182.308 159.267 C 182.405 159.267,182.485 159.171,182.485 159.055 C 182.485 158.938,182.750 158.273,183.074 157.578 C 183.398 156.883,183.779 155.924,183.921 155.448 C 184.063 154.972,184.241 154.582,184.318 154.582 C 184.394 154.582,184.572 154.193,184.714 153.717 C 184.994 152.771,185.576 151.347,186.052 150.440 C 186.219 150.122,186.305 149.779,186.241 149.676 C 186.178 149.574,186.212 149.491,186.317 149.491 C 186.422 149.491,186.562 149.216,186.629 148.880 C 186.697 148.544,186.927 147.879,187.141 147.403 C 187.355 146.927,187.595 146.217,187.675 145.825 C 187.755 145.433,187.934 144.929,188.074 144.705 C 188.213 144.481,188.489 143.632,188.687 142.819 C 188.885 142.006,189.122 141.294,189.214 141.237 C 189.307 141.180,189.490 140.608,189.621 139.966 C 189.753 139.324,189.939 138.701,190.035 138.583 C 190.131 138.464,190.367 137.639,190.560 136.750 C 190.752 135.860,190.969 135.087,191.042 135.031 C 191.115 134.975,191.336 134.104,191.533 133.096 C 191.731 132.088,191.965 131.171,192.055 131.059 C 192.144 130.947,192.382 129.893,192.583 128.717 C 192.785 127.541,193.013 126.533,193.091 126.477 C 193.168 126.421,193.347 125.504,193.488 124.440 C 193.629 123.376,193.816 122.412,193.904 122.299 C 193.991 122.186,194.226 120.719,194.425 119.040 C 194.623 117.361,194.849 115.942,194.925 115.886 C 195.591 115.397,196.208 94.066,195.740 87.717 C 195.374 82.749,195.053 79.539,194.913 79.430 C 194.841 79.374,194.619 78.047,194.420 76.481 C 194.221 74.915,193.987 73.494,193.899 73.324 C 193.812 73.154,193.625 72.235,193.483 71.283 C 193.341 70.331,193.158 69.460,193.077 69.348 C 192.995 69.236,192.765 68.274,192.566 67.210 C 192.367 66.146,192.134 65.183,192.048 65.071 C 191.962 64.959,191.733 64.066,191.539 63.086 C 191.345 62.105,191.124 61.303,191.048 61.303 C 190.972 61.303,190.791 60.707,190.646 59.978 C 190.501 59.249,190.305 58.604,190.210 58.546 C 190.116 58.487,190.090 58.305,190.153 58.140 C 190.216 57.976,190.181 57.841,190.075 57.841 C 189.968 57.841,189.768 57.333,189.629 56.712 C 189.490 56.092,189.248 55.336,189.091 55.033 C 188.934 54.731,188.698 54.001,188.566 53.413 C 188.434 52.824,188.249 52.342,188.155 52.342 C 188.061 52.342,187.984 52.215,187.984 52.060 C 187.984 51.706,187.331 49.628,187.177 49.491 C 187.114 49.435,186.865 48.839,186.624 48.167 C 185.725 45.656,185.435 44.906,185.328 44.807 C 185.268 44.751,185.043 44.178,184.828 43.534 C 184.613 42.890,184.379 42.363,184.309 42.363 C 184.238 42.363,184.005 41.836,183.791 41.191 C 183.576 40.547,183.287 39.899,183.147 39.751 C 183.007 39.603,182.892 39.403,182.892 39.306 C 182.892 39.210,182.786 38.872,182.656 38.557 C 182.525 38.242,182.434 37.915,182.452 37.831 C 182.470 37.747,182.408 37.678,182.314 37.678 C 182.220 37.678,182.022 37.312,181.874 36.864 C 181.726 36.415,181.537 36.049,181.454 36.049 C 181.371 36.049,181.139 35.591,180.937 35.031 C 180.736 34.470,180.510 34.012,180.436 34.012 C 180.361 34.012,180.135 33.577,179.934 33.045 C 179.733 32.513,179.506 32.032,179.430 31.976 C 179.353 31.920,179.126 31.438,178.925 30.906 C 178.724 30.374,178.495 29.939,178.416 29.939 C 178.337 29.939,178.152 29.572,178.004 29.124 C 177.856 28.676,177.672 28.310,177.595 28.310 C 177.518 28.310,177.283 27.920,177.073 27.444 C 176.863 26.968,176.637 26.533,176.569 26.477 C 176.502 26.421,176.041 25.654,175.545 24.772 C 175.049 23.891,174.398 22.745,174.097 22.226 C 173.796 21.708,173.483 21.146,173.401 20.978 C 173.318 20.810,172.992 20.289,172.674 19.821 C 172.357 19.352,172.098 18.923,172.098 18.866 C 172.098 18.809,171.685 18.161,171.181 17.424 C 170.677 16.688,170.265 16.006,170.265 15.909 C 170.265 15.812,170.121 15.613,169.944 15.466 C 169.768 15.320,169.445 14.873,169.226 14.474 C 169.007 14.074,168.670 13.510,168.477 13.219 C 167.683 12.024,166.893 10.881,166.701 10.654 C 166.589 10.520,166.268 10.080,165.988 9.676 C 164.959 8.191,161.443 3.574,160.152 2.013 L 158.823 0.407 150.440 0.444 C 144.026 0.472,142.799 0.513,145.214 0.620 M239.752 1.355 C 239.283 1.876,238.900 2.354,238.900 2.417 C 238.900 2.480,238.712 2.718,238.482 2.946 C 238.106 3.319,234.515 8.068,233.356 9.726 C 233.101 10.091,232.780 10.549,232.643 10.744 C 232.506 10.940,232.070 11.536,231.675 12.069 C 231.280 12.602,230.957 13.082,230.957 13.136 C 230.957 13.190,230.545 13.837,230.041 14.573 C 229.537 15.309,229.124 15.951,229.124 15.999 C 229.124 16.047,228.712 16.688,228.208 17.424 C 227.704 18.161,227.291 18.809,227.291 18.866 C 227.291 18.923,227.039 19.354,226.731 19.824 C 225.746 21.328,225.659 21.472,225.243 22.301 C 225.019 22.749,224.471 23.698,224.026 24.409 C 223.582 25.121,223.218 25.779,223.218 25.871 C 223.218 25.964,223.102 26.161,222.960 26.309 C 222.818 26.457,222.529 26.968,222.318 27.444 C 222.107 27.920,221.871 28.310,221.794 28.310 C 221.717 28.310,221.533 28.676,221.385 29.124 C 221.237 29.572,221.052 29.939,220.973 29.939 C 220.894 29.939,220.665 30.374,220.464 30.906 C 220.263 31.438,220.036 31.920,219.959 31.976 C 219.883 32.032,219.656 32.513,219.455 33.045 C 219.254 33.577,219.028 34.012,218.954 34.012 C 218.879 34.012,218.653 34.470,218.452 35.031 C 218.250 35.591,218.018 36.049,217.935 36.049 C 217.852 36.049,217.663 36.415,217.515 36.864 C 217.367 37.312,217.169 37.678,217.075 37.678 C 216.981 37.678,216.919 37.747,216.937 37.831 C 216.955 37.915,216.864 38.242,216.733 38.557 C 216.603 38.872,216.497 39.210,216.497 39.306 C 216.497 39.403,216.382 39.603,216.242 39.751 C 216.102 39.899,215.813 40.547,215.598 41.191 C 215.384 41.836,215.147 42.363,215.072 42.363 C 214.997 42.363,214.760 42.912,214.545 43.585 C 214.331 44.257,214.086 44.807,214.002 44.807 C 213.918 44.807,213.849 44.970,213.849 45.171 C 213.849 45.371,213.672 45.882,213.456 46.306 C 213.240 46.730,212.902 47.598,212.705 48.233 C 212.508 48.869,212.291 49.435,212.223 49.491 C 212.063 49.621,211.405 51.688,211.405 52.060 C 211.405 52.215,211.328 52.342,211.234 52.342 C 211.140 52.342,210.955 52.824,210.823 53.413 C 210.691 54.001,210.455 54.731,210.298 55.033 C 210.141 55.336,209.899 56.092,209.760 56.712 C 209.621 57.333,209.421 57.841,209.314 57.841 C 209.208 57.841,209.173 57.976,209.236 58.140 C 209.299 58.305,209.273 58.487,209.179 58.546 C 209.084 58.604,208.888 59.249,208.743 59.978 C 208.598 60.707,208.417 61.303,208.341 61.303 C 208.265 61.303,208.044 62.105,207.850 63.086 C 207.656 64.066,207.427 64.959,207.341 65.071 C 207.255 65.183,207.022 66.146,206.823 67.210 C 206.624 68.274,206.394 69.236,206.312 69.348 C 206.231 69.460,206.048 70.331,205.906 71.283 C 205.764 72.235,205.577 73.154,205.490 73.324 C 205.402 73.494,205.168 74.915,204.969 76.481 C 204.770 78.047,204.548 79.374,204.476 79.430 C 204.336 79.539,204.015 82.749,203.649 87.717 C 203.181 94.066,203.798 115.397,204.464 115.886 C 204.540 115.942,204.766 117.361,204.964 119.040 C 205.163 120.719,205.398 122.186,205.485 122.299 C 205.573 122.412,205.760 123.376,205.901 124.440 C 206.042 125.504,206.221 126.421,206.298 126.477 C 206.376 126.533,206.604 127.541,206.806 128.717 C 207.007 129.893,207.245 130.947,207.334 131.059 C 207.424 131.171,207.658 132.088,207.856 133.096 C 208.053 134.104,208.274 134.975,208.347 135.031 C 208.420 135.087,208.637 135.860,208.829 136.750 C 209.022 137.639,209.258 138.464,209.354 138.583 C 209.450 138.701,209.636 139.324,209.768 139.966 C 209.899 140.608,210.082 141.180,210.175 141.237 C 210.267 141.294,210.504 142.006,210.702 142.819 C 210.900 143.632,211.176 144.481,211.315 144.705 C 211.455 144.929,211.634 145.433,211.714 145.825 C 211.794 146.217,212.034 146.927,212.248 147.403 C 212.462 147.879,212.692 148.544,212.760 148.880 C 212.827 149.216,212.967 149.491,213.072 149.491 C 213.177 149.491,213.211 149.574,213.148 149.676 C 213.084 149.779,213.170 150.122,213.337 150.440 C 213.813 151.347,214.395 152.771,214.675 153.717 C 214.817 154.193,214.995 154.582,215.071 154.582 C 215.148 154.582,215.326 154.972,215.468 155.448 C 215.610 155.924,215.991 156.883,216.315 157.578 C 216.639 158.273,216.904 158.938,216.904 159.055 C 216.904 159.171,216.984 159.267,217.081 159.267 C 217.179 159.267,217.374 159.679,217.515 160.183 C 217.656 160.687,217.842 161.100,217.929 161.100 C 218.015 161.100,218.250 161.558,218.452 162.118 C 218.653 162.678,218.879 163.136,218.954 163.136 C 219.028 163.136,219.254 163.572,219.455 164.104 C 219.656 164.636,219.880 165.117,219.952 165.173 C 220.025 165.229,220.209 165.596,220.361 165.988 C 220.513 166.380,220.748 166.838,220.884 167.006 C 221.020 167.174,221.253 167.655,221.401 168.075 C 221.549 168.495,221.730 168.839,221.802 168.839 C 221.875 168.839,222.107 169.229,222.318 169.705 C 222.529 170.181,222.818 170.691,222.960 170.839 C 223.102 170.987,223.218 171.184,223.218 171.277 C 223.218 171.370,223.582 172.028,224.027 172.739 C 224.472 173.451,224.996 174.353,225.191 174.745 C 225.387 175.137,225.710 175.636,225.910 175.853 C 226.110 176.070,226.273 176.362,226.273 176.500 C 226.273 176.639,226.399 176.879,226.552 177.032 C 226.705 177.186,226.993 177.627,227.191 178.014 C 227.390 178.401,227.608 178.763,227.676 178.819 C 227.744 178.875,227.979 179.241,228.198 179.633 C 228.416 180.025,228.760 180.524,228.961 180.741 C 229.163 180.958,229.328 181.256,229.328 181.403 C 229.328 181.550,229.415 181.670,229.522 181.670 C 229.629 181.670,229.864 181.983,230.046 182.364 C 230.227 182.746,230.552 183.219,230.768 183.414 C 230.984 183.610,231.161 183.847,231.161 183.942 C 231.161 184.037,231.303 184.274,231.478 184.470 C 231.652 184.666,232.338 185.560,233.002 186.456 C 234.593 188.602,234.996 189.026,235.901 189.507 C 236.318 189.728,236.660 189.970,236.660 190.045 C 236.660 190.119,236.883 190.236,237.155 190.304 C 237.427 190.372,237.771 190.548,237.919 190.693 C 238.066 190.839,238.600 191.122,239.103 191.322 C 239.607 191.523,240.065 191.758,240.122 191.844 C 240.229 192.010,242.407 192.691,242.508 192.591 C 242.540 192.559,241.961 192.293,241.221 191.999 C 239.535 191.330,236.327 189.562,235.373 188.776 C 233.343 187.103,226.276 176.376,222.731 169.587 L 221.792 167.789 221.792 98.574 L 221.792 29.360 222.723 27.581 C 226.995 19.413,234.056 8.674,239.613 1.890 C 240.543 0.755,240.711 0.640,241.548 0.564 L 242.464 0.481 241.534 0.444 C 240.665 0.410,240.546 0.471,239.752 1.355 M335.234 4.544 C 335.234 4.579,335.532 4.877,335.896 5.206 L 336.558 5.804 335.960 5.143 C 335.402 4.526,335.234 4.387,335.234 4.544 M341.853 11.405 C 342.857 12.413,343.724 13.238,343.780 13.238 C 343.836 13.238,343.061 12.413,342.057 11.405 C 341.054 10.397,340.187 9.572,340.131 9.572 C 340.075 9.572,340.850 10.397,341.853 11.405 M345.825 15.339 C 345.825 15.374,346.123 15.672,346.487 16.001 L 347.149 16.599 346.550 15.937 C 345.993 15.320,345.825 15.181,345.825 15.339 M348.269 17.821 C 348.877 18.437,349.421 18.941,349.477 18.941 C 349.533 18.941,349.081 18.437,348.473 17.821 C 347.864 17.205,347.320 16.701,347.264 16.701 C 347.208 16.701,347.660 17.205,348.269 17.821 M356.823 26.578 C 357.203 26.970,357.560 27.291,357.616 27.291 C 357.672 27.291,357.406 26.970,357.026 26.578 C 356.646 26.186,356.290 25.866,356.234 25.866 C 356.178 25.866,356.443 26.186,356.823 26.578 M367.609 37.525 C 368.453 38.425,368.635 38.586,368.635 38.433 C 368.635 38.401,368.200 37.965,367.668 37.466 L 366.701 36.558 367.609 37.525 M356.277 73.472 C 359.730 73.504,365.321 73.504,368.701 73.472 C 372.081 73.441,369.257 73.415,362.424 73.415 C 355.591 73.415,352.825 73.441,356.277 73.472 M389.969 73.472 C 391.678 73.506,394.473 73.506,396.181 73.472 C 397.890 73.438,396.492 73.410,393.075 73.410 C 389.659 73.410,388.261 73.438,389.969 73.472 M138.297 74.033 C 138.298 74.145,138.486 74.465,138.715 74.745 C 138.991 75.084,139.061 75.118,138.921 74.847 C 138.577 74.183,138.295 73.815,138.297 74.033 M139.379 76.022 C 139.699 76.793,140.326 77.806,140.326 77.551 C 140.326 77.389,139.352 75.535,139.180 75.369 C 139.115 75.306,139.204 75.600,139.379 76.022 M140.743 78.638 C 140.737 78.707,141.015 79.440,141.360 80.267 C 144.993 88.996,145.965 100.207,143.873 109.267 C 143.543 110.695,143.534 110.794,143.739 110.794 C 144.279 110.794,145.075 103.740,145.096 98.778 C 145.124 91.874,144.602 88.653,142.458 82.493 C 141.805 80.619,140.769 78.290,140.743 78.638 M308.643 82.332 L 308.045 82.994 308.707 82.396 C 309.324 81.838,309.462 81.670,309.305 81.670 C 309.270 81.670,308.972 81.968,308.643 82.332 M255.856 93.585 C 255.858 94.033,255.900 94.192,255.949 93.939 C 255.997 93.685,255.995 93.319,255.944 93.124 C 255.893 92.929,255.854 93.136,255.856 93.585 M255.860 101.222 C 255.860 101.726,255.900 101.932,255.948 101.680 C 255.997 101.428,255.997 101.016,255.948 100.764 C 255.900 100.512,255.860 100.718,255.860 101.222 M286.851 104.532 L 286.253 105.193 286.914 104.595 C 287.531 104.038,287.670 103.870,287.513 103.870 C 287.478 103.870,287.180 104.168,286.851 104.532 M274.834 116.752 L 274.236 117.413 274.898 116.815 C 275.515 116.258,275.654 116.090,275.496 116.090 C 275.461 116.090,275.163 116.387,274.834 116.752 M274.504 122.148 C 276.556 122.182,279.855 122.182,281.836 122.148 C 283.817 122.115,282.138 122.088,278.106 122.088 C 274.073 122.088,272.452 122.115,274.504 122.148 M106.925 157.026 C 106.696 157.475,106.555 157.841,106.611 157.841 C 106.667 157.841,106.900 157.475,107.128 157.026 C 107.357 156.578,107.498 156.212,107.442 156.212 C 107.386 156.212,107.153 156.578,106.925 157.026 M128.250 162.022 C 127.949 162.635,127.746 163.136,127.799 163.136 C 127.936 163.136,128.964 161.075,128.872 160.983 C 128.830 160.942,128.550 161.409,128.250 162.022 M89.498 182.536 L 88.900 183.198 89.562 182.599 C 90.179 182.042,90.318 181.874,90.160 181.874 C 90.125 181.874,89.827 182.172,89.498 182.536 M85.234 186.965 C 83.557 188.646,82.230 190.020,82.286 190.020 C 82.342 190.020,83.760 188.646,85.438 186.965 C 87.115 185.285,88.442 183.910,88.386 183.910 C 88.330 183.910,86.912 185.285,85.234 186.965 M113.124 184.572 L 112.525 185.234 113.187 184.636 C 113.551 184.307,113.849 184.009,113.849 183.974 C 113.849 183.817,113.681 183.955,113.124 184.572 M107.625 190.071 L 107.026 190.733 107.688 190.135 C 108.052 189.806,108.350 189.508,108.350 189.473 C 108.350 189.316,108.182 189.454,107.625 190.071 M80.537 191.497 L 79.939 192.159 80.601 191.561 C 81.218 191.003,81.356 190.835,81.199 190.835 C 81.164 190.835,80.866 191.133,80.537 191.497 M242.770 192.815 C 242.770 193.015,244.801 193.556,244.959 193.398 C 245.010 193.347,244.670 193.203,244.203 193.077 C 243.737 192.952,243.224 192.799,243.063 192.737 C 242.902 192.675,242.770 192.710,242.770 192.815 M246.116 193.867 C 246.253 194.088,250.106 194.579,250.637 194.443 C 250.848 194.388,250.701 194.334,250.305 194.321 C 249.913 194.308,248.814 194.160,247.862 193.992 C 245.815 193.631,245.978 193.643,246.116 193.867 M264.511 205.850 C 264.875 205.895,265.471 205.895,265.835 205.850 C 266.199 205.805,265.901 205.768,265.173 205.768 C 264.445 205.768,264.147 205.805,264.511 205.850 M140.937 206.212 C 144.116 206.502,145.747 206.575,145.592 206.421 C 145.416 206.245,144.130 206.137,141.039 206.039 L 137.984 205.943 140.937 206.212 M256.008 206.118 C 254.720 206.196,253.047 206.272,252.291 206.287 C 251.468 206.303,250.916 206.401,250.916 206.531 C 250.916 206.679,251.425 206.705,252.495 206.611 C 253.363 206.536,255.723 206.359,257.739 206.219 C 259.756 206.079,260.718 205.967,259.878 205.970 C 259.038 205.974,257.296 206.040,256.008 206.118 M145.825 206.542 C 145.825 206.611,146.466 206.732,147.251 206.809 L 148.676 206.949 148.676 223.728 L 148.676 240.507 147.505 239.839 C 146.861 239.471,145.372 238.593,144.196 237.887 C 143.019 237.182,141.988 236.565,141.904 236.518 C 141.820 236.471,141.752 236.506,141.752 236.597 C 141.752 236.688,142.279 237.037,142.923 237.373 C 143.566 237.709,144.253 238.144,144.450 238.340 C 144.646 238.536,144.859 238.686,144.924 238.672 C 145.161 238.624,148.931 241.105,149.050 241.388 C 149.088 241.477,149.202 241.499,149.305 241.435 C 149.407 241.372,149.491 241.411,149.491 241.522 C 149.491 241.633,149.658 241.777,149.862 241.842 C 150.067 241.907,150.410 242.119,150.626 242.314 C 150.842 242.509,151.568 243.035,152.239 243.483 C 152.910 243.931,153.565 244.389,153.694 244.501 C 153.823 244.613,154.225 244.934,154.586 245.214 C 154.948 245.494,155.475 245.929,155.757 246.181 C 156.040 246.433,156.327 246.640,156.394 246.640 C 156.462 246.640,156.762 246.846,157.062 247.098 C 157.362 247.350,157.902 247.785,158.264 248.065 C 158.626 248.345,159.196 248.826,159.532 249.134 C 159.867 249.442,160.197 249.697,160.264 249.700 C 160.332 249.703,160.810 250.093,161.326 250.566 C 161.843 251.039,162.850 251.930,163.565 252.546 C 165.235 253.985,173.687 262.447,175.153 264.147 C 175.769 264.862,176.662 265.875,177.138 266.400 C 177.615 266.925,178.004 267.459,178.004 267.587 C 178.004 267.716,178.089 267.821,178.193 267.821 C 178.297 267.821,178.962 268.564,179.670 269.472 C 180.378 270.380,181.393 271.653,181.925 272.302 C 182.457 272.951,182.892 273.582,182.892 273.706 C 182.892 273.830,182.981 273.931,183.090 273.931 C 183.200 273.931,183.427 274.197,183.595 274.522 C 183.763 274.848,184.018 275.240,184.160 275.393 C 184.716 275.991,185.675 277.309,185.802 277.648 C 185.875 277.844,186.018 278.004,186.121 278.004 C 186.223 278.004,186.361 278.164,186.427 278.360 C 186.563 278.766,186.999 279.480,187.206 279.637 C 187.355 279.750,189.613 283.106,189.613 283.214 C 189.613 283.250,189.888 283.686,190.224 284.184 C 190.560 284.682,190.835 285.191,190.835 285.315 C 190.835 285.438,190.925 285.540,191.036 285.540 C 191.146 285.540,191.376 285.838,191.546 286.202 C 191.716 286.566,192.125 287.276,192.455 287.780 C 192.785 288.284,193.207 288.994,193.394 289.358 C 194.319 291.166,194.304 291.593,194.242 265.326 C 194.209 251.744,194.131 240.494,194.067 240.326 C 194.004 240.158,193.896 239.883,193.829 239.715 C 193.762 239.547,193.603 239.005,193.476 238.511 C 193.349 238.017,193.124 237.422,192.975 237.187 C 192.825 236.953,192.589 236.372,192.450 235.896 C 192.310 235.420,192.137 235.031,192.065 235.031 C 191.993 235.031,191.769 234.572,191.568 234.012 C 191.366 233.452,191.134 232.994,191.051 232.994 C 190.968 232.994,190.779 232.627,190.631 232.179 C 190.483 231.731,190.295 231.365,190.212 231.365 C 190.129 231.365,189.891 230.952,189.684 230.449 C 189.477 229.945,189.241 229.533,189.160 229.532 C 189.079 229.532,188.860 229.234,188.673 228.870 C 188.487 228.506,188.278 228.162,188.210 228.106 C 188.141 228.050,187.948 227.729,187.780 227.393 C 187.612 227.057,187.314 226.662,187.118 226.516 C 186.922 226.370,186.762 226.158,186.762 226.046 C 186.762 225.880,185.731 224.426,185.335 224.033 C 185.279 223.977,184.698 223.261,184.044 222.443 C 182.024 219.912,177.350 215.175,175.219 213.498 C 173.732 212.327,171.279 211.006,169.996 210.683 C 169.696 210.608,169.450 210.480,169.450 210.398 C 169.450 210.317,168.717 210.082,167.821 209.878 C 166.925 209.673,166.191 209.443,166.191 209.366 C 166.191 209.290,165.252 209.064,164.104 208.865 C 162.956 208.666,161.925 208.435,161.813 208.351 C 161.701 208.267,160.326 208.042,158.758 207.851 C 157.189 207.660,155.723 207.427,155.499 207.334 C 155.074 207.158,150.563 206.715,149.236 206.719 C 148.816 206.720,148.472 206.652,148.472 206.568 C 148.472 206.484,147.876 206.415,147.148 206.415 C 146.420 206.415,145.825 206.472,145.825 206.542 M246.196 207.004 C 244.999 207.128,243.946 207.306,243.855 207.399 C 243.685 207.571,244.913 207.463,248.167 207.020 C 250.443 206.709,249.131 206.699,246.196 207.004 M240.020 207.915 C 238.788 208.098,237.688 208.306,237.576 208.376 C 237.464 208.446,236.433 208.666,235.285 208.865 C 234.137 209.064,233.198 209.290,233.198 209.366 C 233.198 209.443,232.464 209.673,231.568 209.878 C 230.672 210.082,229.939 210.319,229.939 210.404 C 229.939 210.489,229.654 210.621,229.306 210.697 C 228.258 210.927,225.089 212.635,224.214 213.442 C 224.031 213.610,223.123 214.435,222.196 215.275 C 221.269 216.115,220.043 217.290,219.471 217.885 C 218.900 218.481,218.018 219.398,217.513 219.922 C 217.007 220.447,216.045 221.563,215.375 222.403 C 214.705 223.243,214.110 223.977,214.054 224.033 C 213.658 224.426,212.627 225.880,212.627 226.046 C 212.627 226.158,212.467 226.370,212.271 226.516 C 212.075 226.662,211.777 227.057,211.609 227.393 C 211.441 227.729,211.248 228.050,211.179 228.106 C 211.111 228.162,210.902 228.506,210.716 228.870 C 210.529 229.234,210.310 229.532,210.229 229.532 C 210.148 229.533,209.912 229.945,209.705 230.449 C 209.498 230.952,209.260 231.365,209.177 231.365 C 209.094 231.365,208.906 231.731,208.758 232.179 C 208.610 232.627,208.421 232.994,208.338 232.994 C 208.255 232.994,208.023 233.452,207.821 234.012 C 207.620 234.572,207.396 235.031,207.324 235.031 C 207.252 235.031,207.079 235.420,206.939 235.896 C 206.800 236.372,206.564 236.953,206.414 237.187 C 206.265 237.422,206.040 238.017,205.913 238.511 C 205.786 239.005,205.627 239.547,205.560 239.715 C 205.493 239.883,205.385 240.158,205.322 240.326 C 205.258 240.494,205.180 251.744,205.147 265.326 C 205.085 291.593,205.070 291.166,205.995 289.358 C 206.182 288.994,206.604 288.284,206.934 287.780 C 207.264 287.276,207.673 286.566,207.843 286.202 C 208.013 285.838,208.243 285.540,208.353 285.540 C 208.464 285.540,208.554 285.446,208.554 285.332 C 208.554 285.218,208.806 284.737,209.114 284.263 C 209.422 283.789,209.720 283.310,209.777 283.198 C 209.833 283.086,210.246 282.456,210.693 281.798 C 211.141 281.140,211.627 280.384,211.773 280.118 C 211.919 279.851,212.114 279.633,212.207 279.633 C 212.300 279.633,212.430 279.473,212.496 279.277 C 212.666 278.770,213.093 278.134,213.391 277.943 C 213.531 277.853,213.646 277.688,213.646 277.575 C 213.646 277.387,214.607 276.062,215.229 275.393 C 215.371 275.240,215.626 274.848,215.794 274.522 C 215.962 274.197,216.189 273.931,216.299 273.931 C 216.408 273.931,216.497 273.830,216.497 273.706 C 216.497 273.582,216.932 272.951,217.464 272.302 C 217.996 271.653,219.011 270.380,219.719 269.472 C 220.427 268.564,221.092 267.821,221.196 267.821 C 221.300 267.821,221.385 267.716,221.385 267.587 C 221.385 267.459,221.774 266.925,222.251 266.400 C 222.727 265.875,223.620 264.862,224.236 264.147 C 225.545 262.629,234.014 254.119,235.646 252.684 C 236.259 252.143,237.101 251.425,237.516 251.086 C 237.931 250.748,238.527 250.246,238.840 249.970 C 239.683 249.227,240.393 248.636,241.127 248.065 C 241.488 247.785,242.027 247.350,242.327 247.098 C 242.627 246.846,242.927 246.640,242.995 246.640 C 243.062 246.640,243.351 246.433,243.637 246.181 C 244.226 245.661,244.922 245.117,245.519 244.710 C 245.743 244.557,245.880 244.386,245.823 244.329 C 245.683 244.189,241.320 247.555,237.576 250.691 C 234.745 253.063,225.658 261.936,222.963 264.960 L 221.792 266.274 221.792 241.233 L 221.793 216.191 222.556 215.465 C 226.670 211.552,230.878 209.816,240.326 208.136 C 243.779 207.522,243.588 207.384,240.020 207.915 M266.395 231.899 L 265.886 232.196 266.395 232.061 C 266.962 231.909,267.115 231.813,266.989 231.687 C 266.942 231.640,266.675 231.735,266.395 231.899 M264.562 232.790 C 264.170 233.005,263.923 233.184,264.012 233.189 C 264.228 233.200,265.377 232.603,265.377 232.479 C 265.377 232.346,265.365 232.351,264.562 232.790 M262.678 233.721 C 261.939 234.122,261.965 234.238,262.729 233.950 C 263.065 233.823,263.340 233.648,263.340 233.560 C 263.340 233.360,263.348 233.358,262.678 233.721 M260.489 234.929 C 260.209 235.089,260.071 235.220,260.183 235.220 C 260.295 235.220,260.616 235.089,260.896 234.929 C 261.176 234.769,261.314 234.638,261.202 234.638 C 261.090 234.638,260.769 234.769,260.489 234.929 M139.919 235.529 C 139.919 235.585,140.193 235.773,140.530 235.947 C 140.866 236.121,141.141 236.217,141.141 236.161 C 141.141 236.105,140.866 235.917,140.530 235.743 C 140.193 235.570,139.919 235.473,139.919 235.529 M257.179 236.776 C 256.418 237.189,256.464 237.361,257.230 236.965 C 257.566 236.792,257.841 236.606,257.841 236.553 C 257.841 236.422,257.819 236.429,257.179 236.776 M255.754 237.591 C 255.016 237.991,255.041 238.118,255.804 237.851 C 256.141 237.734,256.415 237.556,256.415 237.455 C 256.415 237.227,256.431 237.224,255.754 237.591 M254.326 238.475 C 253.490 239.011,253.440 239.116,254.144 238.850 C 254.491 238.719,254.821 238.493,254.876 238.348 C 254.997 238.034,255.025 238.028,254.326 238.475 M252.697 239.494 C 251.860 240.030,251.744 240.219,252.482 239.844 C 252.839 239.663,253.188 239.422,253.258 239.309 C 253.421 239.045,253.372 239.061,252.697 239.494 M249.031 241.925 C 246.708 243.521,245.324 244.590,246.232 244.086 C 246.855 243.740,248.584 242.562,248.880 242.282 C 249.048 242.123,249.437 241.878,249.745 241.737 C 250.053 241.597,250.305 241.417,250.305 241.336 C 250.305 241.256,250.574 241.079,250.902 240.943 C 251.230 240.807,251.548 240.567,251.608 240.409 C 251.753 240.032,251.976 239.901,249.031 241.925 " stroke="none" fill="#c73e83" fill-rule="evenodd"></path><path id="path2" d="M296.538 0.213 C 295.362 0.292,282.897 0.369,268.839 0.384 C 238.533 0.415,240.945 0.290,239.613 1.901 C 234.223 8.422,227.001 19.402,222.723 27.581 L 221.792 29.360 221.792 98.574 L 221.792 167.789 222.731 169.587 C 226.641 177.075,233.525 187.363,235.755 189.052 C 238.216 190.917,243.815 193.233,247.767 194.022 C 249.788 194.425,297.822 194.724,298.211 194.335 C 298.313 194.233,297.887 193.777,297.212 193.268 C 278.154 178.879,263.062 148.313,257.748 113.340 C 257.459 111.436,257.081 109.190,256.908 108.350 C 256.062 104.243,255.820 101.852,255.812 97.516 C 255.766 73.426,272.234 53.597,296.067 49.046 L 298.473 48.587 338.083 48.479 C 373.493 48.382,377.699 48.337,377.753 48.058 C 377.786 47.886,377.146 47.092,376.330 46.293 C 375.515 45.495,373.014 42.974,370.774 40.692 C 368.534 38.410,364.318 34.115,361.405 31.148 C 358.493 28.181,350.386 19.959,343.391 12.877 L 330.672 0.000 314.674 0.034 C 305.875 0.053,297.714 0.133,296.538 0.213 M346.117 73.462 L 317.387 73.525 313.238 77.750 C 310.956 80.074,306.569 84.542,303.490 87.678 C 300.410 90.815,295.546 95.764,292.681 98.676 C 278.849 112.736,270.762 121.027,270.602 121.313 C 270.179 122.070,270.056 122.067,308.295 122.156 C 328.881 122.203,345.761 122.278,345.806 122.321 C 345.894 122.404,343.046 126.754,342.386 127.544 C 340.049 130.344,339.202 131.292,337.790 132.688 C 325.305 145.036,306.625 149.670,290.224 144.489 C 288.203 143.850,288.213 143.843,288.852 145.563 C 292.939 156.562,300.312 169.298,307.927 178.513 C 313.181 184.871,321.987 193.582,322.948 193.371 C 363.704 184.425,393.218 152.501,399.523 110.545 C 400.075 106.876,400.193 73.519,399.654 73.532 C 399.452 73.537,393.788 73.509,387.067 73.470 C 380.346 73.432,361.919 73.428,346.117 73.462 M265.071 205.837 C 240.836 206.763,228.850 209.478,222.556 215.465 L 221.793 216.191 221.792 241.233 L 221.792 266.274 222.963 264.960 C 235.688 250.678,252.682 237.969,268.432 230.957 C 269.720 230.383,271.050 229.788,271.388 229.634 C 272.595 229.084,273.221 228.855,273.403 228.898 C 273.505 228.922,273.642 228.867,273.708 228.776 C 273.835 228.602,276.969 227.287,277.251 227.290 C 277.342 227.291,277.800 227.117,278.270 226.905 C 278.740 226.692,280.041 226.222,281.161 225.860 C 282.281 225.498,283.335 225.152,283.503 225.093 C 283.671 225.033,283.854 224.975,283.910 224.964 C 283.966 224.952,284.104 224.888,284.216 224.820 C 284.328 224.753,284.924 224.582,285.540 224.440 C 286.156 224.299,286.753 224.110,286.867 224.020 C 286.982 223.930,287.715 223.705,288.497 223.520 C 289.279 223.335,290.102 223.100,290.326 222.999 C 291.053 222.670,296.295 221.456,300.916 220.545 C 302.037 220.324,303.136 220.103,303.360 220.054 C 305.425 219.598,312.698 218.689,317.312 218.312 C 321.144 217.998,334.343 217.847,335.027 218.109 C 335.746 218.385,338.983 218.480,339.081 218.228 C 339.125 218.116,338.804 217.853,338.368 217.644 C 337.933 217.435,337.531 217.193,337.475 217.107 C 337.419 217.021,337.052 216.802,336.660 216.620 C 336.268 216.438,335.489 216.022,334.929 215.695 C 334.369 215.367,333.590 214.933,333.198 214.729 C 332.805 214.525,332.439 214.307,332.383 214.245 C 332.327 214.182,330.818 213.320,329.031 212.329 C 327.243 211.338,325.685 210.450,325.569 210.355 C 325.452 210.261,324.623 209.804,323.727 209.341 C 322.831 208.877,322.052 208.442,321.996 208.373 C 321.903 208.259,321.058 207.792,319.450 206.965 C 319.114 206.792,318.793 206.585,318.737 206.505 C 318.175 205.700,318.211 205.701,291.778 205.743 C 277.873 205.764,265.855 205.807,265.071 205.837 " stroke="none" fill="#4fbff8" fill-rule="evenodd"></path></g></svg>