<svg id="svg" version="1.1" xmlns="http://www.w3.org/2000/svg" xmlns:xlink="http://www.w3.org/1999/xlink" width="400" height="290.020366598778" viewBox="0, 0, 400,290.020366598778"><g id="svgg"><path id="path0" d="M90.428 0.627 C 61.796 2.542,35.342 17.510,18.368 41.403 C 16.362 44.226,13.442 48.879,13.442 49.252 C 13.442 49.687,14.438 49.698,58.248 49.754 C 99.277 49.806,102.277 49.833,104.257 50.173 C 125.944 53.890,142.906 72.034,145.031 93.788 C 145.411 97.678,144.985 105.767,144.221 109.165 C 144.108 109.669,143.778 111.502,143.489 113.238 C 137.426 149.623,123.493 177.986,104.338 192.937 C 103.307 193.741,102.460 194.445,102.454 194.501 C 102.448 194.557,103.658 194.544,105.142 194.471 C 106.627 194.399,116.884 194.330,127.936 194.319 C 138.989 194.307,148.177 194.242,148.354 194.174 C 148.647 194.061,148.676 185.349,148.676 97.451 L 148.676 0.853 147.709 0.739 C 146.000 0.539,93.289 0.435,90.428 0.627 M2.982 75.429 C 2.142 76.093,0.629 85.714,0.187 93.196 C -2.085 131.729,18.313 166.981,52.954 184.391 C 60.564 188.216,74.850 193.075,78.482 193.075 C 79.251 193.075,88.292 184.113,92.037 179.640 C 99.807 170.357,106.413 159.440,110.926 148.421 C 112.010 145.774,112.078 145.928,110.096 146.540 C 108.594 147.003,106.150 147.523,103.015 148.047 C 99.158 148.691,92.018 148.502,87.726 147.641 C 56.354 141.347,39.437 107.145,53.186 77.814 C 53.892 76.308,54.119 75.626,53.965 75.472 C 53.644 75.152,3.387 75.109,2.982 75.429 M77.699 208.441 C 75.234 209.842,70.406 212.570,66.969 214.503 C 63.532 216.436,60.749 218.047,60.785 218.083 C 60.820 218.118,62.441 218.039,64.386 217.907 C 91.020 216.094,121.329 223.768,144.908 238.295 C 145.692 238.778,146.861 239.473,147.505 239.840 L 148.676 240.507 148.676 223.739 L 148.676 206.970 146.690 206.735 C 141.754 206.150,137.221 206.055,110.183 205.976 L 82.179 205.894 77.699 208.441 " stroke="none" fill="#e8175e" fill-rule="evenodd"></path><path id="path1" d="M148.116 0.757 L 148.676 0.842 148.676 97.451 C 148.676 174.540,148.625 194.083,148.422 194.176 C 148.080 194.332,150.509 194.119,152.037 193.860 C 154.986 193.359,160.909 190.948,163.398 189.236 C 166.890 186.834,176.972 170.429,182.076 158.846 C 182.542 157.789,183.050 156.650,183.206 156.314 C 183.735 155.176,184.725 152.784,184.725 152.644 C 184.725 152.568,184.858 152.217,185.021 151.864 C 185.607 150.589,186.133 149.017,186.029 148.848 C 185.971 148.754,186.020 148.676,186.139 148.676 C 186.290 148.676,186.354 133.727,186.354 98.660 L 186.354 48.644 185.758 46.980 C 183.026 39.361,176.514 26.381,171.385 18.330 C 167.332 11.969,162.234 4.792,159.629 1.782 L 158.616 0.611 153.086 0.642 C 150.044 0.658,147.808 0.710,148.116 0.757 M145.073 98.880 C 145.074 99.552,145.112 99.802,145.158 99.436 C 145.203 99.070,145.202 98.520,145.156 98.214 C 145.109 97.908,145.072 98.208,145.073 98.880 M143.750 110.081 C 143.704 110.474,143.740 110.794,143.829 110.794 C 143.919 110.794,143.992 110.474,143.992 110.081 C 143.992 109.689,143.956 109.369,143.912 109.369 C 143.869 109.369,143.795 109.689,143.750 110.081 M106.925 157.026 C 106.696 157.475,106.555 157.841,106.611 157.841 C 106.667 157.841,106.900 157.475,107.128 157.026 C 107.357 156.578,107.498 156.212,107.442 156.212 C 107.386 156.212,107.153 156.578,106.925 157.026 M128.250 162.022 C 127.949 162.635,127.746 163.136,127.799 163.136 C 127.936 163.136,128.964 161.075,128.872 160.983 C 128.830 160.942,128.550 161.409,128.250 162.022 M89.498 182.536 L 88.900 183.198 89.562 182.599 C 90.179 182.042,90.318 181.874,90.160 181.874 C 90.125 181.874,89.827 182.172,89.498 182.536 M85.234 186.965 C 83.557 188.646,82.230 190.020,82.286 190.020 C 82.342 190.020,83.760 188.646,85.438 186.965 C 87.115 185.285,88.442 183.910,88.386 183.910 C 88.330 183.910,86.912 185.285,85.234 186.965 M113.124 184.572 L 112.525 185.234 113.187 184.636 C 113.551 184.307,113.849 184.009,113.849 183.974 C 113.849 183.817,113.681 183.955,113.124 184.572 M107.625 190.071 L 107.026 190.733 107.688 190.135 C 108.052 189.806,108.350 189.508,108.350 189.473 C 108.350 189.316,108.182 189.454,107.625 190.071 M80.537 191.497 L 79.939 192.159 80.601 191.561 C 81.218 191.003,81.356 190.835,81.199 190.835 C 81.164 190.835,80.866 191.133,80.537 191.497 M148.676 223.732 L 148.676 240.539 148.116 240.191 C 146.847 239.404,148.101 240.363,149.898 241.554 C 161.659 249.351,174.352 261.575,183.620 274.032 C 184.620 275.376,185.510 276.568,185.598 276.680 C 185.685 276.792,185.889 277.067,186.049 277.291 C 186.304 277.646,186.342 274.344,186.348 251.782 C 186.352 236.916,186.278 225.866,186.174 225.866 C 186.076 225.866,185.950 225.705,185.895 225.509 C 185.517 224.155,177.463 215.538,174.542 213.362 C 170.718 210.515,164.126 208.664,153.055 207.330 C 151.263 207.114,149.544 206.934,149.236 206.931 L 148.676 206.925 148.676 223.732 " stroke="none" fill="#c73e83" fill-rule="evenodd"></path><path id="path2" d="M301.426 0.216 C 299.465 0.293,290.396 0.463,281.271 0.594 C 272.146 0.725,264.653 0.859,264.621 0.892 C 264.588 0.925,264.584 16.154,264.612 34.735 L 264.664 68.519 266.084 66.693 C 273.145 57.615,283.899 51.200,296.029 48.831 C 298.266 48.394,298.321 48.393,337.831 48.325 C 366.429 48.277,377.393 48.196,377.393 48.034 C 377.393 47.911,373.292 43.631,368.279 38.525 C 351.729 21.664,336.795 6.462,333.700 3.327 L 330.652 0.239 317.821 0.158 C 310.764 0.113,303.386 0.139,301.426 0.216 M302.307 89.256 C 273.944 118.099,270.671 121.465,270.833 121.627 C 270.921 121.715,287.826 121.812,308.399 121.841 C 335.182 121.879,345.868 121.957,346.028 122.117 C 346.314 122.404,343.691 126.415,341.485 129.065 C 328.859 144.231,309.390 150.282,290.557 144.895 C 289.564 144.611,288.715 144.414,288.672 144.458 C 288.546 144.584,290.918 150.289,292.602 153.911 C 293.446 155.726,294.119 157.273,294.098 157.350 C 294.076 157.427,294.142 157.546,294.245 157.615 C 294.347 157.683,295.194 159.114,296.127 160.794 C 302.200 171.730,309.801 181.499,318.563 189.628 C 319.868 190.838,320.876 191.894,320.804 191.975 C 320.731 192.056,320.773 192.065,320.896 191.995 C 321.018 191.925,321.379 192.140,321.697 192.472 C 322.438 193.245,322.482 193.242,326.694 192.180 C 367.705 181.840,397.489 145.653,399.798 103.360 C 399.928 100.976,399.995 94.009,399.959 86.558 L 399.898 73.829 358.738 73.778 L 317.579 73.726 302.307 89.256 M264.573 168.686 L 264.562 194.297 281.415 194.291 L 298.269 194.284 297.674 193.841 C 295.983 192.581,294.532 191.278,294.661 191.135 C 294.741 191.046,294.693 191.038,294.555 191.118 C 294.147 191.353,287.166 184.219,284.412 180.754 C 283.076 179.073,281.876 177.586,281.744 177.449 C 278.323 173.878,270.493 158.956,266.734 148.845 C 266.012 146.904,265.233 144.812,265.002 144.196 L 264.583 143.075 264.573 168.686 M267.872 206.064 L 264.562 206.120 264.562 219.251 C 264.562 226.474,264.616 232.383,264.682 232.383 C 264.748 232.383,265.733 231.932,266.871 231.381 C 268.010 230.830,269.720 230.042,270.672 229.632 C 271.624 229.221,272.678 228.764,273.014 228.615 C 273.350 228.467,274.496 228.013,275.560 227.607 C 276.624 227.200,277.678 226.780,277.902 226.672 C 278.126 226.564,278.722 226.346,279.226 226.187 C 279.730 226.028,281.059 225.580,282.179 225.192 C 287.707 223.276,294.787 221.403,301.222 220.154 C 312.097 218.044,328.815 216.965,336.333 217.887 C 337.442 218.023,338.373 218.110,338.403 218.080 C 338.465 218.017,331.679 214.135,322.912 209.218 L 317.006 205.906 294.094 205.957 C 281.492 205.985,269.692 206.033,267.872 206.064 " stroke="none" fill="#4fbff8" fill-rule="evenodd"></path><path id="path3" d="M233.153 10.540 C 232.536 11.400,229.200 16.453,228.010 18.330 C 226.666 20.449,224.868 23.521,223.363 26.273 C 222.253 28.302,219.756 33.035,219.756 33.110 C 219.756 33.151,219.338 34.034,218.827 35.074 C 218.316 36.114,217.349 38.203,216.679 39.715 C 216.009 41.227,215.378 42.648,215.278 42.872 C 214.925 43.657,214.023 45.935,213.705 46.843 C 213.529 47.347,213.317 47.851,213.234 47.963 C 213.151 48.075,212.927 48.717,212.734 49.389 C 212.542 50.061,212.312 50.703,212.222 50.815 C 212.132 50.927,211.864 51.752,211.625 52.648 L 211.191 54.277 211.247 98.880 C 211.308 146.786,211.253 144.103,212.198 145.827 C 212.291 145.997,212.516 146.649,212.698 147.276 C 212.881 147.903,213.168 148.681,213.336 149.005 C 213.505 149.328,213.644 149.705,213.644 149.841 C 213.645 149.978,213.875 150.591,214.155 151.203 C 214.435 151.815,214.664 152.369,214.664 152.434 C 214.664 152.576,216.531 157.071,217.248 158.656 C 221.367 167.758,225.753 175.591,230.762 182.790 C 233.023 186.040,234.012 187.322,234.012 187.005 C 234.012 186.885,233.921 186.729,233.809 186.660 C 233.489 186.463,233.530 10.136,233.849 9.817 C 233.984 9.682,234.038 9.572,233.970 9.572 C 233.902 9.572,233.535 10.008,233.153 10.540 M232.383 209.966 C 229.233 210.817,226.785 211.915,224.930 213.310 C 221.003 216.263,213.681 224.482,211.669 228.194 L 211.220 229.022 211.211 254.557 C 211.203 277.231,211.236 280.062,211.507 279.837 C 211.675 279.698,211.813 279.503,211.813 279.405 C 211.813 279.306,211.960 279.066,212.139 278.870 C 212.319 278.674,213.030 277.719,213.718 276.748 C 218.173 270.465,223.089 264.700,229.529 258.207 C 232.163 255.552,234.231 253.467,234.124 253.574 C 234.018 253.681,233.857 253.768,233.766 253.768 C 233.675 253.768,233.625 243.824,233.654 231.670 C 233.683 219.516,233.707 209.581,233.707 209.591 C 233.707 209.601,233.111 209.770,232.383 209.966 " stroke="none" fill="#8c7ebf" fill-rule="evenodd"></path><path id="path4" d="M186.380 98.473 C 186.384 131.826,186.454 148.168,186.589 147.760 C 186.700 147.424,186.875 146.965,186.978 146.741 C 187.217 146.218,189.007 140.746,189.675 138.493 C 191.738 131.539,193.375 124.048,194.304 117.312 C 194.528 115.687,194.752 114.221,194.802 114.053 C 194.931 113.621,195.452 106.615,195.747 101.360 C 195.944 97.860,195.944 96.065,195.749 92.908 C 195.462 88.286,194.909 81.428,194.809 81.266 C 194.771 81.206,194.592 80.058,194.410 78.715 C 193.965 75.423,193.095 70.938,192.142 67.006 C 191.965 66.278,191.687 65.132,191.524 64.460 C 190.642 60.826,188.094 52.833,186.785 49.593 L 186.373 48.574 186.380 98.473 M212.254 50.295 C 212.135 50.637,212.081 50.916,212.134 50.916 C 212.271 50.916,212.656 49.859,212.555 49.758 C 212.509 49.712,212.373 49.953,212.254 50.295 M210.419 55.736 C 201.437 83.923,201.266 109.511,209.863 139.104 C 210.991 142.984,211.912 145.485,211.399 143.273 C 211.046 141.749,211.153 54.248,211.510 53.072 C 211.677 52.522,211.775 52.033,211.727 51.985 C 211.680 51.938,211.091 53.626,210.419 55.736 M212.254 146.446 C 212.373 146.788,212.509 147.030,212.555 146.984 C 212.656 146.883,212.271 145.825,212.134 145.825 C 212.081 145.825,212.135 146.104,212.254 146.446 M213.272 149.298 C 213.392 149.639,213.527 149.881,213.573 149.835 C 213.674 149.734,213.290 148.676,213.152 148.676 C 213.099 148.676,213.153 148.956,213.272 149.298 M186.353 251.850 L 186.352 277.699 188.052 280.244 C 190.268 283.564,191.340 285.236,192.686 287.475 L 193.788 289.308 193.840 265.200 C 193.898 238.314,194.013 240.806,192.537 237.067 C 191.283 233.890,188.031 228.048,186.424 226.086 C 186.386 226.040,186.354 237.633,186.353 251.850 M210.734 229.379 C 208.748 232.575,206.782 236.775,205.926 239.649 C 205.503 241.070,205.499 241.302,205.501 265.297 L 205.503 289.511 206.035 288.595 C 206.734 287.392,208.303 284.913,209.965 282.384 C 211.766 279.645,211.699 279.758,211.431 279.923 C 211.031 280.170,211.111 229.279,211.512 228.503 C 212.073 227.419,211.669 227.873,210.734 229.379 " stroke="none" fill="#9965a2" fill-rule="evenodd"></path><path id="path5" d="M240.779 0.748 C 240.636 0.805,239.582 2.058,238.437 3.531 C 236.174 6.442,235.934 6.767,234.539 8.789 L 233.605 10.145 233.605 98.226 C 233.605 174.258,233.645 186.385,233.896 186.870 C 234.312 187.671,235.579 188.960,236.327 189.343 C 236.678 189.523,237.011 189.739,237.067 189.823 C 237.224 190.059,241.703 192.150,243.075 192.628 C 247.139 194.044,249.398 194.297,257.933 194.297 L 264.559 194.297 264.611 168.349 C 264.643 152.851,264.590 142.447,264.479 142.516 C 264.377 142.578,264.346 142.432,264.409 142.191 C 264.472 141.949,264.435 141.752,264.326 141.752 C 264.216 141.752,264.189 141.558,264.265 141.319 C 264.363 141.008,264.332 140.929,264.155 141.039 C 263.975 141.150,263.947 141.066,264.053 140.733 C 264.161 140.392,264.133 140.315,263.941 140.434 C 263.753 140.550,263.715 140.474,263.798 140.154 C 263.872 139.872,263.835 139.762,263.696 139.848 C 263.557 139.934,263.521 139.824,263.595 139.543 C 263.667 139.264,263.631 139.152,263.495 139.236 C 263.353 139.323,263.328 139.180,263.420 138.812 C 263.522 138.406,263.494 138.296,263.316 138.406 C 263.145 138.512,263.107 138.426,263.187 138.117 C 263.261 137.836,263.224 137.726,263.085 137.812 C 262.946 137.897,262.910 137.788,262.984 137.506 C 263.056 137.227,263.020 137.115,262.884 137.199 C 262.742 137.287,262.717 137.143,262.809 136.775 C 262.911 136.369,262.883 136.259,262.705 136.369 C 262.534 136.475,262.496 136.389,262.576 136.080 C 262.649 135.802,262.613 135.689,262.477 135.773 C 262.335 135.861,262.310 135.718,262.402 135.349 C 262.504 134.943,262.476 134.834,262.298 134.943 C 262.127 135.049,262.088 134.963,262.169 134.655 C 262.242 134.376,262.205 134.264,262.069 134.348 C 261.928 134.435,261.902 134.292,261.995 133.924 C 262.096 133.520,262.068 133.408,261.893 133.516 C 261.718 133.625,261.690 133.512,261.791 133.109 C 261.893 132.703,261.865 132.593,261.687 132.703 C 261.516 132.809,261.477 132.723,261.558 132.414 C 261.631 132.136,261.594 132.023,261.459 132.107 C 261.321 132.192,261.281 132.049,261.346 131.706 C 261.409 131.380,261.369 131.222,261.245 131.299 C 261.120 131.376,261.080 131.218,261.143 130.892 C 261.205 130.566,261.166 130.407,261.041 130.484 C 260.916 130.562,260.877 130.403,260.939 130.077 C 261.001 129.751,260.962 129.593,260.837 129.670 C 260.712 129.747,260.673 129.589,260.735 129.263 C 260.798 128.936,260.758 128.778,260.634 128.855 C 260.509 128.932,260.469 128.774,260.532 128.448 C 260.595 128.118,260.555 127.963,260.428 128.042 C 260.295 128.124,260.268 127.935,260.352 127.516 C 260.444 127.057,260.415 126.906,260.252 127.006 C 260.091 127.106,260.064 126.982,260.162 126.592 C 260.263 126.189,260.235 126.076,260.060 126.184 C 259.889 126.290,259.849 126.177,259.921 125.800 C 259.984 125.470,259.944 125.315,259.817 125.394 C 259.684 125.476,259.657 125.287,259.741 124.869 C 259.834 124.406,259.804 124.258,259.639 124.360 C 259.474 124.462,259.445 124.314,259.537 123.850 C 259.629 123.391,259.600 123.240,259.438 123.340 C 259.276 123.440,259.249 123.316,259.347 122.926 C 259.449 122.520,259.421 122.410,259.243 122.520 C 259.064 122.630,259.034 122.497,259.130 122.017 C 259.223 121.554,259.193 121.406,259.028 121.508 C 258.863 121.610,258.834 121.462,258.926 120.999 C 259.019 120.536,258.989 120.388,258.825 120.490 C 258.660 120.592,258.630 120.444,258.723 119.981 C 258.814 119.523,258.785 119.370,258.625 119.469 C 258.462 119.570,258.437 119.391,258.539 118.848 C 258.647 118.274,258.621 118.124,258.433 118.240 C 258.249 118.354,258.218 118.226,258.315 117.740 C 258.407 117.283,258.378 117.130,258.217 117.229 C 258.055 117.330,258.030 117.150,258.131 116.608 C 258.239 116.033,258.213 115.884,258.026 115.999 C 257.841 116.114,257.811 115.986,257.908 115.500 C 258.000 115.038,257.971 114.889,257.807 114.991 C 257.640 115.094,257.614 114.893,257.713 114.273 C 257.814 113.643,257.787 113.451,257.614 113.558 C 257.442 113.665,257.416 113.498,257.520 112.942 C 257.628 112.367,257.602 112.218,257.415 112.333 C 257.229 112.448,257.197 112.298,257.288 111.738 C 257.367 111.250,257.337 111.034,257.201 111.118 C 257.061 111.205,257.040 110.860,257.138 110.076 C 257.254 109.144,257.231 108.937,257.021 109.066 C 256.829 109.185,256.788 109.115,256.871 108.799 C 256.933 108.563,256.911 108.343,256.822 108.309 C 256.734 108.276,256.516 107.378,256.339 106.314 C 254.172 93.311,256.757 80.856,263.878 69.986 C 264.619 68.856,265.075 68.056,264.893 68.207 C 264.588 68.460,264.562 65.867,264.562 34.652 L 264.562 0.822 269.399 0.764 C 272.060 0.731,266.767 0.691,257.637 0.674 C 248.508 0.657,240.922 0.690,240.779 0.748 M268.317 64.002 L 267.719 64.664 268.381 64.066 C 268.998 63.508,269.136 63.340,268.979 63.340 C 268.944 63.340,268.646 63.638,268.317 64.002 M273.612 118.381 L 273.014 119.043 273.676 118.445 C 274.293 117.887,274.432 117.719,274.274 117.719 C 274.239 117.719,273.941 118.017,273.612 118.381 M315.580 186.965 C 317.258 188.646,318.676 190.020,318.732 190.020 C 318.788 190.020,317.462 188.646,315.784 186.965 C 314.107 185.285,312.688 183.910,312.632 183.910 C 312.576 183.910,313.903 185.285,315.580 186.965 M292.668 189.473 C 292.668 189.508,292.966 189.806,293.330 190.135 L 293.992 190.733 293.394 190.071 C 292.836 189.454,292.668 189.316,292.668 189.473 M269.196 206.054 C 269.560 206.099,270.155 206.099,270.519 206.054 C 270.883 206.008,270.586 205.972,269.857 205.972 C 269.129 205.972,268.831 206.008,269.196 206.054 M259.980 206.249 C 258.352 206.317,254.783 206.590,249.868 207.023 C 246.321 207.335,239.644 208.236,238.595 208.544 C 238.259 208.642,237.342 208.834,236.558 208.971 C 235.774 209.107,235.041 209.289,234.929 209.376 C 234.817 209.462,234.496 209.565,234.216 209.604 L 233.707 209.674 233.655 231.721 C 233.625 244.427,233.680 253.768,233.783 253.768 C 233.883 253.768,234.227 253.511,234.548 253.196 C 240.314 247.555,253.741 238.147,262.333 233.730 L 264.664 232.531 264.610 219.321 L 264.556 206.110 262.981 206.150 C 262.114 206.172,260.764 206.216,259.980 206.249 " stroke="none" fill="#7399d8" fill-rule="evenodd"></path><path id="path6" d="M221.283 29.735 C 221.109 30.071,221.013 30.346,221.069 30.346 C 221.125 30.346,221.313 30.071,221.487 29.735 C 221.661 29.399,221.757 29.124,221.701 29.124 C 221.645 29.124,221.457 29.399,221.283 29.735 M216.530 39.418 C 216.189 40.167,216.254 40.327,216.623 39.646 C 216.795 39.328,216.898 39.030,216.851 38.983 C 216.805 38.937,216.660 39.132,216.530 39.418 M208.670 60.809 C 208.595 61.107,208.573 61.391,208.621 61.439 C 208.669 61.487,208.770 61.282,208.845 60.983 C 208.920 60.685,208.942 60.401,208.894 60.353 C 208.846 60.305,208.745 60.510,208.670 60.809 M204.732 79.430 C 204.732 79.822,204.773 79.982,204.825 79.786 C 204.876 79.590,204.876 79.269,204.825 79.073 C 204.773 78.877,204.732 79.038,204.732 79.430 M194.548 79.633 C 194.548 80.025,194.590 80.186,194.641 79.990 C 194.693 79.794,194.693 79.473,194.641 79.277 C 194.590 79.081,194.548 79.241,194.548 79.633 M203.925 86.762 C 203.925 87.266,203.965 87.472,204.013 87.220 C 204.062 86.968,204.062 86.555,204.013 86.303 C 203.965 86.051,203.925 86.258,203.925 86.762 M195.371 86.965 C 195.371 87.469,195.411 87.676,195.459 87.424 C 195.508 87.172,195.508 86.759,195.459 86.507 C 195.411 86.255,195.371 86.461,195.371 86.965 M203.733 89.511 C 203.734 90.295,203.771 90.591,203.815 90.169 C 203.859 89.746,203.858 89.104,203.813 88.743 C 203.768 88.381,203.732 88.727,203.733 89.511 M195.588 89.817 C 195.588 90.657,195.624 91.001,195.668 90.580 C 195.712 90.160,195.712 89.473,195.668 89.053 C 195.624 88.633,195.588 88.977,195.588 89.817 M203.528 92.668 C 203.528 93.396,203.564 93.694,203.610 93.330 C 203.655 92.966,203.655 92.370,203.610 92.006 C 203.564 91.642,203.528 91.940,203.528 92.668 M195.788 92.872 C 195.788 93.600,195.825 93.898,195.870 93.534 C 195.916 93.170,195.916 92.574,195.870 92.210 C 195.825 91.846,195.788 92.144,195.788 92.872 M195.790 101.324 C 195.791 102.108,195.828 102.404,195.872 101.981 C 195.916 101.559,195.915 100.917,195.870 100.556 C 195.825 100.194,195.789 100.540,195.790 101.324 M203.531 101.629 C 203.531 102.469,203.567 102.813,203.611 102.393 C 203.655 101.973,203.655 101.286,203.611 100.866 C 203.567 100.446,203.531 100.789,203.531 101.629 M195.589 104.786 C 195.590 105.682,195.626 106.024,195.669 105.545 C 195.712 105.065,195.711 104.332,195.667 103.915 C 195.624 103.498,195.588 103.890,195.589 104.786 M203.734 105.092 C 203.734 105.932,203.770 106.275,203.814 105.855 C 203.858 105.435,203.858 104.748,203.814 104.328 C 203.770 103.908,203.734 104.252,203.734 105.092 M195.374 107.841 C 195.375 108.401,195.415 108.606,195.462 108.297 C 195.509 107.987,195.507 107.529,195.459 107.278 C 195.411 107.028,195.372 107.281,195.374 107.841 M203.928 108.045 C 203.929 108.605,203.969 108.810,204.016 108.500 C 204.063 108.191,204.061 107.732,204.013 107.482 C 203.965 107.231,203.926 107.485,203.928 108.045 M194.548 115.682 C 194.548 116.074,194.590 116.235,194.641 116.039 C 194.693 115.843,194.693 115.522,194.641 115.326 C 194.590 115.130,194.548 115.290,194.548 115.682 M204.732 115.886 C 204.732 116.278,204.773 116.438,204.825 116.242 C 204.876 116.046,204.876 115.726,204.825 115.530 C 204.773 115.334,204.732 115.494,204.732 115.886 M208.583 135.031 C 208.583 135.199,208.661 135.519,208.758 135.743 C 208.868 136.000,208.933 136.038,208.933 135.845 C 208.933 135.677,208.854 135.356,208.758 135.132 C 208.647 134.876,208.583 134.838,208.583 135.031 M187.803 144.218 C 187.677 144.578,187.610 144.908,187.654 144.952 C 187.697 144.995,187.836 144.736,187.961 144.377 C 188.087 144.017,188.154 143.686,188.110 143.643 C 188.066 143.599,187.928 143.858,187.803 144.218 M218.141 160.998 C 218.141 161.110,218.272 161.431,218.432 161.711 C 218.592 161.991,218.723 162.128,218.723 162.016 C 218.723 161.904,218.592 161.584,218.432 161.303 C 218.272 161.023,218.141 160.886,218.141 160.998 M221.283 167.413 C 221.457 167.749,221.645 168.024,221.701 168.024 C 221.757 168.024,221.661 167.749,221.487 167.413 C 221.313 167.077,221.125 166.802,221.069 166.802 C 221.013 166.802,221.109 167.077,221.283 167.413 M219.854 217.770 L 217.617 220.061 219.908 217.824 C 222.037 215.747,222.292 215.479,222.145 215.479 C 222.115 215.479,221.084 216.510,219.854 217.770 M216.790 221.029 L 216.191 221.690 216.853 221.092 C 217.470 220.535,217.609 220.367,217.452 220.367 C 217.416 220.367,217.119 220.664,216.790 221.029 M193.939 265.134 C 193.900 284.346,193.838 289.199,193.635 289.077 C 193.489 288.989,193.511 289.084,193.686 289.300 C 194.030 289.722,194.151 277.471,194.043 253.208 C 194.013 246.515,193.966 251.882,193.939 265.134 M205.394 265.377 C 205.394 278.763,205.418 284.239,205.448 277.546 C 205.478 270.853,205.478 259.901,205.448 253.208 C 205.418 246.515,205.394 251.991,205.394 265.377 M234.205 253.717 L 233.503 254.481 234.267 253.779 C 234.687 253.393,235.031 253.049,235.031 253.015 C 235.031 252.860,234.858 253.006,234.205 253.717 M229.325 258.401 L 226.171 261.609 229.379 258.455 C 232.359 255.524,232.679 255.193,232.533 255.193 C 232.504 255.193,231.060 256.637,229.325 258.401 M224.847 263.035 C 224.353 263.539,223.994 263.951,224.050 263.951 C 224.106 263.951,224.556 263.539,225.051 263.035 C 225.546 262.531,225.905 262.118,225.849 262.118 C 225.793 262.118,225.342 262.531,224.847 263.035 M223.003 265.122 L 222.301 265.886 223.065 265.184 C 223.485 264.798,223.829 264.454,223.829 264.420 C 223.829 264.265,223.657 264.411,223.003 265.122 M221.678 266.650 L 221.079 267.312 221.741 266.713 C 222.358 266.156,222.497 265.988,222.340 265.988 C 222.304 265.988,222.007 266.286,221.678 266.650 " stroke="none" fill="#7f497d" fill-rule="evenodd"></path><path id="path7" d="M90.580 0.556 C 91.057 0.599,91.836 0.599,92.312 0.556 C 92.788 0.514,92.398 0.478,91.446 0.478 C 90.494 0.478,90.104 0.514,90.580 0.556 M138.837 0.560 L 158.632 0.613 159.772 1.956 C 169.569 13.505,180.744 33.070,186.775 49.232 C 187.369 50.826,187.895 52.092,187.942 52.044 C 188.047 51.939,187.349 49.635,187.169 49.491 C 187.099 49.435,186.881 48.869,186.684 48.233 C 186.487 47.598,186.149 46.730,185.933 46.306 C 185.717 45.882,185.540 45.371,185.540 45.171 C 185.540 44.970,185.471 44.807,185.387 44.807 C 185.303 44.807,185.058 44.257,184.844 43.585 C 184.629 42.912,184.392 42.363,184.317 42.363 C 184.242 42.363,184.005 41.836,183.791 41.191 C 183.576 40.547,183.287 39.899,183.147 39.751 C 183.007 39.603,182.892 39.403,182.892 39.306 C 182.892 39.210,182.786 38.872,182.656 38.557 C 182.525 38.242,182.434 37.915,182.452 37.831 C 182.470 37.747,182.408 37.678,182.314 37.678 C 182.220 37.678,182.022 37.312,181.874 36.864 C 181.726 36.415,181.537 36.049,181.454 36.049 C 181.371 36.049,181.139 35.591,180.937 35.031 C 180.736 34.470,180.510 34.012,180.436 34.012 C 180.361 34.012,180.135 33.577,179.934 33.045 C 179.733 32.513,179.506 32.032,179.430 31.976 C 179.353 31.920,179.126 31.438,178.925 30.906 C 178.724 30.374,178.495 29.939,178.416 29.939 C 178.337 29.939,178.152 29.572,178.004 29.124 C 177.856 28.676,177.672 28.310,177.595 28.310 C 177.518 28.310,177.282 27.920,177.071 27.444 C 176.860 26.968,176.571 26.457,176.429 26.309 C 176.287 26.161,176.171 25.964,176.171 25.871 C 176.171 25.779,175.807 25.121,175.363 24.409 C 174.918 23.698,174.370 22.749,174.146 22.301 C 173.730 21.472,173.643 21.328,172.658 19.824 C 172.350 19.354,172.098 18.923,172.098 18.866 C 172.098 18.809,171.685 18.161,171.181 17.424 C 170.677 16.688,170.265 16.047,170.265 15.999 C 170.265 15.951,169.852 15.309,169.348 14.573 C 168.844 13.837,168.432 13.190,168.432 13.136 C 168.432 13.082,168.109 12.602,167.714 12.069 C 167.319 11.536,166.883 10.940,166.746 10.744 C 166.609 10.549,166.288 10.091,166.033 9.726 C 164.874 8.068,161.283 3.319,160.907 2.946 C 160.677 2.718,160.489 2.480,160.489 2.417 C 160.489 2.354,160.106 1.876,159.637 1.355 L 158.786 0.407 138.914 0.457 L 119.043 0.507 138.837 0.560 M87.831 0.757 C 88.139 0.804,88.643 0.804,88.951 0.757 C 89.259 0.710,89.007 0.672,88.391 0.672 C 87.775 0.672,87.523 0.710,87.831 0.757 M85.692 0.958 C 85.945 1.007,86.357 1.007,86.609 0.958 C 86.861 0.910,86.655 0.870,86.151 0.870 C 85.647 0.870,85.440 0.910,85.692 0.958 M84.066 1.162 C 84.319 1.211,84.685 1.209,84.880 1.158 C 85.075 1.107,84.868 1.067,84.420 1.070 C 83.971 1.072,83.812 1.114,84.066 1.162 M237.446 4.226 C 236.860 4.933,236.612 5.295,236.713 5.295 C 236.769 5.295,237.060 4.975,237.359 4.582 C 237.914 3.855,237.981 3.580,237.446 4.226 M68.534 4.481 C 68.277 4.591,68.239 4.656,68.432 4.656 C 68.600 4.656,68.921 4.577,69.145 4.481 C 69.401 4.370,69.439 4.306,69.246 4.306 C 69.078 4.306,68.758 4.384,68.534 4.481 M335.234 4.544 C 335.234 4.579,335.532 4.877,335.896 5.206 L 336.558 5.804 335.960 5.143 C 335.402 4.526,335.234 4.387,335.234 4.544 M65.008 5.638 C 64.525 5.809,64.165 5.985,64.209 6.029 C 64.302 6.122,66.191 5.501,66.191 5.378 C 66.191 5.250,65.960 5.301,65.008 5.638 M235.280 7.077 C 234.106 8.630,233.536 9.481,233.951 9.063 C 234.341 8.670,236.677 5.499,236.576 5.499 C 236.520 5.499,235.937 6.209,235.280 7.077 M63.035 6.423 C 62.525 6.668,62.508 6.696,62.933 6.592 C 63.510 6.451,64.159 6.121,63.849 6.125 C 63.737 6.127,63.371 6.261,63.035 6.423 M60.489 7.434 C 60.209 7.594,60.071 7.725,60.183 7.725 C 60.295 7.725,60.616 7.594,60.896 7.434 C 61.176 7.274,61.314 7.143,61.202 7.143 C 61.090 7.143,60.769 7.274,60.489 7.434 M59.063 8.045 C 58.783 8.205,58.646 8.336,58.758 8.336 C 58.870 8.336,59.190 8.205,59.470 8.045 C 59.751 7.885,59.888 7.754,59.776 7.754 C 59.664 7.754,59.343 7.885,59.063 8.045 M54.699 10.097 C 38.524 18.213,25.052 30.306,15.466 45.315 C 13.671 48.126,12.950 49.474,13.139 49.663 C 13.212 49.736,33.130 49.847,57.400 49.909 C 105.218 50.031,102.861 49.975,107.665 51.115 C 127.931 55.924,144.476 75.770,144.827 95.691 C 144.856 97.356,145.167 98.222,145.194 96.712 C 145.540 77.085,128.817 56.225,108.636 51.109 C 103.145 49.717,106.814 49.815,58.248 49.754 C 34.109 49.723,14.152 49.650,13.900 49.591 C 13.232 49.434,13.290 49.268,14.980 46.514 C 24.363 31.220,37.577 19.128,54.277 10.556 C 56.629 9.348,58.462 8.362,58.350 8.363 C 58.238 8.365,56.595 9.145,54.699 10.097 M233.362 9.725 C 233.003 10.143,232.734 10.591,232.842 10.591 C 232.883 10.591,233.121 10.316,233.369 9.980 C 233.860 9.316,233.855 9.151,233.362 9.725 M341.853 11.405 C 342.857 12.413,343.724 13.238,343.780 13.238 C 343.836 13.238,343.061 12.413,342.057 11.405 C 341.054 10.397,340.187 9.572,340.131 9.572 C 340.075 9.572,340.850 10.397,341.853 11.405 M232.138 11.407 C 231.691 12.191,231.824 12.190,232.383 11.405 C 232.622 11.069,232.743 10.795,232.651 10.796 C 232.560 10.796,232.329 11.071,232.138 11.407 M231.294 12.592 C 230.923 13.003,230.841 13.334,231.160 13.137 C 231.372 13.006,231.843 12.220,231.709 12.220 C 231.666 12.220,231.480 12.388,231.294 12.592 M229.951 14.694 C 229.492 15.382,229.150 15.980,229.192 16.022 C 229.261 16.091,229.518 15.732,230.641 14.002 C 230.841 13.694,230.955 13.442,230.896 13.442 C 230.836 13.442,230.411 14.005,229.951 14.694 M228.123 17.538 C 227.665 18.223,227.291 18.825,227.291 18.877 C 227.291 18.928,227.016 19.369,226.680 19.857 C 226.107 20.690,225.848 21.297,226.249 20.866 C 226.521 20.573,229.130 16.293,229.036 16.293 C 228.991 16.293,228.580 16.854,228.123 17.538 M348.269 17.821 C 348.877 18.437,349.421 18.941,349.477 18.941 C 349.533 18.941,349.081 18.437,348.473 17.821 C 347.864 17.205,347.320 16.701,347.264 16.701 C 347.208 16.701,347.660 17.205,348.269 17.821 M225.456 21.843 C 225.047 22.515,224.883 23.168,225.265 22.607 C 225.664 22.022,226.079 21.181,225.970 21.181 C 225.909 21.181,225.678 21.479,225.456 21.843 M224.515 23.574 C 224.327 23.882,223.958 24.476,223.695 24.894 C 223.433 25.311,223.218 25.740,223.218 25.847 C 223.218 25.953,223.102 26.161,222.960 26.309 C 222.818 26.457,222.529 26.968,222.318 27.444 C 222.107 27.920,221.876 28.310,221.806 28.310 C 221.662 28.310,221.152 29.570,221.254 29.672 C 221.290 29.708,221.928 28.615,222.670 27.242 C 223.413 25.869,224.258 24.356,224.548 23.880 C 224.837 23.404,225.025 23.014,224.965 23.014 C 224.906 23.014,224.703 23.266,224.515 23.574 M356.823 26.578 C 357.203 26.970,357.560 27.291,357.616 27.291 C 357.672 27.291,357.406 26.970,357.026 26.578 C 356.646 26.186,356.290 25.866,356.234 25.866 C 356.178 25.866,356.443 26.186,356.823 26.578 M220.502 30.790 C 220.050 31.939,220.187 31.975,220.733 30.851 C 220.977 30.349,221.099 29.939,221.006 29.939 C 220.912 29.939,220.685 30.322,220.502 30.790 M219.600 32.624 C 219.264 33.514,219.404 33.553,219.818 32.686 C 220.004 32.295,220.086 31.976,220.001 31.976 C 219.915 31.976,219.735 32.267,219.600 32.624 M218.582 34.661 C 218.246 35.550,218.386 35.590,218.799 34.722 C 218.986 34.332,219.068 34.012,218.982 34.012 C 218.897 34.012,218.716 34.304,218.582 34.661 M217.515 36.864 C 217.367 37.312,217.169 37.678,217.075 37.678 C 216.981 37.678,216.919 37.747,216.937 37.831 C 216.955 37.915,216.861 38.248,216.728 38.572 C 216.223 39.798,216.659 39.241,217.310 37.830 C 217.683 37.018,218.026 36.286,218.070 36.202 C 218.114 36.118,218.068 36.049,217.967 36.049 C 217.867 36.049,217.663 36.415,217.515 36.864 M367.609 37.525 C 368.453 38.425,368.635 38.586,368.635 38.433 C 368.635 38.401,368.200 37.965,367.668 37.466 L 366.701 36.558 367.609 37.525 M215.715 40.784 C 215.575 41.260,215.418 41.787,215.368 41.955 C 215.317 42.123,215.499 41.802,215.772 41.242 C 216.317 40.124,216.373 39.919,216.132 39.919 C 216.043 39.919,215.856 40.308,215.715 40.784 M214.610 43.357 C 214.174 44.583,214.162 44.955,214.588 43.992 C 215.154 42.714,215.267 42.363,215.114 42.363 C 215.031 42.363,214.804 42.810,214.610 43.357 M213.849 45.150 C 213.849 45.338,213.671 45.865,213.454 46.321 C 213.004 47.261,212.428 48.881,212.433 49.185 C 212.437 49.350,214.254 45.033,214.256 44.857 C 214.256 44.829,214.165 44.807,214.053 44.807 C 213.941 44.807,213.849 44.961,213.849 45.150 M211.756 50.672 C 211.294 52.230,211.326 52.492,211.823 51.222 C 212.406 49.734,212.470 49.491,212.279 49.491 C 212.184 49.491,211.949 50.022,211.756 50.672 M188.047 52.620 C 188.105 52.773,188.496 53.966,188.914 55.271 C 189.332 56.576,189.713 57.606,189.759 57.559 C 189.876 57.443,189.448 55.840,189.094 55.065 C 188.934 54.715,188.694 53.959,188.562 53.385 C 188.429 52.811,188.235 52.342,188.131 52.342 C 188.026 52.342,187.988 52.467,188.047 52.620 M210.907 53.069 C 210.832 53.469,210.729 53.951,210.678 54.139 C 210.551 54.604,211.116 53.375,211.292 52.800 C 211.370 52.547,211.346 52.342,211.238 52.342 C 211.131 52.342,210.982 52.669,210.907 53.069 M210.096 55.419 C 209.850 56.144,209.554 57.483,209.624 57.554 C 209.668 57.597,209.864 57.122,210.061 56.497 C 210.360 55.548,210.393 54.547,210.096 55.419 M189.817 57.961 C 189.817 58.279,190.707 61.092,190.783 61.016 C 190.913 60.886,190.386 58.654,190.198 58.538 C 190.110 58.484,190.090 58.305,190.153 58.140 C 190.216 57.976,190.166 57.841,190.042 57.841 C 189.918 57.841,189.817 57.895,189.817 57.961 M209.078 58.678 C 208.831 59.402,208.535 60.742,208.606 60.812 C 208.649 60.856,208.846 60.380,209.043 59.756 C 209.342 58.807,209.375 57.806,209.078 58.678 M190.845 61.456 C 190.868 61.805,192.843 69.125,192.857 68.912 C 192.884 68.496,192.251 65.488,192.066 65.151 C 191.967 64.970,191.728 64.031,191.536 63.063 C 191.264 61.694,190.789 60.588,190.845 61.456 M207.955 62.545 C 207.662 64.036,207.792 64.369,208.130 62.992 C 208.261 62.455,208.417 61.856,208.475 61.660 C 208.534 61.464,208.496 61.303,208.391 61.303 C 208.286 61.303,208.090 61.862,207.955 62.545 M207.247 65.195 C 207.036 65.828,206.692 67.860,206.781 67.948 C 206.833 68.001,207.025 67.383,207.208 66.576 C 207.495 65.305,207.521 64.372,207.247 65.195 M192.872 69.347 C 192.872 69.440,193.146 70.945,193.482 72.691 C 193.817 74.437,194.219 76.599,194.376 77.495 C 194.532 78.391,194.666 78.895,194.672 78.615 C 194.696 77.584,193.276 69.578,193.024 69.330 C 192.940 69.246,192.872 69.255,192.872 69.347 M206.230 69.472 C 206.046 70.029,205.663 72.737,205.755 72.829 C 205.806 72.880,206.005 72.132,206.197 71.167 C 206.497 69.658,206.517 68.599,206.230 69.472 M205.424 73.457 C 205.238 74.075,204.650 78.648,204.744 78.743 C 204.792 78.791,205.029 77.576,205.270 76.044 C 205.664 73.539,205.729 72.445,205.424 73.457 M356.277 73.472 C 359.730 73.504,365.321 73.504,368.701 73.472 C 372.081 73.441,369.257 73.415,362.424 73.415 C 355.591 73.415,352.825 73.441,356.277 73.472 M389.969 73.472 C 391.678 73.506,394.473 73.506,396.181 73.472 C 397.890 73.438,396.492 73.410,393.075 73.410 C 389.659 73.410,388.261 73.438,389.969 73.472 M2.902 75.088 C 2.762 75.142,2.648 75.274,2.648 75.381 C 2.648 75.502,2.781 75.503,3.004 75.385 C 3.530 75.105,53.683 75.191,53.965 75.472 C 54.119 75.626,53.892 76.308,53.186 77.814 C 45.843 93.480,46.940 111.619,56.098 125.934 C 57.290 127.798,57.120 127.255,55.869 125.204 C 47.134 110.876,46.264 92.091,53.656 77.413 C 54.519 75.699,54.544 75.409,53.848 75.145 C 53.313 74.941,3.424 74.886,2.902 75.088 M2.342 76.375 C 2.265 76.727,2.244 77.057,2.296 77.109 C 2.348 77.161,2.449 76.911,2.520 76.553 C 2.690 75.704,2.526 75.539,2.342 76.375 M194.821 80.598 C 194.902 81.240,195.135 83.279,195.341 85.129 C 195.587 87.348,195.682 87.869,195.619 86.660 C 195.442 83.243,195.040 79.430,194.857 79.430 C 194.755 79.430,194.739 79.939,194.821 80.598 M204.110 82.026 C 203.750 85.888,203.858 86.492,204.284 82.994 C 204.732 79.307,204.724 79.430,204.518 79.430 C 204.427 79.430,204.243 80.598,204.110 82.026 M308.643 82.332 L 308.045 82.994 308.707 82.396 C 309.324 81.838,309.462 81.670,309.305 81.670 C 309.270 81.670,308.972 81.968,308.643 82.332 M0.862 84.521 C 0.862 84.913,0.904 85.074,0.955 84.878 C 1.006 84.682,1.006 84.361,0.955 84.165 C 0.904 83.969,0.862 84.129,0.862 84.521 M0.662 86.049 C 0.665 86.497,0.706 86.656,0.755 86.403 C 0.804 86.150,0.802 85.783,0.751 85.588 C 0.700 85.394,0.660 85.601,0.662 86.049 M203.727 87.169 C 203.727 87.785,203.765 88.037,203.812 87.729 C 203.859 87.421,203.859 86.917,203.812 86.609 C 203.765 86.301,203.727 86.553,203.727 87.169 M0.459 87.882 C 0.461 88.330,0.503 88.489,0.551 88.236 C 0.600 87.983,0.598 87.616,0.547 87.421 C 0.496 87.227,0.456 87.434,0.459 87.882 M0.265 90.020 C 0.265 90.636,0.303 90.888,0.350 90.580 C 0.396 90.272,0.396 89.768,0.350 89.460 C 0.303 89.152,0.265 89.404,0.265 90.020 M195.790 90.326 C 195.791 91.110,195.828 91.406,195.872 90.983 C 195.916 90.561,195.915 89.919,195.870 89.558 C 195.825 89.196,195.789 89.542,195.790 90.326 M203.528 90.224 C 203.528 90.952,203.564 91.250,203.610 90.886 C 203.655 90.522,203.655 89.926,203.610 89.562 C 203.564 89.198,203.528 89.496,203.528 90.224 M0.073 93.075 C 0.073 94.140,0.108 94.575,0.150 94.043 C 0.192 93.511,0.192 92.640,0.150 92.108 C 0.108 91.576,0.073 92.011,0.073 93.075 M145.057 100.611 C 145.057 101.003,145.099 101.163,145.151 100.967 C 145.202 100.771,145.202 100.451,145.151 100.255 C 145.099 100.059,145.057 100.219,145.057 100.611 M144.865 102.953 C 144.866 103.513,144.906 103.718,144.953 103.409 C 144.999 103.099,144.998 102.641,144.950 102.390 C 144.902 102.140,144.863 102.393,144.865 102.953 M195.791 104.073 C 195.791 104.913,195.827 105.257,195.871 104.837 C 195.915 104.417,195.915 103.730,195.871 103.310 C 195.827 102.890,195.791 103.233,195.791 104.073 M0.071 104.481 C 0.071 105.433,0.106 105.822,0.149 105.346 C 0.192 104.870,0.192 104.091,0.149 103.615 C 0.106 103.139,0.071 103.529,0.071 104.481 M203.528 104.277 C 203.528 105.005,203.564 105.303,203.610 104.939 C 203.655 104.575,203.655 103.979,203.610 103.615 C 203.564 103.251,203.528 103.549,203.528 104.277 M286.851 104.532 L 286.253 105.193 286.914 104.595 C 287.531 104.038,287.670 103.870,287.513 103.870 C 287.478 103.870,287.180 104.168,286.851 104.532 M144.528 105.397 C 144.436 106.181,144.336 106.960,144.306 107.128 C 144.133 108.089,143.969 109.862,144.060 109.773 C 144.240 109.597,144.840 105.150,144.766 104.542 C 144.725 104.215,144.624 104.579,144.528 105.397 M195.582 107.434 C 195.584 108.106,195.622 108.356,195.667 107.990 C 195.712 107.624,195.711 107.074,195.665 106.768 C 195.618 106.462,195.581 106.762,195.582 107.434 M0.262 107.434 C 0.263 107.994,0.303 108.199,0.350 107.889 C 0.397 107.580,0.395 107.121,0.347 106.871 C 0.299 106.620,0.260 106.874,0.262 107.434 M203.727 107.536 C 203.727 108.152,203.765 108.404,203.812 108.096 C 203.859 107.788,203.859 107.284,203.812 106.976 C 203.765 106.668,203.727 106.920,203.727 107.536 M0.463 109.572 C 0.463 110.076,0.503 110.283,0.551 110.031 C 0.600 109.779,0.600 109.366,0.551 109.114 C 0.503 108.862,0.463 109.068,0.463 109.572 M195.146 111.405 C 195.003 112.918,194.833 114.544,194.768 115.020 C 194.696 115.542,194.730 115.886,194.854 115.886 C 195.066 115.886,195.631 109.781,195.486 109.057 C 195.442 108.836,195.289 109.893,195.146 111.405 M203.894 109.562 C 203.849 110.872,204.340 115.886,204.513 115.886 C 204.723 115.886,204.734 116.075,204.286 112.118 C 204.083 110.326,203.907 109.175,203.894 109.562 M0.658 111.405 C 0.658 111.797,0.700 111.958,0.751 111.762 C 0.803 111.566,0.803 111.245,0.751 111.049 C 0.700 110.853,0.658 111.013,0.658 111.405 M0.862 113.035 C 0.862 113.427,0.904 113.587,0.955 113.391 C 1.006 113.195,1.006 112.874,0.955 112.678 C 0.904 112.482,0.862 112.643,0.862 113.035 M274.834 116.752 L 274.236 117.413 274.898 116.815 C 275.515 116.258,275.654 116.090,275.496 116.090 C 275.461 116.090,275.163 116.387,274.834 116.752 M194.220 118.744 C 194.023 120.134,193.810 121.549,193.747 121.888 C 193.668 122.313,193.699 122.442,193.845 122.301 C 194.069 122.086,194.794 116.868,194.657 116.457 C 194.613 116.324,194.416 117.354,194.220 118.744 M204.707 116.692 C 204.657 117.350,205.346 122.111,205.518 122.291 C 205.632 122.411,205.697 122.372,205.687 122.189 C 205.656 121.603,204.729 116.402,204.707 116.692 M1.674 117.923 C 1.672 118.203,1.743 118.661,1.833 118.941 C 2.052 119.625,2.052 118.886,1.833 118.024 C 1.693 117.476,1.677 117.465,1.674 117.923 M2.281 120.876 C 2.281 121.100,2.354 121.512,2.444 121.792 C 2.573 122.195,2.607 122.217,2.607 121.894 C 2.607 121.670,2.534 121.258,2.444 120.978 C 2.315 120.574,2.281 120.553,2.281 120.876 M271.948 122.142 C 272.257 122.189,272.716 122.188,272.966 122.139 C 273.217 122.091,272.963 122.053,272.403 122.054 C 271.843 122.056,271.638 122.095,271.948 122.142 M193.293 124.082 C 193.153 124.895,192.991 125.766,192.933 126.018 C 192.875 126.270,192.916 126.477,193.024 126.477 C 193.221 126.477,193.806 122.862,193.637 122.694 C 193.588 122.645,193.434 123.270,193.293 124.082 M205.798 123.523 C 206.034 125.692,206.177 126.477,206.340 126.477 C 206.568 126.477,206.569 126.479,206.104 124.440 C 205.888 123.488,205.750 123.075,205.798 123.523 M2.979 123.829 C 3.050 124.221,3.188 124.725,3.286 124.949 C 3.408 125.229,3.424 125.133,3.335 124.644 C 3.264 124.252,3.126 123.747,3.028 123.523 C 2.905 123.244,2.890 123.340,2.979 123.829 M3.491 125.662 C 3.491 125.830,3.570 126.151,3.666 126.375 C 3.776 126.631,3.841 126.669,3.841 126.477 C 3.841 126.309,3.762 125.988,3.666 125.764 C 3.556 125.507,3.491 125.469,3.491 125.662 M191.895 130.510 C 191.420 132.492,190.976 134.320,190.909 134.572 C 190.842 134.824,190.872 135.031,190.975 135.031 C 191.079 135.031,191.326 134.184,191.524 133.148 C 191.723 132.113,191.958 131.174,192.047 131.061 C 192.226 130.835,192.942 127.090,192.829 126.977 C 192.790 126.938,192.369 128.528,191.895 130.510 M57.653 128.231 C 67.343 142.314,86.875 150.864,102.946 148.057 C 103.622 147.939,104.954 147.705,105.906 147.537 C 108.044 147.160,112.016 146.036,112.016 145.807 C 112.016 145.715,111.627 145.777,111.151 145.945 C 92.927 152.379,70.662 145.244,58.503 129.073 C 57.063 127.159,56.599 126.698,57.653 128.231 M4.089 127.596 C 4.066 127.894,5.527 132.219,5.619 132.127 C 5.662 132.084,5.339 131.001,4.901 129.721 C 4.463 128.441,4.097 127.485,4.089 127.596 M206.739 128.123 C 206.708 128.682,207.177 130.846,207.377 131.059 C 207.496 131.186,207.513 130.968,207.423 130.476 C 207.204 129.286,206.760 127.757,206.739 128.123 M207.821 132.841 C 207.894 133.205,208.009 133.847,208.076 134.267 C 208.144 134.687,208.288 135.031,208.398 135.031 C 208.508 135.031,208.553 134.914,208.498 134.771 C 208.443 134.628,208.289 133.986,208.156 133.345 C 208.023 132.704,207.863 132.179,207.801 132.179 C 207.739 132.179,207.748 132.477,207.821 132.841 M5.806 132.790 C 7.031 136.850,12.307 146.919,16.050 152.342 C 29.491 171.815,47.875 185.068,70.149 191.344 C 73.086 192.172,78.165 193.327,78.449 193.232 C 78.560 193.196,76.966 192.779,74.909 192.307 C 44.272 185.280,18.271 163.284,6.722 134.623 C 5.881 132.536,5.497 131.767,5.806 132.790 M190.527 135.855 C 190.284 136.963,187.872 144.581,186.989 147.030 C 186.048 149.640,186.088 149.491,186.329 149.491 C 186.427 149.491,186.562 149.216,186.629 148.880 C 186.697 148.544,186.927 147.879,187.141 147.403 C 187.355 146.927,187.595 146.217,187.675 145.825 C 187.755 145.433,187.934 144.929,188.074 144.705 C 188.213 144.481,188.489 143.632,188.687 142.819 C 188.885 142.006,189.122 141.294,189.214 141.237 C 189.307 141.180,189.490 140.608,189.621 139.966 C 189.753 139.324,189.937 138.704,190.030 138.589 C 190.253 138.313,190.903 135.438,190.772 135.307 C 190.716 135.251,190.606 135.498,190.527 135.855 M208.574 135.476 C 208.526 135.810,209.212 138.410,209.397 138.595 C 209.533 138.731,209.553 138.595,209.456 138.187 C 209.243 137.298,208.598 135.312,208.574 135.476 M209.708 139.613 C 209.860 140.604,210.202 141.524,210.312 141.235 C 210.356 141.119,210.210 140.523,209.987 139.911 C 209.615 138.886,209.593 138.862,209.708 139.613 M210.606 142.221 C 210.570 142.617,211.087 144.334,211.354 144.705 C 211.634 145.094,211.640 145.089,211.496 144.603 C 211.210 143.634,210.620 142.058,210.606 142.221 M211.732 145.825 C 211.905 146.758,212.248 147.610,212.346 147.352 C 212.388 147.240,212.238 146.690,212.012 146.130 C 211.669 145.282,211.622 145.231,211.732 145.825 M212.535 147.963 C 212.601 148.187,212.707 148.623,212.769 148.931 C 212.831 149.239,212.962 149.491,213.060 149.491 C 213.308 149.491,213.267 149.307,212.811 148.371 C 212.593 147.923,212.469 147.739,212.535 147.963 M184.929 152.393 C 180.008 164.681,172.819 177.624,165.948 186.566 C 163.815 189.341,161.160 190.987,155.962 192.758 C 151.532 194.267,153.394 194.161,129.022 194.291 L 107.026 194.409 128.328 194.455 C 148.823 194.499,152.574 194.415,153.259 193.892 C 153.371 193.806,154.173 193.570,155.041 193.368 C 155.909 193.166,156.619 192.936,156.619 192.857 C 156.619 192.778,157.215 192.552,157.943 192.355 C 158.671 192.158,159.267 191.931,159.267 191.851 C 159.267 191.771,159.702 191.539,160.234 191.336 C 160.766 191.132,161.322 190.845,161.470 190.697 C 161.618 190.549,161.962 190.372,162.234 190.304 C 162.506 190.236,162.729 190.119,162.729 190.045 C 162.729 189.970,163.071 189.728,163.488 189.507 C 164.393 189.026,164.796 188.602,166.387 186.456 C 167.051 185.560,167.737 184.666,167.911 184.470 C 168.086 184.274,168.228 184.037,168.228 183.942 C 168.228 183.847,168.405 183.610,168.621 183.414 C 168.837 183.219,169.162 182.746,169.343 182.364 C 169.525 181.983,169.760 181.670,169.867 181.670 C 169.974 181.670,170.061 181.550,170.061 181.403 C 170.061 181.256,170.226 180.958,170.428 180.741 C 170.629 180.524,170.973 180.025,171.191 179.633 C 171.410 179.241,171.645 178.875,171.713 178.819 C 171.781 178.763,171.999 178.401,172.198 178.014 C 172.396 177.627,172.684 177.186,172.837 177.032 C 172.990 176.879,173.116 176.639,173.116 176.500 C 173.116 176.362,173.279 176.070,173.479 175.853 C 173.679 175.636,174.002 175.137,174.198 174.745 C 174.393 174.353,174.917 173.451,175.362 172.739 C 175.807 172.028,176.171 171.370,176.171 171.277 C 176.171 171.184,176.287 170.987,176.429 170.839 C 176.571 170.691,176.860 170.181,177.071 169.705 C 177.282 169.229,177.514 168.839,177.587 168.839 C 177.659 168.839,177.840 168.495,177.988 168.075 C 178.137 167.655,178.369 167.174,178.505 167.006 C 178.641 166.838,178.876 166.380,179.028 165.988 C 179.180 165.596,179.364 165.229,179.437 165.173 C 179.509 165.117,179.733 164.636,179.934 164.104 C 180.135 163.572,180.361 163.136,180.436 163.136 C 180.510 163.136,180.736 162.678,180.937 162.118 C 181.139 161.558,181.374 161.100,181.460 161.100 C 181.547 161.100,181.733 160.687,181.874 160.183 C 182.015 159.679,182.210 159.267,182.308 159.267 C 182.405 159.267,182.485 159.171,182.485 159.055 C 182.485 158.938,182.750 158.273,183.074 157.578 C 183.398 156.883,183.779 155.924,183.921 155.448 C 184.063 154.972,184.241 154.582,184.318 154.582 C 184.394 154.582,184.572 154.193,184.712 153.717 C 184.852 153.241,185.090 152.576,185.241 152.240 C 185.391 151.904,185.676 151.263,185.873 150.815 C 186.070 150.367,186.266 149.931,186.310 149.847 C 186.353 149.763,186.303 149.695,186.199 149.695 C 186.095 149.695,185.524 150.909,184.929 152.393 M213.079 149.847 C 213.250 150.180,213.797 151.447,213.926 151.811 C 214.001 152.023,214.104 152.155,214.156 152.104 C 214.295 151.964,213.367 149.695,213.170 149.695 C 213.077 149.695,213.036 149.763,213.079 149.847 M214.311 152.576 C 214.377 152.760,214.544 153.287,214.682 153.747 C 214.819 154.206,215.008 154.582,215.101 154.582 C 215.264 154.582,214.545 152.547,214.309 152.342 C 214.244 152.286,214.246 152.391,214.311 152.576 M215.275 154.828 C 215.275 155.065,215.927 156.768,216.403 157.775 C 216.679 158.357,216.904 158.932,216.904 159.051 C 216.904 159.169,216.997 159.267,217.111 159.267 C 217.234 159.267,217.202 159.000,217.031 158.605 C 216.874 158.241,216.450 157.256,216.089 156.415 C 215.459 154.949,215.275 154.590,215.275 154.828 M217.402 159.744 C 217.465 159.950,217.572 160.340,217.640 160.610 C 217.708 160.879,217.845 161.100,217.945 161.100 C 218.211 161.100,218.157 160.878,217.698 160.081 C 217.472 159.689,217.338 159.538,217.402 159.744 M218.422 162.016 C 218.509 162.240,218.626 162.584,218.682 162.780 C 218.739 162.976,218.868 163.136,218.970 163.136 C 219.072 163.136,219.004 162.839,218.818 162.475 C 218.422 161.695,218.198 161.436,218.422 162.016 M219.441 164.053 C 219.527 164.277,219.644 164.621,219.701 164.817 C 219.757 165.013,219.886 165.173,219.988 165.173 C 220.090 165.173,220.022 164.875,219.837 164.511 C 219.440 163.732,219.217 163.473,219.441 164.053 M220.163 165.420 C 220.163 165.703,220.792 166.993,220.990 167.115 C 221.111 167.191,221.010 166.853,220.764 166.365 C 220.300 165.447,220.163 165.230,220.163 165.420 M221.287 167.719 C 221.366 167.943,221.477 168.287,221.534 168.483 C 221.590 168.679,221.703 168.839,221.785 168.839 C 221.867 168.839,222.107 169.229,222.318 169.705 C 222.529 170.181,222.818 170.691,222.960 170.839 C 223.102 170.987,223.218 171.183,223.218 171.273 C 223.218 171.498,224.592 173.764,224.887 174.025 C 225.018 174.141,224.986 174.007,224.815 173.727 C 224.644 173.447,223.925 172.164,223.217 170.876 C 221.786 168.275,221.069 167.101,221.287 167.719 M225.137 174.542 C 225.202 174.710,225.311 175.008,225.380 175.204 C 225.449 175.400,225.590 175.560,225.693 175.560 C 225.878 175.560,225.700 175.156,225.246 174.542 C 225.045 174.270,225.033 174.270,225.137 174.542 M226.283 176.477 C 226.278 176.779,226.641 177.296,226.769 177.169 C 226.830 177.108,226.746 176.881,226.583 176.665 C 226.419 176.450,226.284 176.365,226.283 176.477 M227.223 178.055 C 227.414 178.475,227.648 178.819,227.743 178.819 C 227.937 178.819,227.693 178.317,227.200 177.699 C 226.924 177.352,226.927 177.406,227.223 178.055 M227.902 179.131 C 227.902 179.296,228.564 180.294,228.970 180.741 C 229.167 180.958,229.328 181.246,229.328 181.381 C 229.328 181.516,229.464 181.679,229.630 181.742 C 229.796 181.806,229.508 181.220,228.989 180.440 C 228.104 179.110,227.902 178.866,227.902 179.131 M229.939 182.197 C 229.939 182.308,230.210 182.716,230.542 183.103 C 230.873 183.491,231.148 183.913,231.153 184.041 C 231.157 184.169,231.306 184.330,231.484 184.398 C 231.672 184.470,231.486 184.074,231.041 183.453 C 230.065 182.089,229.939 181.945,229.939 182.197 M231.772 184.761 C 231.772 185.213,234.940 188.978,235.658 189.379 C 235.929 189.531,235.727 189.256,235.208 188.768 C 234.690 188.281,233.780 187.240,233.186 186.456 C 231.910 184.772,231.772 184.606,231.772 184.761 M238.086 190.794 C 238.086 190.953,239.333 191.489,239.444 191.377 C 239.478 191.343,239.186 191.163,238.796 190.977 C 238.405 190.790,238.086 190.708,238.086 190.794 M240.122 191.842 C 240.122 192.028,241.134 192.335,241.277 192.192 C 241.325 192.144,241.085 192.007,240.744 191.888 C 240.402 191.768,240.122 191.748,240.122 191.842 M242.770 192.859 C 242.770 193.020,243.823 193.309,243.951 193.183 C 243.985 193.150,243.733 193.025,243.391 192.906 C 243.049 192.787,242.770 192.765,242.770 192.859 M246.137 193.862 C 246.245 193.963,246.792 194.099,247.352 194.164 C 247.985 194.238,248.178 194.221,247.862 194.120 C 246.925 193.820,245.932 193.672,246.137 193.862 M102.121 194.733 C 101.979 194.963,104.667 194.933,105.193 194.698 C 105.469 194.576,105.054 194.524,103.915 194.538 C 102.987 194.549,102.180 194.637,102.121 194.733 M81.380 206.034 C 81.053 206.215,80.686 206.449,80.565 206.553 C 80.283 206.798,79.129 207.425,78.157 207.864 C 77.737 208.053,77.393 208.279,77.393 208.364 C 77.393 208.450,76.981 208.678,76.477 208.870 C 75.973 209.063,75.560 209.292,75.560 209.379 C 75.560 209.467,75.148 209.696,74.644 209.889 C 74.140 210.081,73.727 210.312,73.727 210.401 C 73.727 210.491,73.406 210.680,73.014 210.822 C 72.622 210.964,72.301 211.144,72.301 211.222 C 72.301 211.301,71.889 211.534,71.386 211.742 C 70.882 211.949,70.470 212.173,70.469 212.240 C 70.469 212.307,70.079 212.534,69.603 212.743 C 69.127 212.953,68.691 213.180,68.635 213.247 C 68.579 213.314,67.800 213.769,66.904 214.257 C 66.008 214.745,65.229 215.196,65.173 215.260 C 65.117 215.324,64.751 215.543,64.358 215.745 C 63.966 215.948,63.187 216.380,62.627 216.706 C 62.067 217.032,61.265 217.453,60.845 217.642 C 60.425 217.830,60.081 218.099,60.081 218.240 C 60.081 218.551,64.133 218.402,64.460 218.079 C 64.594 217.947,63.966 217.923,62.627 218.009 C 61.323 218.093,60.700 218.071,60.896 217.948 C 61.064 217.842,63.951 216.206,67.312 214.312 C 70.672 212.419,75.407 209.747,77.833 208.374 L 82.244 205.879 110.114 205.965 C 139.227 206.054,140.779 206.095,150.175 207.031 C 155.988 207.610,155.745 207.596,155.489 207.351 C 155.382 207.250,153.783 207.049,151.935 206.906 C 150.087 206.763,148.529 206.584,148.473 206.509 C 147.941 205.792,82.650 205.330,81.380 206.034 M258.607 206.050 C 258.861 206.099,259.227 206.097,259.422 206.046 C 259.617 205.995,259.409 205.955,258.961 205.958 C 258.513 205.960,258.354 206.002,258.607 206.050 M252.597 206.262 C 251.673 206.299,250.916 206.408,250.916 206.502 C 250.916 206.672,252.229 206.616,255.193 206.318 C 256.942 206.142,256.015 206.122,252.597 206.262 M245.112 207.075 C 244.552 207.118,244.017 207.229,243.923 207.321 C 243.738 207.504,245.288 207.383,246.436 207.126 C 247.204 206.953,246.883 206.941,245.112 207.075 M155.821 207.619 C 155.868 207.664,156.960 207.854,158.248 208.041 C 164.299 208.916,170.095 210.605,173.228 212.405 C 177.542 214.884,186.336 224.863,189.811 231.222 C 190.289 232.095,190.718 232.772,190.765 232.725 C 190.878 232.611,190.396 231.535,190.086 231.210 C 189.952 231.068,189.726 230.633,189.585 230.242 C 189.443 229.851,189.257 229.532,189.170 229.532 C 189.083 229.532,188.860 229.234,188.673 228.870 C 188.487 228.506,188.278 228.162,188.210 228.106 C 188.141 228.050,187.948 227.729,187.780 227.393 C 187.612 227.057,187.314 226.662,187.118 226.516 C 186.922 226.370,186.762 226.158,186.762 226.046 C 186.762 225.880,185.731 224.426,185.335 224.033 C 185.279 223.977,184.684 223.243,184.014 222.403 C 183.344 221.563,182.382 220.447,181.876 219.922 C 181.371 219.398,180.489 218.481,179.918 217.885 C 179.346 217.290,178.120 216.115,177.193 215.275 C 176.266 214.435,175.358 213.610,175.175 213.442 C 174.300 212.635,171.131 210.927,170.083 210.697 C 169.735 210.621,169.450 210.489,169.450 210.404 C 169.450 210.319,168.717 210.082,167.821 209.878 C 166.925 209.673,166.191 209.443,166.191 209.366 C 166.191 209.290,165.252 209.062,164.104 208.861 C 162.956 208.659,161.879 208.419,161.711 208.328 C 161.201 208.051,155.571 207.373,155.821 207.619 M238.493 208.092 C 238.101 208.138,237.696 208.257,237.594 208.357 C 237.400 208.547,238.598 208.406,239.511 208.131 C 240.081 207.960,239.732 207.946,238.493 208.092 M233.758 209.107 C 233.450 209.154,233.198 209.270,233.198 209.366 C 233.198 209.511,234.163 209.344,234.929 209.067 C 235.189 208.973,234.486 208.997,233.758 209.107 M230.397 210.123 C 230.145 210.172,229.939 210.292,229.939 210.391 C 229.939 210.489,230.237 210.469,230.601 210.346 C 231.662 209.988,231.577 209.896,230.397 210.123 M228.196 211.111 C 227.807 211.423,227.807 211.425,228.208 211.240 C 228.432 211.137,228.753 211.002,228.921 210.940 C 229.184 210.842,229.183 210.824,228.909 210.810 C 228.734 210.802,228.413 210.937,228.196 211.111 M226.426 211.929 C 225.636 212.358,225.725 212.505,226.527 212.097 C 227.295 211.707,227.431 211.606,227.172 211.617 C 227.070 211.622,226.734 211.762,226.426 211.929 M225.153 212.737 C 223.838 213.706,222.200 215.163,222.200 215.361 C 222.200 215.464,224.243 213.779,225.550 212.598 C 225.861 212.317,225.596 212.410,225.153 212.737 M220.468 216.868 C 219.796 217.515,219.020 218.315,218.743 218.645 C 218.466 218.976,219.039 218.469,220.016 217.520 C 221.638 215.943,221.893 215.672,221.741 215.687 C 221.713 215.690,221.141 216.222,220.468 216.868 M68.801 217.871 C 70.516 217.905,73.265 217.905,74.911 217.871 C 76.556 217.837,75.153 217.809,71.792 217.809 C 68.432 217.809,67.086 217.837,68.801 217.871 M79.124 218.126 C 79.193 218.238,79.909 218.330,80.715 218.331 C 81.520 218.332,83.772 218.472,85.719 218.644 C 89.095 218.941,90.732 218.949,88.244 218.656 C 83.293 218.074,78.935 217.821,79.124 218.126 M89.919 219.092 C 90.125 219.293,94.683 219.845,94.841 219.687 C 94.917 219.611,93.491 219.383,90.631 219.012 C 90.035 218.935,89.786 218.963,89.919 219.092 M217.299 220.133 C 216.900 220.558,216.030 221.586,215.365 222.418 C 214.700 223.250,214.110 223.977,214.054 224.033 C 213.631 224.452,212.605 225.911,212.680 225.986 C 212.732 226.038,213.309 225.368,213.963 224.499 C 214.618 223.630,215.708 222.275,216.385 221.488 C 217.827 219.815,218.204 219.346,218.100 219.355 C 218.059 219.359,217.698 219.709,217.299 220.133 M95.224 219.926 C 95.430 220.107,100.019 220.823,100.147 220.694 C 100.230 220.612,95.814 219.751,95.326 219.754 C 95.149 219.755,95.108 219.824,95.224 219.926 M100.407 220.919 C 100.407 221.074,101.383 221.264,104.379 221.693 C 105.188 221.809,102.259 221.051,101.217 220.875 C 100.772 220.800,100.407 220.819,100.407 220.919 M105.092 221.956 C 105.092 222.119,108.567 222.865,108.701 222.731 C 108.763 222.670,105.491 221.792,105.201 221.792 C 105.141 221.792,105.092 221.866,105.092 221.956 M109.046 222.987 C 109.106 223.084,109.730 223.275,110.433 223.412 C 111.136 223.549,111.986 223.786,112.322 223.940 C 112.658 224.093,113.391 224.329,113.951 224.464 C 114.511 224.599,115.015 224.771,115.071 224.847 C 115.190 225.006,117.776 225.673,117.879 225.570 C 118.009 225.440,109.668 222.811,109.126 222.811 C 109.022 222.811,108.986 222.890,109.046 222.987 M118.126 225.797 C 118.126 225.967,120.602 226.710,120.736 226.580 C 120.771 226.546,120.313 226.358,119.718 226.162 C 119.123 225.966,118.521 225.764,118.381 225.712 C 118.241 225.661,118.126 225.699,118.126 225.797 M212.220 226.538 C 211.850 226.843,211.343 227.705,211.463 227.824 C 211.511 227.872,211.793 227.542,212.091 227.092 C 212.675 226.210,212.689 226.151,212.220 226.538 M120.978 226.828 C 120.978 226.924,121.367 227.108,121.843 227.235 C 122.319 227.363,122.892 227.521,123.116 227.586 C 123.340 227.651,123.157 227.529,122.709 227.316 C 121.613 226.795,120.978 226.616,120.978 226.828 M123.625 227.850 C 123.625 227.948,124.084 228.146,124.644 228.290 C 125.204 228.433,125.662 228.622,125.662 228.709 C 125.662 228.796,126.082 228.985,126.595 229.129 C 127.108 229.273,127.635 229.497,127.766 229.628 C 128.023 229.885,129.961 230.595,130.081 230.476 C 130.155 230.401,124.900 228.068,124.084 227.814 C 123.831 227.735,123.625 227.752,123.625 227.850 M210.831 228.615 C 210.704 228.895,210.633 229.124,210.673 229.124 C 210.714 229.124,210.898 228.895,211.081 228.615 C 211.265 228.335,211.336 228.106,211.239 228.106 C 211.142 228.106,210.959 228.335,210.831 228.615 M210.280 229.484 C 210.164 229.566,209.898 230.023,209.688 230.499 C 209.479 230.975,209.240 231.365,209.158 231.365 C 209.076 231.365,208.963 231.525,208.906 231.721 C 208.850 231.917,208.736 232.261,208.654 232.485 L 208.504 232.892 208.799 232.485 C 209.156 231.991,210.635 229.327,210.550 229.331 C 210.516 229.333,210.395 229.401,210.280 229.484 M130.346 230.718 C 130.346 230.805,130.804 231.042,131.365 231.243 C 131.925 231.444,132.383 231.692,132.383 231.792 C 132.383 231.893,132.491 231.976,132.622 231.976 C 132.873 231.976,135.872 233.399,136.049 233.601 C 136.105 233.665,136.563 233.897,137.067 234.116 C 137.571 234.335,138.097 234.623,138.236 234.756 C 138.375 234.889,138.811 235.104,139.204 235.234 C 139.597 235.363,139.919 235.548,139.919 235.644 C 139.919 235.739,140.110 235.878,140.343 235.953 C 140.789 236.094,142.798 237.278,142.974 237.502 C 143.030 237.574,143.419 237.776,143.839 237.950 C 144.259 238.125,144.603 238.365,144.603 238.482 C 144.603 238.600,144.721 238.697,144.864 238.697 C 145.155 238.697,147.148 239.899,147.717 240.417 C 147.917 240.600,148.307 240.852,148.582 240.978 C 148.858 241.103,149.084 241.268,149.084 241.344 C 149.084 241.420,149.336 241.597,149.644 241.737 C 149.952 241.878,150.341 242.124,150.509 242.286 C 150.677 242.447,151.408 242.966,152.132 243.438 C 152.857 243.911,153.608 244.435,153.800 244.603 C 153.992 244.771,154.393 245.092,154.691 245.316 C 154.989 245.540,155.467 245.929,155.752 246.181 C 156.038 246.433,156.327 246.640,156.394 246.640 C 156.462 246.640,156.762 246.846,157.062 247.098 C 157.362 247.350,157.901 247.785,158.262 248.065 C 158.996 248.636,159.706 249.227,160.549 249.970 C 160.862 250.246,161.458 250.748,161.873 251.086 C 162.288 251.425,163.130 252.143,163.743 252.684 C 165.375 254.119,173.844 262.629,175.153 264.147 C 175.769 264.862,176.662 265.875,177.138 266.400 C 177.615 266.925,178.004 267.459,178.004 267.587 C 178.004 267.716,178.089 267.821,178.193 267.821 C 178.297 267.821,178.962 268.564,179.670 269.472 C 180.378 270.380,181.393 271.653,181.925 272.302 C 182.457 272.951,182.892 273.582,182.892 273.706 C 182.892 273.830,182.981 273.931,183.090 273.931 C 183.200 273.931,183.427 274.197,183.595 274.522 C 183.763 274.848,184.018 275.240,184.160 275.393 C 184.782 276.062,185.743 277.387,185.743 277.575 C 185.743 277.688,185.858 277.853,185.998 277.943 C 186.296 278.134,186.723 278.770,186.893 279.277 C 186.959 279.473,187.089 279.633,187.182 279.633 C 187.275 279.633,187.470 279.851,187.616 280.118 C 187.762 280.384,188.248 281.140,188.696 281.798 C 189.143 282.456,189.556 283.086,189.612 283.198 C 189.669 283.310,189.967 283.789,190.275 284.263 C 190.583 284.737,190.835 285.218,190.835 285.332 C 190.835 285.446,190.925 285.540,191.036 285.540 C 191.146 285.540,191.376 285.838,191.546 286.202 C 191.716 286.566,192.125 287.276,192.455 287.780 C 192.785 288.284,193.207 288.994,193.394 289.358 C 194.319 291.166,194.304 291.593,194.242 265.326 C 194.209 251.744,194.131 240.494,194.067 240.326 C 194.004 240.158,193.896 239.883,193.829 239.715 C 193.762 239.547,193.603 239.005,193.476 238.511 C 193.349 238.017,193.124 237.422,192.975 237.187 C 192.825 236.953,192.589 236.372,192.450 235.896 C 192.310 235.420,192.137 235.031,192.065 235.031 C 191.993 235.031,191.769 234.572,191.568 234.012 C 191.366 233.452,191.118 232.994,191.016 232.994 C 190.820 232.994,190.962 233.364,192.117 235.863 C 192.510 236.714,193.116 238.296,193.463 239.379 L 194.094 241.349 194.094 265.525 C 194.094 285.750,194.049 289.652,193.821 289.402 C 193.670 289.238,192.966 288.142,192.255 286.965 C 180.728 267.896,165.616 251.924,148.269 240.474 C 142.146 236.432,130.346 230.010,130.346 230.718 M207.874 233.845 C 207.423 234.994,207.559 235.030,208.106 233.906 C 208.349 233.404,208.472 232.994,208.379 232.994 C 208.285 232.994,208.058 233.377,207.874 233.845 M207.035 235.591 C 206.960 235.899,206.685 236.609,206.425 237.169 C 205.985 238.117,205.524 239.741,205.760 239.511 C 205.817 239.455,206.181 238.585,206.568 237.576 C 206.955 236.568,207.341 235.583,207.425 235.387 C 207.514 235.183,207.492 235.031,207.376 235.031 C 207.264 235.031,207.111 235.283,207.035 235.591 M205.483 239.732 C 205.475 239.779,205.409 240.000,205.337 240.224 C 205.265 240.448,205.180 251.744,205.147 265.326 C 205.086 291.244,205.081 291.103,205.920 289.460 C 206.211 288.891,206.414 288.562,207.432 287.013 C 207.746 286.535,207.954 286.093,207.893 286.033 C 207.832 285.972,207.309 286.704,206.732 287.660 C 206.155 288.616,205.595 289.452,205.489 289.518 C 205.205 289.693,205.231 241.686,205.515 240.663 C 205.635 240.233,205.680 239.828,205.616 239.764 C 205.551 239.699,205.492 239.685,205.483 239.732 M249.695 241.558 L 249.185 241.966 249.745 241.724 C 250.053 241.591,250.305 241.406,250.305 241.312 C 250.305 241.079,250.277 241.091,249.695 241.558 M248.269 242.576 L 247.760 242.985 248.320 242.743 C 248.628 242.610,248.880 242.424,248.880 242.330 C 248.880 242.098,248.852 242.109,248.269 242.576 M246.945 243.501 L 246.334 244.026 246.996 243.587 C 247.360 243.347,247.658 243.110,247.658 243.061 C 247.658 242.909,247.572 242.962,246.945 243.501 M242.974 246.446 L 242.261 247.056 242.919 246.695 C 243.282 246.496,243.623 246.219,243.677 246.079 C 243.810 245.737,243.791 245.746,242.974 246.446 M238.070 250.442 L 237.576 250.986 238.130 250.595 C 238.435 250.380,238.687 250.135,238.690 250.051 C 238.701 249.800,238.589 249.871,238.070 250.442 M236.848 251.460 L 236.354 252.004 236.908 251.613 C 237.213 251.398,237.465 251.153,237.468 251.069 C 237.479 250.818,237.367 250.889,236.848 251.460 M235.268 252.902 L 234.503 253.666 235.225 253.056 C 235.622 252.720,236.034 252.376,236.141 252.292 C 236.247 252.207,236.266 252.138,236.184 252.138 C 236.101 252.138,235.689 252.482,235.268 252.902 M229.861 258.032 C 227.612 260.265,225.816 262.123,225.870 262.160 C 225.924 262.196,227.817 260.369,230.077 258.099 C 232.337 255.829,234.133 253.971,234.068 253.971 C 234.003 253.971,232.110 255.799,229.861 258.032 M224.542 263.544 C 224.104 263.992,223.841 264.358,223.957 264.358 C 224.073 264.358,224.463 263.992,224.823 263.544 C 225.183 263.096,225.446 262.729,225.407 262.729 C 225.369 262.729,224.979 263.096,224.542 263.544 M222.269 266.141 C 221.112 267.453,217.631 271.750,216.409 273.375 C 216.021 273.891,215.940 274.101,216.164 274.015 C 216.347 273.945,216.497 273.796,216.497 273.684 C 216.497 273.573,216.932 272.951,217.464 272.302 C 217.996 271.653,219.011 270.380,219.719 269.472 C 220.427 268.564,221.092 267.821,221.196 267.821 C 221.300 267.821,221.385 267.699,221.385 267.551 C 221.385 267.402,221.623 267.059,221.914 266.787 C 222.504 266.237,223.709 264.766,223.570 264.766 C 223.521 264.766,222.936 265.384,222.269 266.141 M214.541 275.916 C 213.905 276.785,213.295 277.609,213.185 277.749 C 213.050 277.922,213.061 278.004,213.220 278.004 C 213.349 278.004,213.514 277.844,213.587 277.648 C 213.713 277.310,214.672 275.993,215.225 275.396 C 215.548 275.049,215.934 274.338,215.799 274.338 C 215.744 274.338,215.178 275.048,214.541 275.916 M210.538 281.708 C 207.738 285.938,207.836 285.772,208.238 285.617 C 208.412 285.551,208.554 285.412,208.554 285.310 C 208.554 285.208,208.806 284.737,209.114 284.263 C 209.422 283.789,209.720 283.310,209.777 283.198 C 209.833 283.086,210.246 282.456,210.693 281.798 C 211.141 281.140,211.627 280.384,211.773 280.118 C 211.919 279.851,212.125 279.633,212.231 279.633 C 212.337 279.633,212.424 279.526,212.424 279.395 C 212.424 279.264,212.576 278.988,212.762 278.783 C 212.948 278.577,213.049 278.358,212.986 278.295 C 212.924 278.233,211.822 279.768,210.538 281.708 " stroke="none" fill="#70345d" fill-rule="evenodd"></path><path id="path8" d="M300.162 0.152 C 301.092 0.190,302.558 0.189,303.421 0.151 C 304.284 0.113,303.523 0.082,301.731 0.082 C 299.939 0.083,299.233 0.114,300.162 0.152 M322.525 0.153 L 330.692 0.208 333.719 3.312 C 335.384 5.019,341.791 11.551,347.956 17.827 C 374.365 44.714,377.393 47.821,377.393 48.034 C 377.393 48.196,366.429 48.277,337.831 48.325 C 298.321 48.393,298.266 48.394,296.029 48.831 C 282.405 51.492,271.082 58.944,263.865 69.999 C 262.573 71.978,259.669 77.332,259.678 77.719 C 259.681 77.820,260.362 76.596,261.192 74.999 C 267.885 62.118,278.073 53.908,292.326 49.908 C 297.361 48.496,294.075 48.598,338.086 48.478 C 375.245 48.377,377.699 48.349,377.699 48.023 C 377.699 47.832,375.224 45.172,372.200 42.112 C 369.175 39.052,364.318 34.118,361.405 31.148 C 358.493 28.178,350.387 19.955,343.391 12.874 L 330.673 -0.000 322.516 0.049 L 314.358 0.097 322.525 0.153 M295.672 0.353 C 296.148 0.396,296.927 0.396,297.403 0.353 C 297.879 0.310,297.490 0.275,296.538 0.275 C 295.586 0.275,295.196 0.310,295.672 0.353 M240.408 0.866 C 240.021 1.323,240.021 1.323,240.443 0.968 C 240.840 0.634,242.499 0.609,267.530 0.560 L 294.196 0.508 267.496 0.457 L 240.796 0.407 240.408 0.866 M346.114 73.462 L 317.380 73.525 313.324 77.657 C 311.092 79.930,304.414 86.735,298.482 92.779 C 292.550 98.823,285.615 105.876,283.071 108.452 C 274.789 116.839,270.572 121.221,270.504 121.510 C 270.359 122.134,272.088 122.165,308.538 122.183 C 328.972 122.193,345.736 122.246,345.790 122.301 C 345.845 122.355,345.265 123.340,344.501 124.489 C 332.540 142.489,311.009 150.609,290.937 144.690 C 289.929 144.392,288.943 144.103,288.747 144.047 C 288.551 143.990,288.391 144.027,288.391 144.127 C 288.391 144.336,292.385 145.443,294.807 145.905 C 312.550 149.291,329.838 143.054,341.485 129.065 C 343.691 126.415,346.314 122.404,346.028 122.117 C 345.868 121.957,335.138 121.879,308.238 121.841 C 285.989 121.810,270.672 121.713,270.672 121.604 C 270.672 121.502,274.269 117.764,278.666 113.298 C 283.063 108.831,293.617 98.100,302.120 89.451 L 317.580 73.725 358.790 73.777 C 381.456 73.806,400.000 73.760,400.000 73.676 C 400.000 73.592,399.840 73.527,399.644 73.532 C 399.448 73.537,393.788 73.509,387.067 73.470 C 380.346 73.432,361.917 73.428,346.114 73.462 M259.300 78.522 C 258.959 79.271,259.024 79.431,259.393 78.750 C 259.565 78.432,259.668 78.134,259.621 78.087 C 259.575 78.040,259.430 78.236,259.300 78.522 M258.678 80.063 C 258.382 80.913,258.524 81.055,258.859 80.244 C 259.002 79.901,259.070 79.573,259.012 79.515 C 258.954 79.457,258.804 79.703,258.678 80.063 M258.068 81.690 C 257.943 82.049,257.848 82.443,257.855 82.566 C 257.863 82.689,258.001 82.432,258.162 81.993 C 258.322 81.555,258.418 81.161,258.375 81.117 C 258.331 81.074,258.193 81.332,258.068 81.690 M257.164 84.773 C 256.976 85.521,256.831 86.251,256.841 86.396 C 256.851 86.541,257.032 86.018,257.244 85.234 C 257.455 84.450,257.600 83.720,257.567 83.611 C 257.533 83.502,257.352 84.025,257.164 84.773 M256.060 90.733 C 256.062 91.181,256.103 91.341,256.152 91.087 C 256.201 90.834,256.199 90.467,256.148 90.273 C 256.097 90.078,256.057 90.285,256.060 90.733 M255.863 92.566 C 255.864 93.126,255.904 93.331,255.951 93.022 C 255.997 92.712,255.996 92.254,255.948 92.003 C 255.900 91.753,255.861 92.006,255.863 92.566 M255.684 97.454 C 255.684 99.358,255.715 100.165,255.752 99.246 C 255.790 98.328,255.790 96.770,255.753 95.784 C 255.715 94.798,255.684 95.550,255.684 97.454 M255.863 102.342 C 255.864 102.902,255.904 103.107,255.951 102.798 C 255.997 102.488,255.996 102.030,255.948 101.779 C 255.900 101.529,255.861 101.782,255.863 102.342 M399.732 104.430 C 398.087 140.499,373.056 174.811,338.493 188.375 C 333.280 190.420,324.394 193.075,322.761 193.075 C 322.551 193.075,322.431 193.158,322.493 193.260 C 322.626 193.475,322.395 193.518,326.578 192.482 C 365.040 182.956,394.159 150.197,399.500 110.445 C 399.819 108.074,400.155 101.629,399.960 101.629 C 399.905 101.629,399.802 102.890,399.732 104.430 M256.055 104.277 C 256.055 104.669,256.097 104.829,256.149 104.633 C 256.200 104.437,256.200 104.117,256.149 103.921 C 256.097 103.725,256.055 103.885,256.055 104.277 M256.221 105.516 C 256.226 105.787,256.361 106.558,256.523 107.230 C 256.780 108.303,256.804 108.340,256.718 107.536 C 256.516 105.638,256.200 104.355,256.221 105.516 M259.715 124.949 C 259.715 125.173,259.788 125.586,259.878 125.866 C 260.007 126.269,260.041 126.290,260.041 125.967 C 260.041 125.743,259.967 125.331,259.878 125.051 C 259.749 124.648,259.715 124.627,259.715 124.949 M260.304 127.449 C 260.276 127.840,261.570 132.909,261.640 132.682 C 261.672 132.573,261.390 131.293,261.011 129.837 C 260.632 128.381,260.314 127.306,260.304 127.449 M261.943 134.012 C 261.943 134.180,262.022 134.501,262.118 134.725 C 262.228 134.982,262.293 135.019,262.293 134.827 C 262.293 134.659,262.214 134.338,262.118 134.114 C 262.008 133.857,261.943 133.820,261.943 134.012 M262.350 135.438 C 262.350 135.606,262.429 135.927,262.525 136.151 C 262.636 136.407,262.700 136.445,262.700 136.253 C 262.700 136.085,262.622 135.764,262.525 135.540 C 262.415 135.283,262.350 135.245,262.350 135.438 M262.760 136.864 C 262.760 137.032,262.884 137.490,263.035 137.882 C 263.186 138.274,263.309 138.457,263.309 138.289 C 263.309 138.121,263.186 137.663,263.035 137.271 C 262.884 136.879,262.760 136.696,262.760 136.864 M263.371 138.900 C 263.371 139.068,263.495 139.526,263.646 139.919 C 263.797 140.311,263.920 140.494,263.920 140.326 C 263.920 140.158,263.797 139.700,263.646 139.308 C 263.495 138.915,263.371 138.732,263.371 138.900 M264.374 142.068 C 264.352 142.373,265.202 144.846,265.296 144.751 C 265.339 144.709,265.152 144.039,264.881 143.263 C 264.610 142.488,264.382 141.950,264.374 142.068 M265.427 145.265 C 265.479 145.405,265.681 146.006,265.877 146.602 C 266.073 147.197,266.269 147.648,266.313 147.605 C 266.416 147.501,265.576 145.010,265.438 145.010 C 265.380 145.010,265.375 145.125,265.427 145.265 M267.006 149.557 C 267.006 149.813,268.075 152.359,268.151 152.283 C 268.193 152.241,267.989 151.619,267.698 150.900 C 267.183 149.627,267.006 149.284,267.006 149.557 M286.151 182.956 C 286.151 182.991,286.449 183.289,286.813 183.618 L 287.475 184.216 286.876 183.554 C 286.319 182.937,286.151 182.798,286.151 182.956 M311.813 182.956 C 311.813 182.991,312.110 183.289,312.475 183.618 L 313.136 184.216 312.538 183.554 C 311.981 182.937,311.813 182.798,311.813 182.956 M290.224 187.271 C 291.621 188.671,292.810 189.817,292.866 189.817 C 292.922 189.817,291.825 188.671,290.428 187.271 C 289.031 185.871,287.842 184.725,287.786 184.725 C 287.730 184.725,288.827 185.871,290.224 187.271 M318.534 189.677 C 318.534 189.712,318.831 190.010,319.196 190.339 L 319.857 190.937 319.259 190.275 C 318.702 189.658,318.534 189.519,318.534 189.677 M242.159 192.430 C 242.327 192.534,242.693 192.680,242.974 192.755 C 243.327 192.850,243.390 192.834,243.177 192.702 C 243.009 192.599,242.643 192.452,242.363 192.377 C 242.009 192.283,241.947 192.299,242.159 192.430 M244.913 193.361 C 245.363 193.511,246.051 193.688,246.440 193.755 C 247.116 193.871,247.111 193.864,246.330 193.604 C 245.879 193.454,245.192 193.277,244.802 193.210 C 244.127 193.094,244.132 193.101,244.913 193.361 M249.491 194.333 C 249.995 194.409,261.176 194.458,274.338 194.441 C 287.500 194.425,297.077 194.387,295.621 194.356 C 289.517 194.227,248.651 194.207,249.491 194.333 M261.329 205.929 C 259.271 206.019,257.530 206.154,257.459 206.229 C 257.389 206.304,258.478 206.305,259.878 206.231 C 261.278 206.157,274.687 206.046,289.675 205.985 L 316.927 205.874 323.077 209.317 C 331.651 214.118,338.467 218.014,338.403 218.080 C 338.373 218.110,337.442 218.023,336.333 217.887 C 328.815 216.965,312.097 218.044,301.222 220.154 C 290.738 222.189,280.152 225.484,270.601 229.687 C 266.748 231.383,256.008 237.064,256.008 237.406 C 256.008 237.457,256.077 237.458,256.161 237.409 C 259.339 235.548,265.889 232.143,269.145 230.661 C 269.817 230.355,270.733 229.937,271.181 229.734 C 271.629 229.530,272.385 229.249,272.862 229.110 C 273.338 228.970,273.727 228.793,273.727 228.717 C 273.727 228.640,274.117 228.462,274.593 228.321 C 275.069 228.179,275.550 227.994,275.662 227.908 C 275.774 227.823,276.370 227.591,276.986 227.393 C 277.602 227.195,278.198 226.966,278.310 226.884 C 278.422 226.801,278.880 226.623,279.328 226.488 C 279.776 226.353,280.280 226.188,280.448 226.122 C 280.616 226.056,280.799 225.987,280.855 225.968 C 280.911 225.949,281.186 225.838,281.466 225.722 C 281.746 225.605,282.296 225.442,282.688 225.359 C 283.080 225.276,283.516 225.115,283.656 225.002 C 283.796 224.890,283.910 224.866,283.910 224.949 C 283.910 225.033,284.025 225.010,284.165 224.899 C 284.305 224.788,284.924 224.581,285.540 224.440 C 286.156 224.299,286.753 224.110,286.867 224.020 C 286.982 223.930,287.715 223.707,288.497 223.524 C 289.279 223.340,290.061 223.115,290.236 223.023 C 290.411 222.931,291.281 222.702,292.171 222.513 C 293.060 222.325,293.971 222.089,294.196 221.988 C 294.575 221.817,295.701 221.576,300.916 220.546 C 302.037 220.325,303.136 220.102,303.360 220.052 C 305.233 219.628,312.826 218.681,317.312 218.313 C 321.137 217.998,334.342 217.846,335.027 218.109 C 335.746 218.385,338.983 218.480,339.081 218.228 C 339.125 218.116,338.804 217.853,338.368 217.644 C 337.933 217.435,337.531 217.193,337.475 217.107 C 337.419 217.021,337.052 216.798,336.660 216.613 C 336.268 216.427,335.489 216.010,334.929 215.685 C 334.369 215.361,333.590 214.930,333.198 214.727 C 332.805 214.524,332.439 214.307,332.383 214.245 C 332.327 214.182,330.818 213.320,329.031 212.329 C 327.243 211.338,325.685 210.450,325.569 210.355 C 325.452 210.261,324.623 209.804,323.727 209.341 C 322.831 208.877,322.052 208.442,321.996 208.373 C 321.940 208.305,321.573 208.082,321.181 207.878 C 319.651 207.083,319.034 206.735,318.809 206.540 C 317.822 205.683,318.459 205.701,291.065 205.734 C 276.768 205.751,263.387 205.838,261.329 205.929 M252.645 206.542 C 250.403 206.730,248.341 206.933,248.062 206.992 C 247.346 207.146,251.286 206.936,253.360 206.709 C 254.313 206.606,255.522 206.520,256.047 206.519 C 256.573 206.518,257.050 206.441,257.107 206.348 C 257.234 206.143,257.601 206.127,252.645 206.542 M246.487 207.269 C 246.683 207.320,247.004 207.320,247.200 207.269 C 247.396 207.217,247.235 207.176,246.843 207.176 C 246.451 207.176,246.291 207.217,246.487 207.269 M241.752 207.794 C 241.023 207.908,240.522 208.035,240.638 208.076 C 240.754 208.117,241.670 208.023,242.675 207.866 C 243.679 207.710,244.180 207.583,243.788 207.585 C 243.396 207.586,242.480 207.681,241.752 207.794 M236.660 208.758 C 235.975 208.977,236.715 208.977,237.576 208.758 C 238.125 208.618,238.136 208.602,237.678 208.598 C 237.398 208.596,236.940 208.668,236.660 208.758 M253.859 238.612 C 250.144 240.932,244.196 245.086,244.196 245.360 C 244.196 245.418,244.493 245.243,244.857 244.970 C 247.551 242.951,251.259 240.447,254.032 238.776 C 255.100 238.132,255.971 237.492,255.794 237.481 C 255.732 237.478,254.861 237.987,253.859 238.612 M243.058 246.149 L 242.261 246.880 243.126 246.234 C 243.899 245.656,244.132 245.418,243.924 245.418 C 243.887 245.418,243.497 245.747,243.058 246.149 M235.527 252.393 L 234.929 253.055 235.591 252.457 C 236.208 251.899,236.346 251.731,236.189 251.731 C 236.154 251.731,235.856 252.029,235.527 252.393 " stroke="none" fill="#4e82b6" fill-rule="evenodd"></path></g></svg>