<svg xmlns="http://www.w3.org/2000/svg" width="400" height="290.02"><g fill-rule="evenodd"><path fill="#e8175e" d="M90.428.627C61.796 2.542 35.342 17.51 18.368 41.403c-2.006 2.823-4.926 7.476-4.926 7.849 0 .435.996.446 44.806.502 41.029.052 44.029.079 46.009.419 21.687 3.717 38.649 21.861 40.774 43.615.38 3.89-.046 11.979-.81 15.377-.113.504-.443 2.337-.732 4.073-6.063 36.385-19.996 64.748-39.151 79.699-1.031.804-1.878 1.508-1.884 1.564-.006.056 1.204.043 2.688-.03 1.485-.072 11.742-.141 22.794-.152 11.053-.012 20.241-.077 20.418-.145.293-.113.322-8.825.322-96.723V.853l-.967-.114C146 .539 93.289.435 90.428.627M2.982 75.429c-.84.664-2.353 10.285-2.795 17.767-2.272 38.533 18.126 73.785 52.767 91.195 7.61 3.825 21.896 8.684 25.528 8.684.769 0 9.81-8.962 13.555-13.435 7.77-9.283 14.376-20.2 18.889-31.219 1.084-2.647 1.152-2.493-.83-1.881-1.502.463-3.946.983-7.081 1.507-3.857.644-10.997.455-15.289-.406-31.372-6.294-48.289-40.496-34.54-69.827.706-1.506.933-2.188.779-2.342-.321-.32-50.578-.363-50.983-.043m74.717 133.012a3377.248 3377.248 0 0 1-10.73 6.062c-3.437 1.933-6.22 3.544-6.184 3.58.035.035 1.656-.044 3.601-.176 26.634-1.813 56.943 5.861 80.522 20.388.784.483 1.953 1.178 2.597 1.545l1.171.667V206.97l-1.986-.235c-4.936-.585-9.469-.68-36.507-.759l-28.004-.082-4.48 2.547"/><path fill="#c73e83" d="m148.116.757.56.085v96.609c0 77.089-.051 96.632-.254 96.725-.342.156 2.087-.057 3.615-.316 2.949-.501 8.872-2.912 11.361-4.624 3.492-2.402 13.574-18.807 18.678-30.39a227.62 227.62 0 0 1 1.13-2.532c.529-1.138 1.519-3.53 1.519-3.67 0-.076.133-.427.296-.78.586-1.275 1.112-2.847 1.008-3.016-.058-.094-.009-.172.11-.172.151 0 .215-14.949.215-50.016V48.644l-.596-1.664c-2.732-7.619-9.244-20.599-14.373-28.65-4.053-6.361-9.151-13.538-11.756-16.548L158.616.611l-5.53.031c-3.042.016-5.278.068-4.97.115m-3.043 98.123c.001.672.039.922.085.556a5.474 5.474 0 0 0-.002-1.222c-.047-.306-.084-.006-.083.666m-1.323 11.201c-.046.393-.01.713.079.713.09 0 .163-.32.163-.713 0-.392-.036-.712-.08-.712-.043 0-.117.32-.162.712m-36.825 46.945c-.229.449-.37.815-.314.815.056 0 .289-.366.517-.815.229-.448.37-.814.314-.814-.056 0-.289.366-.517.814m21.325 4.996c-.301.613-.504 1.114-.451 1.114.137 0 1.165-2.061 1.073-2.153-.042-.041-.322.426-.622 1.039m-38.752 20.514-.598.662.662-.599c.617-.557.756-.725.598-.725-.035 0-.333.298-.662.662m-4.264 4.429c-1.677 1.681-3.004 3.055-2.948 3.055.056 0 1.474-1.374 3.152-3.055 1.677-1.68 3.004-3.055 2.948-3.055-.056 0-1.474 1.375-3.152 3.055m27.89-2.393-.599.662.662-.598c.364-.329.662-.627.662-.662 0-.157-.168-.019-.725.598m-5.499 5.499-.599.662.662-.598c.364-.329.662-.627.662-.662 0-.157-.168-.019-.725.598m-27.088 1.426-.598.662.662-.598c.617-.558.755-.726.598-.726-.035 0-.333.298-.662.662m68.139 32.235v16.807l-.56-.348c-1.269-.787-.015.172 1.782 1.363 11.761 7.797 24.454 20.021 33.722 32.478 1 1.344 1.89 2.536 1.978 2.648.087.112.291.387.451.611.255.355.293-2.947.299-25.509.004-14.866-.07-25.916-.174-25.916-.098 0-.224-.161-.279-.357-.378-1.354-8.432-9.971-11.353-12.147-3.824-2.847-10.416-4.698-21.487-6.032-1.792-.216-3.511-.396-3.819-.399l-.56-.006v16.807"/><path fill="#4fbff8" d="M301.426.216c-1.961.077-11.03.247-20.155.378-9.125.131-16.618.265-16.65.298-.033.033-.037 15.262-.009 33.843l.052 33.784 1.42-1.826c7.061-9.078 17.815-15.493 29.945-17.862 2.237-.437 2.292-.438 41.802-.506 28.598-.048 39.562-.129 39.562-.291 0-.123-4.101-4.403-9.114-9.509A35139.535 35139.535 0 0 0 333.7 3.327L330.652.239 317.821.158c-7.057-.045-14.435-.019-16.395.058m.881 89.04c-28.363 28.843-31.636 32.209-31.474 32.371.088.088 16.993.185 37.566.214 26.783.038 37.469.116 37.629.276.286.287-2.337 4.298-4.543 6.948-12.626 15.166-32.095 21.217-50.928 15.83-.993-.284-1.842-.481-1.885-.437-.126.126 2.246 5.831 3.93 9.453.844 1.815 1.517 3.362 1.496 3.439-.022.077.044.196.147.265.102.068.949 1.499 1.882 3.179 6.073 10.936 13.674 20.705 22.436 28.834 1.305 1.21 2.313 2.266 2.241 2.347-.073.081-.031.09.092.02.122-.07.483.145.801.477.741.773.785.77 4.997-.292 41.011-10.34 70.795-46.527 73.104-88.82.13-2.384.197-9.351.161-16.802l-.061-12.729-41.16-.051-41.159-.052-15.272 15.53m-37.734 79.43-.011 25.611 16.853-.006 16.854-.007-.595-.443c-1.691-1.26-3.142-2.563-3.013-2.706.08-.089.032-.097-.106-.017-.408.235-7.389-6.899-10.143-10.364-1.336-1.681-2.536-3.168-2.668-3.305-3.421-3.571-11.251-18.493-15.01-28.604-.722-1.941-1.501-4.033-1.732-4.649l-.419-1.121-.01 25.611m3.299 37.378-3.31.056v13.131c0 7.223.054 13.132.12 13.132s1.051-.451 2.189-1.002a116.706 116.706 0 0 1 3.801-1.749c.952-.411 2.006-.868 2.342-1.017a84.965 84.965 0 0 1 2.546-1.008c1.064-.407 2.118-.827 2.342-.935.224-.108.82-.326 1.324-.485.504-.159 1.833-.607 2.953-.995 5.528-1.916 12.608-3.789 19.043-5.038 10.875-2.11 27.593-3.189 35.111-2.267 1.109.136 2.04.223 2.07.193.062-.063-6.724-3.945-15.491-8.862l-5.906-3.312-22.912.051c-12.602.028-24.402.076-26.222.107"/><path fill="#8c7ebf" d="M233.153 10.54c-.617.86-3.953 5.913-5.143 7.79-1.344 2.119-3.142 5.191-4.647 7.943-1.11 2.029-3.607 6.762-3.607 6.837 0 .041-.418.924-.929 1.964a160.723 160.723 0 0 0-2.148 4.641l-1.401 3.157c-.353.785-1.255 3.063-1.573 3.971-.176.504-.388 1.008-.471 1.12-.083.112-.307.754-.5 1.426-.192.672-.422 1.314-.512 1.426-.09.112-.358.937-.597 1.833l-.434 1.629.056 44.603c.061 47.906.006 45.223.951 46.947.093.17.318.822.5 1.449.183.627.47 1.405.638 1.729.169.323.308.7.308.836.001.137.231.75.511 1.362.28.612.509 1.166.509 1.231 0 .142 1.867 4.637 2.584 6.222 4.119 9.102 8.505 16.935 13.514 24.134 2.261 3.25 3.25 4.532 3.25 4.215a.46.46 0 0 0-.203-.345c-.32-.197-.279-176.524.04-176.843.135-.135.189-.245.121-.245s-.435.436-.817.968m-.77 199.426c-3.15.851-5.598 1.949-7.453 3.344-3.927 2.953-11.249 11.172-13.261 14.884l-.449.828-.009 25.535c-.008 22.674.025 25.505.296 25.28.168-.139.306-.334.306-.432 0-.099.147-.339.326-.535.18-.196.891-1.151 1.579-2.122 4.455-6.283 9.371-12.048 15.811-18.541l4.595-4.633c-.106.107-.267.194-.358.194-.091 0-.141-9.944-.112-22.098l.053-22.079c0 .01-.596.179-1.324.375"/><path fill="#9965a2" d="M186.38 98.473c.004 33.353.074 49.695.209 49.287.111-.336.286-.795.389-1.019.239-.523 2.029-5.995 2.697-8.248 2.063-6.954 3.7-14.445 4.629-21.181.224-1.625.448-3.091.498-3.259.129-.432.65-7.438.945-12.693.197-3.5.197-5.295.002-8.452-.287-4.622-.84-11.48-.94-11.642-.038-.06-.217-1.208-.399-2.551-.445-3.292-1.315-7.777-2.268-11.709l-.618-2.546c-.882-3.634-3.43-11.627-4.739-14.867l-.412-1.019.007 49.899m25.874-48.178c-.119.342-.173.621-.12.621.137 0 .522-1.057.421-1.158-.046-.046-.182.195-.301.537m-1.835 5.441c-8.982 28.187-9.153 53.775-.556 83.368 1.128 3.88 2.049 6.381 1.536 4.169-.353-1.524-.246-89.025.111-90.201.167-.55.265-1.039.217-1.087-.047-.047-.636 1.641-1.308 3.751m1.835 90.71c.119.342.255.584.301.538.101-.101-.284-1.159-.421-1.159-.053 0 .001.279.12.621m1.018 2.852c.12.341.255.583.301.537.101-.101-.283-1.159-.421-1.159-.053 0 .001.28.12.622M186.353 251.85l-.001 25.849 1.7 2.545c2.216 3.32 3.288 4.992 4.634 7.231l1.102 1.833.052-24.108c.058-26.886.173-24.394-1.303-28.133-1.254-3.177-4.506-9.019-6.113-10.981-.038-.046-.07 11.547-.071 25.764m24.381-22.471c-1.986 3.196-3.952 7.396-4.808 10.27-.423 1.421-.427 1.653-.425 25.648l.002 24.214.532-.916c.699-1.203 2.268-3.682 3.93-6.211 1.801-2.739 1.734-2.626 1.466-2.461-.4.247-.32-50.644.081-51.42.561-1.084.157-.63-.778.876"/><path fill="#7399d8" d="M240.779.748c-.143.057-1.197 1.31-2.342 2.783-2.263 2.911-2.503 3.236-3.898 5.258l-.934 1.356v88.081c0 76.032.04 88.159.291 88.644.416.801 1.683 2.09 2.431 2.473.351.18.684.396.74.48.157.236 4.636 2.327 6.008 2.805 4.064 1.416 6.323 1.669 14.858 1.669h6.626l.052-25.948c.032-15.498-.021-25.902-.132-25.833-.102.062-.133-.084-.07-.325.063-.242.026-.439-.083-.439-.11 0-.137-.194-.061-.433.098-.311.067-.39-.11-.28-.18.111-.208.027-.102-.306.108-.341.08-.418-.112-.299-.188.116-.226.04-.143-.28.074-.282.037-.392-.102-.306-.139.086-.175-.024-.101-.305.072-.279.036-.391-.1-.307-.142.087-.167-.056-.075-.424.102-.406.074-.516-.104-.406-.171.106-.209.02-.129-.289.074-.281.037-.391-.102-.305-.139.085-.175-.024-.101-.306.072-.279.036-.391-.1-.307-.142.088-.167-.056-.075-.424.102-.406.074-.516-.104-.406-.171.106-.209.02-.129-.289.073-.278.037-.391-.099-.307-.142.088-.167-.055-.075-.424.102-.406.074-.515-.104-.406-.171.106-.21.02-.129-.288.073-.279.036-.391-.1-.307-.141.087-.167-.056-.074-.424.101-.404.073-.516-.102-.408-.175.109-.203-.004-.102-.407.102-.406.074-.516-.104-.406-.171.106-.21.02-.129-.289.073-.278.036-.391-.099-.307-.138.085-.178-.058-.113-.401.063-.326.023-.484-.101-.407-.125.077-.165-.081-.102-.407.062-.326.023-.485-.102-.408-.125.078-.164-.081-.102-.407.062-.326.023-.484-.102-.407-.125.077-.164-.081-.102-.407.063-.327.023-.485-.101-.408-.125.077-.165-.081-.102-.407.063-.33.023-.485-.104-.406-.133.082-.16-.107-.076-.526.092-.459.063-.61-.1-.51-.161.1-.188-.024-.09-.414.101-.403.073-.516-.102-.408-.171.106-.211-.007-.139-.384.063-.33.023-.485-.104-.406-.133.082-.16-.107-.076-.525.093-.463.063-.611-.102-.509-.165.102-.194-.046-.102-.51.092-.459.063-.61-.099-.51-.162.1-.189-.024-.091-.414.102-.406.074-.516-.104-.406-.179.11-.209-.023-.113-.503.093-.463.063-.611-.102-.509-.165.102-.194-.046-.102-.509.093-.463.063-.611-.101-.509-.165.102-.195-.046-.102-.509.091-.458.062-.611-.098-.512-.163.101-.188-.078-.086-.621.108-.574.082-.724-.106-.608-.184.114-.215-.014-.118-.5.092-.457.063-.61-.098-.511-.162.101-.187-.079-.086-.621.108-.575.082-.724-.105-.609-.185.115-.215-.013-.118-.499.092-.462.063-.611-.101-.509-.167.103-.193-.098-.094-.718.101-.63.074-.822-.099-.715-.172.107-.198-.06-.094-.616.108-.575.082-.724-.105-.609-.186.115-.218-.035-.127-.595.079-.488.049-.704-.087-.62-.14.087-.161-.258-.063-1.042.116-.932.093-1.139-.117-1.01-.192.119-.233.049-.15-.267.062-.236.04-.456-.049-.49-.088-.033-.306-.931-.483-1.995-2.167-13.003.418-25.458 7.539-36.328.741-1.13 1.197-1.93 1.015-1.779-.305.253-.331-2.34-.331-33.555V.822l4.837-.058c2.661-.033-2.632-.073-11.762-.09-9.129-.017-16.715.016-16.858.074m27.538 63.254-.598.662.662-.598c.617-.558.755-.726.598-.726-.035 0-.333.298-.662.662m5.295 54.379-.598.662.662-.598c.617-.558.756-.726.598-.726-.035 0-.333.298-.662.662m41.968 68.584c1.678 1.681 3.096 3.055 3.152 3.055.056 0-1.27-1.374-2.948-3.055-1.677-1.68-3.096-3.055-3.152-3.055-.056 0 1.271 1.375 2.948 3.055m-22.912 2.508c0 .035.298.333.662.662l.662.598-.598-.662c-.558-.617-.726-.755-.726-.598m-23.472 16.581a6.5 6.5 0 0 0 1.323 0c.364-.046.067-.082-.662-.082-.728 0-1.026.036-.661.082m-9.216.195c-1.628.068-5.197.341-10.112.774-3.547.312-10.224 1.213-11.273 1.521-.336.098-1.253.29-2.037.427-.784.136-1.517.318-1.629.405-.112.086-.433.189-.713.228l-.509.07-.052 22.047c-.03 12.706.025 22.047.128 22.047.1 0 .444-.257.765-.572 5.766-5.641 19.193-15.049 27.785-19.466l2.331-1.199-.054-13.21-.054-13.211-1.575.04c-.867.022-2.217.066-3.001.099"/><path fill="#7f497d" d="M221.283 29.735c-.174.336-.27.611-.214.611.056 0 .244-.275.418-.611.174-.336.27-.611.214-.611-.056 0-.244.275-.418.611m-4.753 9.683c-.341.749-.276.909.093.228.172-.318.275-.616.228-.663-.046-.046-.191.149-.321.435m-7.86 21.391c-.075.298-.097.582-.049.63.048.048.149-.157.224-.456.075-.298.097-.582.049-.63-.048-.048-.149.157-.224.456m-3.938 18.621c0 .392.041.552.093.356a1.68 1.68 0 0 0 0-.713c-.052-.196-.093-.035-.093.357m-10.184.203c0 .392.042.553.093.357a1.649 1.649 0 0 0 0-.713c-.051-.196-.093-.036-.093.356m9.377 7.129c0 .504.04.71.088.458a2.879 2.879 0 0 0 0-.917c-.048-.252-.088-.045-.088.459m-8.554.203c0 .504.04.711.088.459a2.879 2.879 0 0 0 0-.917c-.048-.252-.088-.046-.088.458m8.362 2.546c.001.784.038 1.08.082.658a7.617 7.617 0 0 0-.002-1.426c-.045-.362-.081-.016-.08.768m-8.145.306c0 .84.036 1.184.08.763a8.849 8.849 0 0 0 0-1.527c-.044-.42-.08-.076-.08.764m7.94 2.851c0 .728.036 1.026.082.662a6.51 6.51 0 0 0 0-1.324c-.046-.364-.082-.066-.082.662m-7.74.204c0 .728.037 1.026.082.662.046-.364.046-.96 0-1.324-.045-.364-.082-.066-.082.662m.002 8.452c.001.784.038 1.08.082.657a7.607 7.607 0 0 0-.002-1.425c-.045-.362-.081-.016-.08.768m7.741.305c0 .84.036 1.184.08.764a8.849 8.849 0 0 0 0-1.527c-.044-.42-.08-.077-.08.763m-7.942 3.157c.001.896.037 1.238.08.759.043-.48.042-1.213-.002-1.63-.043-.417-.079-.025-.078.871m8.145.306c0 .84.036 1.183.08.763a8.849 8.849 0 0 0 0-1.527c-.044-.42-.08-.076-.08.764m-8.36 2.749c.001.56.041.765.088.456.047-.31.045-.768-.003-1.019-.048-.25-.087.003-.085.563m8.554.204c.001.56.041.765.088.455a3.64 3.64 0 0 0-.003-1.018c-.048-.251-.087.003-.085.563m-9.38 7.637c0 .392.042.553.093.357a1.649 1.649 0 0 0 0-.713c-.051-.196-.093-.036-.093.356m10.184.204c0 .392.041.552.093.356a1.676 1.676 0 0 0 0-.712c-.052-.196-.093-.036-.093.356m3.851 19.145c0 .168.078.488.175.712.11.257.175.295.175.102 0-.168-.079-.489-.175-.713-.111-.256-.175-.294-.175-.101m-20.78 9.187c-.126.36-.193.69-.149.734.043.043.182-.216.307-.575.126-.36.193-.691.149-.734-.044-.044-.182.215-.307.575m30.338 16.78c0 .112.131.433.291.713.16.28.291.417.291.305 0-.112-.131-.432-.291-.713-.16-.28-.291-.417-.291-.305m3.142 6.415c.174.336.362.611.418.611.056 0-.04-.275-.214-.611-.174-.336-.362-.611-.418-.611-.056 0 .04.275.214.611m-1.429 50.357-2.237 2.291 2.291-2.237c2.129-2.077 2.384-2.345 2.237-2.345-.03 0-1.061 1.031-2.291 2.291m-3.064 3.259-.599.661.662-.598c.617-.557.756-.725.599-.725-.036 0-.333.297-.662.662m-22.851 44.105c-.039 19.212-.101 24.065-.304 23.943-.146-.088-.124.007.051.223.344.422.465-11.829.357-36.092-.03-6.693-.077-1.326-.104 11.926m11.455.243c0 13.386.024 18.862.054 12.169.03-6.693.03-17.645 0-24.338-.03-6.693-.054-1.217-.054 12.169m28.811-11.66-.702.764.764-.702c.42-.386.764-.73.764-.764 0-.155-.173-.009-.826.702m-4.88 4.684-3.154 3.208 3.208-3.154c2.98-2.931 3.3-3.262 3.154-3.262-.029 0-1.473 1.444-3.208 3.208m-4.478 4.634c-.494.504-.853.916-.797.916.056 0 .506-.412 1.001-.916.495-.504.854-.917.798-.917-.056 0-.507.413-1.002.917m-1.844 2.087-.702.764.764-.702c.42-.386.764-.73.764-.764 0-.155-.172-.009-.826.702m-1.325 1.528-.599.662.662-.599c.617-.557.756-.725.599-.725-.036 0-.333.298-.662.662"/><path fill="#70345d" d="M90.58.556c.477.043 1.256.043 1.732 0 .476-.042.086-.078-.866-.078s-1.342.036-.866.078m48.257.004 19.795.053 1.14 1.343c9.797 11.549 20.972 31.114 27.003 47.276.594 1.594 1.12 2.86 1.167 2.812.105-.105-.593-2.409-.773-2.553-.07-.056-.288-.622-.485-1.258-.197-.635-.535-1.503-.751-1.927-.216-.424-.393-.935-.393-1.135 0-.201-.069-.364-.153-.364-.084 0-.329-.55-.543-1.222-.215-.673-.452-1.222-.527-1.222-.075 0-.312-.527-.526-1.172-.215-.644-.504-1.292-.644-1.44-.14-.148-.255-.348-.255-.445 0-.096-.106-.434-.236-.749-.131-.315-.222-.642-.204-.726.018-.084-.044-.153-.138-.153-.094 0-.292-.366-.44-.814-.148-.449-.337-.815-.42-.815-.083 0-.315-.458-.517-1.018-.201-.561-.427-1.019-.501-1.019-.075 0-.301-.435-.502-.967s-.428-1.013-.504-1.069c-.077-.056-.304-.538-.505-1.07s-.43-.967-.509-.967c-.079 0-.264-.367-.412-.815-.148-.448-.332-.814-.409-.814-.077 0-.313-.39-.524-.866-.211-.476-.5-.987-.642-1.135-.142-.148-.258-.345-.258-.438 0-.092-.364-.75-.808-1.462-.445-.711-.993-1.66-1.217-2.108-.416-.829-.503-.973-1.488-2.477-.308-.47-.56-.901-.56-.958 0-.057-.413-.705-.917-1.442-.504-.736-.916-1.377-.916-1.425 0-.048-.413-.69-.917-1.426s-.916-1.383-.916-1.437c0-.054-.323-.534-.718-1.067a90.665 90.665 0 0 1-.968-1.325l-.713-1.018c-1.159-1.658-4.75-6.407-5.126-6.78-.23-.228-.418-.466-.418-.529s-.383-.541-.852-1.062l-.851-.948-19.872.05-19.871.05 19.794.053M87.831.757c.308.047.812.047 1.12 0 .308-.047.056-.085-.56-.085-.616 0-.868.038-.56.085m-2.139.201c.253.049.665.049.917 0 .252-.048.046-.088-.458-.088s-.711.04-.459.088m-1.626.204c.253.049.619.047.814-.004.195-.051-.012-.091-.46-.088-.449.002-.608.044-.354.092m153.38 3.064c-.586.707-.834 1.069-.733 1.069.056 0 .347-.32.646-.713.555-.727.622-1.002.087-.356m-168.912.255c-.257.11-.295.175-.102.175.168 0 .489-.079.713-.175.256-.111.294-.175.101-.175-.168 0-.488.078-.712.175m266.7.063c0 .035.298.333.662.662l.662.598-.598-.661c-.558-.617-.726-.756-.726-.599M65.008 5.638c-.483.171-.843.347-.799.391.093.093 1.982-.528 1.982-.651 0-.128-.231-.077-1.183.26M235.28 7.077c-1.174 1.553-1.744 2.404-1.329 1.986.39-.393 2.726-3.564 2.625-3.564-.056 0-.639.71-1.296 1.578M63.035 6.423c-.51.245-.527.273-.102.169.577-.141 1.226-.471.916-.467-.112.002-.478.136-.814.298m-2.546 1.011c-.28.16-.418.291-.306.291.112 0 .433-.131.713-.291.28-.16.418-.291.306-.291-.112 0-.433.131-.713.291m-1.426.611c-.28.16-.417.291-.305.291.112 0 .432-.131.712-.291.281-.16.418-.291.306-.291-.112 0-.433.131-.713.291m-4.364 2.052c-16.175 8.116-29.647 20.209-39.233 35.218-1.795 2.811-2.516 4.159-2.327 4.348.073.073 19.991.184 44.261.246 47.818.122 45.461.066 50.265 1.206 20.266 4.809 36.811 24.655 37.162 44.576.029 1.665.34 2.531.367 1.021.346-19.627-16.377-40.487-36.558-45.603-5.491-1.392-1.822-1.294-50.388-1.355-24.139-.031-44.096-.104-44.348-.163-.668-.157-.61-.323 1.08-3.077 9.383-15.294 22.597-27.386 39.297-35.958 2.352-1.208 4.185-2.194 4.073-2.193-.112.002-1.755.782-3.651 1.734m178.663-.372c-.359.418-.628.866-.52.866.041 0 .279-.275.527-.611.491-.664.486-.829-.007-.255m108.491 1.68c1.004 1.008 1.871 1.833 1.927 1.833.056 0-.719-.825-1.723-1.833-1.003-1.008-1.87-1.833-1.926-1.833-.056 0 .719.825 1.722 1.833m-109.715.002c-.447.784-.314.783.245-.002.239-.336.36-.61.268-.609-.091 0-.322.275-.513.611m-.844 1.185c-.371.411-.453.742-.134.545.212-.131.683-.917.549-.917-.043 0-.229.168-.415.372m-1.343 2.102c-.459.688-.801 1.286-.759 1.328.069.069.326-.29 1.449-2.02.2-.308.314-.56.255-.56-.06 0-.485.563-.945 1.252m-1.828 2.844c-.458.685-.832 1.287-.832 1.339 0 .051-.275.492-.611.98-.573.833-.832 1.44-.431 1.009.272-.293 2.881-4.573 2.787-4.573-.045 0-.456.561-.913 1.245m120.146.283c.608.616 1.152 1.12 1.208 1.12.056 0-.396-.504-1.004-1.12-.609-.616-1.153-1.12-1.209-1.12-.056 0 .396.504 1.005 1.12m-122.813 4.022c-.409.672-.573 1.325-.191.764.399-.585.814-1.426.705-1.426-.061 0-.292.298-.514.662m-.941 1.731c-.188.308-.557.902-.82 1.32-.262.417-.477.846-.477.953 0 .106-.116.314-.258.462-.142.148-.431.659-.642 1.135-.211.476-.442.866-.512.866-.144 0-.654 1.26-.552 1.362.036.036.674-1.057 1.416-2.43.743-1.373 1.588-2.886 1.878-3.362.289-.476.477-.866.417-.866-.059 0-.262.252-.45.56m132.308 3.004c.38.392.737.713.793.713.056 0-.21-.321-.59-.713-.38-.392-.736-.712-.792-.712-.056 0 .209.32.589.712M220.502 30.79c-.452 1.149-.315 1.185.231.061.244-.502.366-.912.273-.912-.094 0-.321.383-.504.851m-.902 1.834c-.336.89-.196.929.218.062.186-.391.268-.71.183-.71-.086 0-.266.291-.401.648m-1.018 2.037c-.336.889-.196.929.217.061.187-.39.269-.71.183-.71-.085 0-.266.292-.4.649m-1.067 2.203c-.148.448-.346.814-.44.814-.094 0-.156.069-.138.153.018.084-.076.417-.209.741-.505 1.226-.069.669.582-.742.373-.812.716-1.544.76-1.628.044-.084-.002-.153-.103-.153-.1 0-.304.366-.452.815m150.094.661c.844.9 1.026 1.061 1.026.908 0-.032-.435-.468-.967-.967l-.967-.908.908.967m-151.894 3.259c-.14.476-.297 1.003-.347 1.171-.051.168.131-.153.404-.713.545-1.118.601-1.323.36-1.323-.089 0-.276.389-.417.865m-1.105 2.573c-.436 1.226-.448 1.598-.022.635.566-1.278.679-1.629.526-1.629-.083 0-.31.447-.504.994m-.761 1.793c0 .188-.178.715-.395 1.171-.45.94-1.026 2.56-1.021 2.864.004.165 1.821-4.152 1.823-4.328 0-.028-.091-.05-.203-.05-.112 0-.204.154-.204.343m-2.093 5.522c-.462 1.558-.43 1.82.067.55.583-1.488.647-1.731.456-1.731-.095 0-.33.531-.523 1.181m-23.709 1.948c.058.153.449 1.346.867 2.651.418 1.305.799 2.335.845 2.288.117-.116-.311-1.719-.665-2.494-.16-.35-.4-1.106-.532-1.68-.133-.574-.327-1.043-.431-1.043-.105 0-.143.125-.084.278m22.86.449c-.075.4-.178.882-.229 1.07-.127.465.438-.764.614-1.339.078-.253.054-.458-.054-.458-.107 0-.256.327-.331.727m-.811 2.35c-.246.725-.542 2.064-.472 2.135.044.043.24-.432.437-1.057.299-.949.332-1.95.035-1.078m-20.279 2.542c0 .318.89 3.131.966 3.055.13-.13-.397-2.362-.585-2.478-.088-.054-.108-.233-.045-.398.063-.164.013-.299-.111-.299s-.225.054-.225.12m19.261.717c-.247.724-.543 2.064-.472 2.134.043.044.24-.432.437-1.056.299-.949.332-1.95.035-1.078m-18.233 2.778c.023.349 1.998 7.669 2.012 7.456.027-.416-.606-3.424-.791-3.761-.099-.181-.338-1.12-.53-2.088-.272-1.369-.747-2.475-.691-1.607m17.11 1.089c-.293 1.491-.163 1.824.175.447.131-.537.287-1.136.345-1.332.059-.196.021-.357-.084-.357-.105 0-.301.559-.436 1.242m-.708 2.65c-.211.633-.555 2.665-.466 2.753.052.053.244-.565.427-1.372.287-1.271.313-2.204.039-1.381m-14.375 4.152c0 .093.274 1.598.61 3.344.335 1.746.737 3.908.894 4.804.156.896.29 1.4.296 1.12.024-1.031-1.396-9.037-1.648-9.285-.084-.084-.152-.075-.152.017m13.358.125c-.184.557-.567 3.265-.475 3.357.051.051.25-.697.442-1.662.3-1.509.32-2.568.033-1.695m-.806 3.985c-.186.618-.774 5.191-.68 5.286.048.048.285-1.167.526-2.699.394-2.505.459-3.599.154-2.587m150.853.015c3.453.032 9.044.032 12.424 0 3.38-.031.556-.057-6.277-.057s-9.599.026-6.147.057m33.692 0c1.709.034 4.504.034 6.212 0 1.709-.034.311-.062-3.106-.062-3.416 0-4.814.028-3.106.062M2.902 75.088c-.14.054-.254.186-.254.293 0 .121.133.122.356.004.526-.28 50.679-.194 50.961.087.154.154-.073.836-.779 2.342-7.343 15.666-6.246 33.805 2.912 48.12 1.192 1.864 1.022 1.321-.229-.73-8.735-14.328-9.605-33.113-2.213-47.791.863-1.714.888-2.004.192-2.268-.535-.204-50.424-.259-50.946-.057m-.56 1.287c-.077.352-.098.682-.046.734.052.052.153-.198.224-.556.17-.849.006-1.014-.178-.178m192.479 4.223c.081.642.314 2.681.52 4.531.246 2.219.341 2.74.278 1.531-.177-3.417-.579-7.23-.762-7.23-.102 0-.118.509-.036 1.168m9.289 1.428c-.36 3.862-.252 4.466.174.968.448-3.687.44-3.564.234-3.564-.091 0-.275 1.168-.408 2.596m104.533.306-.598.662.662-.598c.617-.558.755-.726.598-.726-.035 0-.333.298-.662.662M.862 84.521c0 .392.042.553.093.357a1.68 1.68 0 0 0 0-.713c-.051-.196-.093-.036-.093.356m-.2 1.528c.003.448.044.607.093.354s.047-.62-.004-.815c-.051-.194-.091.013-.089.461m203.065 1.12c0 .616.038.868.085.56a4.466 4.466 0 0 0 0-1.12c-.047-.308-.085-.056-.085.56M.459 87.882c.002.448.044.607.092.354.049-.253.047-.62-.004-.815-.051-.194-.091.013-.088.461M.265 90.02c0 .616.038.868.085.56a4.562 4.562 0 0 0 0-1.12c-.047-.308-.085-.056-.085.56m195.525.306c.001.784.038 1.08.082.657a7.607 7.607 0 0 0-.002-1.425c-.045-.362-.081-.016-.08.768m7.738-.102c0 .728.036 1.026.082.662a6.51 6.51 0 0 0 0-1.324c-.046-.364-.082-.066-.082.662M.073 93.075c0 1.065.035 1.5.077.968.042-.532.042-1.403 0-1.935s-.077-.097-.077.967m144.984 7.536c0 .392.042.552.094.356a1.676 1.676 0 0 0 0-.712c-.052-.196-.094-.036-.094.356m-.192 2.342c.001.56.041.765.088.456.046-.31.045-.768-.003-1.019-.048-.25-.087.003-.085.563m50.926 1.12c0 .84.036 1.184.08.764a8.849 8.849 0 0 0 0-1.527c-.044-.42-.08-.077-.08.763m-195.72.408c0 .952.035 1.341.078.865a11.63 11.63 0 0 0 0-1.731c-.043-.476-.078-.086-.078.866m203.457-.204c0 .728.036 1.026.082.662a6.51 6.51 0 0 0 0-1.324c-.046-.364-.082-.066-.082.662m83.323.255-.598.661.661-.598c.617-.557.756-.725.599-.725-.035 0-.333.298-.662.662m-142.323.865a55.947 55.947 0 0 1-.222 1.731c-.173.961-.337 2.734-.246 2.645.18-.176.78-4.623.706-5.231-.041-.327-.142.037-.238.855m51.054 2.037c.002.672.04.922.085.556a5.474 5.474 0 0 0-.002-1.222c-.047-.306-.084-.006-.083.666m-195.32 0c.001.56.041.765.088.455a3.64 3.64 0 0 0-.003-1.018c-.048-.251-.087.003-.085.563m203.465.102c0 .616.038.868.085.56a4.466 4.466 0 0 0 0-1.12c-.047-.308-.085-.056-.085.56M.463 109.572c0 .504.04.711.088.459a2.879 2.879 0 0 0 0-.917c-.048-.252-.088-.046-.088.458m194.683 1.833a138.802 138.802 0 0 1-.378 3.615c-.072.522-.038.866.086.866.212 0 .777-6.105.632-6.829-.044-.221-.197.836-.34 2.348m8.748-1.843c-.045 1.31.446 6.324.619 6.324.21 0 .221.189-.227-3.768-.203-1.792-.379-2.943-.392-2.556M.658 111.405c0 .392.042.553.093.357a1.649 1.649 0 0 0 0-.713c-.051-.196-.093-.036-.093.356m.204 1.63c0 .392.042.552.093.356a1.68 1.68 0 0 0 0-.713c-.051-.196-.093-.035-.093.357m273.972 3.717-.598.661.662-.598c.617-.557.756-.725.598-.725-.035 0-.333.297-.662.662m-80.614 1.992c-.197 1.39-.41 2.805-.473 3.144-.079.425-.048.554.098.413.224-.215.949-5.433.812-5.844-.044-.133-.241.897-.437 2.287m10.487-2.052c-.05.658.639 5.419.811 5.599.114.12.179.081.169-.102-.031-.586-.958-5.787-.98-5.497M1.674 117.923c-.002.28.069.738.159 1.018.219.684.219-.055 0-.917-.14-.548-.156-.559-.159-.101m.607 2.953c0 .224.073.636.163.916.129.403.163.425.163.102 0-.224-.073-.636-.163-.916-.129-.404-.163-.425-.163-.102m269.667 1.266c.309.047.768.046 1.018-.003.251-.048-.003-.086-.563-.085-.56.002-.765.041-.455.088m-78.655 1.94a56.17 56.17 0 0 1-.36 1.936c-.058.252-.017.459.091.459.197 0 .782-3.615.613-3.783-.049-.049-.203.576-.344 1.388m12.505-.559c.236 2.169.379 2.954.542 2.954.228 0 .229.002-.236-2.037-.216-.952-.354-1.365-.306-.917m-202.819.306c.071.392.209.896.307 1.12.122.28.138.184.049-.305-.071-.392-.209-.897-.307-1.121-.123-.279-.138-.183-.049.306m.512 1.833c0 .168.079.489.175.713.11.256.175.294.175.102 0-.168-.079-.489-.175-.713-.11-.257-.175-.295-.175-.102m188.404 4.848a451.04 451.04 0 0 1-.986 4.062c-.067.252-.037.459.066.459.104 0 .351-.847.549-1.883.199-1.035.434-1.974.523-2.087.179-.226.895-3.971.782-4.084-.039-.039-.46 1.551-.934 3.533m-134.242-2.279c9.69 14.083 29.222 22.633 45.293 19.826l2.96-.52c2.138-.377 6.11-1.501 6.11-1.73 0-.092-.389-.03-.865.138-18.224 6.434-40.489-.701-52.648-16.872-1.44-1.914-1.904-2.375-.85-.842m-53.564-.635c-.023.298 1.438 4.623 1.53 4.531.043-.043-.28-1.126-.718-2.406-.438-1.28-.804-2.236-.812-2.125m202.65.527c-.031.559.438 2.723.638 2.936.119.127.136-.091.046-.583-.219-1.19-.663-2.719-.684-2.353m1.082 4.718c.073.364.188 1.006.255 1.426.068.42.212.764.322.764.11 0 .155-.117.1-.26-.055-.143-.209-.785-.342-1.426-.133-.641-.293-1.166-.355-1.166s-.053.298.02.662M5.806 132.79c1.225 4.06 6.501 14.129 10.244 19.552 13.441 19.473 31.825 32.726 54.099 39.002 2.937.828 8.016 1.983 8.3 1.888.111-.036-1.483-.453-3.54-.925-30.637-7.027-56.638-29.023-68.187-57.684-.841-2.087-1.225-2.856-.916-1.833m184.721 3.065c-.243 1.108-2.655 8.726-3.538 11.175-.941 2.61-.901 2.461-.66 2.461.098 0 .233-.275.3-.611.068-.336.298-1.001.512-1.477.214-.476.454-1.186.534-1.578.08-.392.259-.896.399-1.12.139-.224.415-1.073.613-1.886s.435-1.525.527-1.582c.093-.057.276-.629.407-1.271.132-.642.316-1.262.409-1.377.223-.276.873-3.151.742-3.282-.056-.056-.166.191-.245.548m18.047-.379c-.048.334.638 2.934.823 3.119.136.136.156 0 .059-.408-.213-.889-.858-2.875-.882-2.711m1.134 4.137c.152.991.494 1.911.604 1.622.044-.116-.102-.712-.325-1.324-.372-1.025-.394-1.049-.279-.298m.898 2.608c-.036.396.481 2.113.748 2.484.28.389.286.384.142-.102-.286-.969-.876-2.545-.89-2.382m1.126 3.604c.173.933.516 1.785.614 1.527.042-.112-.108-.662-.334-1.222-.343-.848-.39-.899-.28-.305m.803 2.138c.066.224.172.66.234.968.062.308.193.56.291.56.248 0 .207-.184-.249-1.12-.218-.448-.342-.632-.276-.408m-27.606 4.43c-4.921 12.288-12.11 25.231-18.981 34.173-2.133 2.775-4.788 4.421-9.986 6.192-4.43 1.509-2.568 1.403-26.94 1.533l-21.996.118 21.302.046c20.495.044 24.246-.04 24.931-.563.112-.086.914-.322 1.782-.524s1.578-.432 1.578-.511c0-.079.596-.305 1.324-.502.728-.197 1.324-.424 1.324-.504 0-.08.435-.312.967-.515.532-.204 1.088-.491 1.236-.639.148-.148.492-.325.764-.393s.495-.185.495-.259c0-.075.342-.317.759-.538.905-.481 1.308-.905 2.899-3.051.664-.896 1.35-1.79 1.524-1.986.175-.196.317-.433.317-.528 0-.095.177-.332.393-.528.216-.195.541-.668.722-1.05.182-.381.417-.694.524-.694.107 0 .194-.12.194-.267 0-.147.165-.445.367-.662.201-.217.545-.716.763-1.108.219-.392.454-.758.522-.814.068-.056.286-.418.485-.805.198-.387.486-.828.639-.982.153-.153.279-.393.279-.532 0-.138.163-.43.363-.647.2-.217.523-.716.719-1.108.195-.392.719-1.294 1.164-2.006.445-.711.809-1.369.809-1.462 0-.093.116-.29.258-.438.142-.148.431-.658.642-1.134.211-.476.443-.866.516-.866.072 0 .253-.344.401-.764.149-.42.381-.901.517-1.069.136-.168.371-.626.523-1.018.152-.392.336-.759.409-.815.072-.056.296-.537.497-1.069.201-.532.427-.968.502-.968.074 0 .3-.458.501-1.018.202-.56.437-1.018.523-1.018.087 0 .273-.413.414-.917.141-.504.336-.916.434-.916.097 0 .177-.096.177-.212 0-.117.265-.782.589-1.477.324-.695.705-1.654.847-2.13.142-.476.32-.866.397-.866.076 0 .254-.389.394-.865s.378-1.141.529-1.477c.15-.336.435-.977.632-1.425.197-.448.393-.884.437-.968.043-.084-.007-.152-.111-.152s-.675 1.214-1.27 2.698m28.15-2.546c.171.333.718 1.6.847 1.964.075.212.178.344.23.293.139-.14-.789-2.409-.986-2.409-.093 0-.134.068-.091.152m1.232 2.729c.066.184.233.711.371 1.171.137.459.326.835.419.835.163 0-.556-2.035-.792-2.24-.065-.056-.063.049.002.234m.964 2.252c0 .237.652 1.94 1.128 2.947.276.582.501 1.157.501 1.276 0 .118.093.216.207.216.123 0 .091-.267-.08-.662l-.942-2.19c-.63-1.466-.814-1.825-.814-1.587m2.127 4.916c.063.206.17.596.238.866.068.269.205.49.305.49.266 0 .212-.222-.247-1.019-.226-.392-.36-.543-.296-.337m1.02 2.272c.087.224.204.568.26.764.057.196.186.356.288.356.102 0 .034-.297-.152-.661-.396-.78-.62-1.039-.396-.459m1.019 2.037c.086.224.203.568.26.764.056.196.185.356.287.356.102 0 .034-.298-.151-.662-.397-.779-.62-1.038-.396-.458m.722 1.367c0 .283.629 1.573.827 1.695.121.076.02-.262-.226-.75-.464-.918-.601-1.135-.601-.945m1.124 2.299c.079.224.19.568.247.764.056.196.169.356.251.356.082 0 .322.39.533.866.211.476.5.986.642 1.134.142.148.258.344.258.434 0 .225 1.374 2.491 1.669 2.752.131.116.099-.018-.072-.298-.171-.28-.89-1.563-1.598-2.851-1.431-2.601-2.148-3.775-1.93-3.157m3.85 6.823c.065.168.174.466.243.662s.21.356.313.356c.185 0 .007-.404-.447-1.018-.201-.272-.213-.272-.109 0m1.146 1.935c-.005.302.358.819.486.692.061-.061-.023-.288-.186-.504-.164-.215-.299-.3-.3-.188m.94 1.578c.191.42.425.764.52.764.194 0-.05-.502-.543-1.12-.276-.347-.273-.293.023.356m.679 1.076c0 .165.662 1.163 1.068 1.61.197.217.358.505.358.64s.136.298.302.361c.166.064-.122-.522-.641-1.302-.885-1.33-1.087-1.574-1.087-1.309m2.037 3.066c0 .111.271.519.603.906.331.388.606.81.611.938.004.128.153.289.331.357.188.072.002-.324-.443-.945-.976-1.364-1.102-1.508-1.102-1.256m1.833 2.564c0 .452 3.168 4.217 3.886 4.618.271.152.069-.123-.45-.611-.518-.487-1.428-1.528-2.022-2.312-1.276-1.684-1.414-1.85-1.414-1.695m6.314 6.033c0 .159 1.247.695 1.358.583.034-.034-.258-.214-.648-.4-.391-.187-.71-.269-.71-.183m2.036 1.048c0 .186 1.012.493 1.155.35.048-.048-.192-.185-.533-.304-.342-.12-.622-.14-.622-.046m2.648 1.017c0 .161 1.053.45 1.181.324.034-.033-.218-.158-.56-.277-.342-.119-.621-.141-.621-.047m3.367 1.003c.108.101.655.237 1.215.302.633.074.826.057.51-.044-.937-.3-1.93-.448-1.725-.258m-144.016.871c-.142.23 2.546.2 3.072-.035.276-.122-.139-.174-1.278-.16-.928.011-1.735.099-1.794.195M81.38 206.034c-.327.181-.694.415-.815.519-.282.245-1.436.872-2.408 1.311-.42.189-.764.415-.764.5 0 .086-.412.314-.916.506-.504.193-.917.422-.917.509 0 .088-.412.317-.916.51-.504.192-.917.423-.917.512 0 .09-.321.279-.713.421-.392.142-.713.322-.713.4 0 .079-.412.312-.915.52-.504.207-.916.431-.917.498 0 .067-.39.294-.866.503-.476.21-.912.437-.968.504-.056.067-.835.522-1.731 1.01-.896.488-1.675.939-1.731 1.003-.056.064-.422.283-.815.485-.392.203-1.171.635-1.731.961a23.93 23.93 0 0 1-1.782.936c-.42.188-.764.457-.764.598 0 .311 4.052.162 4.379-.161.134-.132-.494-.156-1.833-.07-1.304.084-1.927.062-1.731-.061.168-.106 3.055-1.742 6.416-3.636 3.36-1.893 8.095-4.565 10.521-5.938l4.411-2.495 27.87.086c29.113.089 30.665.13 40.061 1.066 5.813.579 5.57.565 5.314.32-.107-.101-1.706-.302-3.554-.445-1.848-.143-3.406-.322-3.462-.397-.532-.717-65.823-1.179-67.093-.475m177.227.016c.254.049.62.047.815-.004.195-.051-.013-.091-.461-.088-.448.002-.607.044-.354.092m-6.01.212c-.924.037-1.681.146-1.681.24 0 .17 1.313.114 4.277-.184 1.749-.176.822-.196-2.596-.056m-7.485.813c-.56.043-1.095.154-1.189.246-.185.183 1.365.062 2.513-.195.768-.173.447-.185-1.324-.051m-89.291.544c.047.045 1.139.235 2.427.422 6.051.875 11.847 2.564 14.98 4.364 4.314 2.479 13.108 12.458 16.583 18.817.478.873.907 1.55.954 1.503.113-.114-.369-1.19-.679-1.515-.134-.142-.36-.577-.501-.968-.142-.391-.328-.71-.415-.71-.087 0-.31-.298-.497-.662-.186-.364-.395-.708-.463-.764-.069-.056-.262-.377-.43-.713-.168-.336-.466-.731-.662-.877-.196-.146-.356-.358-.356-.47 0-.166-1.031-1.62-1.427-2.013-.056-.056-.651-.79-1.321-1.63-.67-.84-1.632-1.956-2.138-2.481a1149.92 1149.92 0 0 1-1.958-2.037c-.572-.595-1.798-1.77-2.725-2.61-.927-.84-1.835-1.665-2.018-1.833-.875-.807-4.044-2.515-5.092-2.745-.348-.076-.633-.208-.633-.293 0-.085-.733-.322-1.629-.526-.896-.205-1.63-.435-1.63-.512 0-.076-.939-.304-2.087-.505-1.148-.202-2.225-.442-2.393-.533-.51-.277-6.14-.955-5.89-.709m82.672.473c-.392.046-.797.165-.899.265-.194.19 1.004.049 1.917-.226.57-.171.221-.185-1.018-.039m-4.735 1.015c-.308.047-.56.163-.56.259 0 .145.965-.022 1.731-.299.26-.094-.443-.07-1.171.04m-3.361 1.016c-.252.049-.458.169-.458.268 0 .098.298.078.662-.045 1.061-.358.976-.45-.204-.223m-2.201.988c-.389.312-.389.314.012.129.224-.103.545-.238.713-.3.263-.098.262-.116-.012-.13-.175-.008-.496.127-.713.301m-1.77.818c-.79.429-.701.576.101.168.768-.39.904-.491.645-.48-.102.005-.438.145-.746.312m-1.273.808c-1.315.969-2.953 2.426-2.953 2.624 0 .103 2.043-1.582 3.35-2.763.311-.281.046-.188-.397.139m-4.685 4.131c-.672.647-1.448 1.447-1.725 1.777-.277.331.296-.176 1.273-1.125 1.622-1.577 1.877-1.848 1.725-1.833-.028.003-.6.535-1.273 1.181m-151.667 1.003a183 183 0 0 0 6.11 0c1.645-.034.242-.062-3.119-.062-3.36 0-4.706.028-2.991.062m10.323.255c.069.112.785.204 1.591.205.805.001 3.057.141 5.004.313 3.376.297 5.013.305 2.525.012-4.951-.582-9.309-.835-9.12-.53m10.795.966c.206.201 4.764.753 4.922.595.076-.076-1.35-.304-4.21-.675-.596-.077-.845-.049-.712.08m127.38 1.041c-.399.425-1.269 1.453-1.934 2.285a77.54 77.54 0 0 1-1.311 1.615c-.423.419-1.449 1.878-1.374 1.953.052.052.629-.618 1.283-1.487a72.628 72.628 0 0 1 2.422-3.011c1.442-1.673 1.819-2.142 1.715-2.133-.041.004-.402.354-.801.778m-122.075-.207c.206.181 4.795.897 4.923.768.083-.082-4.333-.943-4.821-.94-.177.001-.218.07-.102.172m5.183.993c0 .155.976.345 3.972.774.809.116-2.12-.642-3.162-.818-.445-.075-.81-.056-.81.044m4.685 1.037c0 .163 3.475.909 3.609.775.062-.061-3.21-.939-3.5-.939-.06 0-.109.074-.109.164m3.954 1.031c.06.097.684.288 1.387.425s1.553.374 1.889.528c.336.153 1.069.389 1.629.524s1.064.307 1.12.383c.119.159 2.705.826 2.808.723.13-.13-8.211-2.759-8.753-2.759-.104 0-.14.079-.08.176m9.08 2.81c0 .17 2.476.913 2.61.783.035-.034-.423-.222-1.018-.418a71.64 71.64 0 0 1-1.337-.45c-.14-.051-.255-.013-.255.085m94.094.741c-.37.305-.877 1.167-.757 1.286.048.048.33-.282.628-.732.584-.882.598-.941.129-.554m-91.242.29c0 .096.389.28.865.407.476.128 1.049.286 1.273.351.224.065.041-.057-.407-.27-1.096-.521-1.731-.7-1.731-.488m2.647 1.022c0 .098.459.296 1.019.44.56.143 1.018.332 1.018.419 0 .087.42.276.933.42.513.144 1.04.368 1.171.499.257.257 2.195.967 2.315.848.074-.075-5.181-2.408-5.997-2.662-.253-.079-.459-.062-.459.036m87.206.765c-.127.28-.198.509-.158.509.041 0 .225-.229.408-.509.184-.28.255-.509.158-.509s-.28.229-.408.509m-.551.869c-.116.082-.382.539-.592 1.015-.209.476-.448.866-.53.866-.082 0-.195.16-.252.356-.056.196-.17.54-.252.764l-.15.407.295-.407c.357-.494 1.836-3.158 1.751-3.154-.034.002-.155.07-.27.153m-79.934 1.234c0 .087.458.324 1.019.525.56.201 1.018.449 1.018.549 0 .101.108.184.239.184.251 0 3.25 1.423 3.427 1.625.056.064.514.296 1.018.515.504.219 1.03.507 1.169.64s.575.348.968.478c.393.129.715.314.715.41 0 .095.191.234.424.309.446.141 2.455 1.325 2.631 1.549.056.072.445.274.865.448.42.175.764.415.764.532 0 .118.118.215.261.215.291 0 2.284 1.202 2.853 1.72.2.183.59.435.865.561.276.125.502.29.502.366 0 .076.252.253.56.393.308.141.697.387.865.549.168.161.899.68 1.623 1.152.725.473 1.476.997 1.668 1.165.192.168.593.489.891.713.298.224.776.613 1.061.865.286.252.575.459.642.459.068 0 .368.206.668.458.3.252.839.687 1.2.967a47.228 47.228 0 0 1 2.287 1.905c.313.276.909.778 1.324 1.116a80.29 80.29 0 0 1 1.87 1.598c1.632 1.435 10.101 9.945 11.41 11.463a145.69 145.69 0 0 0 1.985 2.253c.477.525.866 1.059.866 1.187 0 .129.085.234.189.234s.769.743 1.477 1.651c.708.908 1.723 2.181 2.255 2.83.532.649.967 1.28.967 1.404 0 .124.089.225.198.225.11 0 .337.266.505.591.168.326.423.718.565.871.622.669 1.583 1.994 1.583 2.182 0 .113.115.278.255.368.298.191.725.827.895 1.334.066.196.196.356.289.356.093 0 .288.218.434.485.146.266.632 1.022 1.08 1.68.447.658.86 1.288.916 1.4.057.112.355.591.663 1.065.308.474.56.955.56 1.069 0 .114.09.208.201.208.11 0 .34.298.51.662.17.364.579 1.074.909 1.578.33.504.752 1.214.939 1.578.925 1.808.91 2.235.848-24.032-.033-13.582-.111-24.832-.175-25a38.453 38.453 0 0 0-.238-.611 14.78 14.78 0 0 1-.353-1.204c-.127-.494-.352-1.089-.501-1.324-.15-.234-.386-.815-.525-1.291-.14-.476-.313-.865-.385-.865-.072 0-.296-.459-.497-1.019-.202-.56-.45-1.018-.552-1.018-.196 0-.054.37 1.101 2.869.393.851.999 2.433 1.346 3.516l.631 1.97v24.176c0 20.225-.045 24.127-.273 23.877-.151-.164-.855-1.26-1.566-2.437-11.527-19.069-26.639-35.041-43.986-46.491-6.123-4.042-17.923-10.464-17.923-9.756m77.528 3.127c-.451 1.149-.315 1.185.232.061.243-.502.366-.912.273-.912-.094 0-.321.383-.505.851m-.839 1.746c-.075.308-.35 1.018-.61 1.578-.44.948-.901 2.572-.665 2.342.057-.056.421-.926.808-1.935.387-1.008.773-1.993.857-2.189.089-.204.067-.356-.049-.356-.112 0-.265.252-.341.56m-1.552 4.141a7.38 7.38 0 0 1-.146.492c-.072.224-.157 11.52-.19 25.102-.061 25.918-.066 25.777.773 24.134.291-.569.494-.898 1.512-2.447.314-.478.522-.92.461-.98-.061-.061-.584.671-1.161 1.627-.577.956-1.137 1.792-1.243 1.858-.284.175-.258-47.832.026-48.855.12-.43.165-.835.101-.899-.065-.065-.124-.079-.133-.032m44.212 1.826-.51.408.56-.242c.308-.133.56-.318.56-.412 0-.233-.028-.221-.61.246m-1.426 1.018-.509.409.56-.242c.308-.133.56-.319.56-.413 0-.232-.028-.221-.611.246m-1.324.925-.611.525.662-.439c.364-.24.662-.477.662-.526 0-.152-.086-.099-.713.44m-3.971 2.945-.713.61.658-.361c.363-.199.704-.476.758-.616.133-.342.114-.333-.703.367m-4.904 3.996-.494.544.554-.391c.305-.215.557-.46.56-.544.011-.251-.101-.18-.62.391m-1.222 1.018-.494.544.554-.391c.305-.215.557-.46.56-.544.011-.251-.101-.18-.62.391m-1.58 1.442-.765.764.722-.61c.397-.336.809-.68.916-.764.106-.085.125-.154.043-.154-.083 0-.495.344-.916.764m-5.407 5.13c-2.249 2.233-4.045 4.091-3.991 4.128.054.036 1.947-1.791 4.207-4.061s4.056-4.128 3.991-4.128c-.065 0-1.958 1.828-4.207 4.061m-5.319 5.512c-.438.448-.701.814-.585.814.116 0 .506-.366.866-.814.36-.448.623-.815.584-.815-.038 0-.428.367-.865.815m-2.273 2.597c-1.157 1.312-4.638 5.609-5.86 7.234-.388.516-.469.726-.245.64.183-.07.333-.219.333-.331 0-.111.435-.733.967-1.382.532-.649 1.547-1.922 2.255-2.83.708-.908 1.373-1.651 1.477-1.651.104 0 .189-.122.189-.27 0-.149.238-.492.529-.764.59-.55 1.795-2.021 1.656-2.021-.049 0-.634.618-1.301 1.375m-7.728 9.775a147.98 147.98 0 0 1-1.356 1.833c-.135.173-.124.255.035.255.129 0 .294-.16.367-.356.126-.338 1.085-1.655 1.638-2.252.323-.347.709-1.058.574-1.058-.055 0-.621.71-1.258 1.578m-4.003 5.792c-2.8 4.23-2.702 4.064-2.3 3.909.174-.066.316-.205.316-.307 0-.102.252-.573.56-1.047.308-.474.606-.953.663-1.065.056-.112.469-.742.916-1.4.448-.658.934-1.414 1.08-1.68.146-.267.352-.485.458-.485.106 0 .193-.107.193-.238s.152-.407.338-.612c.186-.206.287-.425.224-.488-.062-.062-1.164 1.473-2.448 3.413"/><path fill="#4e82b6" d="M300.162.152c.93.038 2.396.037 3.259-.001s.102-.069-1.69-.069c-1.792.001-2.498.032-1.569.07m22.363.001 8.167.055 3.027 3.104c1.665 1.707 8.072 8.239 14.237 14.515 26.409 26.887 29.437 29.994 29.437 30.207 0 .162-10.964.243-39.562.291-39.51.068-39.565.069-41.802.506-13.624 2.661-24.947 10.113-32.164 21.168-1.292 1.979-4.196 7.333-4.187 7.72.003.101.684-1.123 1.514-2.72 6.693-12.881 16.881-21.091 31.134-25.091 5.035-1.412 1.749-1.31 45.76-1.43 37.159-.101 39.613-.129 39.613-.455 0-.191-2.475-2.851-5.499-5.911-3.025-3.06-7.882-7.994-10.795-10.964a9506.037 9506.037 0 0 0-18.014-18.274L330.673 0l-8.157.049-8.158.048 8.167.056m-26.853.2a11.63 11.63 0 0 0 1.731 0c.476-.043.087-.078-.865-.078s-1.342.035-.866.078m-55.264.513c-.387.457-.387.457.035.102.397-.334 2.056-.359 27.087-.408l26.666-.052-26.7-.051-26.7-.05-.388.459m105.706 72.596-28.734.063-4.056 4.132-14.842 15.122a9973.309 9973.309 0 0 1-15.411 15.673c-8.282 8.387-12.499 12.769-12.567 13.058-.145.624 1.584.655 38.034.673 20.434.01 37.198.063 37.252.118.055.054-.525 1.039-1.289 2.188-11.961 18-33.492 26.12-53.564 20.201a464.939 464.939 0 0 0-2.19-.643c-.196-.057-.356-.02-.356.08 0 .209 3.994 1.316 6.416 1.778 17.743 3.386 35.031-2.851 46.678-16.84 2.206-2.65 4.829-6.661 4.543-6.948-.16-.16-10.89-.238-37.79-.276-22.249-.031-37.566-.128-37.566-.237 0-.102 3.597-3.84 7.994-8.306a72599.43 72599.43 0 0 0 23.454-23.847l15.46-15.726 41.21.052c22.666.029 41.21-.017 41.21-.101s-.16-.149-.356-.144c-.196.005-5.856-.023-12.577-.062-6.721-.038-25.15-.042-40.953-.008m-86.814 5.06c-.341.749-.276.909.093.228.172-.318.275-.616.228-.663-.046-.047-.191.149-.321.435m-.622 1.541c-.296.85-.154.992.181.181.143-.343.211-.671.153-.729-.058-.058-.208.188-.334.548m-.61 1.627c-.125.359-.22.753-.213.876.008.123.146-.134.307-.573.16-.438.256-.832.213-.876-.044-.043-.182.215-.307.573m-.904 3.083c-.188.748-.333 1.478-.323 1.623.01.145.191-.378.403-1.162.211-.784.356-1.514.323-1.623-.034-.109-.215.414-.403 1.162m-1.104 5.96c.002.448.043.608.092.354.049-.253.047-.62-.004-.814-.051-.195-.091.012-.088.46m-.197 1.833c.001.56.041.765.088.456.046-.31.045-.768-.003-1.019-.048-.25-.087.003-.085.563m-.179 4.888c0 1.904.031 2.711.068 1.792.038-.918.038-2.476.001-3.462-.038-.986-.069-.234-.069 1.67m.179 4.888c.001.56.041.765.088.456.046-.31.045-.768-.003-1.019-.048-.25-.087.003-.085.563m143.869 2.088c-1.645 36.069-26.676 70.381-61.239 83.945-5.213 2.045-14.099 4.7-15.732 4.7-.21 0-.33.083-.268.185.133.215-.098.258 4.085-.778 38.462-9.526 67.581-42.285 72.922-82.037.319-2.371.655-8.816.46-8.816-.055 0-.158 1.261-.228 2.801m-143.677-.153c0 .392.042.552.094.356a1.676 1.676 0 0 0 0-.712c-.052-.196-.094-.036-.094.356m.166 1.239c.005.271.14 1.042.302 1.714.257 1.073.281 1.11.195.306-.202-1.898-.518-3.181-.497-2.02m3.494 19.433c0 .224.073.637.163.917.129.403.163.424.163.101a3.71 3.71 0 0 0-.163-.916c-.129-.403-.163-.424-.163-.102m.589 2.5c-.028.391 1.266 5.46 1.336 5.233.032-.109-.25-1.389-.629-2.845-.379-1.456-.697-2.531-.707-2.388m1.639 6.563c0 .168.079.489.175.713.11.257.175.294.175.102 0-.168-.079-.489-.175-.713-.11-.257-.175-.294-.175-.102m.407 1.426c0 .168.079.489.175.713.111.256.175.294.175.102 0-.168-.078-.489-.175-.713-.11-.257-.175-.295-.175-.102m.41 1.426c0 .168.124.626.275 1.018.151.392.274.575.274.407 0-.168-.123-.626-.274-1.018-.151-.392-.275-.575-.275-.407m.611 2.036c0 .168.124.626.275 1.019.151.392.274.575.274.407 0-.168-.123-.626-.274-1.018-.151-.393-.275-.576-.275-.408m1.003 3.168c-.022.305.828 2.778.922 2.683.043-.042-.144-.712-.415-1.488-.271-.775-.499-1.313-.507-1.195m1.053 3.197c.052.14.254.741.45 1.337.196.595.392 1.046.436 1.003.103-.104-.737-2.595-.875-2.595-.058 0-.063.115-.011.255m1.579 4.292c0 .256 1.069 2.802 1.145 2.726.042-.042-.162-.664-.453-1.383-.515-1.273-.692-1.616-.692-1.343m19.145 33.399c0 .035.298.333.662.662l.662.598-.599-.662c-.557-.617-.725-.756-.725-.598m25.662 0c0 .035.297.333.662.662l.661.598-.598-.662c-.557-.617-.725-.756-.725-.598m-21.589 4.315c1.397 1.4 2.586 2.546 2.642 2.546.056 0-1.041-1.146-2.438-2.546-1.397-1.4-2.586-2.546-2.642-2.546-.056 0 1.041 1.146 2.438 2.546m28.31 2.406c0 .035.297.333.662.662l.661.598-.598-.662c-.557-.617-.725-.756-.725-.598m-76.375 2.753c.168.104.534.25.815.325.353.095.416.079.203-.053a3.78 3.78 0 0 0-.814-.325c-.354-.094-.416-.078-.204.053m2.754.931c.45.15 1.138.327 1.527.394.676.116.671.109-.11-.151a12.736 12.736 0 0 0-1.528-.394c-.675-.116-.67-.109.111.151m4.578.972c.504.076 11.685.125 24.847.108 13.162-.016 22.739-.054 21.283-.085-6.104-.129-46.97-.149-46.13-.023m11.838 11.596c-2.058.09-3.799.225-3.87.3-.07.075 1.019.076 2.419.002 1.4-.074 14.809-.185 29.797-.246l27.252-.111 6.15 3.443c8.574 4.801 15.39 8.697 15.326 8.763-.03.03-.961-.057-2.07-.193-7.518-.922-24.236.157-35.111 2.267-10.484 2.035-21.07 5.33-30.621 9.533-3.853 1.696-14.593 7.377-14.593 7.719 0 .051.069.052.153.003 3.178-1.861 9.728-5.266 12.984-6.748l2.036-.927a15.102 15.102 0 0 1 1.681-.624c.476-.14.865-.317.865-.393 0-.077.39-.255.866-.396.476-.142.957-.327 1.069-.413.112-.085.708-.317 1.324-.515.616-.198 1.212-.427 1.324-.509.112-.083.57-.261 1.018-.396.448-.135.952-.3 1.12-.366a21.115 21.115 0 0 0 1.018-.4c.28-.117.83-.28 1.222-.363.392-.083.828-.244.968-.357.14-.112.254-.136.254-.053 0 .084.115.061.255-.05s.759-.318 1.375-.459c.616-.141 1.213-.33 1.327-.42.115-.09.848-.313 1.63-.496.782-.184 1.564-.409 1.739-.501.175-.092 1.045-.321 1.935-.51.889-.188 1.8-.424 2.025-.525.379-.171 1.505-.412 6.72-1.442 1.121-.221 2.22-.444 2.444-.494 1.873-.424 9.466-1.371 13.952-1.739 3.825-.315 17.03-.467 17.715-.204.719.276 3.956.371 4.054.119.044-.112-.277-.375-.713-.584-.435-.209-.837-.451-.893-.537-.056-.086-.423-.309-.815-.494a29.625 29.625 0 0 1-1.731-.928 52.896 52.896 0 0 0-1.731-.958c-.393-.203-.759-.42-.815-.482-.056-.063-1.565-.925-3.352-1.916-1.788-.991-3.346-1.879-3.462-1.974-.117-.094-.946-.551-1.842-1.014-.896-.464-1.675-.899-1.731-.968-.056-.068-.423-.291-.815-.495-1.53-.795-2.147-1.143-2.372-1.338-.987-.857-.35-.839-27.744-.806-14.297.017-27.678.104-29.736.195m-8.684.613c-2.242.188-4.304.391-4.583.45-.716.154 3.224-.056 5.298-.283.953-.103 2.162-.189 2.687-.19.526-.001 1.003-.078 1.06-.171.127-.205.494-.221-4.462.194m-6.158.727c.196.051.517.051.713 0 .196-.052.035-.093-.357-.093s-.552.041-.356.093m-4.735.525c-.729.114-1.23.241-1.114.282.116.041 1.032-.053 2.037-.21 1.004-.156 1.505-.283 1.113-.281-.392.001-1.308.096-2.036.209m-5.092.964c-.685.219.055.219.916 0 .549-.14.56-.156.102-.16-.28-.002-.738.07-1.018.16m17.199 29.854c-3.715 2.32-9.663 6.474-9.663 6.748 0 .058.297-.117.661-.39 2.694-2.019 6.402-4.523 9.175-6.194 1.068-.644 1.939-1.284 1.762-1.295-.062-.003-.933.506-1.935 1.131m-10.801 7.537-.797.731.865-.646c.773-.578 1.006-.816.798-.816-.037 0-.427.329-.866.731m-7.531 6.244-.598.662.662-.598c.617-.558.755-.726.598-.726-.035 0-.333.298-.662.662"/></g></svg>