<svg xmlns="http://www.w3.org/2000/svg" width="2666.667" height="2666.667" version="1.0" viewBox="0 0 2000 2000"><path d="M871.6 220.2c-2 3.3-1.9 2.8-9 44.8-8.3 48.9-12 67.2-15.2 75.7-5 13.1-5.7 18.3-4.4 33.7.6 7.7 1.8 17.5 2.6 21.9.7 4.5 1.2 8.3.9 8.5-.2.2-6.8-.5-14.7-1.7-23.2-3.4-40.4-4.4-64.8-3.8-31.5.8-51.2 3.2-79 9.8-44.9 10.6-85.3 28.1-123.6 53.6-28.1 18.7-36.3 26-109.4 99L386.5 630l49.3 49.2c27 27.1 49.2 49.6 49.2 49.9 0 .3-3.9 2.9-8.7 5.8-4.9 2.8-11.5 7.1-14.8 9.6-10.6 8-29.4 27.4-51.1 53.1-5.6 6.5-15.2 17.3-21.4 23.9-19.6 20.9-20.3 27.1-4.9 39.8 3.3 2.6 7.7 7.6 9.9 11l3.9 6.2-10.2 3.2c-5.6 1.8-15.8 4.8-22.7 6.8-46.1 13.1-81.6 46.8-100.4 95.7-5.2 13.5-15.6 44.2-26.1 77.3-4 12.6-10.1 31.5-13.4 42-3.9 11.9-6.1 20.3-5.9 22.4.5 5.8 2.9 6.7 28.8 11.1 56.5 9.5 75.3 12.9 84.8 15.4 4.8 1.3 12.1 3.6 16.2 5.1 7.3 2.7 8 2.7 22 2.2 8-.3 18.3-1.3 23-2.1 4.7-.9 9.4-1.6 10.5-1.6h2.1l-2.2 14.7c-14 95.1 7.9 190.9 62 270.8 18 26.6 22.4 31.4 98.5 107.7l66.6 66.8 49.6-49.6 49.7-49.7 2.7 4.9c4.3 7.7 12.4 19.4 17 24.9 7.5 8.8 25.5 25.8 44 41.7 9.9 8.5 23.1 20.2 29.3 26 6.2 5.8 13.2 11.5 15.6 12.6 8.8 4.4 15 2.2 23.5-8.6 3.5-4.4 14.8-13.2 16.9-13.2.7 0 5.7 16.1 9.2 29.5 9 34.4 30.5 64.4 61.1 85.3 7.3 5 24.5 13.7 35.4 18 13.6 5.4 54.2 19 85.5 28.7 4.1 1.3 17.4 5.5 29.5 9.4 22.9 7.4 29.1 8.4 31.7 5.3 2.3-2.6 2.6-3.9 6.8-29.1 8.3-49.6 12.8-74.4 15.2-83.6 1.2-4.4 3.2-10.5 4.7-13.5 2.4-5.2 2.5-6.4 2.4-21-.1-10.8-.7-18.8-2.1-26.5-1.1-6.1-1.9-11.1-1.7-11.3.2-.2 6.3.6 13.6 1.7 23.3 3.5 38.8 4.4 65.9 3.8 28.1-.6 41.8-2.1 67.6-7.2 66.9-13.5 129.5-45 178.9-90.1 9.9-9 132.8-131.9 133.3-133.3.1-.4-21.6-22.6-48.3-49.1-26.7-26.6-48.5-48.7-48.5-49 0-.4 3.3-2.6 7.3-5 16.2-9.6 33.3-25.9 58.2-55.5 5.1-6.1 14.8-17 21.6-24.4 20-21.6 22.3-25.4 20-33.2-1.1-3.5-10.9-13.9-13.1-13.9-.9 0-11.3-15.1-10.8-15.5.7-.5 20.8-6.5 24.8-7.4 7.6-1.7 22.5-6.9 30.7-10.8 37.2-17.5 63.3-48.1 80.3-94.3 9.5-25.9 43-129.9 43-133.7 0-3.5-1.7-6.2-4.8-7.4-1.5-.6-10.6-2.3-20.2-3.9-61.5-10-85.3-14.7-98.5-19.3l-12-4.2-15 .1c-10.4.1-18.3.7-26 2.1-6 1.2-11.1 2-11.1 1.9-.1 0 .5-3.9 1.2-8.6 5.1-31 6.4-74.8 3-103.4-9.4-78.6-39.1-147.6-88.9-206.6-9.1-10.7-138.6-141-140.2-141-.5 0-22.4 21.4-48.6 47.6l-47.6 47.6-3.3-5.8c-11.3-19.9-24.2-34-59-64.2-12.4-10.8-26.8-23.7-32.1-28.7-16.8-16-24.6-17.4-34.3-6.3-7.9 9-9 10-14.4 13.4-3 2-5.8 3.2-6.3 2.7-.4-.4-2.2-5.8-4-11.8-10.6-36.4-14-45-24.7-61-18.4-27.8-44.4-47.2-82.2-61.3-32.1-12-130.4-43.2-135.9-43.2-3.1 0-4.4.5-5.5 2.2zm63.2 97.7c12.2 6 36.6 17 54.2 24.3 44.1 18.5 71.4 39.7 85.8 66.8 11.4 21.4 14.7 44.5 12.2 84-.7 10.7-1.2 28-1.2 38.4l.1 18.9-25.7-25.5c-26.7-26.4-38.7-37.2-55.8-50-32.1-24.2-71.5-44.7-108.9-56.8-3.8-1.2-7.4-2.6-7.9-3-1.5-1.5 2.9-29 8-49.4 3.7-14.6 11.1-38 14.3-45.1 4.8-10.6 7.9-10.9 24.9-2.6zM1173 445.2c4.1 4.6 14.7 15.7 23.5 24.8 20 20.7 28.5 33.1 33.5 49.3l1.9 6.1-4.3 4.5c-5.4 5.8-75.3 76.1-163.5 164.6-59.6 59.7-68.6 69.2-74.1 77.5-10.4 16-16.8 31.1-20.7 49.3-2.6 11.9-2.5 44 .1 55.2 5.6 23.9 17 46.4 31.8 62.8l5.3 5.9 181.3-181.6c99.8-99.9 181.7-181.6 182.1-181.6 1.3 0 32.1 31.9 38.7 40 38.3 47.6 57.4 104.8 55 165-1.3 34.6-9.4 67.3-24.1 97.3l-5.7 11.9-5.2-4.9c-2.8-2.7-13.4-13-23.6-22.8-20.4-19.9-31.5-28.3-46.5-35.5-22.1-10.6-35.2-13.5-61-13.4-16.2 0-20.3.3-28 2.2-15.9 4-29.6 9.8-42.5 18-6.6 4.1-22 17-22 18.3 0 2 233 233.9 238.4 237.4 6.5 4.1 10.6 5.7 20.6 8 18.8 4.3 45.6 15 59.5 23.8 16.1 10.2 37.8 29 39 34 1.1 4.2-.2 6.3-8.3 13.3-4.2 3.7-14.7 13.6-23.2 22-15.3 15.1-26.8 24.2-36.5 29.1-6.3 3.3-15.7 6.5-16.4 5.7-49.9-50.4-229.9-228.7-235.1-232.9-9.4-7.6-13.5-10.2-24.1-15.5-39.1-19.7-84-19.8-122.4-.3-13.5 6.9-24.5 14.5-32.9 22.9l-2.9 2.9 181.9 181.3 181.9 181.3-18 17.7c-27.8 27.4-45.2 40-74 53.4-34.6 16.1-66.3 23-105 23-27.7-.1-49.8-3.6-76.1-12.2-12.3-4-32.1-12.4-38.2-16.2l-3.4-2.1 13.4-13.6c33.4-33.8 40.5-42.6 49.8-61 18-35.9 18.7-78.6 1.9-116-4-8.8-14.4-24.2-21.5-31.9l-5.9-6.3-118.6 118.8C928.4 1425.5 910 1444.3 907.7 1449c-1.4 3-4.2 11.6-6.1 19-4.4 17.1-8.1 27.4-15.6 42.6-7.1 14.6-14.4 25.6-25.8 38.7-14.6 16.8-18.3 18.1-26.5 9.1-2.9-3.2-12.7-13.4-21.8-22.8-9.1-9.4-19.3-20.9-22.7-25.5-6.6-9-13.2-21.6-15.5-29.6l-1.5-5 114.5-115c74.2-74.5 116.7-117.9 120.9-123.4 25-33.2 33.2-79.2 21.3-119.5-6.3-21.2-16.3-38.6-32-55.9l-2.6-2.8L812.8 1241l-181.5 182-16.9-17.2c-9.4-9.5-19.8-20.9-23.4-25.3-59.4-74.5-70.6-176.1-29-261.7l5.2-10.8 22.2 21.4c24.9 24.1 28.1 26.9 37.9 33.2 26.5 17.2 56.8 25.1 86.2 22.4 18.5-1.7 30.7-5.1 48-13.6 11.2-5.5 20.6-11.9 29.8-20.5l5.2-4.8-118-118.1c-117.4-117.5-118-118.1-126.1-122.1-4.4-2.1-8.9-3.9-10-3.9-3.1 0-25-6.5-33.9-10-11.1-4.4-28.4-13.2-35.8-18.2-16.2-10.9-33-26.3-34.3-31.4-.8-3.3 1.9-7.7 7.8-12.5 2.9-2.3 12.1-10.9 20.3-19 8.3-8.1 17-16.4 19.5-18.5 11.4-9.5 30.8-19.9 38.3-20.6 3.5-.3 5.8 1.9 117.9 113.3 62.8 62.5 116.3 115.4 118.8 117.4 15.8 13.2 36.2 22.8 58.6 27.6 13.5 3 39.9 3.2 52.4.5 25.8-5.5 48.7-16.9 66-32.6l5.5-5-182-181.6-181.9-181.6 16.9-16.7c9.4-9.2 20.4-19.4 24.5-22.7 35.8-28.9 77.1-46.6 123.5-52.9 16-2.2 46-2.3 62.2-.1 17.2 2.3 32.6 5.9 48.1 11.2 14.2 4.8 39.4 16.2 39 17.5-.2.5-9.6 10.4-20.9 22.1-11.3 11.7-22.7 24-25.4 27.3-28.4 35.1-37.7 82.3-24.4 125 5.1 16.5 16.1 35.8 27.6 48.3l5.8 6.3 118-118c93.9-93.9 118.7-119.2 121.2-123.8 1.9-3.3 4.2-9.9 5.4-15.3 7.3-31.9 21.5-61.2 41.2-84.7 10.2-12.1 15.2-16.3 19.7-16.3 3 0 4.3.9 11 8.2zm427.1 445.3c18 2.5 38.3 7.5 62 15.1 29.7 9.5 29.7 9.6 15.8 38.8-5.1 10.5-13.2 28.5-18.1 40.1-13.4 31.4-22.2 47.5-34.9 63-18.8 23.1-40.5 35.5-70.9 40.6-9.6 1.6-29.2 1.6-59.5-.1-13.2-.7-28.6-1.1-34.3-.9-5.6.2-10.2.2-10.2-.1 0-.3 10.2-10.6 22.6-23 23.3-23.2 35.9-37 48-52.5 25.8-33 47.4-73.2 60.4-112.8 3.7-11.3 2.2-10.6 19.1-8.2zM526.4 916.6l24.8.6-23.9 24.2c-26.1 26.3-35.1 36.2-46.4 50.6-25.9 33.3-46 70.3-59.4 109.5-2.7 7.7-4.9 14.1-5 14.3-.5.6-27.8-4-40.5-6.9-14.5-3.2-41.9-11.3-51.3-15.2-13-5.3-13.9-8.6-6.3-23.7 5.5-11.1 15-31.9 23.1-51 17.9-42.2 32.7-64.7 53-80.5 17.1-13.3 32-19.3 57-22.9 3.1-.4 30.6-.1 74.9 1zm461.7 600.5c35.9 28.9 71.8 49 113.4 63.5 13.6 4.7 15 5.4 15.3 7.7.5 3.7-4.4 31.3-8.3 46.6-4.3 17-12 41.1-15.1 47.3-4.5 9-8.4 8.8-28.2-1.1-7.5-3.8-24.9-11.7-38.7-17.6-28.7-12.3-40.2-18-53.5-26.6-26.2-17-42.1-36.3-50.6-61.5-5.5-16.5-6.7-34.3-4.9-70.9.6-11 1-27.5 1-36.6v-16.7l27.5 27.2c16.1 15.8 33.6 31.9 42.1 38.7z"/></svg>