<svg xmlns="http://www.w3.org/2000/svg" width="1284" height="1286.667" version="1.0" viewBox="0 0 963 965"><path d="M458 1.1c-1.1.7-.4.8 2.5.3 5-.8 5.8-1.4 1.9-1.4-1.6 0-3.6.5-4.4 1.1zM483.5 1c4.4 1.1 6.7 1.1 6 0-.3-.6-2.5-.9-4.8-.9-4 .1-4 .2-1.2.9zM448.5 4c-1.3.5-1.4.9-.5.9.8 0 2.4-.4 3.5-.9 1.3-.5 1.4-.9.5-.9-.8 0-2.4.4-3.5.9zM498.5 5c2.7 1.2 4.3 1.2 2.5 0-.8-.5-2.2-.9-3-.9-1 0-.8.3.5.9zM436.3 9c-3.5 1.6-6.3 3.1-6.3 3.4 0 .4 12.8-5.1 13.9-6.1 1.5-1.2-2.3.1-7.6 2.7zM469 8.7c-36 4.2-71.1 33.5-82.9 69.3-4.3 12.8-4.9 17.3-7.2 48.5-1.2 17.4-3.6 30.7-7.6 42-3.7 10.5-4.2 10.8-28.8 19.6-4.4 1.5-11.4 3.7-15.5 4.8-19.7 5.2-25.4 7.3-36 12.7-12.8 6.6-25.3 18.4-33.8 32-7.7 12.3-15.7 34.8-24.1 68.1-2.7 10.9-5.7 22.5-6.5 25.8-2.3 8.5-2.1 10.5.8 10.5 4.2 0 4.5 1.7 2.5 12-1 5.2-2.8 15.2-3.8 22.3-2.2 13.9-2.4 14.7-4.8 14.7-.9 0-4.8 1.4-8.6 3.2-6.2 2.9-7 3-7.8 1.5-2-3.5-4.1-4.6-10.6-5.2-3.8-.3-12-1.3-18.3-2-6.3-.8-17.7-1.9-25.3-2.6-15.2-1.3-15.6-1.2-19.5 5.3-.9 1.6-1.9 2.8-2.3 2.8-.3 0-1.8-1.7-3.2-3.8-3.1-4.8-7.6-7-17.8-8.8-22.4-3.9-39.5 8.9-50.8 38.1-5.9 15.4-15.4 44.8-16.7 52-1.1 5.8-1.4 14.3-1.3 31l.2 23-6.5.6c-10.4.9-12.2 2-15.3 9.7-8 19.7-9 25.5-9 52.2.1 22.5.1 22.5 2.8 27.7 5.1 9.8 13 13.1 27.5 11.3 9-1.2 17-3.4 22.6-6.2 8-4.1 20.1-17.9 25.6-29.3 3.8-7.7 5.6-5 6.3 9.7 1 17.9 1.8 18.6 19.7 16.2 22.9-3.1 24-3.7 24-13.4.1-11.1 6.1-20.2 15.6-23.5 4.8-1.7 5.8-.7 6.7 6 .7 4.4 3.8 11.8 6.1 14 3.9 3.8 8.2 5.7 13.4 6.2 12.6 1.2 31.9-3.3 39.6-9.2l3.4-2.6 3.1 2.7c3 2.5 3.6 2.6 10.9 2 4.2-.3 13.3-.9 20.2-1.2l12.5-.6L290 604c11.8 3.4 22.4 6.4 23.5 6.7 7.3 2 111.6 30.8 118 32.7 4.4 1.3 10.9 3.2 14.4 4.2 5 1.5 6.5 2.4 7.3 4.4.6 1.6.5 8.7-.2 20-.6 9.6-1.5 25.8-2 36s-1.7 27.9-2.6 39.5c-1.8 23.8-1.6 39.6 1.6 96.5 3.3 60.1 3.9 67.4 5.3 72 .8 2.5 4.5 11.6 8.2 20.4 7.7 17.7 9 19.1 16.8 19.1 4.3 0 5.2-.4 7.6-3.2 1.4-1.7 3.9-6.5 5.5-10.5 1.7-4 4.4-10.5 6.2-14.3 4.5-9.9 6.2-18.7 6.9-36.5.7-17.1 3-57.5 4.5-80 1.2-18.6 1.2-46.5 0-60.5-2.1-23.8-4-62.6-4-81.1 0-19.2 0-19.5 2.3-20.4 2-.9 29.5-8.9 61.7-18 7.4-2.1 25.4-7.3 40-11.5 14.6-4.3 27.9-8.1 29.5-8.5 1.7-.4 14.2-4 28-8 20.6-6 25.7-7.1 29.5-6.6 2.5.3 11.9 1.5 21 2.6s26 3.4 37.5 5.1c28.4 4.2 39.7 5.7 48 6.8 3.9.5 12.7 1.7 19.7 2.6 6.9 1 13.8 1.5 15.2 1.1 4.2-1 6.6-4.4 6.6-9.2 0-2.4.4-4.5.8-4.8.5-.3 2.4 2.4 4.3 6 5.1 9.8 7.1 11.3 17.1 12.9 14.6 2.3 21 2.3 24.2-.3l2.8-2.2 4.4 2.6c9.9 5.8 31.7 9.1 39.9 6 5.6-2.2 10.9-8.2 12.4-14.1 1.4-5.6 1.4-43.2 0-51.1-1.5-8.5-16.4-52.7-20.6-60.9-4.2-8.2-7.4-13-13.8-20.4l-4.6-5.4.2-15.6.2-15.6-3.7-10.5c-13-36.6-26.6-51-48.2-51-14.3 0-22.7 4.2-27.6 13.9-1.6 3-2.8 7-2.8 8.8 0 1.8-.5 3.3-1.2 3.3-.6 0-4.2-2.9-7.9-6.5-4-3.9-9.1-7.6-12.3-9.1-5.3-2.4-17.9-5-19.5-3.9-.8.4-18.8 2.5-41.7 4.7-6.6.6-12.8.9-13.6.6-1-.4-1.8-2.6-2.2-6.5-.4-3.2-1.4-9.6-2.2-14.3-3.1-17.3-3.4-19.6-3.4-22.8 0-2.5.4-3.2 1.9-3.2 2.4 0 3.7-1.8 3.3-4.5-.2-1.1-3.3-13.9-6.9-28.5-12.8-52-21.1-71.4-37.5-88-14.1-14.2-24.8-19.9-52-27.4-23.5-6.6-39.1-12.4-47.7-17.6-3.6-2.3-5.3-4.1-6.6-7.3-7.7-19.1-12.5-43.8-12.5-63.9 0-14.3-3-27-9.9-41.2-12.5-26.2-34.1-44.9-62.7-54.4-7.9-2.6-11.2-3.3-21.4-4.6-1.4-.2-4.1-.1-6 .1zm-31.4 26.8c-.7 2.9-.5 3 3.2 1.1 1.5-.7 4.5-1.6 6.7-2 2.2-.4 4.8-.9 5.8-1.2 3.3-1 1.7 1.3-3.2 4.4-4.6 3-14.1 12.7-14.1 14.4 0 1.1 1.8 1 4.1-.3 2.3-1.2 13.8-1.4 15-.2.4.4-.6 2.7-2.4 4.9l-3.2 4.2-7-.1c-8.2-.2-12.3 1.6-20.3 8.8-5.6 5-6.4 5-10 .2-.7-.9-1.7-1.7-2.1-1.7-2.4 0-8.8 20.8-9.3 30l-.3 5.5 5.3-.3c5-.4 5.2-.3 5.2 2.1 0 1.4 1.3 7.7 2.9 13.9 2.4 9.8 2.8 12.6 2.3 21.1-.3 6.2 0 11.5.8 14.5 1.9 6.9 8.6 20 12.9 25.2 8.6 10.3 11.7 20.5 10.7 36-.3 5.8-1 11.8-1.5 13.5-.8 2.9-.9 2.8-1.5-2-1.8-12.9-2.7-16.7-5-21.7-2.4-5.2-7.1-10.7-8.1-9.7-.2.3.1 2.3.8 4.5 1.6 5.3 1.5 34.2-.1 41.9-3.9 18-10.4 35.4-15.5 41.2-2.2 2.4-4.3 4.1-4.7 3.6-.4-.4-2.2-7.1-3.9-14.8-1.8-7.7-3.7-16.3-4.4-19-1.1-4.4-1.3-24.2-.5-35.7.3-4.4-1.3-5-2.6-1.1-.4 1.6-3.5 10.3-6.7 19.4-3.2 9.2-6.5 20.6-7.4 25.5-1 4.9-1.8 9-2 9.2-.8.8-7.7-7.8-10.4-12.8-4.5-8.4-6.4-17.1-5.9-26.9.4-8.1.6-8.7 8.6-24.1 14.5-28 19.2-46.5 21.2-82.5 2.2-39.2 7.5-54.9 24.9-73.7 6.9-7.4 19.4-17.7 21.5-17.8.4 0 .5 1.1.2 2.5zm66.4-.4c16.7 4.6 28.9 16 38.1 35.4 7.6 16.2 8.9 21.6 9.9 41.5 1.6 32.8 5.5 50 17.5 78.5 3.5 8.2 6.6 17.3 7 20.1 1 7.6-.9 15.3-7 29-9.3 21.1-13.5 36-13.5 48.3 0 3.3-.4 6.2-.9 6.5-1.2.8-27-12.6-27.6-14.4-1.6-5-2.6-18.5-2.4-31.2.2-8.1 0-15-.3-15.3-1-1.1-4.9 8.2-5.8 14.1-.6 3.3-1 10.5-1 16.2 0 7.8-.3 10.3-1.2 10-1.8-.6-3.7-4.8-4.8-10.8-1.2-6.4-1.3-6.5-6.2-9.6l-4.1-2.6.6-7.2c.7-8.4 3.7-18.8 7.9-26.9 11.3-22.5 17.4-43.7 18.8-65.2.5-8.3 1.6-17.3 2.3-20 4.1-14.7 4.7-17.4 4.7-22.6 0-6.4 1-7.3 6.2-5.8 5.1 1.4 5.1 1.4 4.4-5.9-1.1-10.7-6.8-28.2-9.2-28.2-.6 0-1.9.9-2.9 2-2.6 2.9-4.1 2.5-9.8-2.4-8.1-6.8-11.2-8.1-19.2-8l-7 .2-3.3-4.1c-2.1-2.6-2.9-4.4-2.3-5 1-1 13.5-.5 16.4.8 1.2.5 1.7.3 1.7-.9 0-2.5-11-13-16.2-15.5-2.7-1.3-4.8-2.5-4.8-2.7 0-1.1 7.3-.2 14 1.7zm-32.3 35c1 2.1 2 3.8 2.3 3.8.3 0 1.6-1.7 3-3.9 3-5 5.3-5.3 4.6-.8-.3 1.8-.7 10-.8 18.1l-.3 14.9 8.5.2c8.2.3 16 2.4 16 4.4 0 1.8-12.4 4.7-19.7 4.6-4-.1-7.3.2-7.3.7 0 2.4 5.6 6.8 11.2 8.9 13.7 4.9 20.5 17.4 14.8 26.8-1.2 1.9-4.3 6.1-7.1 9.4-2.7 3.3-5.8 7.7-6.9 9.9-2.1 4-2.9 4.6-4.6 3-1.8-1.8-12-3-15.8-2-4.4 1.2-10.6 4.7-10.6 6 0 .5 5.8.9 12.9.9 8.3 0 13.2.4 13.7 1.1 1.4 2.3-1.9 3.4-10.7 3.5-4.9 0-9.2.3-9.4.6-1.2 1.2 5.1 4 9.1 4.1 2.4 0 4.4.3 4.4.6-.1 1.1-3.5 10.6-4.3 11.8-3 4.7-18.4-3.3-32.6-17-8.3-8-13.2-16.4-14.6-25.2-.3-2.2-.9-5-1.2-6.3-.9-3.7 1-2.5 3.5 2.2 1.3 2.4 3.7 5.7 5.4 7.2 2.9 2.8 3 2.8 4.4 1 2.2-3.1 1.4-5.3-10.5-26.8-3.3-6-9.7-28.9-8.7-31.4 1.1-2.9 29.5-1.5 44 2.2l2.8.7-.2-18.4c-.2-10.1-.2-18.7-.1-19.1.3-1.8 3.2.7 4.8 4.3zM451 73.3c3.4 1.7 4.7 3 5.4 5.5 1.2 4.4 0 5.2-8.4 5.2-6.6 0-17.7-2.3-19.4-4-1.1-1.1 2.4-5.3 6.9-8.2 3.6-2.3 8.8-1.8 15.5 1.5zm50.4 41.3c.9.3 1.6 1.4 1.6 2.4 0 1.5-.8 1.8-4.5 1.8-5-.1-6.3-1.1-4.5-3.3 1.3-1.6 4.7-1.9 7.4-.9zM359 203.5c0 .3-1.6 3.2-3.7 6.3-4.3 6.8-10.3 19-10.3 21.2 0 1-.9.5-2.7-1.4-2.6-2.8-2.8-2.9-11.2-2.3-9.7.5-18.2 3.2-23.5 7.2-4.5 3.5-4.5 5.6 0 9.3 2 1.6 3.1 3.2 2.6 3.6-1.4.8-10.6-1-14.1-2.8-3.2-1.7-3.5-1.5-6.6 4.4-1.5 2.9-1.9 6.3-2.1 19-.2 12-.6 16.4-1.9 19.5-2.7 6.2-3.3 8.8-2.4 11.1.9 2.6 8.4 6.4 12.7 6.4 5.4 0 4.3 1.6-3.1 4.4-17.1 6.6-30.8 12-39.6 15.8-5.1 2.1-9.5 3.7-9.8 3.5-.2-.3.8-6.3 2.2-13.3 9.1-44.2 20.9-72.2 37.2-87.5 7.8-7.5 20.7-14.3 30.2-16.1 3.1-.6 11.9-2.6 19.6-4.4 7.7-1.8 15.4-3.5 17-3.7 5-.7 9.5-.7 9.5-.2zm248.5 4.5c36.4 7.7 38.1 8.2 46.4 12.3 18.6 9.2 30.9 25.5 41.1 54.2 5.5 15.8 15.1 55.7 13.6 57.2-.2.3-7.6-2.4-16.3-6-8.7-3.6-20.1-8.2-25.3-10.2-16.1-6.1-15.3-5.5-9-7.2 11.4-2.9 13.4-6.1 9.6-15.6-2.4-5.9-2.6-7.9-2.6-20.4-.1-13.9-.9-18.5-4.4-23.7l-1.6-2.5-5.2 2.4c-8 3.7-16.1 3.2-9.8-.6 1.6-1 3.3-3.1 3.6-4.5.6-2.3.2-3.2-2.2-5.2-4.2-3.4-10.6-6-17.7-7.2-10-1.6-15.1-1.3-17.2 1-1 1.1-2.1 2-2.5 2-.4 0-1.5-2.1-2.5-4.7-2-5.3-7.5-15.2-10.5-19-1.1-1.4-2-3-2-3.4 0-1.4 4.7-1 14.5 1.1zm-126.3 31.4c-.2 13.6-.6 16.6-1.7 16.6-.8 0-2.2-1.4-3-3-.9-1.7-2.8-3.5-4.2-4.1-2.5-.9-2.6-1.2-2-6.9.4-3.3 1.6-7.9 2.8-10.3 2.2-4.5 6.8-9.9 7.8-9.3.3.2.5 7.9.3 17zm9.9 24.7c3.5 1.8 2 2.4-5.5 2.1l-7.3-.3-5.8 4.6c-3.1 2.6-5.9 4.4-6.2 4.2-1-1 7.3-9.1 11.2-10.9 4.1-1.9 9.8-1.8 13.6.3zm-22.1-.6c0 .2-1.9 1.4-4.2 2.6-2.4 1.2-4.7 2.8-5.1 3.5-.4.8-1.3 1.4-1.8 1.4-1.6 0 2.2-5.7 4.5-6.9 2.2-1 6.6-1.5 6.6-.6zm-11 8.9c0 .3-.4.8-1 1.1-.5.3-1 .1-1-.4 0-.6.5-1.1 1-1.1.6 0 1 .2 1 .4zm36.8 16.2c4 1.1 2.3 2-6 3.2-8.8 1.2-8.5 1-15.1 9.6-4.3 5.5-4.4 3.6-.3-3.8 3.5-6.3 3.8-6.5 8.9-7.5 2.8-.5 6.1-1.2 7.2-1.4 1.1-.3 2.2-.5 2.5-.6.3 0 1.5.2 2.8.5zm27.8 1.3c.5.5 21.7 11.3 47.1 24.1l46.1 23.1 2.6 7.2c2.9 8.2 5.6 18.6 5.6 21.3-.1 2.1-.5 1.7-6.4-6.2-1.6-2.1-8.1-9.1-14.5-15.4-20-19.8-43.6-33.8-70.6-41.9-6.4-1.9-7.2-2.5-9.7-6.7-1.6-2.5-2.8-4.9-2.8-5.5 0-1.2 1.3-1.2 2.6 0zm-95.7 9.9c.1 1.4 0 1.4-7.9 3.2-14 3-34.2 11.2-45.5 18.2-14.1 8.9-29.2 23.8-38.3 37.6-3 4.6-5.6 8.1-5.8 7.9-.9-.9 2.7-27.2 3.9-28.3 3.4-3.3 40.3-23.4 68.7-37.5l17.5-8.7 3.7 3.1c2 1.8 3.7 3.8 3.7 4.5zm48.8 29c1.1.7 1.6 2.6 1.4 4.9 0 .7-2.9 2.6-6.4 4.1-3.4 1.6-7.5 4.3-8.9 6.1-3.3 3.9-5.2 10.3-4.5 15.3.6 4.2-.7 5.5-8.6 9.1l-3.8 1.7-6.5-5c-3.6-2.8-7.9-5.7-9.5-6.5-1.6-.9-2.9-1.9-2.9-2.3 0-.9 20.8-21.4 25.8-25.5 3.1-2.5 4-2.7 13-2.7 5.3 0 10.2.4 10.9.8zm-156.3 9.9c-9.7 6.9-16 13.8-20 22-1.3 2.9-2.9 5.3-3.4 5.3-.6 0-1-2.5-1-5.5 0-6.1-1.4-7-5.8-3.9-3.1 2.1-3.4 1.5-1.5-2.4 4.2-8.6 14.9-15.9 25.3-17.1 6.9-.9 9-.3 6.4 1.6zm331 4.2c5.1 2.4 11.9 8.7 15 14.1 1.9 3.3 1.9 3.3 0 2.5-1-.4-2.9-1-4.1-1.2-2-.5-2.3-.1-2.3 2.5 0 3.8-1.6 8.2-3 8.2-.5 0-1-.7-1-1.5 0-2.1-4.7-10.3-8.8-15.3-1.8-2.2-5.8-5.7-8.8-7.8-3-2-5.4-3.9-5.4-4.2 0-1.3 14.1.7 18.4 2.7zm-171.4 4c0 4-.5 6.3-1.5 7.1-.8.7-1.5 2.3-1.5 3.5 0 1.3.7 2.5 1.5 2.9 1.1.4 1.5 2.1 1.5 6.6 0 5.4-.2 6-2 6-3.3 0-7.7-2.7-10.7-6.6-2.3-3.1-2.8-4.7-2.8-9.4s.5-6.3 2.9-9.5c2.8-3.6 7.4-6.4 10.9-6.5 1.4 0 1.7.9 1.7 5.9zm11.3-2.1c6.1 5.7 7.5 13.7 3.6 20.1l-2 3.4-3.8-3.9c-6.2-6.5-7.1-8.6-7.1-16.5v-7.2l3.2.7c1.8.3 4.5 1.9 6.1 3.4zM257.8 355c-1.8 13.2.6 26.7 7.4 40.7 3.6 7.3 5.5 9.4 6.8 7.3.6-1 1.2-1.1 2.2-.2.8.6 2.6 1.6 4.1 2.1 2.4 1 2.8.9 2.6-.7-.1-.9-.1-2 0-2.4 0-.4 3.4.9 7.5 2.7 4 1.9 10.3 4.3 14 5.3 3.7 1 6.8 2.2 6.9 2.6.2 1-16.2 6.5-30.5 10.1-12.3 3.2-24.3 3.5-29.1.8-7.2-4.2-10.6-16.5-8.7-31.5 1.1-9.2 4.5-30 6-36.8.7-3.2.9-3.3 1.5-1.3.8 2.4 3.5 3.2 3.5 1 0-1.4 6-9 6.6-8.4.2.2-.1 4.1-.8 8.7zm441.9.5c3.1 5 3.7 5.3 5.2 2.7 1.3-2.3 1.4-1.9 4.6 16.3 4.6 26.6 4.4 40.9-.8 48.7-4.5 6.6-11.8 8.1-27.1 5.3-9.1-1.6-37.6-10.4-37.6-11.7 0-.4 1.2-1 2.8-1.4 5.8-1.4 14-4.3 19-6.8 6.2-3.1 7.5-3.3 6.7-.6-.9 2.7 2.3 2.7 5.7 0 1.9-1.5 2.8-1.6 3.7-.7 1.5 1.5 3-.3 7.1-8.3 5.4-10.8 8.3-26.4 6.9-37.7-1.5-12-.8-13 3.8-5.8zm-158.9 3.7c1.9 1.9 1.4 2.5-2.3 3.2-2 .4-5.1 2.1-7.1 3.8-3.3 3-3.7 3-7.5 1.9-3.5-1-4.4-1-6.6.4-3.8 2.5-4 1-.5-3.8 2.8-3.8 3.4-4.2 7-3.9 2.1.1 5.6-.4 7.8-1.2 4.9-1.8 7.7-1.9 9.2-.4zm-54.6 5.5c2.1 2 3.8 4.3 3.8 4.9 0 1.8-4 4.4-6.7 4.4-2.2 0-2.3-.4-2.3-6.5 0-3.6.3-6.5.7-6.5.4 0 2.4 1.7 4.5 3.7zM403 375.5c0 10 6.9 35.4 13 47.7 1.7 3.4 2.9 6.6 2.7 7.1-.4 1.3-13.9-14.4-19.3-22.5-6-9-9.9-18.6-8.8-21.5 1-2.6 10.5-14.3 11.7-14.3.4 0 .7 1.6.7 3.5zm69.8 8.2 5.3.6-.3 13.1-.3 13.1-12.7.3c-7.1.1-12.8 0-12.8-.2 0-.3.7-2.4 1.6-4.6 1.6-4 1.5-12.4-.1-19.2-.7-2.4-.4-2.7 2.6-3.1 5.8-.7 11.2-.7 16.7 0zm29.7 4.6c-2.2 5.3-1.9 13.9.6 18.8 1.1 2.2 1.9 4.5 1.7 5-.5 1.5-6.8-3-7.8-5.7-2.4-6.3-.5-16 4.1-20.2 2.9-2.8 3.3-2.3 1.4 2.1zm59.7-.8c.8.8-1.2 9.2-2.9 12.3l-1.4 2.7.5-3c.3-1.7.8-5.1 1.2-7.8.6-4.4 1.3-5.5 2.6-4.2zm-447 4c2.1 1.4 4.5 3.9 5.4 5.7 2.3 4.5 2.9 14.4 1.4 23.5-1.2 7.9-5.5 21.8-7.2 24-1.2 1.5-18.8 1.8-18.8.4 0-.5 1.6-4.4 3.7-8.6 3.6-7.7 5.2-15.8 3.5-18.4-1.3-1.8-13.2-2.7-16-1.2-3.6 1.9-5 5-12.2 26.5-10.7 31.8-10.7 31.2 2.9 31.7 10 .4 13 1.9 16.6 8 1.7 2.8 2 5.1 1.9 13.4-.1 8.9-.6 11.9-5.2 27.6-6.4 22-10.1 32.3-14.7 40.5-4.9 8.8-13.6 17.4-21 20.9-5.3 2.6-7.3 2.9-18.3 3.3l-12.3.4-2.9-2.7c-3.8-3.7-5.4-10.6-4.6-19.8.8-7.7 7.9-30.6 9.9-31.9 1.6-1 19.7-1 19.7-.1 0 .5-2.1 4.8-4.5 9.8-6.7 13.4-6.1 16.6 3.3 18.1 7.9 1.2 14.3-2.9 18-11.6 3.9-9.2 13.3-41.2 13-44.3-.4-3.8-2.2-4.5-13-4.6-7.4-.1-7.9-.2-11.2-3.5-8.1-8.1-7.4-19.3 3.3-51.6 13.6-41 21.9-53.3 38.6-57.7 7.1-1.8 16-.9 20.7 2.2zm758.1-.2c6.1 2.5 14.1 11.2 18.9 20.3 4.8 9.2 12.2 29.8 11.5 31.8-.5 1.3-2.2 1.6-8.2 1.6-10.4 0-11.1-.5-11.9-8.5-.8-8-4.5-16.7-8-19-3-2-13.8-1.7-15.8.3-3 3 4 30.7 11.7 46.3 5.4 10.9 5.3 10.9 15.4 10.9 11.6 0 18.3 3.1 26.4 12.1 8 8.8 13.2 19.9 22.7 48.6l8 24.1v22.4l-3.5 3.5-3.5 3.5-11.5-.4c-10.7-.4-11.8-.7-18.8-4.1-10.3-5.1-17.2-12.7-23.6-26-4.2-8.6-9.1-23.1-9.1-26.7 0-1.1 10.1-1.2 17-.2l4.5.7.6 8.1c.7 9.1 3.4 15.2 8.2 18.8 3.9 2.9 17.3 3.7 18.3 1.1 2.9-7.5-13.8-53.7-20.7-57.2-1.3-.7-5.5-1.3-9.4-1.3-5.7 0-8.2-.6-13.5-3.1-15.5-7.3-23.5-21.5-35.2-62.4-3.7-13.1-4.3-16.3-4.3-25 0-15.7 3.7-20.5 17.3-22.4 6.8-.9 10.1-.5 16.5 2.2zM160 394.9c28.3 2.6 35.6 3.4 36.2 4 .6.5-2 18.6-3.7 25.8l-.5 2.2-4.3-2.4c-2.7-1.5-6.1-2.4-9.7-2.5-7.9-.3-9-.2-9 1.4 0 .7-2.5 10-5.6 20.7-3.1 10.7-6 20.7-6.4 22.4-.4 1.6-1.5 5.7-2.4 9-1 3.3-2.8 10-4.1 15-1.3 4.9-4.9 17.8-8 28.5-9.1 31.3-13.5 49.5-13.5 56.2 0 2.4-.6 3.2-3.4 4.3-4.2 1.8-21.6 3.2-21.6 1.8 0-.6 1.2-3.7 2.6-6.9 3.5-7.9 8.5-23.5 13.9-42.9 5.6-20.3 9.4-33.4 14.8-51.5 12.6-42 16.5-56.5 15.6-58.1-1.6-3-12.5-3.9-16.9-1.4-6.2 3.5-6.3 1.6-.9-11.8 6.7-16.6 6.2-16 12.2-15.3 2.9.4 9.5 1.1 14.7 1.5zm646.8 4c5.9 3 11.5 8.3 16.8 15.7 5.8 8.1 9.5 16.2 14.4 31.9 8.9 28 9.9 40.5 4.3 51.4l-3 5.7 7.7 14c4.2 7.6 10 18.4 12.9 23.9 7.3 13.6 16.7 30 20.8 36 1.8 2.7 3.3 5.3 3.3 5.8 0 .4-4.6.6-10.2.5l-10.3-.3L854 566c-5.3-9.6-11.3-20.7-13.4-24.5-18.5-34-17.6-32.5-21.2-32.5-1.8 0-3.5.4-3.8.9-.3.4.5 4.6 1.8 9.2s3.8 14 5.6 20.9c4.2 15.9 7.6 26.2 10.7 32.4 2.6 5.2 2.5 7.7-.4 7.1-1-.2-6.1-.9-11.4-1.6l-9.6-1.1-2.2-10.7c-4.1-19.6-11.6-49-22-87.1-6.6-23.7-11.6-42.7-14.1-53.4-2.4-10-6-20.1-8.6-24.1-.9-1.4-1.5-2.8-1.2-3 .9-.9 19.8-2.3 28.8-2.1 7.6.2 10.4.7 13.8 2.5zm-582.4 2.3c.3 1.3.6 6.1.6 10.8l-.1 8.5-3.8 1.8c-5.4 2.5-6.3 4.8-12.6 32.2-3.8 16.4-14.6 60.4-19 77.6-2.8 10.6-3.1 15.2-1.2 16.7 4.3 3.5 15.2 2.5 20.1-1.9 1.9-1.6 3.6-4.1 3.9-5.6.4-1.6 1.8-7.8 3.2-13.8 3-13 9-39.4 13.4-59 6.8-30.3 7.2-31.5 9.2-31.5 1.1 0 3.6.7 5.6 1.5 1.9.8 4.4 1.5 5.4 1.5 2.1 0 3.5 3.8 2.5 7.3-.3 1.2-2 8.5-3.7 16.2-1.7 7.7-5 23.1-7.5 34.2-2.4 11.2-5.6 26-7 33-3.2 16.4-7.3 25.2-14.9 32.1-8.1 7.4-16.1 10.2-30.2 10.5-9.9.2-11.5 0-14-1.9-7-5.1-9.2-18.5-5.3-32.8 1.1-4.4 4.3-16.6 7-27 2.7-10.5 6.5-25.4 8.5-33.1 2-7.7 6-23.6 9-35.3 5.8-23 8.2-28.5 15.4-36 7.3-7.5 14.3-10.2 15.5-6zm532.4 7c5.6 15.1 6 18.9 2 16.7-1.2-.7-6.6-.9-14.1-.7l-12.2.3.4-10.5c.1-5.8.7-10.9 1.1-11.4 1.3-1.3 7-2.4 13.6-2.5l6.1-.1 3.1 8.2zm-392.1 6.2c.3.3-.5 2.9-1.7 5.8-2.5 5.8-2.5 5.5 0 42.3.5 7.7 1.2 19.5 1.6 26.2.5 8.6 1.1 12.3 1.9 12.3.7 0 1.5-1.5 1.8-3.3.6-2.9 2.2-9.1 12.4-46.7 5-18.6 6.2-25.6 5-30.4-1.1-4.4-.1-5.6 4.9-5.6 2.5 0 4.3 1.3 10.1 7.3l7.1 7.3-.6 59.5c-.4 46.1-.2 60.3.7 63.2.7 2.1 1 4.1.6 4.5-.4.4-5.8.9-12.1 1-8.3.3-11.4.1-11.4-.8 0-.7.6-3.5 1.4-6.3 1.7-6 3-51.5 1.6-53.8-1.1-1.7-.9-2.4-6.6 19.1-9 34.3-9.3 35.9-8.2 39.1.6 1.7.8 3.2.5 3.5-.2.3-5.9.8-12.5 1.1l-12 .6v-14.9c0-8.2-.5-20.1-1.1-26.4-.6-6.3-1.1-14.1-1.1-17.2 0-3.1-.4-5.9-.9-6.2-1.9-1.2-7.4 28.8-9.2 50.9l-1.3 14.3-3.5.6c-2 .3-7.3.8-11.8 1.2-8.9.7-9.1.6-7.2-4.3 1.8-4.8 6.6-25.3 8.4-35.8 3.7-21.8 14.5-81.4 17.6-96.8 1.3-6.3 1.7-6.7 10.9-10.5 5.1-2.1 13-2.5 14.7-.8zm231.9 6.3c-.1 8.5-1.4 5 15.4 40.8 2.3 4.9 6.2 13.2 8.5 18.2 4.7 10.1 7.2 12.2 6.1 5-.4-2.3-1.4-9.4-2.1-15.7-.8-6.3-2.3-18.7-3.5-27.4-1.1-8.8-1.8-16.1-1.6-16.4.6-.5 9 2.3 13.5 4.6 3.8 1.9 5.9 6.2 6 12.5.1 2 2.6 21.2 5.6 42.5 3 21.3 6 42.5 6.6 47.2 1.8 14.1 3.8 23.2 5.9 26.8 1.1 1.8 2 3.5 2 3.8 0 .6-14.7.5-20.5-.2l-5-.6v-7.2c0-6-.5-8.2-3.2-13.6-1.7-3.6-5.2-10.8-7.6-16-16.9-35.8-18.7-39.3-20.3-37.7-.3.3-.1 4.7.5 9.9.6 5.1 1.8 16.6 2.7 25.6.8 9 2.2 19.6 3 23.5.8 4 1.7 8.7 2.1 10.6l.6 3.4-11.2-.6c-6.2-.3-11.6-.8-11.9-1.2-.3-.3-.1-2.8.4-5.5.6-3 .7-7.4.3-10.8-.5-3.1-1.3-12.2-1.9-20.2-.6-8-1.9-23.5-3-34.5-1-11-2.6-29.5-3.5-41.2-1-13.4-2.1-22.5-3.1-24.8-.8-2-1.3-4.2-1.1-4.8.2-.7 4.4-1.7 9.8-2.3 5.2-.6 9.7-1.2 10-1.2.3-.1.5 3.3.5 7.5zm-26.3 2.6c-.3 3.9.2 16.2 1.1 27.2 2.3 28.5 3.4 43 4.6 59.5 1.9 27.3 3.2 38.5 4.7 42.8.9 2.3 1.3 4.6.9 4.9-1 1.1-20.8.4-22.1-.7-.8-.7-.9-2.9-.3-7.7.6-4.3.6-12.6-.1-22.8-2.2-32.7-4.3-66.5-5-81.5l-.7-15.5 3.5-4.4c3.7-4.5 11.8-10.4 13.2-9.6.4.3.5 3.8.2 7.8zm-110.9-3.7c7.1 2.7 14.7 10.4 17.6 17.9 2 4.9 2.4 7.8 2.4 16.5 0 10.3-.1 10.7-4.2 19.4-2.3 4.9-4.2 9.6-4.2 10.5 0 .9 1.5 5.3 3.4 9.8 4.5 10.5 6 18.6 5.3 27.6-1.4 18-11 30.7-25.6 33.8-6.6 1.4-36.2 2.8-37.4 1.8-.5-.4-.1-2.9.8-5.5 1.3-3.7 2.1-11.7 3.1-31.4.7-14.6 1.8-34.6 2.3-44.5.6-9.9 1.1-19.9 1.1-22.3 0-5.9 2-6.3 6.6-1.2 5.6 6.2 6.3 3.8 1.9-6.2-7.4-16.4-10-25.9-7.7-28.2.4-.5 7.2-.6 15.2-.3 10.9.3 15.7.9 19.4 2.3zm55.4-1.7c7.3 1.2 14 4.3 17.7 8.1l2.7 2.8-3.9 7.6c-2.1 4.1-4.3 7.6-4.9 7.6-.6 0-2.1-1.1-3.3-2.4-3.2-3.4-7.1-4.8-12.2-4.4l-4.4.3-.3 22.6-.2 22.7 3.4.6c4.8.9 11.5-.8 14.4-3.8 2.3-2.2 2.6-3.6 3.2-12.3.5-6.2 1.4-11.1 2.5-13.3 2-4.2 9.4-12 11.2-12 2 0 3.3 3.5 3.3 8.7 0 2.6.5 7.6 1 11.1 1.9 11.8-1.9 24.9-9.4 32.2-3.7 3.6-4.2 5.4-2.7 9.2.5 1.3 2.1 5.4 3.4 9.3 7.6 21.3 13.7 36.5 16.7 41.8 1.5 2.5.7 3.3-3.2 3.2-1.8-.1-6.1-.2-9.6-.3-7.3-.2-6.1 1.5-14.2-20.7-2.8-7.7-6.8-18.3-8.8-23.5-3.7-9.5-3.7-9.5-7.4-9.8l-3.8-.3v19.8c0 14.3.4 21.3 1.5 25.3 2.3 8.5 2.9 8-10.1 8-11.6 0-11.6 0-10.9-2.3.4-1.2 1.1-4.2 1.5-6.7 1.2-6.4.2-114.1-1.2-121.2-.6-3.1-.8-6.3-.5-7 .6-1.7 19.8-2.3 28.5-.9zm216.6 15.8c1.4 4.5 3.2 11.9 7.2 29.6.9 4.2 2.2 8.5 2.9 9.4 1.6 2.1 8.1 2.1 12.4-.1 1.8-1 3.9-1.5 4.6-1.3 1 .5 6.5 20.1 6.9 24.7.1 1.2-1.7 1.6-8.9 2l-9 .5.3 3c.2 1.6 1.4 7.5 2.7 13 1.3 5.5 3.5 15.3 5 21.8 2.5 10.7 3 11.9 5.4 12.9 3.9 1.5 21.8 2.1 28.6 1 4.9-.9 6.2-.8 7.1.4 1 1.3 2.1 7 4 20.7l.6 4.8-7.3-.6c-4.1-.3-14.4-1.3-22.9-2.2-8.5-.8-18.8-1.8-22.8-2.2l-7.4-.6-.2-9.5c-.2-5.5-1.2-13.2-2.5-18.3-1.2-4.9-4.4-19.5-7.1-32.5-2.7-13-6.1-28.9-7.5-35.2-1.4-6.3-3.5-16.4-4.6-22.3l-2.1-10.8 5.6-5c3.1-2.8 5.6-5.7 5.6-6.5 0-3 1.9-1.1 3.4 3.3zm-414 .4c1.4 3.5 1.5 5.3.6 12.7-3.6 28.9-7 37.7-18.4 47.9l-5.7 5.1 3.1 21.3c1.7 11.8 4.2 25.8 5.7 31.2 1.4 5.4 2.3 10.1 1.9 10.4-.8.8-18.3 2.6-19.9 2-1.4-.5-3.5-11.4-6.3-33.2-3-23.5-3.9-26.5-8.6-26.5-2.2 0-3.4 2.9-5.3 12.5-.8 3.8-2.3 11.5-3.5 16.9-1.2 5.5-2.4 14.9-2.8 21-.8 12.8.2 12-15.3 13.2-10.5.8-10.3 1.1-6.5-10.6 2.8-8.9 5.9-22.4 12.1-53.5 8.1-40.9 12.4-60.8 13.2-61.6.8-.8 15.5-2.9 16.2-2.3.4.4-1.2 11.1-3.5 22.9-.8 4.4-1.7 10.6-2.1 13.7l-.6 5.8h6.3c7.5 0 11.7-1.8 14.9-6.6 3.7-5.3 7.1-20.2 7.2-31.2.1-10.3-.1-10.1 8.9-13.3 6.5-2.4 6.6-2.3 8.4 2.2zm339.6 4.2 6.5 2.3 1.7 9.9c1 5.5 3.4 18.5 5.3 29 1.9 10.4 3.7 21.5 4.1 24.5 1.4 12.7 5.3 32.3 7.2 37.1.8 2 2 2.8 5.1 3.3 7.1 1.1 19.1 1.9 19.1 1.3 0-.4-1.1-7.4-2.5-15.6-2.9-18.1-6.1-32.1-8.7-38-1-2.4-1.6-4.6-1.4-4.9.4-.4 14.8-.5 21.9-.2.4 0 .7 2.1.7 4.7 0 5.6 1.3 14 3.5 23.8.8 3.8 2.6 12.6 4 19.5 1.3 6.9 3.4 16.8 4.5 22 1.1 5.2 2 10.1 2 10.8 0 1-2.6 1.2-12.7.7-27.3-1.4-39.2-4.4-46.8-12-6.9-6.9-7.7-9.9-14.5-52-.6-3.3-1.9-12.5-3.1-20.5-1.1-8-2.9-20-3.9-26.7-1.1-6.8-2-14.3-2-16.8 0-5.4.5-5.5 10-2.2zm48 8.2c0 1.6-5.2 2.1-8.4.9-3.2-1.2-1.5-2.4 3.4-2.4 3.8 0 5 .4 5 1.5zM479 758.1c0 115.8-.3 176.9-1 176.9-1.6 0-8.2-13.9-10.1-21.5-1.3-5-2.3-15.2-3.4-36-.8-16-2-35.1-2.5-42.5-1.7-22-2.4-75.1-1.1-87.5.6-6.1 1.8-22 2.6-35.5s1.9-31.9 2.6-41c.6-9.1.9-23.3.6-31.5-.6-15.3-1.5-21.3-7.1-45.5-.8-3.6-1.7-7.9-2.1-9.7l-.6-3.2 10.3-.3c5.7-.2 10.6-.2 11.1 0 .4.2.7 79.9.7 177.3zM333 595c28.2 2.4 41.1 3.7 57 5.6 6.9.8 16.6 1.9 21.5 2.4 5 .6 14.2 1.8 20.5 2.6 6.3.9 13.6 1.8 16.2 2.1l4.6.5.7 8.5c.5 5 .4 8.8-.2 9.4-.8.8-14-1.5-33.8-6.1-4.1-.9-6.6-1.5-32.5-7-8-1.7-27.3-6.1-43-9.7-15.7-3.6-31.1-7.1-34.3-7.8-3.2-.7-6.1-1.6-6.4-1.9-1-1 6-.7 29.7 1.4zm324.8-1.4c-.3.3-8.4 2.3-17.9 4.5-9.6 2.1-20.5 4.6-24.4 5.5-3.8.9-8.6 2-10.5 2.4-11.5 2.5-40.8 9.1-42.5 9.5-2.4.5-48.8 10.4-52.8 11.1l-2.8.6.3-9.3.3-9.3 8-1.2c47.9-7 144.9-16.4 142.3-13.8z"/><path d="M430.3 108c-2.7 1.1-3 2.8-.5 3.7.9.3 4.9 2.4 8.9 4.7 5.2 3 7.2 4.7 7.3 6.1 0 1.2.4 2.5 1 3.1 1.5 1.5 20.2-7.7 22.3-11 .9-1.4 1.7-2.7 1.7-2.8 0-.2-3.9-.4-8.7-.5-5.5-.1-11.4-.9-15.8-2.2-7.4-2.2-12.6-2.6-16.2-1.1zM461 149.7c-1.1 1.4-2 3.2-2 3.9 0 1.8 3.6 4 10 6.3 5.1 1.8 5.3 1.8 10.3-.1 10.3-3.7 11.4-5 8.1-9.6-2-2.9-4.2-2.8-5 .3-1.8 7.1-14.7 7.4-16.1.4-.7-3.8-2.8-4.3-5.3-1.2zM792.8 421.7c-2.3.6-2.2 1.2.3 10.3 1.1 4.1 3 10.6 4 14.5 1.1 3.8 3.1 11 4.5 16 1.4 4.9 3.2 11.5 4.1 14.6 1.4 5.4 1.7 5.7 5.2 6.3 8.5 1.3 15.1-3.3 15.1-10.6 0-8.1-5.8-30.2-10.2-39.3-2.4-4.8-6.3-9.2-10-11.1-2.6-1.3-9.3-1.7-13-.7zM441.5 438.2c-.2.7-.5 8.9-.7 18.1l-.4 16.8 2.4.6c3.8.9 11.2-.3 14.1-2.4 4.3-3.2 6.1-7.9 6.1-16.1 0-8.6-2.4-14.3-7-16.7-3.6-1.8-13.9-2-14.5-.3zM439.6 494.7c-.9 3-1.1 40.7-.2 42.2 1.2 1.9 10.6.8 14.9-1.6 5.6-3.3 7.2-7.4 7.5-19.8.4-12.5-.9-16.2-6.8-20.3-4.3-2.9-14.5-3.2-15.4-.5zM510 9.5c1.4.8 3 1.4 3.5 1.4.6 0-.1-.6-1.5-1.4-1.4-.8-2.9-1.4-3.5-1.4-.5 0 .1.6 1.5 1.4zM517 12.4c0 .3 1.4 1.2 3 2.1 1.7.9 3 1.3 3 1.1 0-.3-1.3-1.2-3-2.1-1.6-.9-3-1.3-3-1.1zM419.4 18.9c-3.8 2.6-7.8 5.9-8.9 7.1-1.1 1.3.5.3 3.5-2.1s7.2-5.5 9.3-6.7c3.3-2.1 4.5-3.2 3.4-3.2-.2 0-3.5 2.2-7.3 4.9zM525.5 17.5c1.1.9 2.9 2.1 4 2.6l2 1-2-1.6c-1.1-.9-2.9-2.1-4-2.6l-2-1 2 1.6zM532 21.3c0 .3 2.1 2.2 4.7 4.3 2.6 2.1 4.4 3.3 4 2.7-.9-1.4-8.7-7.7-8.7-7zM543 30.4c0 .2.8 1 1.8 1.7 1.5 1.3 1.6 1.2.3-.4s-2.1-2.1-2.1-1.3zM400.4 36.2l-2.9 3.3 3.3-2.9c3-2.8 3.7-3.6 2.9-3.6-.2 0-1.6 1.5-3.3 3.2zM551.9 40.4c1.4 1.5 2.6 2.6 2.8 2.6.9 0-2.4-4-3.7-4.5-.8-.4-.4.5.9 1.9zM394.9 42.7c-1.3 1.6-1.2 1.7.4.4.9-.7 1.7-1.5 1.7-1.7 0-.8-.8-.3-2.1 1.3zM557 47c1.2 1.6 2.4 3 2.6 3 .3 0-.4-1.4-1.6-3-1.2-1.7-2.4-3-2.6-3-.3 0 .4 1.3 1.6 3zM390.3 49.2c-1.5 2-2.5 3.8-2 3.8.3 0 1.2-1.1 2.1-2.5 1.7-2.6 1.6-3.5-.1-1.3zM562 55c.6 1.1 1.3 2 1.6 2 .2 0 0-.9-.6-2s-1.3-2-1.6-2c-.2 0 0 .9.6 2zM566.1 62c1.4 3.1 1.9 3.6 1.9 2.4 0-.6-.7-1.9-1.6-3-1.4-1.8-1.4-1.8-.3.6zM379.6 68.5c-.9 2.6-.7 3.2.5 1.2.6-1 .9-2.1.6-2.3-.2-.3-.7.2-1.1 1.1zM569 68.5c0 .5.5 1.7 1 2.5s1 1 1 .5c0-.6-.5-1.7-1-2.5s-1-1.1-1-.5zM571.1 73.5c.1 1.9 1.8 5.1 1.8 3.5 0-.8-.4-2.2-.9-3-.5-.8-.9-1.1-.9-.5zM376.6 76.5c-.9 2.6-.7 3.2.5 1.2.6-1 .9-2.1.6-2.3-.2-.3-.7.2-1.1 1.1zM574.1 83c0 .8.4 2.4.9 3.5.5 1.3.9 1.4.9.5 0-.8-.4-2.4-.9-3.5-.5-1.3-.9-1.4-.9-.5zM374.2 86c0 1.4.2 1.9.5 1.2.2-.6.2-1.8 0-2.5-.3-.6-.5-.1-.5 1.3zM373.1 91.6c0 1.1.3 1.4.6.6.3-.7.2-1.6-.1-1.9-.3-.4-.6.2-.5 1.3zM372.2 98c0 1.4.2 1.9.5 1.2.2-.6.2-1.8 0-2.5-.3-.6-.5-.1-.5 1.3zM577.2 107c0 6.3.3 13.5.7 16 .4 2.6.6-2 .3-10.5-.5-18.2-1-21.2-1-5.5zM371.3 104.5c0 2.2.2 3 .4 1.7.2-1.2.2-3 0-4-.3-.9-.5.1-.4 2.3zM370.3 122.5c0 3.3.2 4.5.4 2.7.2-1.8.2-4.5 0-6s-.4 0-.4 3.3zM579.2 132.5c0 1.6.2 2.2.5 1.2.2-.9.2-2.3 0-3-.3-.6-.5.1-.5 1.8zM369.3 135.5c0 2.7.2 3.8.4 2.2.2-1.5.2-3.7 0-5-.2-1.2-.4 0-.4 2.8zM580.2 138c0 1.4.2 1.9.5 1.2.2-.6.2-1.8 0-2.5-.3-.6-.5-.1-.5 1.3zM368.1 143.6c0 1.1.3 1.4.6.6.3-.7.2-1.6-.1-1.9-.3-.4-.6.2-.5 1.3zM581.6 145c.8 4.3 1.4 5.1 1.4 1.9 0-1.3-.5-3.1-1-3.9-.7-1.1-.8-.5-.4 2zM366.5 152c-.4 1.7-.5 3.4-.2 3.6.2.3.7-1 1.1-2.7.8-4.2 0-5-.9-.9zM584.1 154.5c.1 1.9 1.8 5.1 1.8 3.5 0-.8-.4-2.2-.9-3-.5-.8-.9-1.1-.9-.5zM364.6 159.6c-.4 1.4-.5 2.8-.3 3.1.3.2.8-.8 1.1-2.3.4-1.4.5-2.8.3-3.1-.3-.2-.8.8-1.1 2.3zM586.1 160.5c.1 1.9 1.8 5.1 1.8 3.5 0-.8-.4-2.2-.9-3-.5-.8-.9-1.1-.9-.5zM361.1 169.7c-1 2.6-1 2.7.4.9.8-1.1 1.5-2.3 1.5-2.8 0-1.5-.7-.8-1.9 1.9zM354 174c-1.9 1.1-3 1.9-2.5 1.9.6 0 2.6-.8 4.5-1.9 1.9-1.1 3.1-1.9 2.5-1.9-.5 0-2.6.8-4.5 1.9zM594 173.4c0 .3.9 1 2 1.6 1.1.6 2 .8 2 .6 0-.3-.9-1-2-1.6-1.1-.6-2-.8-2-.6zM344 178c-.8.5-1 1-.5 1 .6 0 1.7-.5 2.5-1s1.1-1 .5-1c-.5 0-1.7.5-2.5 1zM603 178c.8.5 2 1 2.5 1 .6 0 .3-.5-.5-1s-1.9-1-2.5-1c-.5 0-.3.5.5 1zM610.5 181c2.7 1.2 4.3 1.2 2.5 0-.8-.5-2.2-.9-3-.9-1 0-.8.3.5.9zM328.5 183c-1.3.5-1.4.9-.5.9.8 0 2.4-.4 3.5-.9 1.3-.5 1.4-.9.5-.9-.8 0-2.4.4-3.5.9zM319.8 185.7c.7.3 1.6.2 1.9-.1.4-.3-.2-.6-1.3-.5-1.1 0-1.4.3-.6.6zM624.8 185.7c.7.3 1.6.2 1.9-.1.4-.3-.2-.6-1.3-.5-1.1 0-1.4.3-.6.6zM310.5 188c-1.3.5-1.4.9-.5.9.8 0 2.4-.4 3.5-.9 1.3-.5 1.4-.9.5-.9-.8 0-2.4.4-3.5.9zM632.5 188c2.7 1.2 4.3 1.2 2.5 0-.8-.5-2.2-.9-3-.9-1 0-.8.3.5.9zM639.5 190c1.1.5 2.7.9 3.5.9.9 0 .8-.4-.5-.9-1.1-.5-2.7-.9-3.5-.9-.9 0-.8.4.5.9zM301 191c-1.8 1.2-.2 1.2 2.5 0 1.3-.6 1.5-.9.5-.9-.8 0-2.2.4-3 .9zM649 192.5c4.6 1.8 6.4 1.7 2.5 0-1.6-.8-3.7-1.4-4.5-1.4-.8 0 .1.7 2 1.4zM296 193c-.8.5-1 1-.5 1 .6 0 1.7-.5 2.5-1s1.1-1 .5-1c-.5 0-1.7.5-2.5 1zM287.8 196.6c-3.9 2.1-3.5 2.8.5.8 3.7-1.9 4.4-2.4 3.1-2.4-.5.1-2.1.8-3.6 1.6zM659 196c.8.5 2 1 2.5 1 .6 0 .3-.5-.5-1s-1.9-1-2.5-1c-.5 0-.3.5.5 1zM281.4 200.6c-1.8 1.4-1.8 1.5.4.4 1.2-.6 2.2-1.3 2.2-1.5 0-.8-.5-.6-2.6 1.1zM673 202.4c0 .3.9 1 2 1.6 1.1.6 2 .8 2 .6 0-.3-.9-1-2-1.6-1.1-.6-2-.8-2-.6zM269.9 209.1l-5.4 5.1 5.8-4.8c5.2-4.4 6.2-5.4 5.4-5.4-.2 0-2.8 2.3-5.8 5.1zM678 205.4c0 .2 1.4 1.4 3 2.6 1.7 1.2 3 1.9 3 1.6 0-.2-1.3-1.4-3-2.6-1.6-1.2-3-1.9-3-1.6zM685 210.3c0 .2 1.5 1.6 3.3 3.3l3.2 2.9-2.9-3.3c-2.8-3-3.6-3.7-3.6-2.9zM260.4 218.2l-2.9 3.3 3.3-2.9c3-2.8 3.7-3.6 2.9-3.6-.2 0-1.6 1.5-3.3 3.2zM699.5 225.2c2.2 2.7 4.1 4.8 4.3 4.8.7 0-3.6-5.6-5.9-7.5-1.2-1.1-.5.1 1.6 2.7zM255.1 224.3c-1.3 2.1-1.2 2.1.5.5 1-1 1.6-2 1.3-2.2-.3-.3-1.1.5-1.8 1.7zM248.5 234.1c-.4.6-.5 1.2-.2 1.5.2.3.7-.2 1-1.1.7-1.7.1-2-.8-.4zM243.9 243.1c-1.6 3.4-2.9 6.3-2.7 6.5.2.2 1.8-2.6 3.6-6.1 1.7-3.6 3-6.5 2.7-6.5-.3 0-1.9 2.7-3.6 6.1zM709.5 240c.9 1.6 1.8 3 2.1 3 .2 0-.2-1.4-1.1-3-.9-1.7-1.8-3-2.1-3-.2 0 .2 1.3 1.1 3zM713.4 247.5c1.7 4 3.5 7.3 3.6 6.4 0-1-4-9.9-4.6-9.9-.2 0 .2 1.6 1 3.5zM238.3 255.5c-.3.9-.3 1.8-.1 2.1.3.3.8-.4 1.1-1.6.6-2.3-.1-2.7-1-.5zM717 255.5c0 .5.5 1.7 1 2.5s1 1 1 .5c0-.6-.5-1.7-1-2.5s-1-1.1-1-.5zM236.1 261.7c-.1.6-.4 2-.7 3-.5 1.7-.5 1.7.6 0 .6-1 .9-2.3.6-3-.3-.9-.5-.9-.5 0zM722.1 269.5c.1 1.9 1.8 5.1 1.8 3.5 0-.8-.4-2.2-.9-3-.5-.8-.9-1.1-.9-.5zM725.1 279c0 .8.4 2.2.9 3 1.2 1.8 1.2.2 0-2.5-.6-1.3-.9-1.5-.9-.5zM228.6 285.5c-.3.9-.6 2.4-.5 3.3 0 .9.5.4 1-1.2.9-3.2.6-4.8-.5-2.1zM728.1 289.6c0 1.1.3 1.4.6.6.3-.7.2-1.6-.1-1.9-.3-.4-.6.2-.5 1.3zM225.6 297.5c-.3.9-.6 2.2-.5 2.8 0 .7.5.1 1-1.2s.8-2.6.5-2.8c-.2-.2-.6.3-1 1.2zM730.1 297.6c0 1.1.3 1.4.6.6.3-.7.2-1.6-.1-1.9-.3-.4-.6.2-.5 1.3zM223.6 305.5c-.3.9-.6 2.4-.5 3.3 0 .9.5.4 1-1.2.9-3.2.6-4.8-.5-2.1zM732.1 305c0 .8.4 2.4.9 3.5.5 1.3.9 1.4.9.5 0-.8-.4-2.4-.9-3.5-.5-1.3-.9-1.4-.9-.5zM221.1 316.6c0 1.1.3 1.4.6.6.3-.7.2-1.6-.1-1.9-.3-.4-.6.2-.5 1.3zM735.1 317.6c0 1.1.3 1.4.6.6.3-.7.2-1.6-.1-1.9-.3-.4-.6.2-.5 1.3zM736.1 321.6c0 1.1.3 1.4.6.6.3-.7.2-1.6-.1-1.9-.3-.4-.6.2-.5 1.3zM218.1 327.6c0 1.1.3 1.4.6.6.3-.7.2-1.6-.1-1.9-.3-.4-.6.2-.5 1.3zM738.2 330c0 1.4.2 1.9.5 1.2.2-.6.2-1.8 0-2.5-.3-.6-.5-.1-.5 1.3zM739.1 334.6c0 1.1.3 1.4.6.6.3-.7.2-1.6-.1-1.9-.3-.4-.6.2-.5 1.3zM216.3 340c0 2.5.2 3.5.4 2.2.2-1.2.2-3.2 0-4.5-.2-1.2-.4-.2-.4 2.3zM740.1 338.6c0 1.1.3 1.4.6.6.3-.7.2-1.6-.1-1.9-.3-.4-.6.2-.5 1.3zM741.2 343.5c0 1.6.2 2.2.5 1.2.2-.9.2-2.3 0-3-.3-.6-.5.1-.5 1.8zM218.6 348c1.2 1.4 2.4 3.2 2.7 4 .5 1.3.6 1.3.6-.1.1-.8-1.1-2.6-2.6-4l-2.8-2.4 2.1 2.5zM739.6 348.7c-.6 1.4-.5 1.5.5.6.7-.7 1-1.5.7-1.8-.3-.3-.9.2-1.2 1.2zM736.2 355c0 1.9.2 2.7.5 1.7.2-.9.2-2.5 0-3.5-.3-.9-.5-.1-.5 1.8zM220.1 356.6c0 1.1.3 1.4.6.6.3-.7.2-1.6-.1-1.9-.3-.4-.6.2-.5 1.3zM737.2 362c0 1.4.2 1.9.5 1.2.2-.6.2-1.8 0-2.5-.3-.6-.5-.1-.5 1.3zM219.1 362.6c0 1.1.3 1.4.6.6.3-.7.2-1.6-.1-1.9-.3-.4-.6.2-.5 1.3zM218.2 367.5c0 1.6.2 2.2.5 1.2.2-.9.2-2.3 0-3-.3-.6-.5.1-.5 1.8zM738.2 367.5c0 1.6.2 2.2.5 1.2.2-.9.2-2.3 0-3-.3-.6-.5.1-.5 1.8zM97.8 371.7c1.2.2 3.2.2 4.5 0 1.2-.2.2-.4-2.3-.4s-3.5.2-2.2.4zM217.2 373.5c0 1.6.2 2.2.5 1.2.2-.9.2-2.3 0-3-.3-.6-.5.1-.5 1.8zM860.8 371.7c.6.2 1.8.2 2.5 0 .6-.3.1-.5-1.3-.5-1.4 0-1.9.2-1.2.5zM90.8 372.7c.7.3 1.6.2 1.9-.1.4-.3-.2-.6-1.3-.5-1.1 0-1.4.3-.6.6zM107.8 372.7c.6.2 1.8.2 2.5 0 .6-.3.1-.5-1.3-.5-1.4 0-1.9.2-1.2.5zM852.3 372.7c.9.2 2.3.2 3 0 .6-.3-.1-.5-1.8-.5-1.6 0-2.2.2-1.2.5zM867.1 372.4c.2.2 2.2.6 4.4.9 2.8.5 3.4.4 2-.3-1.9-.8-7.3-1.4-6.4-.6zM112.8 373.7c.7.3 1.6.2 1.9-.1.4-.3-.2-.6-1.3-.5-1.1 0-1.4.3-.6.6zM845 374c-1.8 1.2-.2 1.2 2.5 0 1.3-.6 1.5-.9.5-.9-.8 0-2.2.4-3 .9zM75.7 378.7c-3.1 2-5.4 3.9-5.2 4.2.3.2 1.3-.3 2.2-1.2 1-.8 3.8-2.7 6.3-4.1 2.5-1.4 4-2.6 3.4-2.6-.6 0-3.6 1.7-6.7 3.7zM121 376c.8.5 2 1 2.5 1 .6 0 .3-.5-.5-1s-1.9-1-2.5-1c-.5 0-.3.5.5 1zM838.8 376.6c-3.9 2.1-3.5 2.8.5.8 3.7-1.9 4.4-2.4 3.1-2.4-.5.1-2.1.8-3.6 1.6zM879 375.4c0 .2.7.7 1.6 1 .8.3 1.2.2.9-.4-.6-1-2.5-1.4-2.5-.6zM133.7 376.7c-.3.5 1.8.7 4.6.5 8.6-.5 9.6-.9 2.5-1.1-3.7 0-6.9.2-7.1.6zM153.8 377.7c1.2.2 3 .2 4 0 .9-.3-.1-.5-2.3-.4-2.2 0-3 .2-1.7.4zM130 379c-.9.6-1 1-.3 1 .6 0 1.5-.5 1.8-1 .8-1.2.4-1.2-1.5 0zM163.8 378.7c1.2.2 3.2.2 4.5 0 1.2-.2.2-.4-2.3-.4s-3.5.2-2.2.4zM740.3 380.4c.1 1.6.9 3.2 1.7 3.4 1.2.4 1.3.2.4-.9-.7-.8-1.4-2.3-1.7-3.4-.4-1.3-.5-.9-.4.9zM790.3 378.7c1.5.2 3.9.2 5.5 0 1.5-.2.2-.4-2.8-.4s-4.3.2-2.7.4zM172.3 379.7c.9.2 2.3.2 3 0 .6-.3-.1-.5-1.8-.5-1.6 0-2.2.2-1.2.5zM783.3 379.7c.9.2 2.3.2 3 0 .6-.3-.1-.5-1.8-.5-1.6 0-2.2.2-1.2.5zM800.8 379.7c.7.3 1.6.2 1.9-.1.4-.3-.2-.6-1.3-.5-1.1 0-1.4.3-.6.6z"/><path d="m831.4 382.2-2.9 3.3 3.3-2.9c3-2.8 3.7-3.6 2.9-3.6-.2 0-1.6 1.5-3.3 3.2zM182.3 380.7c.9.2 2.5.2 3.5 0 .9-.3.1-.5-1.8-.5-1.9 0-2.7.2-1.7.5zM216.1 381.1c-.1.9-1.1 2.1-2.3 2.7-1.3.6-1.8 1.1-1.2 1.1 1.9.2 4.7-2.6 4.1-4-.4-1.1-.6-1.1-.6.2zM773.8 380.7c1.2.2 3 .2 4 0 .9-.3-.1-.5-2.3-.4-2.2 0-3 .2-1.7.4zM806.5 381c2.7 1.2 4.3 1.2 2.5 0-.8-.5-2.2-.9-3-.9-1 0-.8.3.5.9zM889.4 381.9c2 2.2 2.6 2.5 2.6 1.3 0-.4-1-1.3-2.2-2.1-2.3-1.4-2.3-1.4-.4.8zM189.8 381.7c1.2.2 3.2.2 4.5 0 1.2-.2.2-.4-2.3-.4s-3.5.2-2.2.4zM763.8 381.7c1.2.2 3.2.2 4.5 0 1.2-.2.2-.4-2.3-.4s-3.5.2-2.2.4zM202.2 383c1.4.4 3.2 1.1 4 1.5.7.3.4-.1-.6-.9-1.1-.9-2.9-1.6-4-1.5-1.7.1-1.6.2.6.9zM755.3 382.7c.9.2 2.5.2 3.5 0 .9-.3.1-.5-1.8-.5-1.9 0-2.7.2-1.7.5zM745.8 383.7c1.2.2 3.2.2 4.5 0 1.2-.2.2-.4-2.3-.4s-3.5.2-2.2.4zM65.9 386.7c-1.3 1.6-1.2 1.7.4.4 1.6-1.3 2.1-2.1 1.3-2.1-.2 0-1 .8-1.7 1.7zM208.8 385.7c.7.3 1.6.2 1.9-.1.4-.3-.2-.6-1.3-.5-1.1 0-1.4.3-.6.6zM817 385.4c0 .2 1.8 1.6 4 3.1 3.2 2.2 4.3 2.6 5.3 1.6.9-1 .9-1.1-.3-.6-.9.3-3.1-.6-5-2-3.4-2.5-4-2.8-4-2.1zM897 388.6c0 .5 1.3 2.3 2.8 3.9 3 3.4 2.7 2.5-.6-1.9-1.2-1.6-2.2-2.5-2.2-2zM61.9 391.7c-1.3 1.6-1.2 1.7.4.4 1.6-1.3 2.1-2.1 1.3-2.1-.2 0-1 .8-1.7 1.7zM59.3 395.2c-1.5 2-2.5 3.8-2 3.8.3 0 1.2-1.1 2.1-2.5 1.7-2.6 1.6-3.5-.1-1.3zM904 399c.6 1.1 1.3 2 1.6 2 .2 0 0-.9-.6-2s-1.3-2-1.6-2c-.2 0 0 .9.6 2zM54 404c-.6 1.1-.8 2-.6 2 .3 0 1-.9 1.6-2 .6-1.1.8-2 .6-2-.3 0-1 .9-1.6 2zM906.6 403.3c.3 1 .9 1.5 1.2 1.2.3-.3 0-1.1-.7-1.8-1-.9-1.1-.8-.5.6zM908.6 407.3c.3 1 .9 1.5 1.2 1.2.3-.3 0-1.1-.7-1.8-1-.9-1.1-.8-.5.6zM49.6 413.5c-.9 2.6-.7 3.2.5 1.2.6-1 .9-2.1.6-2.3-.2-.3-.7.2-1.1 1.1zM911 412.5c0 .5.5 1.7 1 2.5s1 1 1 .5c0-.6-.5-1.7-1-2.5s-1-1.1-1-.5zM47.1 419.7c-.1.6-.4 2-.7 3-.5 1.7-.5 1.7.6 0 .6-1 .9-2.3.6-3-.3-.9-.5-.9-.5 0zM44.6 426.5c-.9 2.6-.7 3.2.5 1.2.6-1 .9-2.1.6-2.3-.2-.3-.7.2-1.1 1.1zM916 425.5c0 .5.5 1.7 1 2.5s1 1 1 .5c0-.6-.5-1.7-1-2.5s-1-1.1-1-.5zM42.1 433.7c-.1.6-.4 2-.7 3-.5 1.7-.5 1.7.6 0 .6-1 .9-2.3.6-3-.3-.9-.5-.9-.5 0zM39.6 441.5c-.9 2.6-.7 3.2.5 1.2.6-1 .9-2.1.6-2.3-.2-.3-.7.2-1.1 1.1zM922.2 457.1c-.2 14-.1 14.7 2.1 16.5 2.2 1.9 2.2 1.9.5-.1-1.4-1.7-1.8-4.6-2.1-16.5l-.3-14.5-.2 14.6zM34.6 455.5c-.3.9-.6 2.2-.5 2.8 0 .7.5.1 1-1.2s.8-2.6.5-2.8c-.2-.2-.6.3-1 1.2zM32.6 462.5c-.3.9-.6 2.6-.5 3.8.1 1.4.4.9.9-1.3.9-3.7.7-5.2-.4-2.5zM31.1 470.6c0 1.1.3 1.4.6.6.3-.7.2-1.6-.1-1.9-.3-.4-.6.2-.5 1.3zM927.5 478c1 1.1 2 2 2.3 2 .3 0-.3-.9-1.3-2s-2-2-2.3-2c-.3 0 .3.9 1.3 2zM30.3 481.5c0 2.2.2 3 .4 1.7.2-1.2.2-3 0-4-.3-.9-.5.1-.4 2.3zM930 481.4c0 .2.8 1 1.8 1.7 1.5 1.3 1.6 1.2.3-.4s-2.1-2.1-2.1-1.3zM934 487c.6 1.1 1.3 2 1.6 2 .2 0 0-.9-.6-2s-1.3-2-1.6-2c-.2 0 0 .9.6 2zM936.6 491.3c.3 1 .9 1.5 1.2 1.2.3-.3 0-1.1-.7-1.8-1-.9-1.1-.8-.5.6zM939.1 496c1.4 3.1 1.9 3.6 1.9 2.4 0-.6-.7-1.9-1.6-3-1.4-1.8-1.4-1.8-.3.6zM29.3 500c0 2.5.2 3.5.4 2.2.2-1.2.2-3.2 0-4.5-.2-1.2-.4-.2-.4 2.3zM944.1 507.5c.1 1.9 1.8 5.1 1.8 3.5 0-.8-.4-2.2-.9-3-.5-.8-.9-1.1-.9-.5zM30.1 514.2c-.1 1.6-.8 2.8-1.8 3.1-1.7.4-1.7.5 0 .6 2 .1 3.1-1.9 2.4-4.6-.3-1.2-.5-.9-.6.9zM946.1 513.5c.1 1.9 1.8 5.1 1.8 3.5 0-.8-.4-2.2-.9-3-.5-.8-.9-1.1-.9-.5zM21 519c-.8.5-1 1-.5 1 .6 0 1.7-.5 2.5-1s1.1-1 .5-1c-.5 0-1.7.5-2.5 1zM13.5 523.5c-1.4 1.3-2.5 3-2.5 3.7 0 .7.6.4 1.2-.7s2-2.8 3.2-3.7c1.1-1 1.7-1.8 1.3-1.8-.4 0-1.9 1.1-3.2 2.5zM951.1 528.5c.1 1.9 1.8 5.1 1.8 3.5 0-.8-.4-2.2-.9-3-.5-.8-.9-1.1-.9-.5zM953.6 536c.3 1.4 1.1 3.2 1.6 4 .6 1 .7.7.2-1-.3-1.4-1.1-3.2-1.6-4-.6-1-.7-.7-.2 1zM4.6 543.5c-.3.9-.6 2.2-.5 2.8 0 .7.5.1 1-1.2s.8-2.6.5-2.8c-.2-.2-.6.3-1 1.2zM957.1 546.6c0 1.1.3 1.4.6.6.3-.7.2-1.6-.1-1.9-.3-.4-.6.2-.5 1.3zM958 549.9c0 .6.4 1.3 1 1.6.6.3.7-.1.4-.9-.7-1.8-1.4-2.1-1.4-.7zM2.2 553c0 1.4.2 1.9.5 1.2.2-.6.2-1.8 0-2.5-.3-.6-.5-.1-.5 1.3zM.7 556.7c-.4.3-.6 2.9-.6 5.7l.2 5.1.7-5.5c.7-5.9.7-6.4-.3-5.3zM960.2 558c0 1.4.2 1.9.5 1.2.2-.6.2-1.8 0-2.5-.3-.6-.5-.1-.5 1.3zM961 586.7c0 15.1.4 22.3 1 21.3 1.3-2 1.3-42.7 0-43.5-.7-.4-1 7.2-1 22.2zM149.1 592.4c-1 1.2-.8 1.3.8.9 1.2-.3 2.1-.9 2.1-1.4 0-1.4-1.6-1.1-2.9.5zM146.6 596.5c-.9 2.6-.7 3.2.5 1.2.6-1 .9-2.1.6-2.3-.2-.3-.7.2-1.1 1.1zM160 607.5c1.9 1.9 3.6 3.5 3.9 3.5.3 0-1-1.6-2.9-3.5s-3.6-3.5-3.9-3.5c-.3 0 1 1.6 2.9 3.5zM699.8 605.7c.6.2 1.8.2 2.5 0 .6-.3.1-.5-1.3-.5-1.4 0-1.9.2-1.2.5zM219.7 606.7c-.3.5.5.8 1.8.8s2.1-.3 1.8-.8c-.2-.4-1-.7-1.8-.7s-1.6.3-1.8.7zM253 606.6c3.5.7 18.3 1 16.5.3-1.1-.4-5.6-.7-10-.7s-7.3.2-6.5.4zM687.8 606.7c.7.3 1.6.2 1.9-.1.4-.3-.2-.6-1.3-.5-1.1 0-1.4.3-.6.6zM708.5 607.1c2.2.4 5.1.8 6.5.7 1.6 0 1.1-.3-1.5-.9-2.2-.4-5.1-.8-6.5-.7-1.6 0-1.1.3 1.5.9zM246.3 607.7c.9.2 2.5.2 3.5 0 .9-.3.1-.5-1.8-.5-1.9 0-2.7.2-1.7.5zM0 610.6c0 1.6.5 3.6 1 4.4.6 1 .7.2.3-2.5-.7-4.9-1.3-5.8-1.3-1.9zM145.1 609.2c0 .9-.4 2.5-.7 3.5-.5 1.7-.5 1.7.6 0 .6-1 .9-2.5.7-3.5-.4-1.5-.5-1.5-.6 0zM213.5 609.5c-1.6.7-4.1 1.8-5.5 2.4-2.4 1-2.4 1 .5.4 1.7-.3 4.6-1.4 6.5-2.4 4-2.1 2.9-2.4-1.5-.4zM226.8 608.7c.6.2 1.8.2 2.5 0 .6-.3.1-.5-1.3-.5-1.4 0-1.9.2-1.2.5zM236.8 608.7c.6.2 1.8.2 2.5 0 .6-.3.1-.5-1.3-.5-1.4 0-1.9.2-1.2.5zM678 609c-2.1.7-2.1.8-.5.9 1.1 0 2.7-.4 3.5-.9 1.8-1.1.5-1.1-3 0zM723.3 608.7c.9.2 2.3.2 3 0 .6-.3-.1-.5-1.8-.5-1.6 0-2.2.2-1.2.5zM276.8 609.7c.7.3 1.6.2 1.9-.1.4-.3-.2-.6-1.3-.5-1.1 0-1.4.3-.6.6zM729.8 609.7c1.2.2 3.2.2 4.5 0 1.2-.2.2-.4-2.3-.4s-3.5.2-2.2.4zM738.3 610.7c.9.2 2.3.2 3 0 .6-.3-.1-.5-1.8-.5-1.6 0-2.2.2-1.2.5zM165 611.5c0 .8 6.1 3.6 7 3.3.5-.2-.9-1.1-3-2-2.2-.9-4-1.5-4-1.3zM284.5 612c2.7 1.2 4.3 1.2 2.5 0-.8-.5-2.2-.9-3-.9-1 0-.8.3.5.9zM667.5 612c-1.3.5-1.4.9-.5.9.8 0 2.4-.4 3.5-.9 1.3-.5 1.4-.9.5-.9-.8 0-2.4.4-3.5.9zM747.5 612.1c2.2.4 5.1.8 6.5.7 1.6 0 1.1-.3-1.5-.9-2.2-.4-5.1-.8-6.5-.7-1.6 0-1.1.3 1.5.9zM78 618.3c-3.6 3.4-7.6 7-9 8l-2.5 1.8 2.5-1.2c1.4-.7 5.5-4.1 9.2-7.6 5.4-5.3 6.7-6.1 7.1-4.6.4 1.4.5 1.4.6-.5 0-1.2-.2-2.2-.6-2.2-.5 0-3.7 2.9-7.3 6.3zM958.4 617.6c-1.2 2.9-1.8 5.1-1.3 4.9.9-.6 4.3-9.4 3.8-9.9-.2-.2-1.3 2-2.5 5zM201.8 613.7c.7.3 1.6.2 1.9-.1.4-.3-.2-.6-1.3-.5-1.1 0-1.4.3-.6.6zM291.5 614c1.1.5 2.7.9 3.5.9.9 0 .8-.4-.5-.9-1.1-.5-2.7-.9-3.5-.9-.9 0-.8.4.5.9zM660.5 614c-1.3.6-1.5.9-.5.9.8 0 2.2-.4 3-.9 1.8-1.2.2-1.2-2.5 0zM761 614c2.5.8 9.7 1.3 8.9.6-.2-.2-2.9-.6-5.9-.9-3.6-.4-4.6-.3-3 .3zM196.3 614.7c.9.2 2.3.2 3 0 .6-.3-.1-.5-1.8-.5-1.6 0-2.2.2-1.2.5zM174.8 615.7c.7.3 1.6.2 1.9-.1.4-.3-.2-.6-1.3-.5-1.1 0-1.4.3-.6.6zM187.8 615.7c1.2.2 3 .2 4 0 .9-.3-.1-.5-2.3-.4-2.2 0-3 .2-1.7.4zM772.8 615.7c.6.2 1.8.2 2.5 0 .6-.3.1-.5-1.3-.5-1.4 0-1.9.2-1.2.5zM302.5 617c1.1.5 2.7.9 3.5.9.9 0 .8-.4-.5-.9-1.1-.5-2.7-.9-3.5-.9-.9 0-.8.4.5.9zM646 618c-3 1.1-4.9 1.9-4.2 1.9 1.8.1 12.2-2.9 12.2-3.5 0-.7-2.3-.2-8 1.6zM781.5 617c1.7.4 4.4.8 6 .8 2.5 0 2.4-.2-1-.9-5.1-1-9.2-1-5 .1zM2 617.6c0 .6.7 1.9 1.6 3 1.4 1.8 1.4 1.8.3-.6-1.4-3.1-1.9-3.6-1.9-2.4zM140.4 619.2l-1.9 2.3 2.3-1.9c2.1-1.8 2.7-2.6 1.9-2.6-.2 0-1.2 1-2.3 2.2zM309 619c.8.5 2.4 1 3.4 1 2.6 0 1.8-.6-1.9-1.4-2.2-.5-2.6-.4-1.5.4zM794.3 618.7c.9.2 2.3.2 3 0 .6-.3-.1-.5-1.8-.5-1.6 0-2.2.2-1.2.5zM800.8 619.7c1.2.2 3 .2 4 0 .9-.3-.1-.5-2.3-.4-2.2 0-3 .2-1.7.4zM808.8 620.7c.6.2 1.8.2 2.5 0 .6-.3.1-.5-1.3-.5-1.4 0-1.9.2-1.2.5zM845 621.5c-1.7 1-2 1.4-.9 1.5.9 0 2.2-.7 2.9-1.5 1.5-1.8 1.2-1.8-2 0zM849 620.3c0 .2 1.5 1.6 3.3 3.3l3.2 2.9-2.9-3.3c-2.8-3-3.6-3.7-3.6-2.9zM88 621.4c0 .2.8 1 1.8 1.7 1.5 1.3 1.6 1.2.3-.4s-2.1-2.1-2.1-1.3zM135.5 622c-1.6.7-1.7.9-.3.9.9.1 2-.4 2.3-.9.7-1.1.7-1.1-2 0zM318.8 621.7c.7.3 1.6.2 1.9-.1.4-.3-.2-.6-1.3-.5-1.1 0-1.4.3-.6.6zM633 622c-1.8 1.2-.2 1.2 2.5 0 1.3-.6 1.5-.9.5-.9-.8 0-2.2.4-3 .9zM814.8 621.7c1.2.2 3 .2 4 0 .9-.3-.1-.5-2.3-.4-2.2 0-3 .2-1.7.4zM822.3 622.7c.9.2 2.5.2 3.5 0 .9-.3.1-.5-1.8-.5-1.9 0-2.7.2-1.7.5zM5.6 624.3c.3 1 .9 1.5 1.2 1.2.3-.3 0-1.1-.7-1.8-1-.9-1.1-.8-.5.6zM130.8 623.7c.7.3 1.6.2 1.9-.1.4-.3-.2-.6-1.3-.5-1.1 0-1.4.3-.6.6zM327 624c.8.5 2.4 1 3.4 1 2.6 0 1.8-.6-1.9-1.4-2.2-.5-2.6-.4-1.5.4zM831.3 623.7c.9.2 2.3.2 3 0 .6-.3-.1-.5-1.8-.5-1.6 0-2.2.2-1.2.5zM839.8 623.7c.7.3 1.6.2 1.9-.1.4-.3-.2-.6-1.3-.5-1.1 0-1.4.3-.6.6zM123.3 624.7c.9.2 2.5.2 3.5 0 .9-.3.1-.5-1.8-.5-1.9 0-2.7.2-1.7.5zM622.5 625c-1.3.5-1.4.9-.5.9.8 0 2.4-.4 3.5-.9 1.3-.5 1.4-.9.5-.9-.8 0-2.4.4-3.5.9zM953.9 625.7c-.8.9-3.2 2.9-5.3 4.5-2.1 1.5-3.4 2.8-2.8 2.8 1.1 0 11.1-8.9 10.1-9-.4 0-1.3.8-2 1.7zM116.8 625.7c.6.2 1.8.2 2.5 0 .6-.3.1-.5-1.3-.5-1.4 0-1.9.2-1.2.5zM334.5 625.9c1.1.4 3.6 1.1 5.5 1.5 2.4.4 2.9.3 1.5-.3-1.1-.4-3.6-1.1-5.5-1.5-2.4-.4-2.9-.3-1.5.3zM95.8 626.7c.7.3 1.6.2 1.9-.1.4-.3-.2-.6-1.3-.5-1.1 0-1.4.3-.6.6zM109.3 626.7c.9.2 2.3.2 3 0 .6-.3-.1-.5-1.8-.5-1.6 0-2.2.2-1.2.5zM617.8 626.7c.7.3 1.6.2 1.9-.1.4-.3-.2-.6-1.3-.5-1.1 0-1.4.3-.6.6zM856.8 626.7c.7.3 1.6.2 1.9-.1.4-.3-.2-.6-1.3-.5-1.1 0-1.4.3-.6.6zM9 628.5c1.9 2.3 10 6.9 10.7 6.1.4-.3.2-.6-.4-.6-.6 0-3.5-1.6-6.3-3.5-2.9-2-4.7-2.9-4-2zM100.8 627.7c1.2.2 3.2.2 4.5 0 1.2-.2.2-.4-2.3-.4s-3.5.2-2.2.4zM860.8 627.7c.6.2 1.8.2 2.5 0 .6-.3.1-.5-1.3-.5-1.4 0-1.9.2-1.2.5zM607.1 629.1c-1.8.6-3.1 1.2-2.9 1.4.2.3 2.4-.1 4.9-.9 4.9-1.6 3.3-2-2-.5zM869.5 629c3 .8 13.2 1.3 12.4.6-.2-.2-3.8-.6-7.9-.9-4.4-.3-6.3-.2-4.5.3zM893.5 628.9c-.6.6-3 1.1-5.5 1.4l-4.5.4 4.6.1c3.1.1 5.1-.3 5.9-1.3 1.4-1.6 1-2.1-.5-.6zM897.7 629.1c.7.7 1.5 1 1.8.7.3-.3-.2-.9-1.2-1.2-1.4-.6-1.5-.5-.6.5zM61.5 630c-.3.6.1.7.9.4 1.8-.7 2.1-1.4.7-1.4-.6 0-1.3.4-1.6 1zM347.8 629.7c.7.3 1.6.2 1.9-.1.4-.3-.2-.6-1.3-.5-1.1 0-1.4.3-.6.6zM902 631c.8.5 2.2.9 3 .9 1 0 .8-.3-.5-.9-2.7-1.2-4.3-1.2-2.5 0zM356.5 632c1.1.5 2.7.9 3.5.9.9 0 .8-.4-.5-.9-1.1-.5-2.7-.9-3.5-.9-.9 0-.8.4.5.9zM600.8 631.7c.7.3 1.6.2 1.9-.1.4-.3-.2-.6-1.3-.5-1.1 0-1.4.3-.6.6zM596.8 632.7c.7.3 1.6.2 1.9-.1.4-.3-.2-.6-1.3-.5-1.1 0-1.4.3-.6.6zM907.8 632.7c.7.3 1.6.2 1.9-.1.4-.3-.2-.6-1.3-.5-1.1 0-1.4.3-.6.6zM48.5 634c-2.7.7-2.8.8-.5.8 1.4 0 3.4-.3 4.5-.8 2.5-1.1.2-1.1-4 0zM913.5 634c1.9.8 7.3 1.4 6.4.6-.2-.2-2.2-.6-4.4-.9-2.8-.5-3.4-.4-2 .3zM365.8 634.7c.7.3 1.6.2 1.9-.1.4-.3-.2-.6-1.3-.5-1.1 0-1.4.3-.6.6zM589.8 634.7c.7.3 1.6.2 1.9-.1.4-.3-.2-.6-1.3-.5-1.1 0-1.4.3-.6.6zM21.8 635.7c.7.3 1.6.2 1.9-.1.4-.3-.2-.6-1.3-.5-1.1 0-1.4.3-.6.6zM41.3 635.7c.9.2 2.3.2 3 0 .6-.3-.1-.5-1.8-.5-1.6 0-2.2.2-1.2.5zM369.8 635.7c.7.3 1.6.2 1.9-.1.4-.3-.2-.6-1.3-.5-1.1 0-1.4.3-.6.6zM922.3 635.7c.9.2 2.3.2 3 0 .6-.3-.1-.5-1.8-.5-1.6 0-2.2.2-1.2.5zM936.8 635.7c.7.3 1.6.2 1.9-.1.4-.3-.2-.6-1.3-.5-1.1 0-1.4.3-.6.6zM28.8 636.7c1.2.2 3.2.2 4.5 0 1.2-.2.2-.4-2.3-.4s-3.5.2-2.2.4zM374.5 637c1.1.5 2.7.9 3.5.9.9 0 .8-.4-.5-.9-1.1-.5-2.7-.9-3.5-.9-.9 0-.8.4.5.9zM580.5 637c-1.3.5-1.4.9-.5.9.8 0 2.4-.4 3.5-.9 1.3-.5 1.4-.9.5-.9-.8 0-2.4.4-3.5.9zM381.5 638.8c3.1 1.4 8.3 2.4 6.5 1.3-.8-.5-3.1-1.1-5-1.5-2.4-.4-2.8-.3-1.5.2zM572.8 639.7c.7.3 1.6.2 1.9-.1.4-.3-.2-.6-1.3-.5-1.1 0-1.4.3-.6.6zM393 642c.8.5 2.2.9 3 .9 1 0 .8-.3-.5-.9-2.7-1.2-4.3-1.2-2.5 0zM565.8 641.7c.7.3 1.6.2 1.9-.1.4-.3-.2-.6-1.3-.5-1.1 0-1.4.3-.6.6zM403 645c3.4 1.1 6 1.1 3.5 0-1.1-.5-2.9-.8-4-.8-1.6 0-1.5.2.5.8zM553 645c-1.8 1.2-.2 1.2 2.5 0 1.3-.6 1.5-.9.5-.9-.8 0-2.2.4-3 .9zM410.5 647c2.7 1.2 4.3 1.2 2.5 0-.8-.5-2.2-.9-3-.9-1 0-.8.3.5.9zM545.5 647c-1.3.5-1.4.9-.5.9.8 0 2.4-.4 3.5-.9 1.3-.5 1.4-.9.5-.9-.8 0-2.4.4-3.5.9zM419.8 649.7c.7.3 1.6.2 1.9-.1.4-.3-.2-.6-1.3-.5-1.1 0-1.4.3-.6.6zM535 650c-1.1.8-.7.9 1.5.4 3.7-.8 4.5-1.4 1.9-1.4-1 0-2.6.5-3.4 1zM426.8 651.7c.7.3 1.6.2 1.9-.1.4-.3-.2-.6-1.3-.5-1.1 0-1.4.3-.6.6zM528.5 652c-1.3.5-1.4.9-.5.9.8 0 2.4-.4 3.5-.9 1.3-.5 1.4-.9.5-.9-.8 0-2.4.4-3.5.9zM435 653.9c.8.5 3.1 1.1 5 1.5 2.4.4 2.8.3 1.5-.2-3.1-1.4-8.3-2.4-6.5-1.3zM521.5 654c-1.3.5-1.4.9-.5.9.8 0 2.4-.4 3.5-.9 1.3-.5 1.4-.9.5-.9-.8 0-2.4.4-3.5.9zM444.4 665.5c0 5.5.1 7.6.3 4.7.2-2.9.2-7.4 0-10-.2-2.6-.3-.2-.3 5.3zM515.4 672c0 9.1.2 12.8.3 8.2.2-4.5.2-11.9 0-16.5-.1-4.5-.3-.8-.3 8.3zM443.3 683.5c0 2.7.2 3.8.4 2.2.2-1.5.2-3.7 0-5-.2-1.2-.4 0-.4 2.8zM442.4 703c0 6.3.1 8.9.3 5.7.2-3.1.2-8.3 0-11.5-.2-3.1-.3-.5-.3 5.8zM516.3 702c0 3.6.2 5 .4 3.2.2-1.7.2-4.7 0-6.5-.2-1.7-.4-.3-.4 3.3zM517.3 716c0 4.1.2 5.8.4 3.7.2-2 .2-5.4 0-7.5-.2-2-.4-.3-.4 3.8zM441.3 722c0 3 .2 4.3.4 2.7.2-1.5.2-3.9 0-5.5-.2-1.5-.4-.2-.4 2.8zM518.3 733c0 3 .2 4.3.4 2.7.2-1.5.2-3.9 0-5.5-.2-1.5-.4-.2-.4 2.8zM440.2 738.5c0 1.6.2 2.2.5 1.2.2-.9.2-2.3 0-3-.3-.6-.5.1-.5 1.8zM519.3 746c0 3.6.2 5 .4 3.2.2-1.7.2-4.7 0-6.5-.2-1.7-.4-.3-.4 3.3zM439.3 747c0 3 .2 4.3.4 2.7.2-1.5.2-3.9 0-5.5-.2-1.5-.4-.2-.4 2.8zM520.3 758c0 2.5.2 3.5.4 2.2.2-1.2.2-3.2 0-4.5-.2-1.2-.4-.2-.4 2.3zM438.3 765c0 4.7.2 6.6.4 4.2.2-2.3.2-6.1 0-8.5-.2-2.3-.4-.4-.4 4.3zM438.4 788c0 5.8.1 8.1.3 5.2.2-2.8.2-7.6 0-10.5-.2-2.8-.3-.5-.3 5.3zM520.3 800c0 3.6.2 5 .4 3.2.2-1.7.2-4.7 0-6.5-.2-1.7-.4-.3-.4 3.3zM439.3 813.5c0 4.4.2 6.1.4 3.7.2-2.3.2-5.9 0-8-.2-2-.4-.1-.4 4.3zM519.3 815c0 4.1.2 5.8.4 3.7.2-2 .2-5.4 0-7.5-.2-2-.4-.3-.4 3.8zM440.3 827.5c0 2.7.2 3.8.4 2.2.2-1.5.2-3.7 0-5-.2-1.2-.4 0-.4 2.8zM518.3 829c0 3 .2 4.3.4 2.7.2-1.5.2-3.9 0-5.5-.2-1.5-.4-.2-.4 2.8zM517.3 847.5c0 4.4.2 6.1.4 3.7.2-2.3.2-5.9 0-8-.2-2-.4-.1-.4 4.3zM441.3 850c0 3.6.2 5 .4 3.2.2-1.7.2-4.7 0-6.5-.2-1.7-.4-.3-.4 3.3zM516.3 862c0 3.6.2 5 .4 3.2.2-1.7.2-4.7 0-6.5-.2-1.7-.4-.3-.4 3.3zM442.3 868c0 4.7.2 6.6.4 4.2.2-2.3.2-6.1 0-8.5-.2-2.3-.4-.4-.4 4.3zM443.3 884c0 2.5.2 3.5.4 2.2.2-1.2.2-3.2 0-4.5-.2-1.2-.4-.2-.4 2.3zM515.4 889.5c0 5.5.1 7.6.3 4.7.2-2.9.2-7.4 0-10-.2-2.6-.3-.2-.3 5.3zM444.3 903c0 3 .2 4.3.4 2.7.2-1.5.2-3.9 0-5.5-.2-1.5-.4-.2-.4 2.8zM514.3 905.5c0 2.7.2 3.8.4 2.2.2-1.5.2-3.7 0-5-.2-1.2-.4 0-.4 2.8zM445.2 912c0 1.4.2 1.9.5 1.2.2-.6.2-1.8 0-2.5-.3-.6-.5-.1-.5 1.3zM513.1 912.6c0 1.1.3 1.4.6.6.3-.7.2-1.6-.1-1.9-.3-.4-.6.2-.5 1.3zM446.1 917.6c0 1.1.3 1.4.6.6.3-.7.2-1.6-.1-1.9-.3-.4-.6.2-.5 1.3zM512.1 917.2c0 .9-.4 2.5-.7 3.5-.5 1.7-.5 1.7.6 0 .6-1 .9-2.5.7-3.5-.4-1.5-.5-1.5-.6 0zM449 925.9c0 .6.4 1.3 1 1.6.6.3.7-.1.4-.9-.7-1.8-1.4-2.1-1.4-.7zM508.6 927.5c-.9 2.6-.7 3.2.5 1.2.6-1 .9-2.1.6-2.3-.2-.3-.7.2-1.1 1.1zM452.1 932.5c0 .5.6 2.1 1.4 3.5.8 1.4 1.4 2 1.4 1.5 0-.6-.6-2.1-1.4-3.5-.8-1.4-1.4-2.1-1.4-1.5zM456.5 943.2c.4 1.3 1.1 2.7 1.6 3.3.5.5.4-.5-.2-2.3-1.2-3.6-2.4-4.4-1.4-1zM501.6 943.5c-.9 2.6-.7 3.2.5 1.2.6-1 .9-2.1.6-2.3-.2-.3-.7.2-1.1 1.1zM499.6 948.5c-.9 2.6-.7 3.2.5 1.2.6-1 .9-2.1.6-2.3-.2-.3-.7.2-1.1 1.1zM459 948.5c0 .5.5 1.7 1 2.5s1 1 1 .5c0-.6-.5-1.7-1-2.5s-1-1.1-1-.5zM461.9 954.8c.5 1 1.8 2.5 2.7 3.3 1.1.9.9.2-.6-1.9-2.6-3.5-3.6-4.2-2.1-1.4zM493.9 958.7c-1.3 1.6-1.2 1.7.4.4 1.6-1.3 2.1-2.1 1.3-2.1-.2 0-1 .8-1.7 1.7zM489.5 962c-.3.6.1.7.9.4 1.8-.7 2.1-1.4.7-1.4-.6 0-1.3.4-1.6 1zM471.4 963.5c2.2 1.7 4 2 3.2.6-.3-.5-1.6-1.1-2.8-1.4-2.2-.6-2.2-.5-.4.8zM485 964c-1.3.8-1.3 1 .2 1 .9 0 2-.5 2.3-1 .8-1.3-.5-1.3-2.5 0z"/></svg>