<svg xmlns="http://www.w3.org/2000/svg" id="Capa_1" data-name="Capa 1" viewBox="0 0 618.483 560.345"><defs><style>.cls-1{fill:#bd1218}</style></defs><path d="M39.275 0c-4.403 30.063-6.217 59.913 3.14 89.552 17.628 55.845 62.055 90.685 124.434 110.215 68.794 21.539 114.198 73.744 114.53 135.499.385 71.301.118 142.604.082 213.906-.002 3.6-.498 7.197-.792 11.173-42.659-19.489-55.39-40.158-48.62-77.832.447-2.488.862-4.987 1.512-7.44 7.089-26.717-2.108-47.742-30.037-62.724-8.364-4.487-15.883-10.115-23.628-15.388-18.493-12.59-39.053-24.572-18.27-51.443-10.509.61-28.247.295-48.534-6.926a123.491 123.491 0 0 1-39.203-22.82 142.277 142.277 0 0 1 38.618-27.501c20.295-9.831 38.743-12.79 50.458-13.745C82.874 265.563 20.626 210.111 3.87 140.292-8.242 89.826 9.316 43.563 39.275 0ZM579.208 0c4.403 30.063 6.217 59.913-3.14 89.552-17.628 55.845-62.055 90.685-124.434 110.215-68.794 21.539-114.198 73.744-114.53 135.499-.385 71.301-.118 142.604-.082 213.906.002 3.6.498 7.197.792 11.173 42.659-19.489 55.39-40.158 48.62-77.832-.447-2.488-.862-4.987-1.512-7.44-7.089-26.717 2.108-47.742 30.037-62.724 8.364-4.487 15.883-10.115 23.628-15.388 18.493-12.59 39.053-24.572 18.27-51.443 10.509.61 28.247.295 48.534-6.926a123.491 123.491 0 0 0 39.203-22.82 142.277 142.277 0 0 0-38.618-27.501c-20.295-9.831-38.743-12.79-50.458-13.745 80.091-8.962 142.339-64.415 159.095-134.234C626.725 89.826 609.166 43.563 579.208 0Z" class="cls-1"/></svg>