<svg xmlns="http://www.w3.org/2000/svg" width="1070.667" height="1301.333" version="1.0" viewBox="0 0 803 976"><path d="M311.1 2.1c-41.8 5.1-79 15-117.1 31.2-11.5 4.9-37.5 17.7-45.9 22.6-3 1.8-6 3-6.7 2.7-.7-.3-2.2.8-3.3 2.3-1.1 1.6-3.5 3.4-5.3 4.2-1.8.7-3.5 1.5-3.8 1.8-.3.3-7.2 5.1-15.5 10.6-30.1 20.1-55.7 41.6-87.3 73.2C12.1 164.8 3.2 173 2 173c-1.5 0-2 .7-2 2.5 0 1.4.4 2.5.9 2.5s4.9-2.6 9.8-5.8c65.9-43.7 133.3-71.1 196.8-80.1 42.7-6.1 84.1-5.2 123.6 2.5 35.2 6.8 66.6 17.4 99.9 33.7 41.1 20.1 77.7 45.5 113.5 78.7 12.4 11.5 16.5 15.6 27 27.5 5.3 6 10.1 11.1 10.6 11.3.7.3 29-14.5 33.8-17.7 1.7-1.1.6-2.7-11.4-17.6-8.5-10.6-38.6-41.4-49.5-50.8-9.9-8.4-22.9-18.8-29-23.1-3-2.2-6-4.6-6.7-5.4-.6-.7-2.5-2.1-4.2-3-1.7-1-9.1-5.5-16.4-10.2-29.2-18.8-72.7-37.9-104.4-46-4.3-1.1-5.9-3-2.5-3 3.2 0 18.7 3 31.2 6 16.9 4.1 27.7 7.8 28.4 9.7.4 1 1.4 1.3 3 .9 2.8-.7 11.5 2.2 28.6 9.6 12.6 5.5 27.2 12.6 28 13.6.3.4 3.2 2 6.5 3.5 10.5 5 32.4 19 49.5 31.6 17.7 13 41.7 34.5 59.8 53.6 3.1 3.2 8 8.3 10.7 11.2l5 5.2 9-5c13.1-7.4 21.1-11.6 39-20.9 8.8-4.6 16.2-8.4 16.4-8.6.5-.4-13.6-16.9-23.3-27.3-22.2-23.8-44.8-43.9-74.1-66.2-6.5-4.9-28.3-19.3-38-25.1C540.3 42.3 506.7 27.5 472 17c-5.8-1.8-10.7-3.5-11-3.9-.3-.3-1.6-.6-3-.7-1.4 0-7.7-1.2-14-2.7-15.5-3.6-32.4-6.3-50.4-8.2-21.2-2.2-62.3-1.9-82.5.6z"/><path d="M280.1 128.5c-3.6 2.3-8.6 5.5-11 7.3-2.4 1.8-5 3.2-5.7 3.2-.7 0-1.7.6-2.1 1.4-.4.7-4.2 3.7-8.3 6.6-23 16.3-52.4 40-74 59.5-9.5 8.5-48.2 47.6-55.5 56-13.3 15.1-24.5 29.3-24.5 30.9 0 .4 1.9-.6 4.3-2.2 2.3-1.6 6.7-4.3 9.7-6.1 3-1.7 6.2-3.6 7-4.1.8-.5 3.8-2.3 6.6-3.9 38.1-21.7 76.6-38.9 111.9-50.1 56.2-17.9 96.5-24.3 151.5-24.4 36.7 0 57.2 2 94 9l3.5.7-3-3.2c-1.6-1.8-5.3-5-8.2-7.3-2.9-2.2-5.5-4.8-5.8-5.9-.4-1-1.4-1.9-2.3-1.9-.8 0-4.1-2-7.1-4.4-7.9-6.2-27-19-32.7-22-11-5.7-53.3-8.7-78.9-5.6-18.5 2.2-37.9 6.5-54.4 12.1-9.1 3.1-12.3 3.2-8.5.4 7.5-5.6 33.8-19 47.3-24.1 10.2-3.9 27-8.4 31.2-8.4 6.6 0 5.2-1.8-3.3-4.4-22.3-6.7-44-11-63.7-12.4l-11.4-.8-6.6 4.1zM738.5 236.3c-3.3 1.9-12.3 6.6-20 10.7-7.7 4-16 8.4-18.5 9.8-2.5 1.4-7.3 4-10.7 5.9-3.5 1.9-6.6 3.9-6.9 4.4-.3.6.1 2 1 3.2.9 1.2 4.1 5.6 7.1 9.7 12.5 17.2 26.3 42 34 61 3.6 9 4.4 12.3 5.4 23 .7 6.9 1.7 16.1 2.3 20.5 1.3 10.3 1.8 81.5.8 100.5-1 18-3 42.2-3.5 43-.8 1.4-12.2-1.2-20.3-4.5-8.1-3.3-19.7-10.9-18.8-12.3.7-1.2-1.7-3.8-4.9-5.3-1.6-.8-3.9-3-5.2-4.9-1.2-1.9-2.6-4-3.1-4.5-1.3-1.7-6.2-10.3-6.2-11 0-.3 1.2.2 2.8 1.3 7.4 5.3 20.9 10 25.7 9.1 3-.6 4.3-13.8 5.1-49.3l.7-29.9-5.2.6c-5.9.7-15 5.2-21.2 10.5l-4.2 3.6.7-3.9c2-11.4 10-24.8 20.5-34.8 4.6-4.4 6.1-6.5 6.1-8.5-.1-3.7-3.5-23.1-4.3-23.8-.3-.3-3.3.9-6.7 2.7-20 10.9-37.1 34.2-43.4 58.8l-2.4 9.4-4.8 1.9c-8.7 3.4-19.7 8.6-30.2 14.3-5.7 3-10.8 5.5-11.3 5.5s-1.7.7-2.6 1.6c-1 .8-6.1 4.3-11.3 7.8-22.3 14.5-45.1 33-58.4 47.5-8.9 9.5-10.9 11.7-14.4 15.9l-3.6 4.4 2.3 14c9.6 59.2 36.4 109.5 74.6 140.3 5.2 4.1 9.8 7.5 10.4 7.5.6 0 3.2-1.6 5.8-3.6 8.3-6.3 14-8.7 22.3-9.2 7.1-.4 7.8-.2 12.2 2.7 9 6.1 12.8 19.3 12.8 44.2 0 27.3-5 57.7-15.6 95.9-5.4 19.1-18 56.8-22.3 66.6-1.2 2.6-2.1 4.8-2.1 5 0 1.2 2.3 0 6-3.1 2.3-1.9 4.8-3.5 5.6-3.5.8 0 1.8-.8 2.1-1.7.4-1 5.9-7.1 12.2-13.5 17.3-17.5 29.3-32.1 43.8-53.8 6.9-10.3 8.7-13.1 14.5-23.6 1.6-2.9 3.5-5.7 4.3-6.4.8-.7 1.5-1.9 1.5-2.6 0-.8 2.7-7.2 5.9-14.2 3.3-7 6.3-13.9 6.6-15.3.6-2.6 1.1-2.7 15.2-4.9l14.5-2.3-.6-4.6c-.4-2.5-1.1-9.6-1.6-15.6-.6-6.1-1.3-12.7-1.6-14.8-.3-2-.3-3.7.1-3.7 3.6 0 18.6 14 22.2 20.7 1 1.8 2.1 3.3 2.4 3.3.7 0 3.9-9.1 5.2-14.5.3-1.1 2.3-8.3 4.4-16 11-38.8 19.8-85.1 25.4-134 5-43.5 5.3-51.6 5.6-127.8.2-41 0-73.7-.5-73.7s-1.5-7.3-2.2-16.3l-1.2-16.2-6-14c-6.2-14.3-19.6-41.9-27.1-55.7-7.9-14.5-19.2-32.8-20.2-32.8-.5 0-3.7 1.5-7 3.3zM472.9 261.1c-36.2 3.8-78 18.8-110.3 39.6-10.2 6.5-23.6 16.6-23.6 17.8 0 .6 5.5 4.5 12.3 8.7 41.8 26.1 56 34.8 56.8 34.8.5 0 4.4-2.6 8.7-5.8 4.3-3.1 13-9.3 19.4-13.7 6.5-4.4 11.7-8.2 11.7-8.5 0-.3-4.8-3.4-10.8-6.9l-10.9-6.4 4.1-3.5c18.5-15.4 57.5-30.9 109.9-43.6 7.9-1.9 16-3.8 18.1-4.2 2.1-.3 3.5-1 3-1.4-1.1-1.1-19.6-4.7-33.2-6.5-12.3-1.6-42-1.8-55.2-.4zM458.9 412.2c0 1.4-38 29.8-39.8 29.8-.6 0-1.1.4-1.1.9 0 .4-4.4 4.1-9.7 8.2-33.3 25.1-94.5 73.6-121.8 96.3-31.3 26.1-42.2 35.2-44.5 37.3-1.4 1.3-4.6 4-7.2 6.1l-4.7 3.7-.1 16.5c0 43.1 8.2 89.3 24.6 137.7 8.2 24.2 26.7 68 30.3 71.6.4.4 1.3-3.8 2-9.5.6-5.7 1.8-13.9 2.6-18.3 4.7-26.3 6-33.3 8.6-45 2.6-12.1 6.8-28.5 11.8-46.6 1.1-4.2 5-16.4 8.5-27 6-18.1 8.2-24.3 14.1-39.4 1.3-3.3 3.2-8.3 4.2-11 1.1-2.8 2.7-6.6 3.6-8.5.9-1.9 2.7-6.3 4.1-9.7 6-14.6 22.1-46.9 32.8-66.2 3.2-5.8 5.8-10.6 5.8-10.8 0-.4 10-17 17.3-28.8 15.5-25 26.6-41.2 45.9-66.8 8.1-10.8 14.8-20.2 14.8-20.7 0-1.5-2-1.2-2.1.2zM446.7 630.2c-2.5 5.7-5.7 13.4-7.2 17.3-1.4 3.8-2.9 7.2-3.3 7.5-.5.3-1.3 2.5-1.9 5-.6 2.5-2.8 9-4.8 14.5-10.3 27.8-22.8 77.5-28 111-5.2 33.9-8 58.4-9.8 85.4-1.4 21-1.6 93-.4 100.5l.9 4.9 3.1-4.9c1.7-2.7 11.7-17.9 22.2-33.9s22.2-33.7 26-39.5c35.4-54.2 73.2-109.4 93.4-136.7l6.4-8.6-4.9-4.1c-8.5-7-28.7-27.7-36.8-37.6-10.5-12.7-23.1-31.8-31-47-6-11.5-17.6-39.7-17.6-42.7 0-3.4-2.1-.4-6.3 8.9z"/></svg>