<svg xmlns="http://www.w3.org/2000/svg" width="600" height="600"><path fill="#04447b" fill-rule="evenodd" d="M84.219 105.219c22.543 156.32 67.638 280.809 127.981 353.304 21.603 25.953 50.199 49.194 69.129 56.184l4.83 1.783 11.17-5.771c58.559-30.255 108.076-101.961 144.805-209.694 15.701-46.05 29.635-100.363 38.747-151.025 3.897-21.667 8.31-50.143 7.843-50.609-.203-.204-5.414 2.509-11.581 6.027C439.549 126.87 390.372 141.025 334 146.62c-23.94 2.376-70.987 2.385-94.785.017-56.401-5.61-106.891-20.041-144.298-41.241-5.722-3.243-10.674-6.023-11.004-6.177-.33-.155-.193 2.545.306 6m113.885 83.548c.68 15.482 1.876 19.137 7.158 21.868 4.866 2.517 16.277 2.423 20.738-.169 5.66-3.289 6.994-7.183 7.014-20.466.017-11.717.341-13.264 2.986-14.271.825-.314-1.65-.578-5.5-.587-5.154-.011-6.407.223-4.75.889 2.159.868 2.25 1.392 2.25 12.969 0 14.024-1.168 17.999-5.86 19.942-3.917 1.623-9.263.684-11.753-2.063-1.627-1.796-1.931-4.051-2.209-16.394-.297-13.159-.176-14.348 1.5-14.782 1.002-.259-1.328-.524-5.178-.588l-7-.117.604 13.769m53.687-12.779c-10.866 3.276-15.834 15.553-10.541 26.05 1.823 3.615 3.389 5.032 8.25 7.462 5.262 2.631 7.016 2.993 14.259 2.941 4.542-.032 8.721-.521 9.286-1.086.565-.565 1.294-2.789 1.62-4.941l.593-3.914-2.411 3.5c-2.91 4.225-7.001 4.977-13.523 2.486-5.533-2.113-9.413-7.095-10.071-12.93-1.461-12.97 6.335-20.629 17.845-17.53 3.155.85 4.389 1.803 5.234 4.043 1.586 4.202 2.668 3.616 2.668-1.444 0-4.1-.196-4.414-3.125-5-4.29-.858-16.782-.632-20.084.363m42.831 6.262c-1.796 3.988-5.23 11.892-7.631 17.567-3.051 7.208-5.09 10.695-6.767 11.573-2.141 1.123-1.699 1.25 4.117 1.184 3.817-.043 5.924-.405 5.088-.874-1.839-1.029-1.809-3.064.097-6.75 1.451-2.807 1.84-2.95 8.013-2.95h6.487l2.237 4.75c2.807 5.961 3.179 6.216 9.093 6.235l4.856.015-2.908-2.75c-1.637-1.548-4.784-7.12-7.201-12.75-7.58-17.652-9.973-22.5-11.107-22.5-.611 0-2.579 3.262-4.374 7.25m37.365-6.5c-.007.412-1.3 8.364-2.872 17.67-1.992 11.787-3.342 17.273-4.45 18.083-1.273.931-.357 1.164 4.582 1.164 4.885 0 5.712-.206 3.963-.986-2.544-1.136-2.622-2.428-.86-14.181l1.199-8 5.934 11.25c3.263 6.188 6.479 11.25 7.147 11.25.667 0 4.117-5.467 7.667-12.149l6.454-12.149 1.287 8.899c.708 4.894 1.326 10.315 1.374 12.045.086 3.081.21 3.16 5.943 3.812 5.881.668 8.966-.038 4.859-1.112-2.667-.698-3.286-2.883-6.259-22.096-1.332-8.614-2.65-14.244-3.33-14.236-.619.008-4.275 6.079-8.125 13.492-3.85 7.413-7.225 13.474-7.5 13.47-.275-.005-3.614-6.076-7.419-13.492-3.806-7.416-7.518-13.484-8.25-13.484-.732 0-1.337.338-1.344.75m70.513 24.608c-22.569 22.939-22.412 22.851-44.072 24.614-28.586 2.328-41.423 5.177-54.342 12.063-8.812 4.697-16.924 11.686-21.736 18.728-7.189 10.52-7.832 16.895-2.898 28.737 3.549 8.516 3.458 15.45-.257 19.608l-2.806 3.14.416-6.525c.51-8.004-.966-12.789-5.489-17.795-9.527-10.545-25.601-8.388-32.137 4.313-2.421 4.704-4.179 5.41-4.179 1.678 0-1.08 1.387-4.991 3.082-8.691 2.863-6.249 3.056-7.376 2.71-15.83-.317-7.776-.837-10.047-3.567-15.592-1.757-3.569-5.015-8.558-7.239-11.084-6.534-7.424-9.554-8.781-23.02-10.346-22.761-2.644-26.873-5.56-50.966-36.142-3.937-4.997-6.627-7.658-6.822-6.747-.534 2.486 2.619 11.963 6.265 18.837 1.885 3.552 3.209 7.295 2.944 8.317-.724 2.791 2.148 9.957 6.206 15.486 2.189 2.982 3.367 5.536 2.997 6.5-1.078 2.809 1.343 9.109 5.543 14.422 2.249 2.846 4.502 6.666 5.005 8.49 1.418 5.135 7.017 12.799 10.564 14.461 2.513 1.177 3.684 2.778 5.44 7.431 1.231 3.262 3.509 7.38 5.063 9.15l2.826 3.219-8.265 2.963c-4.546 1.63-10.516 3.707-13.266 4.616-2.75.909-6.8 2.686-9 3.948-3.76 2.158-3.988 2.552-3.801 6.582.109 2.357.851 5.282 1.648 6.498.812 1.24 1.223 3.393.934 4.902-.579 3.029.115 3.251 3.719 1.191 1.375-.786 2.774-1.445 3.11-1.465.335-.019 5.257 9.888 10.936 22.016 9.142 19.52 10.794 22.394 14.391 25.046l4.063 2.995.296-4.863c.276-4.53-.496-6.344-11.25-26.45-6.35-11.873-11.546-21.801-11.546-22.062 0-.261 1.35-1.034 3-1.717 3.422-1.417 3.759-2.468 1.25-3.897-1.395-.794-1.524-1.362-.633-2.8 2.811-4.537 32.089.353 45.383 7.579.825.449 2.026 1.896 2.669 3.217 1.162 2.389 5.241 17.628 7.403 27.663.781 3.628 2.534 7.043 5.645 11 8.77 11.154 9.511 17.17 3.368 27.356-5.28 8.754-6.95 15.292-7.295 28.564-.289 11.154-.283 11.189 2.622 14.224 1.602 1.673 6.327 4.448 10.5 6.165 8.951 3.684 9.382 4.073 11.017 9.929 1.801 6.455 8.609 13 13.521 13 3.5 0 1.049-12.64-3.39-17.486-1.014-1.108-2.171-3.589-2.57-5.514-1.197-5.767-2.345-7.253-5.072-6.569-2.087.524-2.418.256-2.418-1.962 0-1.412-.712-3.944-1.581-5.626-2.08-4.021-1.279-6.728 3.687-12.465 2.252-2.603 4.808-6.227 5.68-8.055 1.971-4.133 2.854-4.162 5.011-.167.936 1.736 3.576 5.957 5.865 9.381 3.895 5.826 7.066 14.748 7.806 21.963.169 1.65.64 4.032 1.047 5.293.545 1.686.376 2.215-.637 2-1.06-.225-1.403 1.325-1.485 6.707-.059 3.85-.622 8.267-1.25 9.815-1.515 3.732-1.447 7.887.165 10.091 1.235 1.689 1.478 1.645 4.377-.795 3.547-2.984 5.724-9.916 4.748-15.117-.609-3.244-.433-3.477 4.861-6.465 7.526-4.247 8.656-7.107 5.837-14.78-1.737-4.729-2.069-7.633-1.871-16.369l.24-10.621-7.814-15.379c-7.216-14.204-7.815-15.85-7.83-21.524-.018-6.722 2.352-12.961 4.437-11.678 7.097 4.372 14.06 10.105 15.38 12.665.895 1.736 3.17 5.179 5.054 7.651 2.65 3.477 3.295 5.117 2.849 7.25l-1.178 5.64c-.495 2.373.058 3.615 3.116 7 2.046 2.264 4.484 4.116 5.42 4.116 1.181 0 2.22 1.649 3.4 5.392 1.621 5.141 4.068 8.539 5.278 7.33.31-.31.811-3.29 1.113-6.623.527-5.815.406-6.233-3.006-10.397l-3.555-4.338.547-7.982c.718-10.473-1.267-17.432-6.964-24.416-2.336-2.864-4.864-6.39-5.617-7.837-.754-1.446-3.265-4.654-5.58-7.129-2.316-2.475-4.903-6.356-5.75-8.625l-1.541-4.125 5.204-3.505c2.862-1.927 6.291-3.834 7.62-4.236 6.007-1.818 9.129-4.015 11.531-8.113 1.4-2.388 2.847-4.302 3.215-4.251 4.132.566 10.46-4.46 12.181-9.676.925-2.801 1.896-3.66 5.287-4.676 5.55-1.663 11.153-7.457 13.389-13.847.998-2.85 2.489-5.402 3.314-5.671.825-.27 3.841-1.589 6.701-2.933 5.603-2.63 11.546-9.487 12.894-14.876.428-1.71 3.423-5.558 7.074-9.088 5.176-5.004 6.331-6.704 6.331-9.315 0-1.757-.431-3.999-.957-4.983-.752-1.404-.295-2.409 2.129-4.684 7.537-7.074 10.924-14.9 7.799-18.025-.705-.705-.433-1.79.862-3.45 4.6-5.891 8.321-14.014 8.874-19.371.315-3.052.172-5.539-.317-5.526-.49.013-9.44 8.713-19.89 19.334m-107.392-10.259a1865.25 1865.25 0 0 0-2.803 6.651c-.376.907.914 1.25 4.696 1.25 4.99 0 5.19-.103 4.62-2.374-.328-1.305-1.413-4.298-2.412-6.651l-1.817-4.277-2.284 5.401m-44.107 91.024c-3.227 1.287-6.819 4.663-8.596 8.077-3.009 5.783-.854 6.478 4.03 1.3 3.229-3.424 5.506-4.135 11.491-3.59 7.022.64 12.064 6.606 12.07 14.281.004 5.075 1.406 7.168 2.377 3.548 4.036-15.059-8.393-28.791-21.372-23.616"/><path fill="#e8aa05" fill-rule="evenodd" d="M516.378 72.398c-4.329 1.938-6.378 5.28-6.378 10.401 0 3.454.589 4.944 2.85 7.204 5.99 5.991 14.693 4.419 18.512-3.343 1.657-3.368 1.712-4.178.499-7.365-2.459-6.461-9.475-9.587-15.483-6.897M68 73.582c0 .87 1.814 14.205 4.031 29.632 20.293 141.222 56.09 251.852 106.664 329.649 27.192 41.828 59.992 73.946 91.805 89.896 14.188 7.114 14.599 7.146 25.554 2.014 34.711-16.261 68.138-47.326 95.35-88.611 44.493-67.501 78.228-162.04 101.045-283.162 5.152-27.346 12.34-79.544 11.123-80.761-.277-.278-3.557 2.196-7.288 5.497-18.359 16.243-51.05 32.339-86.784 42.729-73.669 21.42-167.318 21.871-242.506 1.167-36.84-10.144-73.7-27.961-92.154-44.545-6.157-5.533-6.84-5.883-6.84-3.505m447.655 3.247c-1.953 2.158-2.181 8.068-.405 10.503 1.054 1.446 1.25.808 1.25-4.058V77.5h9l.092 4.259c.095 4.352.86 6.122 2.108 4.874 1.406-1.406.663-7.575-1.155-9.583-2.405-2.657-8.572-2.783-10.89-.221M520 85.8c0 .99-.54 2.34-1.2 3-.933.933-.343 1.2 2.655 1.2 3.671 0 3.776-.087 2.2-1.829-.91-1.006-1.655-2.356-1.655-3 0-.644-.45-1.171-1-1.171s-1 .81-1 1.8M84.219 105.219c22.543 156.32 67.638 280.809 127.981 353.304 21.603 25.953 50.199 49.194 69.129 56.184l4.83 1.783 11.17-5.771c58.559-30.255 108.076-101.961 144.805-209.694 15.701-46.05 29.635-100.363 38.747-151.025 3.897-21.667 8.31-50.143 7.843-50.609-.203-.204-5.414 2.509-11.581 6.027C439.549 126.87 390.372 141.025 334 146.62c-23.94 2.376-70.987 2.385-94.785.017-56.401-5.61-106.891-20.041-144.298-41.241-5.722-3.243-10.674-6.023-11.004-6.177-.33-.155-.193 2.545.306 6m113.885 83.548c.68 15.482 1.876 19.137 7.158 21.868 4.866 2.517 16.277 2.423 20.738-.169 5.66-3.289 6.994-7.183 7.014-20.466.017-11.717.341-13.264 2.986-14.271.825-.314-1.65-.578-5.5-.587-5.154-.011-6.407.223-4.75.889 2.159.868 2.25 1.392 2.25 12.969 0 14.024-1.168 17.999-5.86 19.942-3.917 1.623-9.263.684-11.753-2.063-1.627-1.796-1.931-4.051-2.209-16.394-.297-13.159-.176-14.348 1.5-14.782 1.002-.259-1.328-.524-5.178-.588l-7-.117.604 13.769m53.687-12.779c-10.866 3.276-15.834 15.553-10.541 26.05 1.823 3.615 3.389 5.032 8.25 7.462 5.262 2.631 7.016 2.993 14.259 2.941 4.542-.032 8.721-.521 9.286-1.086.565-.565 1.294-2.789 1.62-4.941l.593-3.914-2.411 3.5c-2.91 4.225-7.001 4.977-13.523 2.486-5.533-2.113-9.413-7.095-10.071-12.93-1.461-12.97 6.335-20.629 17.845-17.53 3.155.85 4.389 1.803 5.234 4.043 1.586 4.202 2.668 3.616 2.668-1.444 0-4.1-.196-4.414-3.125-5-4.29-.858-16.782-.632-20.084.363m42.831 6.262c-1.796 3.988-5.23 11.892-7.631 17.567-3.051 7.208-5.09 10.695-6.767 11.573-2.141 1.123-1.699 1.25 4.117 1.184 3.817-.043 5.924-.405 5.088-.874-1.839-1.029-1.809-3.064.097-6.75 1.451-2.807 1.84-2.95 8.013-2.95h6.487l2.237 4.75c2.807 5.961 3.179 6.216 9.093 6.235l4.856.015-2.908-2.75c-1.637-1.548-4.784-7.12-7.201-12.75-7.58-17.652-9.973-22.5-11.107-22.5-.611 0-2.579 3.262-4.374 7.25m37.365-6.5c-.007.412-1.3 8.364-2.872 17.67-1.992 11.787-3.342 17.273-4.45 18.083-1.273.931-.357 1.164 4.582 1.164 4.885 0 5.712-.206 3.963-.986-2.544-1.136-2.622-2.428-.86-14.181l1.199-8 5.934 11.25c3.263 6.188 6.479 11.25 7.147 11.25.667 0 4.117-5.467 7.667-12.149l6.454-12.149 1.287 8.899c.708 4.894 1.326 10.315 1.374 12.045.086 3.081.21 3.16 5.943 3.812 5.881.668 8.966-.038 4.859-1.112-2.667-.698-3.286-2.883-6.259-22.096-1.332-8.614-2.65-14.244-3.33-14.236-.619.008-4.275 6.079-8.125 13.492-3.85 7.413-7.225 13.474-7.5 13.47-.275-.005-3.614-6.076-7.419-13.492-3.806-7.416-7.518-13.484-8.25-13.484-.732 0-1.337.338-1.344.75m70.513 24.608c-22.569 22.939-22.412 22.851-44.072 24.614-28.586 2.328-41.423 5.177-54.342 12.063-8.812 4.697-16.924 11.686-21.736 18.728-7.189 10.52-7.832 16.895-2.898 28.737 3.549 8.516 3.458 15.45-.257 19.608l-2.806 3.14.416-6.525c.51-8.004-.966-12.789-5.489-17.795-9.527-10.545-25.601-8.388-32.137 4.313-2.421 4.704-4.179 5.41-4.179 1.678 0-1.08 1.387-4.991 3.082-8.691 2.863-6.249 3.056-7.376 2.71-15.83-.317-7.776-.837-10.047-3.567-15.592-1.757-3.569-5.015-8.558-7.239-11.084-6.534-7.424-9.554-8.781-23.02-10.346-22.761-2.644-26.873-5.56-50.966-36.142-3.937-4.997-6.627-7.658-6.822-6.747-.534 2.486 2.619 11.963 6.265 18.837 1.885 3.552 3.209 7.295 2.944 8.317-.724 2.791 2.148 9.957 6.206 15.486 2.189 2.982 3.367 5.536 2.997 6.5-1.078 2.809 1.343 9.109 5.543 14.422 2.249 2.846 4.502 6.666 5.005 8.49 1.418 5.135 7.017 12.799 10.564 14.461 2.513 1.177 3.684 2.778 5.44 7.431 1.231 3.262 3.509 7.38 5.063 9.15l2.826 3.219-8.265 2.963c-4.546 1.63-10.516 3.707-13.266 4.616-2.75.909-6.8 2.686-9 3.948-3.76 2.158-3.988 2.552-3.801 6.582.109 2.357.851 5.282 1.648 6.498.812 1.24 1.223 3.393.934 4.902-.579 3.029.115 3.251 3.719 1.191 1.375-.786 2.774-1.445 3.11-1.465.335-.019 5.257 9.888 10.936 22.016 9.142 19.52 10.794 22.394 14.391 25.046l4.063 2.995.296-4.863c.276-4.53-.496-6.344-11.25-26.45-6.35-11.873-11.546-21.801-11.546-22.062 0-.261 1.35-1.034 3-1.717 3.422-1.417 3.759-2.468 1.25-3.897-1.395-.794-1.524-1.362-.633-2.8 2.811-4.537 32.089.353 45.383 7.579.825.449 2.026 1.896 2.669 3.217 1.162 2.389 5.241 17.628 7.403 27.663.781 3.628 2.534 7.043 5.645 11 8.77 11.154 9.511 17.17 3.368 27.356-5.28 8.754-6.95 15.292-7.295 28.564-.289 11.154-.283 11.189 2.622 14.224 1.602 1.673 6.327 4.448 10.5 6.165 8.951 3.684 9.382 4.073 11.017 9.929 1.801 6.455 8.609 13 13.521 13 3.5 0 1.049-12.64-3.39-17.486-1.014-1.108-2.171-3.589-2.57-5.514-1.197-5.767-2.345-7.253-5.072-6.569-2.087.524-2.418.256-2.418-1.962 0-1.412-.712-3.944-1.581-5.626-2.08-4.021-1.279-6.728 3.687-12.465 2.252-2.603 4.808-6.227 5.68-8.055 1.971-4.133 2.854-4.162 5.011-.167.936 1.736 3.576 5.957 5.865 9.381 3.895 5.826 7.066 14.748 7.806 21.963.169 1.65.64 4.032 1.047 5.293.545 1.686.376 2.215-.637 2-1.06-.225-1.403 1.325-1.485 6.707-.059 3.85-.622 8.267-1.25 9.815-1.515 3.732-1.447 7.887.165 10.091 1.235 1.689 1.478 1.645 4.377-.795 3.547-2.984 5.724-9.916 4.748-15.117-.609-3.244-.433-3.477 4.861-6.465 7.526-4.247 8.656-7.107 5.837-14.78-1.737-4.729-2.069-7.633-1.871-16.369l.24-10.621-7.814-15.379c-7.216-14.204-7.815-15.85-7.83-21.524-.018-6.722 2.352-12.961 4.437-11.678 7.097 4.372 14.06 10.105 15.38 12.665.895 1.736 3.17 5.179 5.054 7.651 2.65 3.477 3.295 5.117 2.849 7.25l-1.178 5.64c-.495 2.373.058 3.615 3.116 7 2.046 2.264 4.484 4.116 5.42 4.116 1.181 0 2.22 1.649 3.4 5.392 1.621 5.141 4.068 8.539 5.278 7.33.31-.31.811-3.29 1.113-6.623.527-5.815.406-6.233-3.006-10.397l-3.555-4.338.547-7.982c.718-10.473-1.267-17.432-6.964-24.416-2.336-2.864-4.864-6.39-5.617-7.837-.754-1.446-3.265-4.654-5.58-7.129-2.316-2.475-4.903-6.356-5.75-8.625l-1.541-4.125 5.204-3.505c2.862-1.927 6.291-3.834 7.62-4.236 6.007-1.818 9.129-4.015 11.531-8.113 1.4-2.388 2.847-4.302 3.215-4.251 4.132.566 10.46-4.46 12.181-9.676.925-2.801 1.896-3.66 5.287-4.676 5.55-1.663 11.153-7.457 13.389-13.847.998-2.85 2.489-5.402 3.314-5.671.825-.27 3.841-1.589 6.701-2.933 5.603-2.63 11.546-9.487 12.894-14.876.428-1.71 3.423-5.558 7.074-9.088 5.176-5.004 6.331-6.704 6.331-9.315 0-1.757-.431-3.999-.957-4.983-.752-1.404-.295-2.409 2.129-4.684 7.537-7.074 10.924-14.9 7.799-18.025-.705-.705-.433-1.79.862-3.45 4.6-5.891 8.321-14.014 8.874-19.371.315-3.052.172-5.539-.317-5.526-.49.013-9.44 8.713-19.89 19.334m-107.392-10.259a1865.25 1865.25 0 0 0-2.803 6.651c-.376.907.914 1.25 4.696 1.25 4.99 0 5.19-.103 4.62-2.374-.328-1.305-1.413-4.298-2.412-6.651l-1.817-4.277-2.284 5.401m-44.107 91.024c-3.227 1.287-6.819 4.663-8.596 8.077-3.009 5.783-.854 6.478 4.03 1.3 3.229-3.424 5.506-4.135 11.491-3.59 7.022.64 12.064 6.606 12.07 14.281.004 5.075 1.406 7.168 2.377 3.548 4.036-15.059-8.393-28.791-21.372-23.616"/></svg>