<svg xmlns="http://www.w3.org/2000/svg" width="216.8" height="247.683" viewBox="0 0 57.362 65.533"><path d="M61.965.719c-1.25 0-6.608 3.57-6.608 3.57l13.75 3.395S63.215.719 61.965.719zM5.893 16.79.715 19.646l6.07 8.573L20 31.969l2.143-2.678-16.25-12.5z" style="fill:#cdde87;stroke:#000;stroke-width:.99999994px;stroke-linecap:butt;stroke-linejoin:miter;stroke-opacity:1;fill-opacity:1" transform="scale(.26458)"/><path d="M-164.532 309.893s22.207 5.103 22.585 4.82c.377-.284 11.103-11.293 11.103-11.293l-.284-3.921-2.41-2.504s.19-2.362-.047-2.362c-.236 0-1.37-.19-1.37-.19l-.52-8.362s4.961 2.74 5.67 2.74c.709 0 3.874.378 3.874.378l2.08-2.126.944-5.197-4.063-11.056-1.418-2.032-.756-2.504-2.031 1.418-3.071.094.425 3.024s-.52 1.795-.898 1.606c-.378-.189-9.024-3.874-9.024-3.874l-6.284.19s-5.055 3.732-5.386 3.968c-.33.236-5.244 2.976-5.244 2.976l-4.253 1.276-3.401 5.764-.048 3.071-.708 1.087.283 2.126s-2.74 7.701-2.74 7.89c0 .19.142 7.418.142 7.418l2.74 3.59z" style="fill:#cdde87;stroke:none;stroke-width:.26458332px;stroke-linecap:butt;stroke-linejoin:miter;stroke-opacity:1" transform="translate(179.84 -249.51)"/><path d="M-164.39 293.735c.284-.33.709-1.181.898-1.229a64.06 64.06 0 0 1 1.606-.283l.85 3.402-.708 1.842s-1.606.331-1.654 0c-.047-.33-.236-2.504-.236-2.504z" style="fill:#ccc;stroke:none;stroke-width:.26458332px;stroke-linecap:butt;stroke-linejoin:miter;stroke-opacity:1" transform="translate(179.84 -249.51)"/><path d="m190.893 16.434-5 .177-2.858 5.535-6.25-.892-6.07 6.43-9.287 6.785 2.857 18.75 6.43 8.57 2.142 6.965 9.465.357 8.75-5.892-1.43-5.178s9.645-9.823 10.18-10.895c.536-1.07 1.428-17.855 1.428-17.855l10.535-2.322v-3.75l-7.678-2.858-7.68 2.143-5.534-6.07zm-95.536 7.5c-1.785 0-71.785.177-71.785.177l-2.5 22.858 12.856 20.357-.893 4.643-4.82 4.285 2.857 3.215 7.32-.18 3.573 2.857-2.143 5.538 3.75 2.677 1.963 8.393 4.643.892 11.607 2.143s20.001-7.677 21.43-7.855c1.428-.179 30-23.93 30-23.93s3.393-12.143 2.5-12.5c-.893-.357-13.75-10.535-13.75-10.535s-4.822-23.035-6.608-23.035zm82.678 132.32-7.857 1.25c0 1.25-1.249 13.215-.356 13.215.893 0 5.535-.18 5.535-.18l1.07 8.395 7.858 10.355 6.43-6.605s4.642-11.072 5.535-11.608c.893-.536 5.357-5.535 4.643-5.892-.715-.358-9.465-6.25-9.465-6.25l-13.393-2.68z" style="fill:#f4d7d7;stroke:none;stroke-width:.99999994px;stroke-linecap:butt;stroke-linejoin:miter;stroke-opacity:1" transform="scale(.26458)"/><path d="M-164.72 270.3c.33 0 1.559.19 1.559.19l1.039-1.324-1.606-.378z" style="fill:#d35f5f;stroke:none;stroke-width:.26458332px;stroke-linecap:butt;stroke-linejoin:miter;stroke-opacity:1" transform="translate(179.84 -249.51)"/><path d="M-617.559 943.033c-1.463-.027-2.987.322-4.44 1.072-1.69.874-3.077 1.915-3.081 2.313-.005.398-2.718 1.57-6.03 2.602-3.36 1.047-8.207 3.618-10.972 5.82-2.724 2.169-5.356 3.694-5.85 3.389-.493-.305-5.79-.599-11.77-.653-11.302-.102-17.864 1.317-19.724 4.266-2.154 3.415 8.458 12.979 15.963 14.387l3.254.61-.172 7.653c-.207 9.205 1.893 14.279 8.752 21.15 5.33 5.34 5.803 8.242 1.629 9.971-4.008 1.66-4.444 3.525-1.553 6.645 1.99 2.147 3.028 2.525 5.547 2.021 1.704-.34 3.971-.151 5.04.42 1.757.94 1.802 1.24.466 3.147-1.658 2.367-.535 5.797 1.9 5.797 1.033 0 1.258.884.856 3.365-.484 2.979-.13 3.683 3.066 6.12 2.95 2.25 3.884 2.53 5.096 1.524.867-.719 2.555-.963 4.059-.586l2.574.645-4.516 5.023c-7.086 7.882-10.107 14.95-10.107 23.647 0 4.869-.41 7.396-1.25 7.719-1.51.579-1.692 7.543-.198 7.543.58 0-.364 2.584-2.097 5.742-5.007 9.123-9.016 25.645-9.645 39.758-.503 11.286-.385 12.338 1.994 17.687 3.351 7.532 9.905 13.634 20.09 18.703 6.83 3.4 8.814 4.946 11.364 8.863 3.257 5.006 8.947 11.247 10.253 11.247.076 0 .16.038.243.072h114.093c-.035-.841.62-2.46 2.075-5.157 1.606-2.979 3.333-5.693 3.836-6.029 1.023-.685.478-9.301-.784-12.387-.45-1.1-2.533-4.553-4.63-7.673l-3.815-5.674 2.475-4.326c2.629-4.6 3.171-9.922 1.468-14.4-.797-2.097-.69-3.069.475-4.317 4.635-4.97 7.64-9.162 7.143-9.967-.312-.504.103-1.473.921-2.152.82-.68 1.489-1.836 1.489-2.569 0-.732 1.157-2.487 2.57-3.9 3.066-3.066 2.838-5.892-.516-6.367-1.334-.19-3.624-1.627-5.09-3.196-1.865-1.997-3.292-2.686-4.761-2.302-1.153.301-4.146-.233-6.65-1.19-3.103-1.185-5.938-1.55-8.899-1.144l-4.346.595.203-6.709c.112-3.69.267-6.865.346-7.054.08-.19 2.174.844 4.656 2.299 11.234 6.583 25.068 9.85 30.288 7.15 5.284-2.733 9.36-11.51 10.964-23.604.778-5.86.576-7.333-2.062-14.986-1.61-4.667-3.996-10.706-5.305-13.418-1.308-2.712-3.506-8.628-4.885-13.146-1.776-5.824-3.198-8.67-4.886-9.776-1.696-1.11-2.582-2.893-3.076-6.19-.382-2.545-1.563-5.495-2.624-6.556-2.532-2.533-2.433-4.378.354-6.605 1.254-1.003 3.588-3.55 5.186-5.66 2.698-3.567 2.892-4.412 2.732-11.95-.19-8.893.252-9.672 5.48-9.699 3.09-.015 6.32-2.138 6.32-4.152 0-4.593-7.667-8.071-12.958-5.88-2.821 1.17-3.27 1.061-5.707-1.376-1.456-1.455-3.735-2.92-5.065-3.254-3.364-.844-7.27 1.14-7.27 3.693 0 1.702-.416 1.963-2.25 1.407-2.956-.896-2.956-.895-5.075.027-1.005.437-2.207 1.795-2.672 3.017-.525 1.38-2.015 2.456-3.924 2.838-1.795.36-3.078 1.241-3.078 2.116 0 .824-1.343 2.193-2.985 3.043-3.472 1.795-4.561 4.938-3.07 8.86.58 1.528 1.055 4.117 1.055 5.753 0 3.532 3.246 10.354 6.666 14.008 1.776 1.897 2.708 4.462 3.402 9.365.526 3.714 1.205 7.153 1.508 7.643.303.49 0 2.415-.674 4.277l-1.225 3.385-5.087-3.092c-2.8-1.7-5.315-3.4-5.59-3.778-.835-1.147-18.183-6.665-26.082-8.294-4.57-.943-9.597-1.304-13.096-.942l-5.68.588 1.49-4.322c.82-2.378 1.246-5.29.95-6.471-.925-3.685-4.71-7.598-9.219-9.531-2.96-1.27-4.156-2.312-3.78-3.295.304-.791-.265-2.049-1.265-2.793-1.093-.815-1.947-2.947-2.142-5.354-1.15-14.186-11.786-26.729-25.676-30.277-3.083-.787-5.682-2.198-6.78-3.678-1.496-2.017-3.768-3.108-6.207-3.154zm-1.013 2.612c1.31 0 2.66.45 3 1 .368.596-.843.998-3 .998-2.158 0-3.369-.402-3-.998.34-.55 1.69-1 3-1zm127.037 15.49c.82-.047 1.712.106 2.467.51 4.12 2.204 5.953 6.533 7.123 16.822l1.14 10.039-5.658 6.816c-4.69 5.651-5.557 7.278-5.066 9.51.491 2.238.115 2.931-2.227 4.117-1.549.785-4.506 1.733-6.572 2.108-3.414.618-3.848.441-4.75-1.932-.546-1.436-.994-2.977-.994-3.424 0-.447-.735-1.423-1.635-2.17-2.922-2.424-6.365-8.776-6.365-11.742 0-1.592-.681-4.825-1.514-7.185-1.486-4.212-1.228-7.96.547-7.96.494 0 2.435-1.35 4.314-3 1.88-1.65 4.137-3 5.016-3 .88 0 1.882-1.124 2.227-2.5.433-1.726 1.314-2.5 2.845-2.5 1.22 0 3.273 1.126 4.565 2.5 2.383 2.538 5 3.323 5 1.5 0-.55.928-1 2.06-1 1.228 0 1.788-.439 1.387-1.087-.37-.602-1.527-.863-2.572-.59-1.796.47-3.875-1.758-3.875-4.15 0-.968 1.17-1.604 2.537-1.682zm-183.5.73c1.034.045 1.963 1.004 1.963 2.317 0 1.236 2.305 2.818 10.13 6.949 1.03.543 1.87 1.33 1.87 1.75 0 1.495-3.56.606-7.25-1.81-2.063-1.351-3.75-2.9-3.75-3.442 0-.542-.66-.984-1.465-.984-1.883 0-3.933-3.638-2.537-4.5a1.81 1.81 0 0 1 1.039-.28zm198.207 3.969c1.316-.049 2.965.383 4.781 1.322 1.738.9 3.007 1.765 2.818 1.922-.188.157-2.735.557-5.658.887-5.06.572-5.3.493-5-1.611.228-1.6 1.367-2.457 3.059-2.52zm-131.39 3.021c7.872.09 15.165.676 18.464 1.717 3.181 1.004 3.616 1.447 2.608 2.662-1.671 2.013-.357 3.01 1.718 1.303 1.546-1.272 1.638-1.105 1.041 1.908-.361 1.826-.262 3.057.225 2.756 1.198-.74 2.07 1.807 1.441 4.211-.344 1.316.336 2.628 2.069 3.99 3.27 2.573 3.235 2.861-.42 3.592-1.846.37-3 1.22-3 2.213 0 1.331.708 1.493 4.054.928 3.394-.574 4.705-.255 8.041 1.953 6.55 4.335 7.213 9.468 2.137 16.556-3.048 4.257-6.971 7.943-14.232 13.375-3.025 2.263-5.725 4.344-6 4.624-1.342 1.365-11.088 6.823-15.711 8.798-5.953 2.543-17.287 4.12-17.287 2.405 0-.596.45-1.362 1-1.702.55-.34 1-1.11 1-1.712 0-.603-.906-.278-2.012.722-1.231 1.115-3.654 1.852-6.25 1.905-3.923.079-4.225-.101-4.06-2.415.097-1.375.496-3.786.886-5.359.69-2.78.622-2.84-2.428-2.17-2.705.594-3.136.411-3.136-1.324 0-1.132.872-2.288 1.994-2.645 1.097-.348 2.677-1.317 3.514-2.154 1.076-1.077 3.872-1.568 9.564-1.683 7.268-.148 8.22-.4 9.89-2.616 1.59-2.108 2.075-2.263 3.467-1.107 2.134 1.77 3.243.575 1.463-1.576-2.427-2.934-11.09-6.344-16.142-6.356-2.613-.01-4.75.44-4.75.99s1.316 1 2.925 1c2.88 0 2.834.09-3.005 5.659-5.647 5.385-6.064 5.598-8.666 4.412-2.616-1.192-2.654-1.306-.842-2.631 1.686-1.233 1.716-1.453.27-2.008-.932-.357-2.748.262-4.26 1.451-1.988 1.564-3.09 1.832-4.475 1.09-3.117-1.668-3.103-2.768.055-4.633 1.67-.987 2.834-2.324 2.586-2.97-.248-.647.144-1.989.87-2.983 1.097-1.5 1.74-1.616 3.774-.69 3.146 1.434 6.278-.138 3.518-1.765-2.01-1.184-2.364-3.947-.5-3.9.687.017 2.122.692 3.19 1.5 2.477 1.875 3.652 1.875 2.933 0-.31-.809-2.055-2.01-3.877-2.668-3.173-1.147-4.496-3.645-4.496-8.487 0-2.148 3.357-1.621 7.476 1.174 4.534 3.077 6.15 2.25 2.217-1.134-2.031-1.749-4-2.415-7.129-2.415-3.84 0-4.459.328-5.54 2.94-.67 1.617-.951 3.37-.626 3.896.984 1.593-.554 7.164-1.978 7.164-2.266 0-11.138-11.867-11.766-15.738-.872-5.373.294-12.22 1.97-11.576.757.29 1.376.03 1.376-.578 0-.609-.666-1.108-1.479-1.108-1.213 0-1.275-.447-.344-2.492.84-1.84 1.463-2.22 2.39-1.45.815.677 1.467.694 1.864.052.336-.543-.132-1.403-1.039-1.91-3.038-1.7.415-2.381 6.096-1.202 4.433.92 7.337.821 15.422-.53 5.617-.94 14.069-1.346 21.941-1.257zm110.43.926a6.74 6.74 0 0 0-1.024.047c-1.727.2-2.873 1.007-3.096 2.182-.241 1.27.075 1.668.992 1.25.74-.338 2.131-.893 3.094-1.233 2.41-.85 2.166-2.165.035-2.246zm-104.671.207c-.359-.06-.613.16-.613.596 0 .582.45 1.06 1 1.06s1-.198 1-.44c0-.243-.45-.72-1-1.06a1.09 1.09 0 0 0-.387-.156zm-45.113 2.655c-.89 0-1.34.45-1 1 .34.55.79 1 1 1 .21 0 .66-.45 1-1 .34-.55-.11-1-1-1zm39.5 0c-.55 0-1 .45-1 1s.45 1 1 1 1-.45 1-1-.45-1-1-1zm8.658.4c-.43-.052-.887.165-1.147.584-.345.559.073 1.018.93 1.018 1.757 0 2.016-.6.63-1.458a1.013 1.013 0 0 0-.413-.144zm7.994 0a1.12 1.12 0 0 0-.736.154 1.118 1.118 0 0 0-.364 1.534c.322.52 1.013.683 1.534.36.52-.321.683-1.011.361-1.532a1.108 1.108 0 0 0-.795-.516zm-60.71 2.602c-.583 0-.782.45-.442 1s.818 1 1.06 1c.243 0 .44-.45.44-1s-.476-1-1.059-1zm48.558 0c-.89 0-1.34.45-1 1 .34.55.79 1 1 1 .21 0 .66-.45 1-1 .34-.55-.11-1-1-1zm-44.877.388c-.365.012-.623.41-.623 1.053 0 1.756.6 2.014 1.457.627.316-.512.12-1.213-.44-1.559a.71.71 0 0 0-.394-.12zm49.017.754c-.726.07-.607.498-.28 1.348.379.99-.225 1.688-1.8 2.084-1.303.327-3.36 1.647-4.568 2.933-2.043 2.175-2.101 2.61-.844 6.166l1.352 3.827.312-3.756c.25-3.013.907-4.065 3.328-5.317l3.02-1.56-2.26 3.054c-1.242 1.68-1.947 3.365-1.568 3.745.379.379 1.307-.157 2.062-1.19.938-1.282 2.521-1.847 4.99-1.777 2.923.083 3.616-.26 3.616-1.797 0-1.454-.72-1.902-3.059-1.902-3.551 0-3.158-1.535.576-2.249 3.905-.746 6.685 3.241 5.248 7.532-.592 1.769-1.27 5.77-1.505 8.892-.458 6.057-1.885 7.631-5.272 5.819-1.173-.629-2.085-.646-2.455-.047-.324.524.428 1.495 1.67 2.16 1.241.664 2.885 1.836 3.652 2.603 2.068 2.069 5.586 1.207 5.965-1.46.176-1.238-.162-2.25-.75-2.25-1.56 0-1.246-8.07.43-11 .786-1.376 1.446-3.937 1.465-5.692.02-1.755.493-3.473 1.052-3.818 1.462-.904.05-2.73-1.617-2.09-.985.378-1.403-.267-1.414-2.182-.009-1.558-.331-2.223-.754-1.558-.52.817-2.07.905-5.236.295-3.058-.59-4.63-.882-5.356-.813zm-9.988.256a1.12 1.12 0 0 0-.736.154 1.118 1.118 0 0 0-.364 1.534c.322.52 1.013.683 1.534.36.52-.321.683-1.011.361-1.532a1.108 1.108 0 0 0-.795-.516zm-5.71 1.602c-.518 0-.942.45-.942 1s.703 1 1.56 1c.858 0 1.28-.45.94-1-.34-.55-1.041-1-1.559-1zm6.163 2.228c-.438.013-1.118.244-2.02.727-2.145 1.148-2.588 2.208-1.413 3.382.369.37 1.54-.259 2.601-1.398 1.594-1.711 1.797-2.738.832-2.711zm-8.152.772c-1.174 0-2.024 1.595-1.258 2.36 1.263 1.264 3.239.626 2.668-.86-.317-.825-.951-1.5-1.41-1.5zm-19.049 1c-2.55 0-4.787 1.053-9.728 4.584-.18.127 0 2.409.4 5.07.664 4.43.806 4.627 1.678 2.342 2.032-5.331 2.278-5.498 8.12-5.471 5.546.025 7.14-.73 4.046-1.918-2.831-1.086-7.993-.64-9.979.861-3.194 2.416-3.937 1.721-1.035-.968 1.793-1.662 3.854-2.5 6.146-2.5 1.897 0 3.448-.45 3.448-1s-1.393-1-3.096-1zm20.25 3.257c-.615-.088-1.154.276-1.154 1.159 0 .87.713 1.584 1.584 1.584.87 0 1.405-.535 1.187-1.188-.309-.927-1.002-1.467-1.617-1.555zm4.787.743c-.517 0-.941.45-.941 1s.703 1 1.56 1c.858 0 1.28-.45.94-1-.34-.55-1.041-1-1.559-1zm15.092 2c-2.481 0-2.592.87-.32 2.53 1.514 1.108 1.543 1.458.25 3.024-1.244 1.506-1.248 1.7-.034 1.3 3.808-1.26 3.892-6.854.104-6.854zm2 20.06c-.55-.01-1.033 1.272-1.033 3.625 0 2.438-.762 4.505-2.25 6.107-2.14 2.305-2.153 2.406-.25 2.063 2.54-.459 5.378-6.04 4.748-9.338-.319-1.665-.787-2.45-1.215-2.457zm105.254.08c.057-.01.095 0 .111.02.942 1.32 2.575 9.071 2.08 9.872-.338.547-2.365 1.888-4.506 2.98-2.145 1.095-5.875 1.987-8.312 1.987-4.397 0-4.429-.025-5.541-4.443-.615-2.444-1.118-4.807-1.117-5.25 0-.444 2.47-.83 5.488-.86 4.09-.039 6.272-.634 8.576-2.338 1.488-1.1 2.822-1.908 3.22-1.968zm-147.91 6c-.807.048-1.377.348-1.377.79 0 .587.675 1.07 1.5 1.07s1.5.674 1.5 1.5c0 .824.482 1.5 1.07 1.5 2.161 0 .463-4.497-1.82-4.82a4.384 4.384 0 0 0-.873-.04zm76.62 1.633c1.32-.01 2.965.036 5.003.113 9.496.36 21.085 3.897 42.21 12.881 4.648 1.976 6.198 4.816 2.055 3.764-5.022-1.276-25.265-1.838-25.265-.701 0 .577-1.877 1.188-4.172 1.357-2.295.169-4.357.868-4.582 1.553-.319.968 2.002 1.104 10.422.613 5.957-.348 11.36-1.046 12.006-1.553 1.488-1.17 13.534.926 14.556 2.533.407.64.73 2.738.723 4.663-.013 2.688-.849 4.31-3.608 7-4.095 3.99-9.042 13.701-7.675 15.068.527.527 1.704-.639 2.861-2.836 1.08-2.053 2.615-4.407 3.41-5.232 1.276-1.323 1.355-1.264.668.5-1.85 4.75-1.848 8.668.004 12.535 2.246 4.688 3.816 5.193 2.879.926-1.21-5.512-1.07-18.16.22-19.854.998-1.31 1.23-.08 1.257 6.643.017 4.537.419 8.25.892 8.25 2.23 0 3.352-21.717 1.73-33.508l-.824-6.006 6.868.012c5.663.01 7.459-.417 10.248-2.406 4.41-3.146 6.345-1.975 7.46 4.51.758 4.402 5.795 17.875 9.124 24.402 3.135 6.148 4.675 19.72 3.064 27-1.22 5.508-4.288 10.784-6.764 11.627-3.962 1.349-12.001.343-18.74-2.344-10.781-4.3-26.94-13.107-36.972-20.15-5.196-3.648-10.097-7.028-10.89-7.51-4.497-2.737 6.278 7.873 12.526 12.334 2.011 1.435 3.674 3.616 4 5.246.664 3.32 7.482 9.797 10.313 9.797 1.79 0 1.996.67 1.996 6.45 0 3.549.488 8.723 1.084 11.5.595 2.779.927 5.52.736 6.093-.394 1.182-11.132-6.49-11.672-8.338-.193-.663-4.234-4.88-8.98-9.371-9.065-8.578-13.512-10.417-5.96-2.465 2.42 2.547 5.008 5.857 5.75 7.355 1.8 3.626 12.47 12.599 17.82 14.985 2.368 1.056 5.156 1.63 6.25 1.283 1.677-.532 1.972-.158 1.972 2.506 0 3.739 1.217 6.217 5.556 11.316 3.329 3.911 4.94 8.951 4.506 14.096-.482 5.713-7.593 13.683-13.9 15.58-1.464.44-3.562 1.14-4.662 1.553-1.33.5-.682-.63 1.935-3.377 2.165-2.271 3.625-4.44 3.245-4.82-.38-.38-2.75 1.457-5.266 4.083-5.685 5.934-16.748 11.283-25.05 12.114l-5.864.586 4-2.504c5.492-3.438 7.084-4.93 5.732-5.381-.605-.202-3.379 1.199-6.162 3.113-4.782 3.29-10.606 5.441-11.719 4.328-.278-.278 1.78-2.002 4.573-3.83 2.792-1.828 5.076-3.668 5.076-4.09 0-1.074-1.412-.953-2.586.221-2.101 2.101-13.132 8.264-17.399 9.72-5.685 1.942-17.93 3.002-24.83 2.151-5.06-.624-8.321-1.857-4.91-1.857.884 0 1.884-.449 2.223-.996.403-.652-2.601-.765-8.692-.326-18.953 1.365-19.56 1.287-27.306-3.545-7.836-4.889-14.943-11.269-17.08-15.334-1.954-3.715-1.864-19.347.164-28.8.885-4.124 3.216-12.778 5.181-19.23 3.082-10.117 3.407-12.096 2.362-14.39-1.045-2.294-.938-2.952.78-4.78 1.634-1.74 1.844-2.775 1.165-5.783-.454-2.014-.486-4.035-.07-4.49.416-.455 1.314-2.626 1.996-4.826 1.51-4.873 6.546-14.158 9.398-17.326l2.094-2.325 1.342 11.825c.738 6.503 1.442 15.65 1.564 20.326.207 7.902 1.713 13 3.844 13 1.124 0 .922 3.781-.24 4.5-.55.34-1 1.448-1 2.465 0 1.354.533 1.708 2 1.324 1.1-.288 2-.071 2 .482 0 .553-1.579 1.302-3.508 1.664-2.166.407-4.14 1.624-5.162 3.184-1.557 2.377-1.538 2.777.332 6.705 1.439 3.02 1.792 5.095 1.275 7.5-.528 2.457-.34 3.467.72 3.873 1.48.568 8.222-.243 9.071-1.092.265-.264 1.09-3.68 1.834-7.588 1.32-6.93 1.098-8.874-1.496-13.017-1.287-2.056-4.07-8.173-4.05-8.905.007-.328.45.08.984.905.533.825.977 1.021.984.437.008-.584.912-2.022 2.006-3.197 1.094-1.175 2.554-4.296 3.244-6.937 1.234-4.725 3.464-9.314 11.143-22.93 3.788-6.717 11.795-22.637 16.66-33.123 2.194-4.728 2.753-5.25 5.627-5.25 3.261 0 7.336-3.686 7.336-6.635 0-1.133 1.039-1.571 4.998-1.588zm-55.806 2.226c1.432 0 .863 1.766-.771 2.393-2.85 1.093-3.96.573-1.979-.926 1.068-.807 2.305-1.467 2.75-1.467zm19.95 4.05c-.503.012-.891.861-.891 2.435 0 3.518-2.893 7.496-6.323 8.691-1.608.561-2.686 1.407-2.394 1.88.593.958 2.876.29 6.13-1.79 2.7-1.725 5.55-7.549 4.735-9.674-.405-1.055-.867-1.553-1.258-1.543zm-15.036 1.206c-.47.037-1.068.299-1.597.739-.848.703-3.333 1.279-5.524 1.279-3.875 0-5.26 1.045-2.734 2.064 2.752 1.11 6.654.561 8.89-1.252 1.299-1.052 2.034-2.242 1.635-2.642-.15-.15-.387-.21-.67-.188zm31.332 3.989c.082-.01.143 0 .176.035.44.44-8.312 18.032-20.006 40.22-5.607 10.64-6.2 11.36-7.074 8.604-.749-2.36-4.359-3.615-7.865-2.734-1.484.372-2.351.14-2.385-.641-.028-.675-.555-5.04-1.168-9.701-1.474-11.203-1.43-17.003.135-17.432.687-.189 3.725-.91 6.75-1.603 3.025-.694 7.525-2.39 10-3.768a711.508 711.508 0 0 1 9-4.91c2.475-1.323 6.217-3.779 8.316-5.46 1.837-1.47 3.546-2.542 4.121-2.61zm-9.78 9.476c-.513.022-2.178 1.383-5.14 4.09-3.016 2.756-7.403 5.691-9.75 6.521-3.763 1.332-3.94 1.52-1.484 1.59 4.245.12 12.222-4.385 14.613-8.254 1.639-2.65 2.276-3.969 1.762-3.947zm-26.056 11.963c-1.06.01-.617 1.192 1.621 2.76 2.401 1.682 7.07 1.934 10.278.556 1.544-.663 1.02-.875-2.3-.93-2.364-.038-5.626-.756-7.25-1.595-1.074-.556-1.867-.795-2.349-.791zm60.463 5.951c-.224.01-.393.09-.494.252-.346.56 1.747 2.58 4.65 4.492 5.928 3.902 8.582 4.799 4.164 1.407-1.586-1.219-3.11-2.456-3.384-2.75-1.957-2.092-3.964-3.436-4.936-3.4zm-3.512 3.485c-.439.022-.552.496-.552 1.38 0 .825.404 1.5.896 1.5.493 0 1.955 1.162 3.25 2.58 1.295 1.42 3.704 3.442 5.354 4.497 3.548 2.267 8.35 2.486 11.058.505 1.854-1.355 1.806-1.448-1.058-2.07-5.714-1.24-12.013-3.789-15.182-6.144-2.096-1.558-3.2-2.277-3.766-2.248zm-1.7 11.88c-1.143 0-2.852 4.43-2.852 7.393 0 1.944-.421 2.199-3 1.82-2.735-.401-3-.779-3-4.267 0-4.129-1.165-5.669-2.783-3.684-1.032 1.265-1.676 8.257-1.381 14.988.132 3.029.548 3.75 2.164 3.75 1.666 0 2-.666 2-4 0-3.777.166-4 3-4 2.492 0 3 .404 3 2.38 0 2.705 2.64 5.422 3.916 4.029 1.094-1.196.098-18.409-1.065-18.409zm-22.483.276c-1.304-.014-2.324.59-3.818 2.084-2.154 2.153-2.551 3.461-2.551 8.406 0 4.512.468 6.36 2.039 8.047 3.488 3.744 9.96 2.437 9.96-2.012 0-2.453-3.057-2.289-3.708.2-.74 2.825-3.13 2.484-3.893-.555-.873-3.478.06-12.304 1.447-13.692.838-.837 1.73-.562 3.457 1.06 2.69 2.528 3.698 2.749 3.698.81 0-1.81-1.878-3.304-5.205-4.14a6.144 6.144 0 0 0-1.426-.208zm-13.06 1.873a3.45 3.45 0 0 0-.651.045c-2.47.352-7.085 8.91-8.117 15.057-.552 3.282-.385 3.75 1.347 3.75 1.416 0 2.069-.784 2.295-2.75.261-2.266.868-2.805 3.446-3.055 2.637-.257 3.229.097 3.77 2.25.352 1.406 1.358 2.555 2.237 2.555 1.176 0 1.433-.595.973-2.25-.344-1.238-1.34-5.313-2.21-9.057-1.225-5.261-1.712-6.5-3.09-6.545zm-28.29.924c-1.642.07-3.43.726-4.595 2.013-2.699 2.98-2.709 13.83-.018 16.807 3.388 3.748 9.808 1.673 8.133-2.629-.628-1.613-.841-1.574-2.506.467-1.4 1.715-2.057 1.944-2.846.994-3.75-4.518-.78-18.72 3.102-14.838 1.52 1.52 2.713 1.398 2.713-.28 0-1.746-1.871-2.624-3.983-2.534zm12.4 2.066c1.168.042 2.346 1.448 2.993 4.057.656 2.65.513 4.716-.512 7.41-1.39 3.652-3.253 5.3-4.18 3.697-1.2-2.075-1.686-10.261-.753-12.713.643-1.691 1.545-2.484 2.453-2.45zm14.66.967c.543 0 .92.945.92 2.836h.003c0 3.114-.752 4.059-2.678 3.365-.862-.31-.903-1.213-.152-3.365.659-1.89 1.365-2.836 1.908-2.836zm12.175 19.129c-4.362.017-3.467.27.246 1.252l5 1.322-6.602.096c-9.985.145-18.898 1.261-18.898 2.367 0 .94 2.827.818 20.738-.902 3.43-.33 5.992-.998 5.691-1.485-.3-.486.267-.877 1.262-.877 3.041.012 19.62 2.806 22.809 3.844 1.65.538 3.843 1.016 4.873 1.063 2.79.128.294-2.519-3.153-3.342-10.186-2.434-16.134-3.195-25.763-3.295-2.713-.028-4.75-.049-6.203-.043zm-10.254.888c-.635 0-1.269.062-1.75.188-.963.252-.175.457 1.75.457s2.712-.206 1.75-.457c-.482-.126-1.116-.188-1.75-.188zm93.691 4.266c.702.022 1.344.23 1.86.656.577.477 3.052 1.178 5.5 1.557 2.447.378 5.643 1.522 7.103 2.543 1.46 1.02 3.372 1.855 4.25 1.855 1.728 0 1.99.836.828 2.66-.954 1.5-8.204.245-11.656-2.017-3.684-2.414-6.24-2.017-8.734 1.357-4.308 5.827-8.766 1.991-5.258-4.523 1.362-2.53 4.002-4.153 6.107-4.088zm-113.701 4.734c.809.025 1.025 1.046.824 3.127-.24 2.493-.839 3.325-2.568 3.57-3.33.473-4.15-2.668-1.301-4.976 1.428-1.156 2.416-1.74 3.045-1.72zm115.576 6.104c1.75 0 4.322.405 7.934 1.166 3.925.827 6 1.758 6 2.687 0 1.088-1.905 1.489-8.123 1.71-7.7.273-8.153.17-8.711-1.965-.647-2.475-.016-3.599 2.9-3.598zm-113.95 3.773c2.227 0 2.527.337 2.015 2.25-.332 1.238-.61 3.038-.618 4-.009 1.22-.81 1.75-2.638 1.75-2.407 0-2.573-.26-2-3.125.344-1.718.625-3.518.625-4 0-.48 1.178-.875 2.617-.875zm113.7 4.569c.79 0 1.771.112 2.752.334 1.962.442 5 .595 6.75.338 4.188-.615 4.05.499-.285 2.31-1.907.797-3.595 1.388-3.75 1.313-.155-.075-1.408-.343-2.783-.596-3.116-.573-5.343-2.325-4.291-3.377.218-.218.817-.324 1.607-.322zm4.567 6.431c1.1 0 2.277.45 2.617 1 .34.55-.281 1-1.381 1s-2.28-.45-2.62-1c-.34-.55.284-1 1.384-1z" style="fill:#000;stroke-width:.999999" transform="matrix(.26458 0 0 .26458 179.84 -249.51)"/></svg>